<?xml version="1.0" encoding="UTF-8" standalone="no"?>
<!-- Created with Inkscape (http://www.inkscape.org/) -->

<svg
   width="5135.1924mm"
   height="3209.9392mm"
   viewBox="0 0 5135.1925 3209.9392"
   version="1.1"
   id="svg1"
   xml:space="preserve"
   sodipodi:docname="remrin_lockup-light-background.svg"
   inkscape:export-filename="remrin.svg"
   inkscape:export-xdpi="125"
   inkscape:export-ydpi="125"
   inkscape:export-batch-path="remrin/chat/public/logos"
   inkscape:export-batch-name="remrin"
   inkscape:version="1.4.2 (ebf0e940d0, 2025-05-08)"
   xmlns:inkscape="http://www.inkscape.org/namespaces/inkscape"
   xmlns:sodipodi="http://sodipodi.sourceforge.net/DTD/sodipodi-0.dtd"
   xmlns="http://www.w3.org/2000/svg"
   xmlns:svg="http://www.w3.org/2000/svg"><sodipodi:namedview
     id="namedview1"
     pagecolor="#c1c1c1"
     bordercolor="#000000"
     borderopacity="0.25"
     inkscape:showpageshadow="2"
     inkscape:pageopacity="0.0"
     inkscape:pagecheckerboard="0"
     inkscape:deskcolor="#d1d1d1"
     inkscape:document-units="mm"
     inkscape:zoom="0.068073756"
     inkscape:cx="5229.6218"
     inkscape:cy="3356.6533"
     inkscape:window-width="1920"
     inkscape:window-height="1048"
     inkscape:window-x="0"
     inkscape:window-y="0"
     inkscape:window-maximized="1"
     inkscape:current-layer="layer1"
     showgrid="false"><inkscape:page
       x="0"
       y="0"
       width="5135.1924"
       height="3209.9392"
       id="page1"
       margin="0"
       bleed="0" /></sodipodi:namedview><defs
     id="defs1" /><g
     inkscape:label="Layer 1"
     inkscape:groupmode="layer"
     id="layer1"
     transform="translate(3442.0386,2230.5538)"><g
       id="g147"><path
         style="font-size:112.499px;font-family:Monda;-inkscape-font-specification:Monda;opacity:0.968051;fill:#ffffff;fill-opacity:1;stroke-width:3.25643"
         d="m -2084.1521,-1792.1843 h 32.4557 v -142.7505 h -32.4557 z"
         id="path110" /><path
         id="path111"
         style="font-size:112.499px;font-family:Monda;-inkscape-font-specification:Monda;opacity:0.968051;fill:#ffffff;fill-opacity:1;stroke-width:3.25643"
         d="m -2160.9632,-1936.9337 c -35.4307,0 -71.9436,25.1245 -72.214,73.3742 -0.2705,37.1151 22.9895,73.3741 70.0501,73.3741 12.1709,0 25.1531,-2.57 35.7011,-9.7076 v 7.9945 h 32.4553 v -77.9422 c 0,-47.1077 -32.455,-67.093 -65.9925,-67.093 z m -0.8118,31.9762 c 18.3915,0.2855 36.242,13.7046 35.7011,41.6837 -0.2704,20.8416 -11.3592,41.6824 -33.5372,41.6824 -27.5873,0 -41.1109,-21.4123 -41.1109,-42.2539 0,-27.1226 19.7441,-41.3977 38.947,-41.1122 z" /><path
         style="font-size:112.499px;font-family:Monda;-inkscape-font-specification:Monda;opacity:0.968051;fill:#d859a3;fill-opacity:1;stroke-width:3.25643"
         d="m -2279.1564,-1857.7786 c 0,10.849 7.0321,18.272 17.3097,18.272 10.548,0 17.5801,-7.423 17.5801,-18.272 0,-11.1346 -7.0321,-18.2721 -17.5801,-18.2721 -10.2776,0 -17.3097,7.1375 -17.3097,18.2721 z"
         id="path112" /><path
         style="font-size:112.499px;font-family:Monda;-inkscape-font-specification:Monda;opacity:0.968051;fill:#ffffff;fill-opacity:1;stroke-width:3.25643"
         d="m -2352.4523,-1936.9333 c -39.7581,0 -62.477,25.4096 -62.477,67.6638 v 77.0852 h 32.4556 v -81.9388 c 0,-18.843 12.4413,-31.4051 30.0214,-31.4051 17.5801,0 30.0215,12.5621 30.0215,31.4051 v 81.9388 h 32.4556 v -77.0852 c 0,-42.2542 -22.7189,-67.6638 -62.4771,-67.6638 z"
         id="path113" /><path
         style="font-size:112.499px;font-family:Monda;-inkscape-font-specification:Monda;opacity:0.968051;fill:#ffffff;fill-opacity:1;stroke-width:3.25643"
         d="m -2458.4737,-1792.1843 h 32.4556 v -142.7505 h -32.4556 z"
         id="path114" /><path
         style="font-size:112.499px;font-family:Monda;-inkscape-font-specification:Monda;opacity:0.968051;fill:#ffffff;fill-opacity:1;stroke-width:3.25643"
         d="m -2516.6232,-1792.1843 v -99.9253 c 0,-6.8521 3.2456,-11.4201 11.9004,-11.4201 h 35.7012 v -31.4051 h -40.5695 c -25.9647,0 -39.4877,16.2736 -39.4877,38.8281 v 103.9224 z"
         id="path115" /><path
         style="font-size:112.499px;font-family:Monda;-inkscape-font-specification:Monda;opacity:0.968051;fill:#ffffff;fill-opacity:1;stroke-width:3.25643"
         d="m -2689.7198,-1936.9333 c -34.6194,0 -54.3633,25.4096 -54.3633,67.6638 v 77.0852 h 32.4556 v -85.9358 c 0,-18.8431 10.8186,-27.4081 21.9077,-27.4081 10.8186,0 21.637,8.565 21.637,27.4081 v 85.9358 h 32.1851 v -85.9358 c 0,-18.8431 10.8186,-27.4081 21.9077,-27.4081 10.8186,0 21.637,8.565 21.637,27.4081 v 85.9358 h 32.4556 v -77.0852 c 0,-42.2542 -19.4735,-67.6638 -54.0926,-67.6638 -15.9574,0 -28.6691,5.4245 -37.865,15.4171 -8.9253,-9.9926 -21.9075,-15.4171 -37.8648,-15.4171 z"
         id="path116" /><path
         id="path117"
         style="font-size:112.499px;font-family:Monda;-inkscape-font-specification:Monda;opacity:0.968051;fill:#ffffff;fill-opacity:1;stroke-width:3.25643"
         d="m -2824.1403,-1937.7896 c -49.7654,0 -71.6723,36.8292 -71.6723,73.9443 0,37.1151 21.9069,73.9457 71.6723,73.9457 39.7582,0 61.9363,-23.6971 68.9684,-52.2472 h -34.0791 c -5.95,11.991 -17.8501,20.8412 -34.8893,20.8412 -22.1781,0 -34.8901,-14.8461 -38.6766,-31.9762 h 106.8331 c 0.2697,-3.426 0.8119,-7.1375 0.8119,-10.5635 0,-37.1151 -21.9077,-73.9443 -68.9684,-73.9443 z m 0,31.4047 c 17.0392,0 28.6688,10.5637 33.8076,24.5533 h -70.3204 c 5.4092,-13.7041 17.5803,-24.5533 36.5128,-24.5533 z" /><path
         style="font-size:112.499px;font-family:Monda;-inkscape-font-specification:Monda;opacity:0.968051;fill:#ffffff;fill-opacity:1;stroke-width:3.25643"
         d="m -2950.9872,-1792.1843 v -99.9253 c 0,-6.8521 3.2456,-11.4201 11.9004,-11.4201 h 35.7012 v -31.4051 h -40.5697 c -25.9644,0 -39.4875,16.2736 -39.4875,38.8281 v 103.9224 z"
         id="path118" /><g
         id="g182"
         transform="matrix(0.83092212,0,0,0.83092212,-2954.0504,-1279.1995)"
         style="fill:#1a1825;fill-opacity:1"><path
           id="path179"
           style="opacity:1;fill:#1a1825;fill-opacity:1;stroke-width:1.05027"
           d="m -379.65994,-1057.574 205.64824,118.82238 100.514339,105.21186 c -11.52189,25.14564 -40.947319,75.15189 -137.048219,44.8089 13.08656,41.93859 53.99768,153.90207 58.75782,168.76976 l -46.52173,-0.26041 -30.28354,-92.25986 h -25.70705 c 1.26918,-32.68478 -12.78321,-70.75221 -52.46851,-84.51208 29.54866,24.04588 55.45316,57.97369 16.19923,118.31771 56.98889,6.03758 64.4018,33.05033 73.94781,59.1599 l -159.16552,-0.70567 -59.51064,-63.73638 c 4.78822,-81.57605 27.19039,-172.69409 167.26407,-165.85482 -2.37853,-23.93494 3.48566,-58.01188 51.76491,-73.2442 l -150.01051,-90.85279 c -6.67648,-6.4203 -13.19131,-29.0654 -13.3807,-43.6643 z m 192.26547,155.64345 c -2.76044,9.91782 -9.08403,38.95444 9.86069,55.63779 10.14942,9.75326 28.85532,14.2288 52.11564,9.86064 z" /><path
           style="opacity:1;fill:#1a1825;fill-opacity:1;stroke-width:1.05027"
           d="m -138.9841,-913.10126 -27.62307,-32.13911 -180.48446,-118.91593 c 22.31418,0.1532 32.0116,-5.0561 50.85783,4.6339 l 137.90119,96.69965 z"
           id="path180"
           sodipodi:nodetypes="cccccc" /><path
           style="opacity:1;fill:#1a1825;fill-opacity:1;stroke-width:0.951049"
           d="m -108.51158,-880.96699 -22.20883,-23.92309 58.599329,-23.28845 z"
           id="path181"
           sodipodi:nodetypes="cccc" /><ellipse
           style="opacity:1;fill:#1a1825;fill-opacity:1;stroke-width:0.82575"
           id="ellipse181"
           cx="450.89233"
           cy="-648.02417"
           rx="28.80806"
           ry="27.614826"
           transform="scale(-1,1)" /><path
           style="opacity:1;fill:#1a1825;fill-opacity:1;stroke-width:0.709328"
           d="m -172.13732,-696.09541 c 8.13373,24.66192 17.31133,49.93419 26.43962,75.97231 l 46.605709,0.58234 -18.928209,-52.60542 z"
           id="path182"
           sodipodi:nodetypes="ccccc" /></g><path
         id="path183"
         style="fill:#ffffff;fill-opacity:1;stroke-width:0.872693"
         d="m -3269.5183,-2157.9612 170.8777,98.7322 83.5196,87.4228 c -9.5738,20.8941 -34.024,62.4454 -113.8764,37.2328 10.8739,34.8476 44.8679,127.8806 48.8232,140.2345 l -38.656,-0.2164 -25.1632,-76.6608 h -21.3606 c 1.0546,-27.1585 -10.6218,-58.7895 -43.5972,-70.2229 24.5526,19.9802 46.0772,48.1716 13.4603,98.3128 47.3533,5.0167 53.5128,27.4622 61.4448,49.1572 l -132.2541,-0.5863 -49.4487,-52.96 c 3.9786,-67.7833 22.5931,-143.4953 138.9834,-137.8124 -1.9764,-19.8881 2.8963,-48.2034 43.0126,-60.8602 l -124.647,-75.4916 c -5.5477,-5.3348 -10.961,-24.1511 -11.1184,-36.2817 z m 159.7577,129.3276 c -2.2937,8.241 -7.5482,32.3681 8.1934,46.2307 8.4334,8.1042 23.9766,11.823 43.3041,8.1934 z" /><path
         style="fill:#de5ba7;fill-opacity:0.968627;stroke-width:0.872693"
         d="m -3069.5354,-2037.9156 -22.9526,-26.7051 -149.9685,-98.8098 c 18.5413,0.1273 26.5991,-4.2013 42.2589,3.8504 l 114.5851,80.3498 z"
         id="path184"
         sodipodi:nodetypes="cccccc" /><path
         style="fill:#de5ba7;fill-opacity:0.968627;stroke-width:0.790248"
         d="m -3044.2151,-2011.2145 -18.4538,-19.8782 48.6915,-19.3509 z"
         id="path185"
         sodipodi:nodetypes="cccc" /><ellipse
         style="fill:#de5ba7;fill-opacity:0.968627;stroke-width:0.686134"
         id="ellipse185"
         cx="3328.7068"
         cy="-1817.6571"
         rx="23.937254"
         ry="22.94577"
         transform="scale(-1,1)" /><path
         style="fill:#ffffff;fill-opacity:1;stroke-width:0.589396"
         d="m -3097.0831,-1857.6006 c 6.7585,20.4921 14.3843,41.4914 21.9692,63.1271 l 38.7257,0.4838 -15.7278,-43.711 z"
         id="path186"
         sodipodi:nodetypes="ccccc" /></g><g
       id="g18"
       transform="translate(-1386.2698,-461.66675)"><g
         id="g9"
         transform="matrix(2.7512198,0,0,2.7512198,1718.5438,1229.2639)"><path
           style="font-size:112.499px;font-family:Monda;-inkscape-font-specification:Monda;opacity:0.968051;fill:#1a1825;fill-opacity:1;stroke-width:1.18363"
           d="m -876.89808,-753.82634 h 11.79681 v -51.88627 h -11.79681 z"
           id="path1" /><path
           id="path2"
           style="font-size:112.499px;font-family:Monda;-inkscape-font-specification:Monda;opacity:0.968051;fill:#1a1825;fill-opacity:1;stroke-width:1.18363"
           d="m -904.81702,-806.43917 c -12.87818,0 -26.14971,9.13212 -26.24801,26.66969 -0.0983,13.49043 8.35612,26.66969 25.46149,26.66969 4.4238,0 9.14251,-0.93416 12.97647,-3.52847 v 2.90577 h 11.7967 v -28.33005 c 0,-17.12247 -11.79661,-24.38663 -23.98665,-24.38663 z m -0.29507,11.62255 c 6.68486,0.10378 13.17307,4.98129 12.97647,15.15101 -0.0983,7.57539 -4.12881,15.1505 -12.18996,15.1505 -10.0273,0 -14.94276,-7.78285 -14.94276,-15.35824 0,-9.85839 7.17647,-15.04704 14.15625,-14.94327 z" /><path
           style="font-size:112.499px;font-family:Monda;-inkscape-font-specification:Monda;opacity:0.968051;fill:#de5ba7;fill-opacity:1;stroke-width:1.18363"
           d="m -947.77731,-777.66827 c 0,3.94335 2.55598,6.64145 6.29163,6.64145 3.83397,0 6.38995,-2.6981 6.38995,-6.64145 0,-4.04713 -2.55598,-6.64145 -6.38995,-6.64145 -3.73565,0 -6.29163,2.59432 -6.29163,6.64145 z"
           id="path3" /><path
           style="font-size:112.499px;font-family:Monda;-inkscape-font-specification:Monda;opacity:0.968051;fill:#1a1825;fill-opacity:1;stroke-width:1.18363"
           d="m -974.41854,-806.43902 c -14.45109,0 -22.70886,9.23575 -22.70886,24.5941 v 28.01858 h 11.79682 v -29.78272 c 0,-6.84899 4.5221,-11.41498 10.91204,-11.41498 6.38994,0 10.91205,4.56599 10.91205,11.41498 v 29.78272 h 11.79681 v -28.01858 c 0,-15.35835 -8.25776,-24.5941 -22.70886,-24.5941 z"
           id="path4" /><path
           style="font-size:112.499px;font-family:Monda;-inkscape-font-specification:Monda;opacity:0.968051;fill:#1a1825;fill-opacity:1;stroke-width:1.18363"
           d="m -1012.9547,-753.82634 h 11.7968 v -51.88627 h -11.7968 z"
           id="path5" /><path
           style="font-size:112.499px;font-family:Monda;-inkscape-font-specification:Monda;opacity:0.968051;fill:#1a1825;fill-opacity:1;stroke-width:1.18363"
           d="m -1034.0906,-753.82634 v -36.32039 c 0,-2.49054 1.1797,-4.1509 4.3255,-4.1509 h 12.9765 v -11.41498 h -14.746 c -9.4375,0 -14.3528,5.91503 -14.3528,14.11306 v 37.77321 z"
           id="path6" /><path
           style="font-size:112.499px;font-family:Monda;-inkscape-font-specification:Monda;opacity:0.968051;fill:#1a1825;fill-opacity:1;stroke-width:1.18363"
           d="m -1097.0069,-806.43902 c -12.5833,0 -19.7597,9.23575 -19.7597,24.5941 v 28.01858 h 11.7968 v -31.23553 c 0,-6.849 3.9323,-9.96217 7.9629,-9.96217 3.9323,0 7.8645,3.11317 7.8645,9.96217 v 31.23553 h 11.6985 v -31.23553 c 0,-6.849 3.9323,-9.96217 7.9629,-9.96217 3.9323,0 7.8645,3.11317 7.8645,9.96217 v 31.23553 h 11.7968 v -28.01858 c 0,-15.35835 -7.0781,-24.5941 -19.6613,-24.5941 -5.8001,0 -10.4205,1.97168 -13.763,5.60372 -3.2441,-3.63204 -7.9628,-5.60372 -13.7629,-5.60372 z"
           id="path7" /><path
           id="path8"
           style="font-size:112.499px;font-family:Monda;-inkscape-font-specification:Monda;opacity:0.968051;fill:#1a1825;fill-opacity:1;stroke-width:1.18363"
           d="m -1145.8654,-806.75026 c -18.0885,0 -26.0511,13.38648 -26.0511,26.87691 0,13.49043 7.9626,26.87743 26.0511,26.87743 14.4511,0 22.5123,-8.61331 25.0683,-18.99057 h -12.3869 c -2.1627,4.35845 -6.4881,7.57525 -12.6814,7.57525 -8.0612,0 -12.6817,-5.39619 -14.058,-11.62255 h 38.8312 c 0.098,-1.24527 0.2951,-2.59428 0.2951,-3.83956 0,-13.49043 -7.9629,-26.87691 -25.0683,-26.87691 z m 0,11.41481 c 6.1933,0 10.4204,3.83967 12.2882,8.92452 h -25.5597 c 1.9661,-4.98108 6.39,-8.92452 13.2715,-8.92452 z" /><path
           style="font-size:112.499px;font-family:Monda;-inkscape-font-specification:Monda;opacity:0.968051;fill:#1a1825;fill-opacity:1;stroke-width:1.18363"
           d="m -1191.9711,-753.82634 v -36.32039 c 0,-2.49054 1.1797,-4.1509 4.3255,-4.1509 h 12.9765 v -11.41498 h -14.7461 c -9.4374,0 -14.3527,5.91503 -14.3527,14.11306 v 37.77321 z"
           id="path9" /></g><g
         id="g17"
         transform="translate(-2311.7928,42.032596)"><g
           id="g13"
           transform="matrix(0.83092212,0,0,0.83092212,747.89888,-373.72593)"
           style="fill:#1a1825;fill-opacity:1"><path
             id="path10"
             style="opacity:1;fill:#1a1825;fill-opacity:1;stroke-width:1.05027"
             d="m -379.65994,-1057.574 205.64824,118.82238 100.514339,105.21186 c -11.52189,25.14564 -40.947319,75.15189 -137.048219,44.8089 13.08656,41.93859 53.99768,153.90207 58.75782,168.76976 l -46.52173,-0.26041 -30.28354,-92.25986 h -25.70705 c 1.26918,-32.68478 -12.78321,-70.75221 -52.46851,-84.51208 29.54866,24.04588 55.45316,57.97369 16.19923,118.31771 56.98889,6.03758 64.4018,33.05033 73.94781,59.1599 l -159.16552,-0.70567 -59.51064,-63.73638 c 4.78822,-81.57605 27.19039,-172.69409 167.26407,-165.85482 -2.37853,-23.93494 3.48566,-58.01188 51.76491,-73.2442 l -150.01051,-90.85279 c -6.67648,-6.4203 -13.19131,-29.0654 -13.3807,-43.6643 z m 192.26547,155.64345 c -2.76044,9.91782 -9.08403,38.95444 9.86069,55.63779 10.14942,9.75326 28.85532,14.2288 52.11564,9.86064 z" /><path
             style="opacity:1;fill:#1a1825;fill-opacity:1;stroke-width:1.05027"
             d="m -138.9841,-913.10126 -27.62307,-32.13911 -180.48446,-118.91593 c 22.31418,0.1532 32.0116,-5.0561 50.85783,4.6339 l 137.90119,96.69965 z"
             id="path11"
             sodipodi:nodetypes="cccccc" /><path
             style="opacity:1;fill:#1a1825;fill-opacity:1;stroke-width:0.951049"
             d="m -108.51158,-880.96699 -22.20883,-23.92309 58.599329,-23.28845 z"
             id="path12"
             sodipodi:nodetypes="cccc" /><ellipse
             style="opacity:1;fill:#1a1825;fill-opacity:1;stroke-width:0.82575"
             id="ellipse12"
             cx="450.89233"
             cy="-648.02417"
             rx="28.80806"
             ry="27.614826"
             transform="scale(-1,1)" /><path
             style="opacity:1;fill:#1a1825;fill-opacity:1;stroke-width:0.709328"
             d="m -172.13732,-696.09541 c 8.13373,24.66192 17.31133,49.93419 26.43962,75.97231 l 46.605709,0.58234 -18.928209,-52.60542 z"
             id="path13"
             sodipodi:nodetypes="ccccc" /></g><path
           id="path14"
           style="fill:#1a1825;fill-opacity:1;stroke-width:0.872693"
           d="m 432.43104,-1252.4876 170.87767,98.7322 83.51959,87.4228 c -9.5738,20.8941 -34.02404,62.4454 -113.8764,37.2328 10.87391,34.84765 44.86787,127.88059 48.82317,140.23448 l -38.65593,-0.21638 -25.16327,-76.66076 h -21.36055 c 1.05459,-27.15851 -10.62185,-58.78954 -43.59725,-70.22294 24.55264,19.9802 46.07726,48.1716 13.4603,98.31279 47.35333,5.01675 53.51288,27.46225 61.44487,49.15726 l -132.25415,-0.58635 -49.44871,-52.95997 c 3.97864,-67.78333 22.5931,-143.49533 138.98342,-137.81243 -1.97637,-19.8881 2.89631,-48.2034 43.01261,-60.8602 l -124.64705,-75.4916 c -5.54764,-5.3348 -10.96095,-24.1511 -11.11832,-36.2817 z m 159.75763,129.3276 c -2.29371,8.241 -7.54812,32.3681 8.19347,46.2307 8.43337,8.1042 23.97652,11.823 43.30403,8.1934 z" /><path
           style="fill:#de5ba7;fill-opacity:0.968627;stroke-width:0.872693"
           d="m 632.41392,-1132.442 -22.95262,-26.7051 -149.96853,-98.8098 c 18.54134,0.1273 26.59914,-4.2013 42.25889,3.8504 l 114.58515,80.3498 z"
           id="path15"
           sodipodi:nodetypes="cccccc" /><path
           style="fill:#de5ba7;fill-opacity:0.968627;stroke-width:0.790248"
           d="m 657.73421,-1105.7409 -18.45381,-19.8782 48.69148,-19.3509 z"
           id="path16"
           sodipodi:nodetypes="cccc" /><ellipse
           style="fill:#de5ba7;fill-opacity:0.968627;stroke-width:0.686134"
           id="ellipse16"
           cx="-373.24246"
           cy="-912.18353"
           rx="23.937254"
           ry="22.94577"
           transform="scale(-1,1)" /><path
           style="fill:#1a1825;fill-opacity:1;stroke-width:0.589396"
           d="m 604.86617,-952.127 c 6.7585,20.49213 14.38437,41.49142 21.96927,63.12707 l 38.72571,0.48388 -15.72786,-43.71101 z"
           id="path17"
           sodipodi:nodetypes="ccccc" /></g></g><g
       id="g149"><path
         style="font-size:112.499px;font-family:Monda;-inkscape-font-specification:Monda;opacity:0.968051;fill:#ffffff;fill-opacity:1;stroke-width:3.25643"
         d="m -630.52047,-1768.8639 h 32.4557 v -142.7506 h -32.4557 z"
         id="path18" /><path
         id="path19"
         style="font-size:112.499px;font-family:Monda;-inkscape-font-specification:Monda;opacity:0.968051;fill:#ffffff;fill-opacity:1;stroke-width:3.25643"
         d="m -707.33157,-1913.6134 c -35.4307,0 -71.9436,25.1245 -72.214,73.3742 -0.2705,37.1151 22.9895,73.3742 70.0501,73.3742 12.1709,0 25.1531,-2.5701 35.7011,-9.7076 v 7.9944 h 32.4553 v -77.9422 c 0,-47.1077 -32.455,-67.093 -65.9925,-67.093 z m -0.8118,31.9762 c 18.3915,0.2855 36.242,13.7046 35.7011,41.6837 -0.2704,20.8416 -11.3592,41.6824 -33.5372,41.6824 -27.5873,0 -41.1109,-21.4123 -41.1109,-42.2539 0,-27.1226 19.7441,-41.3977 38.947,-41.1122 z" /><path
         style="font-size:112.499px;font-family:Monda;-inkscape-font-specification:Monda;opacity:0.968051;fill:#d859a3;fill-opacity:1;stroke-width:3.25643"
         d="m -825.52477,-1834.4583 c 0,10.849 7.0321,18.2721 17.3097,18.2721 10.548,0 17.5801,-7.4231 17.5801,-18.2721 0,-11.1346 -7.0321,-18.2721 -17.5801,-18.2721 -10.2776,0 -17.3097,7.1375 -17.3097,18.2721 z"
         id="path20" /><path
         style="font-size:112.499px;font-family:Monda;-inkscape-font-specification:Monda;opacity:0.968051;fill:#ffffff;fill-opacity:1;stroke-width:3.25643"
         d="m -898.82067,-1913.613 c -39.7581,0 -62.477,25.4096 -62.477,67.6638 v 77.0853 h 32.4556 v -81.9389 c 0,-18.843 12.4413,-31.4051 30.0214,-31.4051 17.5801,0 30.0215,12.5621 30.0215,31.4051 v 81.9389 h 32.4556 v -77.0853 c 0,-42.2542 -22.7189,-67.6638 -62.4771,-67.6638 z"
         id="path21" /><path
         style="font-size:112.499px;font-family:Monda;-inkscape-font-specification:Monda;opacity:0.968051;fill:#ffffff;fill-opacity:1;stroke-width:3.25643"
         d="m -1004.8421,-1768.8639 h 32.45563 v -142.7506 h -32.45563 z"
         id="path22" /><path
         style="font-size:112.499px;font-family:Monda;-inkscape-font-specification:Monda;opacity:0.968051;fill:#ffffff;fill-opacity:1;stroke-width:3.25643"
         d="m -1062.9916,-1768.8639 v -99.9254 c 0,-6.852 3.2456,-11.4201 11.9004,-11.4201 h 35.7012 v -31.4051 h -40.5695 c -25.9647,0 -39.4877,16.2736 -39.4877,38.8281 v 103.9225 z"
         id="path23" /><path
         style="font-size:112.499px;font-family:Monda;-inkscape-font-specification:Monda;opacity:0.968051;fill:#ffffff;fill-opacity:1;stroke-width:3.25643"
         d="m -1236.0882,-1913.613 c -34.6194,0 -54.3633,25.4096 -54.3633,67.6638 v 77.0853 h 32.4556 v -85.9359 c 0,-18.8431 10.8186,-27.4081 21.9077,-27.4081 10.8186,0 21.637,8.565 21.637,27.4081 v 85.9359 h 32.1851 v -85.9359 c 0,-18.8431 10.8186,-27.4081 21.9077,-27.4081 10.8186,0 21.637,8.565 21.637,27.4081 v 85.9359 h 32.4556 v -77.0853 c 0,-42.2542 -19.4735,-67.6638 -54.0926,-67.6638 -15.9574,0 -28.6691,5.4245 -37.865,15.4171 -8.9253,-9.9926 -21.9075,-15.4171 -37.8648,-15.4171 z"
         id="path24" /><path
         id="path25"
         style="font-size:112.499px;font-family:Monda;-inkscape-font-specification:Monda;opacity:0.968051;fill:#ffffff;fill-opacity:1;stroke-width:3.25643"
         d="m -1370.5087,-1914.4693 c -49.7654,0 -71.6723,36.8292 -71.6723,73.9443 0,37.1151 21.9069,73.9457 71.6723,73.9457 39.7582,0 61.9363,-23.6971 68.9684,-52.2472 h -34.0791 c -5.95,11.991 -17.8501,20.8412 -34.8893,20.8412 -22.1781,0 -34.8901,-14.8461 -38.6766,-31.9762 h 106.8331 c 0.2697,-3.426 0.8119,-7.1375 0.8119,-10.5635 0,-37.1151 -21.9077,-73.9443 -68.9684,-73.9443 z m 0,31.4047 c 17.0392,0 28.6688,10.5637 33.8076,24.5533 h -70.3204 c 5.4092,-13.7041 17.5803,-24.5533 36.5128,-24.5533 z" /><path
         style="font-size:112.499px;font-family:Monda;-inkscape-font-specification:Monda;opacity:0.968051;fill:#ffffff;fill-opacity:1;stroke-width:3.25643"
         d="m -1497.3556,-1768.8639 v -99.9254 c 0,-6.852 3.2456,-11.4201 11.9004,-11.4201 h 35.7012 v -31.4051 h -40.5697 c -25.9644,0 -39.4875,16.2736 -39.4875,38.8281 v 103.9225 z"
         id="path26" /><g
         id="g34"
         transform="translate(-2248.3177,-882.15331)"
         style="fill:#ffffff"><g
           id="g30"
           transform="matrix(0.83092212,0,0,0.83092212,747.89888,-373.72593)"
           style="fill:#ffffff;fill-opacity:1"><path
             id="path27"
             style="opacity:1;fill:#ffffff;fill-opacity:1;stroke-width:1.05027"
             d="m -379.65994,-1057.574 205.64824,118.82238 100.514339,105.21186 c -11.52189,25.14564 -40.947319,75.15189 -137.048219,44.8089 13.08656,41.93859 53.99768,153.90207 58.75782,168.76976 l -46.52173,-0.26041 -30.28354,-92.25986 h -25.70705 c 1.26918,-32.68478 -12.78321,-70.75221 -52.46851,-84.51208 29.54866,24.04588 55.45316,57.97369 16.19923,118.31771 56.98889,6.03758 64.4018,33.05033 73.94781,59.1599 l -159.16552,-0.70567 -59.51064,-63.73638 c 4.78822,-81.57605 27.19039,-172.69409 167.26407,-165.85482 -2.37853,-23.93494 3.48566,-58.01188 51.76491,-73.2442 l -150.01051,-90.85279 c -6.67648,-6.4203 -13.19131,-29.0654 -13.3807,-43.6643 z m 192.26547,155.64345 c -2.76044,9.91782 -9.08403,38.95444 9.86069,55.63779 10.14942,9.75326 28.85532,14.2288 52.11564,9.86064 z" /><path
             style="opacity:1;fill:#ffffff;fill-opacity:1;stroke-width:1.05027"
             d="m -138.9841,-913.10126 -27.62307,-32.13911 -180.48446,-118.91593 c 22.31418,0.1532 32.0116,-5.0561 50.85783,4.6339 l 137.90119,96.69965 z"
             id="path28"
             sodipodi:nodetypes="cccccc" /><path
             style="opacity:1;fill:#ffffff;fill-opacity:1;stroke-width:0.951049"
             d="m -108.51158,-880.96699 -22.20883,-23.92309 58.599329,-23.28845 z"
             id="path29"
             sodipodi:nodetypes="cccc" /><ellipse
             style="opacity:1;fill:#ffffff;fill-opacity:1;stroke-width:0.82575"
             id="ellipse29"
             cx="450.89233"
             cy="-648.02417"
             rx="28.80806"
             ry="27.614826"
             transform="scale(-1,1)" /><path
             style="opacity:1;fill:#ffffff;fill-opacity:1;stroke-width:0.709328"
             d="m -172.13732,-696.09541 c 8.13373,24.66192 17.31133,49.93419 26.43962,75.97231 l 46.605709,0.58234 -18.928209,-52.60542 z"
             id="path30"
             sodipodi:nodetypes="ccccc" /></g><path
           id="path31"
           style="fill:#ffffff;fill-opacity:1;stroke-width:0.872693"
           d="m 432.43104,-1252.4876 170.87767,98.7322 83.51959,87.4228 c -9.5738,20.8941 -34.02404,62.4454 -113.8764,37.2328 10.87391,34.84765 44.86787,127.88059 48.82317,140.23448 l -38.65593,-0.21638 -25.16327,-76.66076 h -21.36055 c 1.05459,-27.15851 -10.62185,-58.78954 -43.59725,-70.22294 24.55264,19.9802 46.07726,48.1716 13.4603,98.31279 47.35333,5.01675 53.51288,27.46225 61.44487,49.15726 l -132.25415,-0.58635 -49.44871,-52.95997 c 3.97864,-67.78333 22.5931,-143.49533 138.98342,-137.81243 -1.97637,-19.8881 2.89631,-48.2034 43.01261,-60.8602 l -124.64705,-75.4916 c -5.54764,-5.3348 -10.96095,-24.1511 -11.11832,-36.2817 z m 159.75763,129.3276 c -2.29371,8.241 -7.54812,32.3681 8.19347,46.2307 8.43337,8.1042 23.97652,11.823 43.30403,8.1934 z" /><path
           style="fill:#ffffff;fill-opacity:0.968627;stroke-width:0.872693"
           d="m 632.41392,-1132.442 -22.95262,-26.7051 -149.96853,-98.8098 c 18.54134,0.1273 26.59914,-4.2013 42.25889,3.8504 l 114.58515,80.3498 z"
           id="path32"
           sodipodi:nodetypes="cccccc" /><path
           style="fill:#ffffff;fill-opacity:0.968627;stroke-width:0.790248"
           d="m 657.73421,-1105.7409 -18.45381,-19.8782 48.69148,-19.3509 z"
           id="path33"
           sodipodi:nodetypes="cccc" /><ellipse
           style="fill:#ffffff;fill-opacity:0.968627;stroke-width:0.686134"
           id="ellipse33"
           cx="-373.24246"
           cy="-912.18353"
           rx="23.937254"
           ry="22.94577"
           transform="scale(-1,1)" /><path
           style="fill:#ffffff;fill-opacity:1;stroke-width:0.589396"
           d="m 604.86617,-952.127 c 6.7585,20.49213 14.38437,41.49142 21.96927,63.12707 l 38.72571,0.48388 -15.72786,-43.71101 z"
           id="path34"
           sodipodi:nodetypes="ccccc" /></g></g><g
       id="g148"><g
         id="g60"
         transform="matrix(2.7512198,0,0,2.7512198,1785.9056,794.80416)"><path
           style="font-size:112.499px;font-family:Monda;-inkscape-font-specification:Monda;opacity:0.968051;fill:#1a1825;fill-opacity:1;stroke-width:1.18363"
           d="m -876.89808,-753.82634 h 11.79681 v -51.88627 h -11.79681 z"
           id="path52" /><path
           id="path53"
           style="font-size:112.499px;font-family:Monda;-inkscape-font-specification:Monda;opacity:0.968051;fill:#1a1825;fill-opacity:1;stroke-width:1.18363"
           d="m -904.81702,-806.43917 c -12.87818,0 -26.14971,9.13212 -26.24801,26.66969 -0.0983,13.49043 8.35612,26.66969 25.46149,26.66969 4.4238,0 9.14251,-0.93416 12.97647,-3.52847 v 2.90577 h 11.7967 v -28.33005 c 0,-17.12247 -11.79661,-24.38663 -23.98665,-24.38663 z m -0.29507,11.62255 c 6.68486,0.10378 13.17307,4.98129 12.97647,15.15101 -0.0983,7.57539 -4.12881,15.1505 -12.18996,15.1505 -10.0273,0 -14.94276,-7.78285 -14.94276,-15.35824 0,-9.85839 7.17647,-15.04704 14.15625,-14.94327 z" /><path
           style="font-size:112.499px;font-family:Monda;-inkscape-font-specification:Monda;opacity:0.968051;fill:#de5ba7;fill-opacity:1;stroke-width:1.18363"
           d="m -947.77731,-777.66827 c 0,3.94335 2.55598,6.64145 6.29163,6.64145 3.83397,0 6.38995,-2.6981 6.38995,-6.64145 0,-4.04713 -2.55598,-6.64145 -6.38995,-6.64145 -3.73565,0 -6.29163,2.59432 -6.29163,6.64145 z"
           id="path54" /><path
           style="font-size:112.499px;font-family:Monda;-inkscape-font-specification:Monda;opacity:0.968051;fill:#1a1825;fill-opacity:1;stroke-width:1.18363"
           d="m -974.41854,-806.43902 c -14.45109,0 -22.70886,9.23575 -22.70886,24.5941 v 28.01858 h 11.79682 v -29.78272 c 0,-6.84899 4.5221,-11.41498 10.91204,-11.41498 6.38994,0 10.91205,4.56599 10.91205,11.41498 v 29.78272 h 11.79681 v -28.01858 c 0,-15.35835 -8.25776,-24.5941 -22.70886,-24.5941 z"
           id="path55" /><path
           style="font-size:112.499px;font-family:Monda;-inkscape-font-specification:Monda;opacity:0.968051;fill:#1a1825;fill-opacity:1;stroke-width:1.18363"
           d="m -1012.9547,-753.82634 h 11.7968 v -51.88627 h -11.7968 z"
           id="path56" /><path
           style="font-size:112.499px;font-family:Monda;-inkscape-font-specification:Monda;opacity:0.968051;fill:#1a1825;fill-opacity:1;stroke-width:1.18363"
           d="m -1034.0906,-753.82634 v -36.32039 c 0,-2.49054 1.1797,-4.1509 4.3255,-4.1509 h 12.9765 v -11.41498 h -14.746 c -9.4375,0 -14.3528,5.91503 -14.3528,14.11306 v 37.77321 z"
           id="path57" /><path
           style="font-size:112.499px;font-family:Monda;-inkscape-font-specification:Monda;opacity:0.968051;fill:#1a1825;fill-opacity:1;stroke-width:1.18363"
           d="m -1097.0069,-806.43902 c -12.5833,0 -19.7597,9.23575 -19.7597,24.5941 v 28.01858 h 11.7968 v -31.23553 c 0,-6.849 3.9323,-9.96217 7.9629,-9.96217 3.9323,0 7.8645,3.11317 7.8645,9.96217 v 31.23553 h 11.6985 v -31.23553 c 0,-6.849 3.9323,-9.96217 7.9629,-9.96217 3.9323,0 7.8645,3.11317 7.8645,9.96217 v 31.23553 h 11.7968 v -28.01858 c 0,-15.35835 -7.0781,-24.5941 -19.6613,-24.5941 -5.8001,0 -10.4205,1.97168 -13.763,5.60372 -3.2441,-3.63204 -7.9628,-5.60372 -13.7629,-5.60372 z"
           id="path58" /><path
           id="path59"
           style="font-size:112.499px;font-family:Monda;-inkscape-font-specification:Monda;opacity:0.968051;fill:#1a1825;fill-opacity:1;stroke-width:1.18363"
           d="m -1145.8654,-806.75026 c -18.0885,0 -26.0511,13.38648 -26.0511,26.87691 0,13.49043 7.9626,26.87743 26.0511,26.87743 14.4511,0 22.5123,-8.61331 25.0683,-18.99057 h -12.3869 c -2.1627,4.35845 -6.4881,7.57525 -12.6814,7.57525 -8.0612,0 -12.6817,-5.39619 -14.058,-11.62255 h 38.8312 c 0.098,-1.24527 0.2951,-2.59428 0.2951,-3.83956 0,-13.49043 -7.9629,-26.87691 -25.0683,-26.87691 z m 0,11.41481 c 6.1933,0 10.4204,3.83967 12.2882,8.92452 h -25.5597 c 1.9661,-4.98108 6.39,-8.92452 13.2715,-8.92452 z" /><path
           style="font-size:112.499px;font-family:Monda;-inkscape-font-specification:Monda;opacity:0.968051;fill:#1a1825;fill-opacity:1;stroke-width:1.18363"
           d="m -1191.9711,-753.82634 v -36.32039 c 0,-2.49054 1.1797,-4.1509 4.3255,-4.1509 h 12.9765 v -11.41498 h -14.7461 c -9.4374,0 -14.3527,5.91503 -14.3527,14.11306 v 37.77321 z"
           id="path60" /></g><g
         id="g68"
         transform="translate(-2244.431,-392.42714)"
         style="fill:#1a1825;fill-opacity:1"><g
           id="g64"
           transform="matrix(0.83092212,0,0,0.83092212,747.89888,-373.72593)"
           style="fill:#1a1825;fill-opacity:1"><path
             id="path61"
             style="opacity:1;fill:#1a1825;fill-opacity:1;stroke-width:1.05027"
             d="m -379.65994,-1057.574 205.64824,118.82238 100.514339,105.21186 c -11.52189,25.14564 -40.947319,75.15189 -137.048219,44.8089 13.08656,41.93859 53.99768,153.90207 58.75782,168.76976 l -46.52173,-0.26041 -30.28354,-92.25986 h -25.70705 c 1.26918,-32.68478 -12.78321,-70.75221 -52.46851,-84.51208 29.54866,24.04588 55.45316,57.97369 16.19923,118.31771 56.98889,6.03758 64.4018,33.05033 73.94781,59.1599 l -159.16552,-0.70567 -59.51064,-63.73638 c 4.78822,-81.57605 27.19039,-172.69409 167.26407,-165.85482 -2.37853,-23.93494 3.48566,-58.01188 51.76491,-73.2442 l -150.01051,-90.85279 c -6.67648,-6.4203 -13.19131,-29.0654 -13.3807,-43.6643 z m 192.26547,155.64345 c -2.76044,9.91782 -9.08403,38.95444 9.86069,55.63779 10.14942,9.75326 28.85532,14.2288 52.11564,9.86064 z" /><path
             style="opacity:1;fill:#1a1825;fill-opacity:1;stroke-width:1.05027"
             d="m -138.9841,-913.10126 -27.62307,-32.13911 -180.48446,-118.91593 c 22.31418,0.1532 32.0116,-5.0561 50.85783,4.6339 l 137.90119,96.69965 z"
             id="path62"
             sodipodi:nodetypes="cccccc" /><path
             style="opacity:1;fill:#1a1825;fill-opacity:1;stroke-width:0.951049"
             d="m -108.51158,-880.96699 -22.20883,-23.92309 58.599329,-23.28845 z"
             id="path63"
             sodipodi:nodetypes="cccc" /><ellipse
             style="opacity:1;fill:#1a1825;fill-opacity:1;stroke-width:0.82575"
             id="ellipse63"
             cx="450.89233"
             cy="-648.02417"
             rx="28.80806"
             ry="27.614826"
             transform="scale(-1,1)" /><path
             style="opacity:1;fill:#1a1825;fill-opacity:1;stroke-width:0.709328"
             d="m -172.13732,-696.09541 c 8.13373,24.66192 17.31133,49.93419 26.43962,75.97231 l 46.605709,0.58234 -18.928209,-52.60542 z"
             id="path64"
             sodipodi:nodetypes="ccccc" /></g><path
           id="path65"
           style="fill:#1a1825;fill-opacity:1;stroke-width:0.872693"
           d="m 432.43104,-1252.4876 170.87767,98.7322 83.51959,87.4228 c -9.5738,20.8941 -34.02404,62.4454 -113.8764,37.2328 10.87391,34.84765 44.86787,127.88059 48.82317,140.23448 l -38.65593,-0.21638 -25.16327,-76.66076 h -21.36055 c 1.05459,-27.15851 -10.62185,-58.78954 -43.59725,-70.22294 24.55264,19.9802 46.07726,48.1716 13.4603,98.31279 47.35333,5.01675 53.51288,27.46225 61.44487,49.15726 l -132.25415,-0.58635 -49.44871,-52.95997 c 3.97864,-67.78333 22.5931,-143.49533 138.98342,-137.81243 -1.97637,-19.8881 2.89631,-48.2034 43.01261,-60.8602 l -124.64705,-75.4916 c -5.54764,-5.3348 -10.96095,-24.1511 -11.11832,-36.2817 z m 159.75763,129.3276 c -2.29371,8.241 -7.54812,32.3681 8.19347,46.2307 8.43337,8.1042 23.97652,11.823 43.30403,8.1934 z" /><path
           style="fill:#1a1825;fill-opacity:1;stroke-width:0.872693"
           d="m 632.41392,-1132.442 -22.95262,-26.7051 -149.96853,-98.8098 c 18.54134,0.1273 26.59914,-4.2013 42.25889,3.8504 l 114.58515,80.3498 z"
           id="path66"
           sodipodi:nodetypes="cccccc" /><path
           style="fill:#1a1825;fill-opacity:1;stroke-width:0.790248"
           d="m 657.73421,-1105.7409 -18.45381,-19.8782 48.69148,-19.3509 z"
           id="path67"
           sodipodi:nodetypes="cccc" /><ellipse
           style="fill:#1a1825;fill-opacity:1;stroke-width:0.686134"
           id="ellipse67"
           cx="-373.24246"
           cy="-912.18353"
           rx="23.937254"
           ry="22.94577"
           transform="scale(-1,1)" /><path
           style="fill:#1a1825;fill-opacity:1;stroke-width:0.589396"
           d="m 604.86617,-952.127 c 6.7585,20.49213 14.38437,41.49142 21.96927,63.12707 l 38.72571,0.48388 -15.72786,-43.71101 z"
           id="path68"
           sodipodi:nodetypes="ccccc" /></g></g><g
       id="g89"
       transform="matrix(0.83092212,0,0,0.83092212,-2946.277,-237.55974)"
       style="fill:#1a1825;fill-opacity:1"><path
         id="path86"
         style="opacity:1;fill:#1a1825;fill-opacity:1;stroke-width:1.05027"
         d="m -379.65994,-1057.574 205.64824,118.82238 100.514339,105.21186 c -11.52189,25.14564 -40.947319,75.15189 -137.048219,44.8089 13.08656,41.93859 53.99768,153.90207 58.75782,168.76976 l -46.52173,-0.26041 -30.28354,-92.25986 h -25.70705 c 1.26918,-32.68478 -12.78321,-70.75221 -52.46851,-84.51208 29.54866,24.04588 55.45316,57.97369 16.19923,118.31771 56.98889,6.03758 64.4018,33.05033 73.94781,59.1599 l -159.16552,-0.70567 -59.51064,-63.73638 c 4.78822,-81.57605 27.19039,-172.69409 167.26407,-165.85482 -2.37853,-23.93494 3.48566,-58.01188 51.76491,-73.2442 l -150.01051,-90.85279 c -6.67648,-6.4203 -13.19131,-29.0654 -13.3807,-43.6643 z m 192.26547,155.64345 c -2.76044,9.91782 -9.08403,38.95444 9.86069,55.63779 10.14942,9.75326 28.85532,14.2288 52.11564,9.86064 z" /><path
         style="opacity:1;fill:#1a1825;fill-opacity:1;stroke-width:1.05027"
         d="m -138.9841,-913.10126 -27.62307,-32.13911 -180.48446,-118.91593 c 22.31418,0.1532 32.0116,-5.0561 50.85783,4.6339 l 137.90119,96.69965 z"
         id="path87"
         sodipodi:nodetypes="cccccc" /><path
         style="opacity:1;fill:#1a1825;fill-opacity:1;stroke-width:0.951049"
         d="m -108.51158,-880.96699 -22.20883,-23.92309 58.599329,-23.28845 z"
         id="path88"
         sodipodi:nodetypes="cccc" /><ellipse
         style="opacity:1;fill:#1a1825;fill-opacity:1;stroke-width:0.82575"
         id="ellipse88"
         cx="450.89233"
         cy="-648.02417"
         rx="28.80806"
         ry="27.614826"
         transform="scale(-1,1)" /><path
         style="opacity:1;fill:#1a1825;fill-opacity:1;stroke-width:0.709328"
         d="m -172.13732,-696.09541 c 8.13373,24.66192 17.31133,49.93419 26.43962,75.97231 l 46.605709,0.58234 -18.928209,-52.60542 z"
         id="path89"
         sodipodi:nodetypes="ccccc" /></g><path
       id="path90"
       style="fill:#ffffff;fill-opacity:1;stroke-width:0.872693"
       d="m -3261.7449,-1116.3214 170.8777,98.7322 83.5196,87.42279 c -9.5738,20.8941 -34.024,62.4454 -113.8764,37.2328 10.8739,34.84765 44.8679,127.88059 48.8232,140.23448 l -38.656,-0.21638 -25.1632,-76.66076 h -21.3606 c 1.0546,-27.15851 -10.6218,-58.78954 -43.5972,-70.22294 24.5526,19.9802 46.0772,48.1716 13.4603,98.31279 47.3533,5.01675 53.5128,27.46225 61.4448,49.15726 l -132.2541,-0.58635 -49.4487,-52.95997 c 3.9786,-67.78333 22.5931,-143.49533 138.9834,-137.81243 -1.9764,-19.8881 2.8963,-48.2034 43.0126,-60.86019 l -124.647,-75.4916 c -5.5477,-5.3348 -10.961,-24.1511 -11.1184,-36.2817 z m 159.7577,129.32759 c -2.2937,8.241 -7.5482,32.3681 8.1934,46.2307 8.4334,8.1042 23.9766,11.823 43.3041,8.1934 z" /><path
       style="fill:#de5ba7;fill-opacity:0.968627;stroke-width:0.872693"
       d="m -3061.762,-996.27581 -22.9526,-26.70509 -149.9685,-98.8098 c 18.5413,0.1273 26.5991,-4.2013 42.2589,3.8504 l 114.5851,80.3498 z"
       id="path91"
       sodipodi:nodetypes="cccccc" /><path
       style="fill:#de5ba7;fill-opacity:0.968627;stroke-width:0.790248"
       d="m -3036.4417,-969.57471 -18.4538,-19.8782 48.6915,-19.35089 z"
       id="path92"
       sodipodi:nodetypes="cccc" /><ellipse
       style="fill:#de5ba7;fill-opacity:0.968627;stroke-width:0.686134"
       id="ellipse92"
       cx="3320.9336"
       cy="-776.01733"
       rx="23.937254"
       ry="22.94577"
       transform="scale(-1,1)" /><path
       style="fill:#ffffff;fill-opacity:1;stroke-width:0.589396"
       d="m -3089.3097,-815.96081 c 6.7585,20.49213 14.3843,41.49142 21.9692,63.12707 l 38.7257,0.48388 -15.7278,-43.71101 z"
       id="path93"
       sodipodi:nodetypes="ccccc" /><g
       id="g101"
       transform="translate(-3690.2892,622.0056)"><g
         id="g97"
         transform="matrix(0.83092212,0,0,0.83092212,747.89888,-373.72593)"
         style="fill:#1a1825;fill-opacity:1"><path
           id="path94"
           style="opacity:1;fill:#1a1825;fill-opacity:1;stroke-width:1.05027"
           d="m -379.65994,-1057.574 205.64824,118.82238 100.514339,105.21186 c -11.52189,25.14564 -40.947319,75.15189 -137.048219,44.8089 13.08656,41.93859 53.99768,153.90207 58.75782,168.76976 l -46.52173,-0.26041 -30.28354,-92.25986 h -25.70705 c 1.26918,-32.68478 -12.78321,-70.75221 -52.46851,-84.51208 29.54866,24.04588 55.45316,57.97369 16.19923,118.31771 56.98889,6.03758 64.4018,33.05033 73.94781,59.1599 l -159.16552,-0.70567 -59.51064,-63.73638 c 4.78822,-81.57605 27.19039,-172.69409 167.26407,-165.85482 -2.37853,-23.93494 3.48566,-58.01188 51.76491,-73.2442 l -150.01051,-90.85279 c -6.67648,-6.4203 -13.19131,-29.0654 -13.3807,-43.6643 z m 192.26547,155.64345 c -2.76044,9.91782 -9.08403,38.95444 9.86069,55.63779 10.14942,9.75326 28.85532,14.2288 52.11564,9.86064 z" /><path
           style="opacity:1;fill:#1a1825;fill-opacity:1;stroke-width:1.05027"
           d="m -138.9841,-913.10126 -27.62307,-32.13911 -180.48446,-118.91593 c 22.31418,0.1532 32.0116,-5.0561 50.85783,4.6339 l 137.90119,96.69965 z"
           id="path95"
           sodipodi:nodetypes="cccccc" /><path
           style="opacity:1;fill:#1a1825;fill-opacity:1;stroke-width:0.951049"
           d="m -108.51158,-880.96699 -22.20883,-23.92309 58.599329,-23.28845 z"
           id="path96"
           sodipodi:nodetypes="cccc" /><ellipse
           style="opacity:1;fill:#1a1825;fill-opacity:1;stroke-width:0.82575"
           id="ellipse96"
           cx="450.89233"
           cy="-648.02417"
           rx="28.80806"
           ry="27.614826"
           transform="scale(-1,1)" /><path
           style="opacity:1;fill:#1a1825;fill-opacity:1;stroke-width:0.709328"
           d="m -172.13732,-696.09541 c 8.13373,24.66192 17.31133,49.93419 26.43962,75.97231 l 46.605709,0.58234 -18.928209,-52.60542 z"
           id="path97"
           sodipodi:nodetypes="ccccc" /></g><path
         id="path98"
         style="fill:#1a1825;fill-opacity:1;stroke-width:0.872693"
         d="m 432.43104,-1252.4876 170.87767,98.7322 83.51959,87.4228 c -9.5738,20.8941 -34.02404,62.4454 -113.8764,37.2328 10.87391,34.84765 44.86787,127.88059 48.82317,140.23448 l -38.65593,-0.21638 -25.16327,-76.66076 h -21.36055 c 1.05459,-27.15851 -10.62185,-58.78954 -43.59725,-70.22294 24.55264,19.9802 46.07726,48.1716 13.4603,98.31279 47.35333,5.01675 53.51288,27.46225 61.44487,49.15726 l -132.25415,-0.58635 -49.44871,-52.95997 c 3.97864,-67.78333 22.5931,-143.49533 138.98342,-137.81243 -1.97637,-19.8881 2.89631,-48.2034 43.01261,-60.8602 l -124.64705,-75.4916 c -5.54764,-5.3348 -10.96095,-24.1511 -11.11832,-36.2817 z m 159.75763,129.3276 c -2.29371,8.241 -7.54812,32.3681 8.19347,46.2307 8.43337,8.1042 23.97652,11.823 43.30403,8.1934 z" /><path
         style="fill:#de5ba7;fill-opacity:0.968627;stroke-width:0.872693"
         d="m 632.41392,-1132.442 -22.95262,-26.7051 -149.96853,-98.8098 c 18.54134,0.1273 26.59914,-4.2013 42.25889,3.8504 l 114.58515,80.3498 z"
         id="path99"
         sodipodi:nodetypes="cccccc" /><path
         style="fill:#de5ba7;fill-opacity:0.968627;stroke-width:0.790248"
         d="m 657.73421,-1105.7409 -18.45381,-19.8782 48.69148,-19.3509 z"
         id="path100"
         sodipodi:nodetypes="cccc" /><ellipse
         style="fill:#de5ba7;fill-opacity:0.968627;stroke-width:0.686134"
         id="ellipse100"
         cx="-373.24246"
         cy="-912.18353"
         rx="23.937254"
         ry="22.94577"
         transform="scale(-1,1)" /><path
         style="fill:#1a1825;fill-opacity:1;stroke-width:0.589396"
         d="m 604.86617,-952.127 c 6.7585,20.49213 14.38437,41.49142 21.96927,63.12707 l 38.72571,0.48388 -15.72786,-43.71101 z"
         id="path101"
         sodipodi:nodetypes="ccccc" /></g><g
       id="g145"><g
         id="g105"
         transform="matrix(0.83092212,0,0,0.83092212,-2468.211,-249.21984)"
         style="fill:#ffffff;fill-opacity:1"><path
           id="path102"
           style="opacity:1;fill:#ffffff;fill-opacity:1;stroke-width:1.05027"
           d="m -379.65994,-1057.574 205.64824,118.82238 100.514339,105.21186 c -11.52189,25.14564 -40.947319,75.15189 -137.048219,44.8089 13.08656,41.93859 53.99768,153.90207 58.75782,168.76976 l -46.52173,-0.26041 -30.28354,-92.25986 h -25.70705 c 1.26918,-32.68478 -12.78321,-70.75221 -52.46851,-84.51208 29.54866,24.04588 55.45316,57.97369 16.19923,118.31771 56.98889,6.03758 64.4018,33.05033 73.94781,59.1599 l -159.16552,-0.70567 -59.51064,-63.73638 c 4.78822,-81.57605 27.19039,-172.69409 167.26407,-165.85482 -2.37853,-23.93494 3.48566,-58.01188 51.76491,-73.2442 l -150.01051,-90.85279 c -6.67648,-6.4203 -13.19131,-29.0654 -13.3807,-43.6643 z m 192.26547,155.64345 c -2.76044,9.91782 -9.08403,38.95444 9.86069,55.63779 10.14942,9.75326 28.85532,14.2288 52.11564,9.86064 z" /><path
           style="opacity:1;fill:#ffffff;fill-opacity:1;stroke-width:1.05027"
           d="m -138.9841,-913.10126 -27.62307,-32.13911 -180.48446,-118.91593 c 22.31418,0.1532 32.0116,-5.0561 50.85783,4.6339 l 137.90119,96.69965 z"
           id="path103"
           sodipodi:nodetypes="cccccc" /><path
           style="opacity:1;fill:#ffffff;fill-opacity:1;stroke-width:0.951049"
           d="m -108.51158,-880.96699 -22.20883,-23.92309 58.599329,-23.28845 z"
           id="path104"
           sodipodi:nodetypes="cccc" /><ellipse
           style="opacity:1;fill:#ffffff;fill-opacity:1;stroke-width:0.82575"
           id="ellipse104"
           cx="450.89233"
           cy="-648.02417"
           rx="28.80806"
           ry="27.614826"
           transform="scale(-1,1)" /><path
           style="opacity:1;fill:#ffffff;fill-opacity:1;stroke-width:0.709328"
           d="m -172.13732,-696.09541 c 8.13373,24.66192 17.31133,49.93419 26.43962,75.97231 l 46.605709,0.58234 -18.928209,-52.60542 z"
           id="path105"
           sodipodi:nodetypes="ccccc" /></g><path
         id="path106"
         style="fill:#ffffff;fill-opacity:1;stroke-width:0.872693"
         d="m -2783.6789,-1127.9815 170.8777,98.7322 83.5196,87.42276 c -9.5738,20.8941 -34.024,62.4454 -113.8764,37.2328 10.8739,34.84765 44.8679,127.88059 48.8232,140.23448 l -38.656,-0.21638 -25.1632,-76.66076 h -21.3606 c 1.0546,-27.15851 -10.6218,-58.78954 -43.5972,-70.22294 24.5526,19.9802 46.0772,48.1716 13.4603,98.31279 47.3533,5.01675 53.5128,27.46225 61.4448,49.15726 l -132.2541,-0.58635 -49.4487,-52.95997 c 3.9786,-67.78333 22.5931,-143.49533 138.9834,-137.81243 -1.9764,-19.8881 2.8963,-48.20336 43.0126,-60.86016 l -124.647,-75.4916 c -5.5477,-5.3348 -10.961,-24.1511 -11.1184,-36.2817 z m 159.7577,129.32756 c -2.2937,8.241 -7.5482,32.3681 8.1934,46.2307 8.4334,8.1042 23.9766,11.823 43.3041,8.1934 z" /><path
         style="fill:#ffffff;fill-opacity:0.968627;stroke-width:0.872693"
         d="m -2583.696,-1007.9359 -22.9526,-26.7051 -149.9685,-98.8098 c 18.5413,0.1273 26.5991,-4.2013 42.2589,3.8504 l 114.5851,80.3498 z"
         id="path107"
         sodipodi:nodetypes="cccccc" /><path
         style="fill:#ffffff;fill-opacity:0.968627;stroke-width:0.790248"
         d="m -2558.3757,-981.23484 -18.4538,-19.87816 48.6915,-19.3509 z"
         id="path108"
         sodipodi:nodetypes="cccc" /><ellipse
         style="fill:#ffffff;fill-opacity:0.968627;stroke-width:0.686134"
         id="ellipse108"
         cx="2842.8677"
         cy="-787.67749"
         rx="23.937254"
         ry="22.94577"
         transform="scale(-1,1)" /><path
         style="fill:#ffffff;fill-opacity:1;stroke-width:0.589396"
         d="m -2611.2437,-827.62094 c 6.7585,20.49213 14.3843,41.49142 21.9692,63.12707 l 38.7257,0.48388 -15.7278,-43.71101 z"
         id="path109"
         sodipodi:nodetypes="ccccc" /></g><g
       id="g146"
       transform="translate(-540.25347,-81.621028)"><path
         style="font-size:112.499px;font-family:Monda;-inkscape-font-specification:Monda;opacity:0.968051;fill:#ffffff;fill-opacity:1;stroke-width:3.25643"
         d="m -832.62969,-602.84923 h 32.45562 v -142.75054 h -32.45562 z"
         id="path119" /><path
         id="path120"
         style="font-size:112.499px;font-family:Monda;-inkscape-font-specification:Monda;opacity:0.968051;fill:#ffffff;fill-opacity:1;stroke-width:3.25643"
         d="m -909.44083,-747.59869 c -35.4307,0 -71.9436,25.12447 -72.214,73.37418 -0.2705,37.11514 22.9895,73.37418 70.05011,73.37418 12.17085,0 25.15305,-2.57008 35.70112,-9.7076 v 7.99441 h 32.45532 v -77.94219 c 0,-47.10768 -32.45507,-67.09298 -65.99255,-67.09298 z m -0.8118,31.97619 c 18.39152,0.28552 36.24201,13.70462 35.70112,41.68376 -0.27045,20.84156 -11.35927,41.68235 -33.53726,41.68235 -27.58726,0 -41.11086,-21.41233 -41.11086,-42.25389 0,-27.1226 19.74409,-41.39772 38.947,-41.11222 z" /><path
         style="font-size:112.499px;font-family:Monda;-inkscape-font-specification:Monda;opacity:0.968051;fill:#de5ba7;fill-opacity:1;stroke-width:3.25643"
         d="m -1027.634,-668.44362 c 0,10.84902 7.0321,18.27209 17.3097,18.27209 10.54797,0 17.58007,-7.42307 17.58007,-18.27209 0,-11.13455 -7.0321,-18.27209 -17.58007,-18.27209 -10.2776,0 -17.3097,7.13754 -17.3097,18.27209 z"
         id="path121" /><path
         style="font-size:112.499px;font-family:Monda;-inkscape-font-specification:Monda;opacity:0.968051;fill:#ffffff;fill-opacity:1;stroke-width:3.25643"
         d="m -1100.9299,-747.59828 c -39.7581,0 -62.477,25.40958 -62.477,67.66378 v 77.08527 h 32.4556 v -81.93881 c 0,-18.84308 12.4413,-31.40512 30.0214,-31.40512 17.5801,0 30.0215,12.56204 30.0215,31.40512 v 81.93881 h 32.4556 v -77.08527 c 0,-42.2542 -22.7189,-67.66378 -62.4771,-67.66378 z"
         id="path122" /><path
         style="font-size:112.499px;font-family:Monda;-inkscape-font-specification:Monda;opacity:0.968051;fill:#ffffff;fill-opacity:1;stroke-width:3.25643"
         d="m -1206.9513,-602.84923 h 32.4556 v -142.75054 h -32.4556 z"
         id="path123" /><path
         style="font-size:112.499px;font-family:Monda;-inkscape-font-specification:Monda;opacity:0.968051;fill:#ffffff;fill-opacity:1;stroke-width:3.25643"
         d="m -1265.1008,-602.84923 v -99.92538 c 0,-6.85202 3.2456,-11.42004 11.9004,-11.42004 h 35.7012 v -31.40512 h -40.5695 c -25.9647,0 -39.4877,16.27355 -39.4877,38.82813 v 103.92241 z"
         id="path124" /><path
         style="font-size:112.499px;font-family:Monda;-inkscape-font-specification:Monda;opacity:0.968051;fill:#ffffff;fill-opacity:1;stroke-width:3.25643"
         d="m -1438.1974,-747.59828 c -34.6194,0 -54.3633,25.40958 -54.3633,67.66378 v 77.08527 h 32.4556 v -85.93581 c 0,-18.84311 10.8186,-27.40812 21.9077,-27.40812 10.8186,0 21.637,8.56501 21.637,27.40812 v 85.93581 h 32.1851 v -85.93581 c 0,-18.84311 10.8186,-27.40812 21.9077,-27.40812 10.8186,0 21.637,8.56501 21.637,27.40812 v 85.93581 h 32.4556 v -77.08527 c 0,-42.2542 -19.4735,-67.66378 -54.0926,-67.66378 -15.9574,0 -28.6691,5.42453 -37.865,15.41707 -8.9253,-9.99254 -21.9075,-15.41707 -37.8648,-15.41707 z"
         id="path125" /><path
         id="path126"
         style="font-size:112.499px;font-family:Monda;-inkscape-font-specification:Monda;opacity:0.968051;fill:#ffffff;fill-opacity:1;stroke-width:3.25643"
         d="m -1572.6179,-748.45457 c -49.7654,0 -71.6723,36.82915 -71.6723,73.94429 0,37.11514 21.9069,73.94572 71.6723,73.94572 39.7582,0 61.9363,-23.69711 68.9684,-52.24724 h -34.0791 c -5.95,11.99106 -17.8501,20.84118 -34.8893,20.84118 -22.1781,0 -34.8901,-14.8461 -38.6766,-31.97619 h 106.8331 c 0.2697,-3.42601 0.8119,-7.13743 0.8119,-10.56347 0,-37.11514 -21.9077,-73.94429 -68.9684,-73.94429 z m 0,31.40465 c 17.0392,0 28.6688,10.56378 33.8076,24.55332 h -70.3204 c 5.4092,-13.70405 17.5803,-24.55332 36.5128,-24.55332 z" /><path
         style="font-size:112.499px;font-family:Monda;-inkscape-font-specification:Monda;opacity:0.968051;fill:#ffffff;fill-opacity:1;stroke-width:3.25643"
         d="m -1699.4648,-602.84923 v -99.92538 c 0,-6.85202 3.2456,-11.42004 11.9004,-11.42004 h 35.7012 v -31.40512 h -40.5697 c -25.9644,0 -39.4875,16.27355 -39.4875,38.82813 v 103.92241 z"
         id="path127" /></g><g
       id="g136"
       transform="matrix(2.7512198,0,0,2.7512198,1035.7695,1618.7879)"><path
         style="font-size:112.499px;font-family:Monda;-inkscape-font-specification:Monda;opacity:0.968051;fill:#1a1825;fill-opacity:1;stroke-width:1.18363"
         d="m -876.89808,-753.82634 h 11.79681 v -51.88627 h -11.79681 z"
         id="path128" /><path
         id="path129"
         style="font-size:112.499px;font-family:Monda;-inkscape-font-specification:Monda;opacity:0.968051;fill:#1a1825;fill-opacity:1;stroke-width:1.18363"
         d="m -904.81702,-806.43917 c -12.87818,0 -26.14971,9.13212 -26.24801,26.66969 -0.0983,13.49043 8.35612,26.66969 25.46149,26.66969 4.4238,0 9.14251,-0.93416 12.97647,-3.52847 v 2.90577 h 11.7967 v -28.33005 c 0,-17.12247 -11.79661,-24.38663 -23.98665,-24.38663 z m -0.29507,11.62255 c 6.68486,0.10378 13.17307,4.98129 12.97647,15.15101 -0.0983,7.57539 -4.12881,15.1505 -12.18996,15.1505 -10.0273,0 -14.94276,-7.78285 -14.94276,-15.35824 0,-9.85839 7.17647,-15.04704 14.15625,-14.94327 z" /><path
         style="font-size:112.499px;font-family:Monda;-inkscape-font-specification:Monda;opacity:0.968051;fill:#de5ba7;fill-opacity:1;stroke-width:1.18363"
         d="m -947.77731,-777.66827 c 0,3.94335 2.55598,6.64145 6.29163,6.64145 3.83397,0 6.38995,-2.6981 6.38995,-6.64145 0,-4.04713 -2.55598,-6.64145 -6.38995,-6.64145 -3.73565,0 -6.29163,2.59432 -6.29163,6.64145 z"
         id="path130" /><path
         style="font-size:112.499px;font-family:Monda;-inkscape-font-specification:Monda;opacity:0.968051;fill:#1a1825;fill-opacity:1;stroke-width:1.18363"
         d="m -974.41854,-806.43902 c -14.45109,0 -22.70886,9.23575 -22.70886,24.5941 v 28.01858 h 11.79682 v -29.78272 c 0,-6.84899 4.5221,-11.41498 10.91204,-11.41498 6.38994,0 10.91205,4.56599 10.91205,11.41498 v 29.78272 h 11.79681 v -28.01858 c 0,-15.35835 -8.25776,-24.5941 -22.70886,-24.5941 z"
         id="path131" /><path
         style="font-size:112.499px;font-family:Monda;-inkscape-font-specification:Monda;opacity:0.968051;fill:#1a1825;fill-opacity:1;stroke-width:1.18363"
         d="m -1012.9547,-753.82634 h 11.7968 v -51.88627 h -11.7968 z"
         id="path132" /><path
         style="font-size:112.499px;font-family:Monda;-inkscape-font-specification:Monda;opacity:0.968051;fill:#1a1825;fill-opacity:1;stroke-width:1.18363"
         d="m -1034.0906,-753.82634 v -36.32039 c 0,-2.49054 1.1797,-4.1509 4.3255,-4.1509 h 12.9765 v -11.41498 h -14.746 c -9.4375,0 -14.3528,5.91503 -14.3528,14.11306 v 37.77321 z"
         id="path133" /><path
         style="font-size:112.499px;font-family:Monda;-inkscape-font-specification:Monda;opacity:0.968051;fill:#1a1825;fill-opacity:1;stroke-width:1.18363"
         d="m -1097.0069,-806.43902 c -12.5833,0 -19.7597,9.23575 -19.7597,24.5941 v 28.01858 h 11.7968 v -31.23553 c 0,-6.849 3.9323,-9.96217 7.9629,-9.96217 3.9323,0 7.8645,3.11317 7.8645,9.96217 v 31.23553 h 11.6985 v -31.23553 c 0,-6.849 3.9323,-9.96217 7.9629,-9.96217 3.9323,0 7.8645,3.11317 7.8645,9.96217 v 31.23553 h 11.7968 v -28.01858 c 0,-15.35835 -7.0781,-24.5941 -19.6613,-24.5941 -5.8001,0 -10.4205,1.97168 -13.763,5.60372 -3.2441,-3.63204 -7.9628,-5.60372 -13.7629,-5.60372 z"
         id="path134" /><path
         id="path135"
         style="font-size:112.499px;font-family:Monda;-inkscape-font-specification:Monda;opacity:0.968051;fill:#1a1825;fill-opacity:1;stroke-width:1.18363"
         d="m -1145.8654,-806.75026 c -18.0885,0 -26.0511,13.38648 -26.0511,26.87691 0,13.49043 7.9626,26.87743 26.0511,26.87743 14.4511,0 22.5123,-8.61331 25.0683,-18.99057 h -12.3869 c -2.1627,4.35845 -6.4881,7.57525 -12.6814,7.57525 -8.0612,0 -12.6817,-5.39619 -14.058,-11.62255 h 38.8312 c 0.098,-1.24527 0.2951,-2.59428 0.2951,-3.83956 0,-13.49043 -7.9629,-26.87691 -25.0683,-26.87691 z m 0,11.41481 c 6.1933,0 10.4204,3.83967 12.2882,8.92452 h -25.5597 c 1.9661,-4.98108 6.39,-8.92452 13.2715,-8.92452 z" /><path
         style="font-size:112.499px;font-family:Monda;-inkscape-font-specification:Monda;opacity:0.968051;fill:#1a1825;fill-opacity:1;stroke-width:1.18363"
         d="m -1191.9711,-753.82634 v -36.32039 c 0,-2.49054 1.1797,-4.1509 4.3255,-4.1509 h 12.9765 v -11.41498 h -14.7461 c -9.4374,0 -14.3527,5.91503 -14.3527,14.11306 v 37.77321 z"
         id="path136" /></g><g
       id="g144"
       transform="translate(-3219.9966,618.11896)"
       style="fill:#1a1825;fill-opacity:1"><g
         id="g140"
         transform="matrix(0.83092212,0,0,0.83092212,747.89888,-373.72593)"
         style="fill:#1a1825;fill-opacity:1"><path
           id="path137"
           style="opacity:1;fill:#1a1825;fill-opacity:1;stroke-width:1.05027"
           d="m -379.65994,-1057.574 205.64824,118.82238 100.514339,105.21186 c -11.52189,25.14564 -40.947319,75.15189 -137.048219,44.8089 13.08656,41.93859 53.99768,153.90207 58.75782,168.76976 l -46.52173,-0.26041 -30.28354,-92.25986 h -25.70705 c 1.26918,-32.68478 -12.78321,-70.75221 -52.46851,-84.51208 29.54866,24.04588 55.45316,57.97369 16.19923,118.31771 56.98889,6.03758 64.4018,33.05033 73.94781,59.1599 l -159.16552,-0.70567 -59.51064,-63.73638 c 4.78822,-81.57605 27.19039,-172.69409 167.26407,-165.85482 -2.37853,-23.93494 3.48566,-58.01188 51.76491,-73.2442 l -150.01051,-90.85279 c -6.67648,-6.4203 -13.19131,-29.0654 -13.3807,-43.6643 z m 192.26547,155.64345 c -2.76044,9.91782 -9.08403,38.95444 9.86069,55.63779 10.14942,9.75326 28.85532,14.2288 52.11564,9.86064 z" /><path
           style="opacity:1;fill:#1a1825;fill-opacity:1;stroke-width:1.05027"
           d="m -138.9841,-913.10126 -27.62307,-32.13911 -180.48446,-118.91593 c 22.31418,0.1532 32.0116,-5.0561 50.85783,4.6339 l 137.90119,96.69965 z"
           id="path138"
           sodipodi:nodetypes="cccccc" /><path
           style="opacity:1;fill:#1a1825;fill-opacity:1;stroke-width:0.951049"
           d="m -108.51158,-880.96699 -22.20883,-23.92309 58.599329,-23.28845 z"
           id="path139"
           sodipodi:nodetypes="cccc" /><ellipse
           style="opacity:1;fill:#1a1825;fill-opacity:1;stroke-width:0.82575"
           id="ellipse139"
           cx="450.89233"
           cy="-648.02417"
           rx="28.80806"
           ry="27.614826"
           transform="scale(-1,1)" /><path
           style="opacity:1;fill:#1a1825;fill-opacity:1;stroke-width:0.709328"
           d="m -172.13732,-696.09541 c 8.13373,24.66192 17.31133,49.93419 26.43962,75.97231 l 46.605709,0.58234 -18.928209,-52.60542 z"
           id="path140"
           sodipodi:nodetypes="ccccc" /></g><path
         id="path141"
         style="fill:#1a1825;fill-opacity:1;stroke-width:0.872693"
         d="m 432.43104,-1252.4876 170.87767,98.7322 83.51959,87.4228 c -9.5738,20.8941 -34.02404,62.4454 -113.8764,37.2328 10.87391,34.84765 44.86787,127.88059 48.82317,140.23448 l -38.65593,-0.21638 -25.16327,-76.66076 h -21.36055 c 1.05459,-27.15851 -10.62185,-58.78954 -43.59725,-70.22294 24.55264,19.9802 46.07726,48.1716 13.4603,98.31279 47.35333,5.01675 53.51288,27.46225 61.44487,49.15726 l -132.25415,-0.58635 -49.44871,-52.95997 c 3.97864,-67.78333 22.5931,-143.49533 138.98342,-137.81243 -1.97637,-19.8881 2.89631,-48.2034 43.01261,-60.8602 l -124.64705,-75.4916 c -5.54764,-5.3348 -10.96095,-24.1511 -11.11832,-36.2817 z m 159.75763,129.3276 c -2.29371,8.241 -7.54812,32.3681 8.19347,46.2307 8.43337,8.1042 23.97652,11.823 43.30403,8.1934 z" /><path
         style="fill:#1a1825;fill-opacity:1;stroke-width:0.872693"
         d="m 632.41392,-1132.442 -22.95262,-26.7051 -149.96853,-98.8098 c 18.54134,0.1273 26.59914,-4.2013 42.25889,3.8504 l 114.58515,80.3498 z"
         id="path142"
         sodipodi:nodetypes="cccccc" /><path
         style="fill:#1a1825;fill-opacity:1;stroke-width:0.790248"
         d="m 657.73421,-1105.7409 -18.45381,-19.8782 48.69148,-19.3509 z"
         id="path143"
         sodipodi:nodetypes="cccc" /><ellipse
         style="fill:#1a1825;fill-opacity:1;stroke-width:0.686134"
         id="ellipse143"
         cx="-373.24246"
         cy="-912.18353"
         rx="23.937254"
         ry="22.94577"
         transform="scale(-1,1)" /><path
         style="fill:#1a1825;fill-opacity:1;stroke-width:0.589396"
         d="m 604.86617,-952.127 c 6.7585,20.49213 14.38437,41.49142 21.96927,63.12707 l 38.72571,0.48388 -15.72786,-43.71101 z"
         id="path144"
         sodipodi:nodetypes="ccccc" /></g></g></svg>
