<?xml version="1.0" encoding="UTF-8" standalone="no"?>
<!-- Created with Inkscape (http://www.inkscape.org/) -->

<svg
   width="210mm"
   height="297mm"
   viewBox="0 0 210 297"
   version="1.1"
   id="svg1"
   xml:space="preserve"
   sodipodi:docname="r_logo.svg"
   xmlns:inkscape="http://www.inkscape.org/namespaces/inkscape"
   xmlns:sodipodi="http://sodipodi.sourceforge.net/DTD/sodipodi-0.dtd"
   xmlns="http://www.w3.org/2000/svg"
   xmlns:svg="http://www.w3.org/2000/svg"><sodipodi:namedview
     id="namedview1"
     pagecolor="#ffffff"
     bordercolor="#000000"
     borderopacity="0.25"
     inkscape:showpageshadow="2"
     inkscape:pageopacity="0.0"
     inkscape:pagecheckerboard="0"
     inkscape:deskcolor="#d1d1d1"
     inkscape:document-units="mm"
     showgrid="true"
     showguides="true"
     inkscape:zoom="1.1138056"
     inkscape:cx="356.88453"
     inkscape:cy="404.46913"
     inkscape:window-width="1904"
     inkscape:window-height="1032"
     inkscape:window-x="0"
     inkscape:window-y="0"
     inkscape:window-maximized="0"
     inkscape:current-layer="layer1"><inkscape:grid
       id="grid2"
       units="mm"
       originx="0"
       originy="0"
       spacingx="0.99999998"
       spacingy="1"
       empcolor="#0099e5"
       empopacity="0.30196078"
       color="#0099e5"
       opacity="0.14901961"
       empspacing="5"
       enabled="true"
       visible="true" /></sodipodi:namedview><defs
     id="defs1"><inkscape:path-effect
       effect="fillet_chamfer"
       id="path-effect2"
       is_visible="true"
       lpeversion="1"
       nodesatellites_param="F,0,1,1,0,11.34534,0,1 @ F,0,0,1,0,5.8203541,0,1 @ F,0,0,1,0,11.34534,0,1 @ F,0,0,1,0,0,0,1 @ F,0,0,1,0,5.577857,0,1 @ F,0,0,1,0,1.5514667,0,1 @ F,0,0,1,0,0.73628963,0,1 @ F,0,0,1,0,9.7046566,0,1 @ F,0,0,1,0,5.6022754,0,1 @ F,0,0,1,0,5.6380335,0,1 | F,0,0,1,0,0,0,1"
       radius="0"
       unit="px"
       method="auto"
       mode="F"
       chamfer_steps="1"
       flexible="false"
       use_knot_distance="true"
       apply_no_radius="true"
       apply_with_radius="true"
       only_selected="false"
       hide_knots="false" /></defs><g
     inkscape:label="Layer 1"
     inkscape:groupmode="layer"
     id="layer1"
     transform="translate(5.7011677,-10.92725)"><path
       id="path1"
       style="opacity:1;fill:#88009d;fill-opacity:0.90384614;stroke-width:0.265278"
       d="m 116.34756,55.238202 -38.961963,0.221691 c -2.509296,0.01417 -4.923317,0.926779 -6.769096,2.559017 L 39.183278,85.816697 C 35.622683,88.965405 33.615213,93.411162 33.657,98.055226 l 0.414649,77.813074 17.737215,-24.27526 c 1.052913,-1.53393 3.317691,-1.73264 4.641061,-0.40721 l 24.876151,24.62004 c 16.935681,-0.0192 59.683904,0.61929 87.860284,-0.092 -18.88734,-14.43132 -28.26042,-23.2785 -28.26042,-23.2785 -2.68403,-2.38442 -2.97962,-6.35854 -0.67593,-9.08781 l 12.09073,-14.32264 c 1.52823,-1.81062 2.35614,-4.07269 2.34301,-6.40168 l -0.15916,-28.603934 c -0.013,-2.343318 -0.87455,-4.608866 -2.43706,-6.40891 L 128.81347,60.797552 c -3.07954,-3.547592 -7.65226,-5.586863 -12.46591,-5.55935 z M 97.157515,73.41487 c 21.443595,4.1e-5 38.827045,17.383491 38.827095,38.82708 -4e-5,21.44359 -17.38349,38.82705 -38.827093,38.82709 -21.443588,-4e-5 -38.827043,-17.38349 -38.827088,-38.82709 4.4e-5,-21.44358 17.383495,-38.827033 38.827086,-38.82708 z"
       sodipodi:nodetypes="ccccccccccccccccccccccc" /></g></svg>
