<?xml version="1.0" encoding="UTF-8" standalone="no"?>
<!-- Created with Inkscape (http://www.inkscape.org/) -->

<svg
   width="338.66666mm"
   height="53.754349mm"
   viewBox="0 0 338.66666 53.754348"
   version="1.1"
   id="svg1"
   xml:space="preserve"
   sodipodi:docname="remrin_logos_master.svg"
   inkscape:export-filename="remrin.svg"
   inkscape:export-xdpi="125"
   inkscape:export-ydpi="125"
   inkscape:export-batch-path="/mnt/Data68/remrin/chat/public/logos"
   inkscape:export-batch-name="remrin"
   inkscape:version="1.4.2 (ebf0e940d0, 2025-05-08)"
   xmlns:inkscape="http://www.inkscape.org/namespaces/inkscape"
   xmlns:sodipodi="http://sodipodi.sourceforge.net/DTD/sodipodi-0.dtd"
   xmlns="http://www.w3.org/2000/svg"
   xmlns:svg="http://www.w3.org/2000/svg"><sodipodi:namedview
     id="namedview1"
     pagecolor="#c1c1c1"
     bordercolor="#000000"
     borderopacity="0.25"
     inkscape:showpageshadow="2"
     inkscape:pageopacity="0.0"
     inkscape:pagecheckerboard="0"
     inkscape:deskcolor="#d1d1d1"
     inkscape:document-units="mm"
     inkscape:zoom="0.028284271"
     inkscape:cx="16440.233"
     inkscape:cy="12144.559"
     inkscape:window-width="1920"
     inkscape:window-height="1048"
     inkscape:window-x="0"
     inkscape:window-y="0"
     inkscape:window-maximized="1"
     inkscape:current-layer="layer1"
     showgrid="false"><inkscape:page
       x="0"
       y="0"
       width="338.66666"
       height="53.754349"
       id="page1"
       margin="0"
       bleed="0" /></sodipodi:namedview><defs
     id="defs1" /><g
     inkscape:label="Layer 1"
     inkscape:groupmode="layer"
     id="layer1"
     transform="translate(7070.9983,1807.7683)"><g
       id="text_logo_dark_bg"
       transform="matrix(0.36347518,0,0,0.36347518,-6441.4882,-1535.7236)"><path
         style="font-size:112.499px;font-family:Monda;-inkscape-font-specification:Monda;opacity:0.968051;fill:#ffffff;fill-opacity:1;stroke-width:3.25643"
         d="m -832.62969,-602.84923 h 32.45562 v -142.75054 h -32.45562 z"
         id="path119" /><path
         id="path120"
         style="font-size:112.499px;font-family:Monda;-inkscape-font-specification:Monda;opacity:0.968051;fill:#ffffff;fill-opacity:1;stroke-width:3.25643"
         d="m -909.44083,-747.59869 c -35.4307,0 -71.9436,25.12447 -72.214,73.37418 -0.2705,37.11514 22.9895,73.37418 70.05011,73.37418 12.17085,0 25.15305,-2.57008 35.70112,-9.7076 v 7.99441 h 32.45532 v -77.94219 c 0,-47.10768 -32.45507,-67.09298 -65.99255,-67.09298 z m -0.8118,31.97619 c 18.39152,0.28552 36.24201,13.70462 35.70112,41.68376 -0.27045,20.84156 -11.35927,41.68235 -33.53726,41.68235 -27.58726,0 -41.11086,-21.41233 -41.11086,-42.25389 0,-27.1226 19.74409,-41.39772 38.947,-41.11222 z" /><path
         style="font-size:112.499px;font-family:Monda;-inkscape-font-specification:Monda;opacity:0.968051;fill:#de5ba7;fill-opacity:1;stroke-width:3.25643"
         d="m -1027.634,-668.44362 c 0,10.84902 7.0321,18.27209 17.3097,18.27209 10.54797,0 17.58007,-7.42307 17.58007,-18.27209 0,-11.13455 -7.0321,-18.27209 -17.58007,-18.27209 -10.2776,0 -17.3097,7.13754 -17.3097,18.27209 z"
         id="path121" /><path
         style="font-size:112.499px;font-family:Monda;-inkscape-font-specification:Monda;opacity:0.968051;fill:#ffffff;fill-opacity:1;stroke-width:3.25643"
         d="m -1100.9299,-747.59828 c -39.7581,0 -62.477,25.40958 -62.477,67.66378 v 77.08527 h 32.4556 v -81.93881 c 0,-18.84308 12.4413,-31.40512 30.0214,-31.40512 17.5801,0 30.0215,12.56204 30.0215,31.40512 v 81.93881 h 32.4556 v -77.08527 c 0,-42.2542 -22.7189,-67.66378 -62.4771,-67.66378 z"
         id="path122" /><path
         style="font-size:112.499px;font-family:Monda;-inkscape-font-specification:Monda;opacity:0.968051;fill:#ffffff;fill-opacity:1;stroke-width:3.25643"
         d="m -1206.9513,-602.84923 h 32.4556 v -142.75054 h -32.4556 z"
         id="path123" /><path
         style="font-size:112.499px;font-family:Monda;-inkscape-font-specification:Monda;opacity:0.968051;fill:#ffffff;fill-opacity:1;stroke-width:3.25643"
         d="m -1265.1008,-602.84923 v -99.92538 c 0,-6.85202 3.2456,-11.42004 11.9004,-11.42004 h 35.7012 v -31.40512 h -40.5695 c -25.9647,0 -39.4877,16.27355 -39.4877,38.82813 v 103.92241 z"
         id="path124" /><path
         style="font-size:112.499px;font-family:Monda;-inkscape-font-specification:Monda;opacity:0.968051;fill:#ffffff;fill-opacity:1;stroke-width:3.25643"
         d="m -1438.1974,-747.59828 c -34.6194,0 -54.3633,25.40958 -54.3633,67.66378 v 77.08527 h 32.4556 v -85.93581 c 0,-18.84311 10.8186,-27.40812 21.9077,-27.40812 10.8186,0 21.637,8.56501 21.637,27.40812 v 85.93581 h 32.1851 v -85.93581 c 0,-18.84311 10.8186,-27.40812 21.9077,-27.40812 10.8186,0 21.637,8.56501 21.637,27.40812 v 85.93581 h 32.4556 v -77.08527 c 0,-42.2542 -19.4735,-67.66378 -54.0926,-67.66378 -15.9574,0 -28.6691,5.42453 -37.865,15.41707 -8.9253,-9.99254 -21.9075,-15.41707 -37.8648,-15.41707 z"
         id="path125" /><path
         id="path126"
         style="font-size:112.499px;font-family:Monda;-inkscape-font-specification:Monda;opacity:0.968051;fill:#ffffff;fill-opacity:1;stroke-width:3.25643"
         d="m -1572.6179,-748.45457 c -49.7654,0 -71.6723,36.82915 -71.6723,73.94429 0,37.11514 21.9069,73.94572 71.6723,73.94572 39.7582,0 61.9363,-23.69711 68.9684,-52.24724 h -34.0791 c -5.95,11.99106 -17.8501,20.84118 -34.8893,20.84118 -22.1781,0 -34.8901,-14.8461 -38.6766,-31.97619 h 106.8331 c 0.2697,-3.42601 0.8119,-7.13743 0.8119,-10.56347 0,-37.11514 -21.9077,-73.94429 -68.9684,-73.94429 z m 0,31.40465 c 17.0392,0 28.6688,10.56378 33.8076,24.55332 h -70.3204 c 5.4092,-13.70405 17.5803,-24.55332 36.5128,-24.55332 z" /><path
         style="font-size:112.499px;font-family:Monda;-inkscape-font-specification:Monda;opacity:0.968051;fill:#ffffff;fill-opacity:1;stroke-width:3.25643"
         d="m -1699.4648,-602.84923 v -99.92538 c 0,-6.85202 3.2456,-11.42004 11.9004,-11.42004 h 35.7012 v -31.40512 h -40.5697 c -25.9644,0 -39.4875,16.27355 -39.4875,38.82813 v 103.92241 z"
         id="path127" /></g></g></svg>
