<?xml version="1.0" encoding="UTF-8" standalone="no"?>
<!-- Created with Inkscape (http://www.inkscape.org/) -->

<svg
   width="338.66666mm"
   height="97.51181mm"
   viewBox="0 0 338.66666 97.511809"
   version="1.1"
   id="svg1"
   xml:space="preserve"
   sodipodi:docname="remrin_logos_master.svg"
   inkscape:export-filename="remrin.svg"
   inkscape:export-xdpi="125"
   inkscape:export-ydpi="125"
   inkscape:export-batch-path="/mnt/Data68/remrin/chat/public/logos"
   inkscape:export-batch-name="remrin"
   inkscape:version="1.4.2 (ebf0e940d0, 2025-05-08)"
   xmlns:inkscape="http://www.inkscape.org/namespaces/inkscape"
   xmlns:sodipodi="http://sodipodi.sourceforge.net/DTD/sodipodi-0.dtd"
   xmlns="http://www.w3.org/2000/svg"
   xmlns:svg="http://www.w3.org/2000/svg"><sodipodi:namedview
     id="namedview1"
     pagecolor="#c1c1c1"
     bordercolor="#000000"
     borderopacity="0.25"
     inkscape:showpageshadow="2"
     inkscape:pageopacity="0.0"
     inkscape:pagecheckerboard="0"
     inkscape:deskcolor="#d1d1d1"
     inkscape:document-units="mm"
     inkscape:zoom="0.028284271"
     inkscape:cx="16440.233"
     inkscape:cy="12144.559"
     inkscape:window-width="1920"
     inkscape:window-height="1048"
     inkscape:window-x="0"
     inkscape:window-y="0"
     inkscape:window-maximized="1"
     inkscape:current-layer="layer1"
     showgrid="false"><inkscape:page
       x="0"
       y="0"
       width="338.66666"
       height="97.511803"
       id="page1"
       margin="0"
       bleed="0" /></sodipodi:namedview><defs
     id="defs1" /><g
     inkscape:label="Layer 1"
     inkscape:groupmode="layer"
     id="layer1"
     transform="translate(7082.8267,1500.0061)"><g
       id="logo_dark_bg"
       transform="matrix(0.26032305,0,0,0.26032305,-6210.0562,-936.54215)"><path
         style="font-size:112.499px;font-family:Monda;-inkscape-font-specification:Monda;opacity:0.968051;fill:#ffffff;fill-opacity:1;stroke-width:3.25643"
         d="m -2084.1521,-1792.1843 h 32.4557 v -142.7505 h -32.4557 z"
         id="path110" /><path
         id="path111"
         style="font-size:112.499px;font-family:Monda;-inkscape-font-specification:Monda;opacity:0.968051;fill:#ffffff;fill-opacity:1;stroke-width:3.25643"
         d="m -2160.9632,-1936.9337 c -35.4307,0 -71.9436,25.1245 -72.214,73.3742 -0.2705,37.1151 22.9895,73.3741 70.0501,73.3741 12.1709,0 25.1531,-2.57 35.7011,-9.7076 v 7.9945 h 32.4553 v -77.9422 c 0,-47.1077 -32.455,-67.093 -65.9925,-67.093 z m -0.8118,31.9762 c 18.3915,0.2855 36.242,13.7046 35.7011,41.6837 -0.2704,20.8416 -11.3592,41.6824 -33.5372,41.6824 -27.5873,0 -41.1109,-21.4123 -41.1109,-42.2539 0,-27.1226 19.7441,-41.3977 38.947,-41.1122 z" /><path
         style="font-size:112.499px;font-family:Monda;-inkscape-font-specification:Monda;opacity:0.968051;fill:#d859a3;fill-opacity:1;stroke-width:3.25643"
         d="m -2279.1564,-1857.7786 c 0,10.849 7.0321,18.272 17.3097,18.272 10.548,0 17.5801,-7.423 17.5801,-18.272 0,-11.1346 -7.0321,-18.2721 -17.5801,-18.2721 -10.2776,0 -17.3097,7.1375 -17.3097,18.2721 z"
         id="path112" /><path
         style="font-size:112.499px;font-family:Monda;-inkscape-font-specification:Monda;opacity:0.968051;fill:#ffffff;fill-opacity:1;stroke-width:3.25643"
         d="m -2352.4523,-1936.9333 c -39.7581,0 -62.477,25.4096 -62.477,67.6638 v 77.0852 h 32.4556 v -81.9388 c 0,-18.843 12.4413,-31.4051 30.0214,-31.4051 17.5801,0 30.0215,12.5621 30.0215,31.4051 v 81.9388 h 32.4556 v -77.0852 c 0,-42.2542 -22.7189,-67.6638 -62.4771,-67.6638 z"
         id="path113" /><path
         style="font-size:112.499px;font-family:Monda;-inkscape-font-specification:Monda;opacity:0.968051;fill:#ffffff;fill-opacity:1;stroke-width:3.25643"
         d="m -2458.4737,-1792.1843 h 32.4556 v -142.7505 h -32.4556 z"
         id="path114" /><path
         style="font-size:112.499px;font-family:Monda;-inkscape-font-specification:Monda;opacity:0.968051;fill:#ffffff;fill-opacity:1;stroke-width:3.25643"
         d="m -2516.6232,-1792.1843 v -99.9253 c 0,-6.8521 3.2456,-11.4201 11.9004,-11.4201 h 35.7012 v -31.4051 h -40.5695 c -25.9647,0 -39.4877,16.2736 -39.4877,38.8281 v 103.9224 z"
         id="path115" /><path
         style="font-size:112.499px;font-family:Monda;-inkscape-font-specification:Monda;opacity:0.968051;fill:#ffffff;fill-opacity:1;stroke-width:3.25643"
         d="m -2689.7198,-1936.9333 c -34.6194,0 -54.3633,25.4096 -54.3633,67.6638 v 77.0852 h 32.4556 v -85.9358 c 0,-18.8431 10.8186,-27.4081 21.9077,-27.4081 10.8186,0 21.637,8.565 21.637,27.4081 v 85.9358 h 32.1851 v -85.9358 c 0,-18.8431 10.8186,-27.4081 21.9077,-27.4081 10.8186,0 21.637,8.565 21.637,27.4081 v 85.9358 h 32.4556 v -77.0852 c 0,-42.2542 -19.4735,-67.6638 -54.0926,-67.6638 -15.9574,0 -28.6691,5.4245 -37.865,15.4171 -8.9253,-9.9926 -21.9075,-15.4171 -37.8648,-15.4171 z"
         id="path116" /><path
         id="path117"
         style="font-size:112.499px;font-family:Monda;-inkscape-font-specification:Monda;opacity:0.968051;fill:#ffffff;fill-opacity:1;stroke-width:3.25643"
         d="m -2824.1403,-1937.7896 c -49.7654,0 -71.6723,36.8292 -71.6723,73.9443 0,37.1151 21.9069,73.9457 71.6723,73.9457 39.7582,0 61.9363,-23.6971 68.9684,-52.2472 h -34.0791 c -5.95,11.991 -17.8501,20.8412 -34.8893,20.8412 -22.1781,0 -34.8901,-14.8461 -38.6766,-31.9762 h 106.8331 c 0.2697,-3.426 0.8119,-7.1375 0.8119,-10.5635 0,-37.1151 -21.9077,-73.9443 -68.9684,-73.9443 z m 0,31.4047 c 17.0392,0 28.6688,10.5637 33.8076,24.5533 h -70.3204 c 5.4092,-13.7041 17.5803,-24.5533 36.5128,-24.5533 z" /><path
         style="font-size:112.499px;font-family:Monda;-inkscape-font-specification:Monda;opacity:0.968051;fill:#ffffff;fill-opacity:1;stroke-width:3.25643"
         d="m -2950.9872,-1792.1843 v -99.9253 c 0,-6.8521 3.2456,-11.4201 11.9004,-11.4201 h 35.7012 v -31.4051 h -40.5697 c -25.9644,0 -39.4875,16.2736 -39.4875,38.8281 v 103.9224 z"
         id="path118" /><g
         id="g182"
         transform="matrix(0.83092212,0,0,0.83092212,-2954.0504,-1279.1995)"
         style="fill:#1a1825;fill-opacity:1"><path
           id="path179"
           style="opacity:1;fill:#1a1825;fill-opacity:1;stroke-width:1.05027"
           d="m -379.65994,-1057.574 205.64824,118.82238 100.514339,105.21186 c -11.52189,25.14564 -40.947319,75.15189 -137.048219,44.8089 13.08656,41.93859 53.99768,153.90207 58.75782,168.76976 l -46.52173,-0.26041 -30.28354,-92.25986 h -25.70705 c 1.26918,-32.68478 -12.78321,-70.75221 -52.46851,-84.51208 29.54866,24.04588 55.45316,57.97369 16.19923,118.31771 56.98889,6.03758 64.4018,33.05033 73.94781,59.1599 l -159.16552,-0.70567 -59.51064,-63.73638 c 4.78822,-81.57605 27.19039,-172.69409 167.26407,-165.85482 -2.37853,-23.93494 3.48566,-58.01188 51.76491,-73.2442 l -150.01051,-90.85279 c -6.67648,-6.4203 -13.19131,-29.0654 -13.3807,-43.6643 z m 192.26547,155.64345 c -2.76044,9.91782 -9.08403,38.95444 9.86069,55.63779 10.14942,9.75326 28.85532,14.2288 52.11564,9.86064 z" /><path
           style="opacity:1;fill:#1a1825;fill-opacity:1;stroke-width:1.05027"
           d="m -138.9841,-913.10126 -27.62307,-32.13911 -180.48446,-118.91593 c 22.31418,0.1532 32.0116,-5.0561 50.85783,4.6339 l 137.90119,96.69965 z"
           id="path180"
           sodipodi:nodetypes="cccccc" /><path
           style="opacity:1;fill:#1a1825;fill-opacity:1;stroke-width:0.951049"
           d="m -108.51158,-880.96699 -22.20883,-23.92309 58.599329,-23.28845 z"
           id="path181"
           sodipodi:nodetypes="cccc" /><ellipse
           style="opacity:1;fill:#1a1825;fill-opacity:1;stroke-width:0.82575"
           id="ellipse181"
           cx="450.89233"
           cy="-648.02417"
           rx="28.80806"
           ry="27.614826"
           transform="scale(-1,1)" /><path
           style="opacity:1;fill:#1a1825;fill-opacity:1;stroke-width:0.709328"
           d="m -172.13732,-696.09541 c 8.13373,24.66192 17.31133,49.93419 26.43962,75.97231 l 46.605709,0.58234 -18.928209,-52.60542 z"
           id="path182"
           sodipodi:nodetypes="ccccc" /></g><path
         id="path183"
         style="fill:#ffffff;fill-opacity:1;stroke-width:0.872693"
         d="m -3269.5183,-2157.9612 170.8777,98.7322 83.5196,87.4228 c -9.5738,20.8941 -34.024,62.4454 -113.8764,37.2328 10.8739,34.8476 44.8679,127.8806 48.8232,140.2345 l -38.656,-0.2164 -25.1632,-76.6608 h -21.3606 c 1.0546,-27.1585 -10.6218,-58.7895 -43.5972,-70.2229 24.5526,19.9802 46.0772,48.1716 13.4603,98.3128 47.3533,5.0167 53.5128,27.4622 61.4448,49.1572 l -132.2541,-0.5863 -49.4487,-52.96 c 3.9786,-67.7833 22.5931,-143.4953 138.9834,-137.8124 -1.9764,-19.8881 2.8963,-48.2034 43.0126,-60.8602 l -124.647,-75.4916 c -5.5477,-5.3348 -10.961,-24.1511 -11.1184,-36.2817 z m 159.7577,129.3276 c -2.2937,8.241 -7.5482,32.3681 8.1934,46.2307 8.4334,8.1042 23.9766,11.823 43.3041,8.1934 z" /><path
         style="fill:#de5ba7;fill-opacity:0.968627;stroke-width:0.872693"
         d="m -3069.5354,-2037.9156 -22.9526,-26.7051 -149.9685,-98.8098 c 18.5413,0.1273 26.5991,-4.2013 42.2589,3.8504 l 114.5851,80.3498 z"
         id="path184"
         sodipodi:nodetypes="cccccc" /><path
         style="fill:#de5ba7;fill-opacity:0.968627;stroke-width:0.790248"
         d="m -3044.2151,-2011.2145 -18.4538,-19.8782 48.6915,-19.3509 z"
         id="path185"
         sodipodi:nodetypes="cccc" /><ellipse
         style="fill:#de5ba7;fill-opacity:0.968627;stroke-width:0.686134"
         id="ellipse185"
         cx="3328.7068"
         cy="-1817.6571"
         rx="23.937254"
         ry="22.94577"
         transform="scale(-1,1)" /><path
         style="fill:#ffffff;fill-opacity:1;stroke-width:0.589396"
         d="m -3097.0831,-1857.6006 c 6.7585,20.4921 14.3843,41.4914 21.9692,63.1271 l 38.7257,0.4838 -15.7278,-43.711 z"
         id="path186"
         sodipodi:nodetypes="ccccc" /></g></g></svg>
