<?xml version="1.0" encoding="UTF-8" standalone="no"?>
<!-- Created with Inkscape (http://www.inkscape.org/) -->

<svg
   width="338.66663mm"
   height="53.754341mm"
   viewBox="0 0 338.66663 53.75434"
   version="1.1"
   id="svg1"
   xml:space="preserve"
   sodipodi:docname="remrin_logos_master.svg"
   inkscape:export-filename="remrin.svg"
   inkscape:export-xdpi="125"
   inkscape:export-ydpi="125"
   inkscape:export-batch-path="/mnt/Data68/remrin/chat/public/logos"
   inkscape:export-batch-name="remrin"
   inkscape:version="1.4.2 (ebf0e940d0, 2025-05-08)"
   xmlns:inkscape="http://www.inkscape.org/namespaces/inkscape"
   xmlns:sodipodi="http://sodipodi.sourceforge.net/DTD/sodipodi-0.dtd"
   xmlns="http://www.w3.org/2000/svg"
   xmlns:svg="http://www.w3.org/2000/svg"><sodipodi:namedview
     id="namedview1"
     pagecolor="#c1c1c1"
     bordercolor="#000000"
     borderopacity="0.25"
     inkscape:showpageshadow="2"
     inkscape:pageopacity="0.0"
     inkscape:pagecheckerboard="0"
     inkscape:deskcolor="#d1d1d1"
     inkscape:document-units="mm"
     inkscape:zoom="0.028284271"
     inkscape:cx="16440.233"
     inkscape:cy="12144.559"
     inkscape:window-width="1920"
     inkscape:window-height="1048"
     inkscape:window-x="0"
     inkscape:window-y="0"
     inkscape:window-maximized="1"
     inkscape:current-layer="layer1"
     showgrid="false"><inkscape:page
       x="0"
       y="0"
       width="338.66663"
       height="53.754341"
       id="page1"
       margin="0"
       bleed="0" /></sodipodi:namedview><defs
     id="defs1" /><g
     inkscape:label="Layer 1"
     inkscape:groupmode="layer"
     id="layer1"
     transform="translate(7065.5304,1910.38)"><g
       id="text_logo_light_bg"
       transform="translate(-5861.7625,-1103.6297)"><path
         style="font-size:112.499px;font-family:Monda;-inkscape-font-specification:Monda;opacity:0.968051;fill:#1a1825;fill-opacity:1;stroke-width:1.18363"
         d="m -876.89808,-753.82634 h 11.79681 v -51.88627 h -11.79681 z"
         id="path128" /><path
         id="path129"
         style="font-size:112.499px;font-family:Monda;-inkscape-font-specification:Monda;opacity:0.968051;fill:#1a1825;fill-opacity:1;stroke-width:1.18363"
         d="m -904.81702,-806.43917 c -12.87818,0 -26.14971,9.13212 -26.24801,26.66969 -0.0983,13.49043 8.35612,26.66969 25.46149,26.66969 4.4238,0 9.14251,-0.93416 12.97647,-3.52847 v 2.90577 h 11.7967 v -28.33005 c 0,-17.12247 -11.79661,-24.38663 -23.98665,-24.38663 z m -0.29507,11.62255 c 6.68486,0.10378 13.17307,4.98129 12.97647,15.15101 -0.0983,7.57539 -4.12881,15.1505 -12.18996,15.1505 -10.0273,0 -14.94276,-7.78285 -14.94276,-15.35824 0,-9.85839 7.17647,-15.04704 14.15625,-14.94327 z" /><path
         style="font-size:112.499px;font-family:Monda;-inkscape-font-specification:Monda;opacity:0.968051;fill:#de5ba7;fill-opacity:1;stroke-width:1.18363"
         d="m -947.77731,-777.66827 c 0,3.94335 2.55598,6.64145 6.29163,6.64145 3.83397,0 6.38995,-2.6981 6.38995,-6.64145 0,-4.04713 -2.55598,-6.64145 -6.38995,-6.64145 -3.73565,0 -6.29163,2.59432 -6.29163,6.64145 z"
         id="path130" /><path
         style="font-size:112.499px;font-family:Monda;-inkscape-font-specification:Monda;opacity:0.968051;fill:#1a1825;fill-opacity:1;stroke-width:1.18363"
         d="m -974.41854,-806.43902 c -14.45109,0 -22.70886,9.23575 -22.70886,24.5941 v 28.01858 h 11.79682 v -29.78272 c 0,-6.84899 4.5221,-11.41498 10.91204,-11.41498 6.38994,0 10.91205,4.56599 10.91205,11.41498 v 29.78272 h 11.79681 v -28.01858 c 0,-15.35835 -8.25776,-24.5941 -22.70886,-24.5941 z"
         id="path131" /><path
         style="font-size:112.499px;font-family:Monda;-inkscape-font-specification:Monda;opacity:0.968051;fill:#1a1825;fill-opacity:1;stroke-width:1.18363"
         d="m -1012.9547,-753.82634 h 11.7968 v -51.88627 h -11.7968 z"
         id="path132" /><path
         style="font-size:112.499px;font-family:Monda;-inkscape-font-specification:Monda;opacity:0.968051;fill:#1a1825;fill-opacity:1;stroke-width:1.18363"
         d="m -1034.0906,-753.82634 v -36.32039 c 0,-2.49054 1.1797,-4.1509 4.3255,-4.1509 h 12.9765 v -11.41498 h -14.746 c -9.4375,0 -14.3528,5.91503 -14.3528,14.11306 v 37.77321 z"
         id="path133" /><path
         style="font-size:112.499px;font-family:Monda;-inkscape-font-specification:Monda;opacity:0.968051;fill:#1a1825;fill-opacity:1;stroke-width:1.18363"
         d="m -1097.0069,-806.43902 c -12.5833,0 -19.7597,9.23575 -19.7597,24.5941 v 28.01858 h 11.7968 v -31.23553 c 0,-6.849 3.9323,-9.96217 7.9629,-9.96217 3.9323,0 7.8645,3.11317 7.8645,9.96217 v 31.23553 h 11.6985 v -31.23553 c 0,-6.849 3.9323,-9.96217 7.9629,-9.96217 3.9323,0 7.8645,3.11317 7.8645,9.96217 v 31.23553 h 11.7968 v -28.01858 c 0,-15.35835 -7.0781,-24.5941 -19.6613,-24.5941 -5.8001,0 -10.4205,1.97168 -13.763,5.60372 -3.2441,-3.63204 -7.9628,-5.60372 -13.7629,-5.60372 z"
         id="path134" /><path
         id="path135"
         style="font-size:112.499px;font-family:Monda;-inkscape-font-specification:Monda;opacity:0.968051;fill:#1a1825;fill-opacity:1;stroke-width:1.18363"
         d="m -1145.8654,-806.75026 c -18.0885,0 -26.0511,13.38648 -26.0511,26.87691 0,13.49043 7.9626,26.87743 26.0511,26.87743 14.4511,0 22.5123,-8.61331 25.0683,-18.99057 h -12.3869 c -2.1627,4.35845 -6.4881,7.57525 -12.6814,7.57525 -8.0612,0 -12.6817,-5.39619 -14.058,-11.62255 h 38.8312 c 0.098,-1.24527 0.2951,-2.59428 0.2951,-3.83956 0,-13.49043 -7.9629,-26.87691 -25.0683,-26.87691 z m 0,11.41481 c 6.1933,0 10.4204,3.83967 12.2882,8.92452 h -25.5597 c 1.9661,-4.98108 6.39,-8.92452 13.2715,-8.92452 z" /><path
         style="font-size:112.499px;font-family:Monda;-inkscape-font-specification:Monda;opacity:0.968051;fill:#1a1825;fill-opacity:1;stroke-width:1.18363"
         d="m -1191.9711,-753.82634 v -36.32039 c 0,-2.49054 1.1797,-4.1509 4.3255,-4.1509 h 12.9765 v -11.41498 h -14.7461 c -9.4374,0 -14.3527,5.91503 -14.3527,14.11306 v 37.77321 z"
         id="path136" /></g></g></svg>
