<?xml version="1.0" encoding="UTF-8" standalone="no"?>
<!-- Created with Inkscape (http://www.inkscape.org/) -->

<svg
   width="338.66669mm"
   height="97.511818mm"
   viewBox="0 0 338.66669 97.511817"
   version="1.1"
   id="svg1"
   xml:space="preserve"
   sodipodi:docname="remrin_logos_master.svg"
   inkscape:export-filename="remrin.svg"
   inkscape:export-xdpi="125"
   inkscape:export-ydpi="125"
   inkscape:export-batch-path="/mnt/Data68/remrin/chat/public/logos"
   inkscape:export-batch-name="remrin"
   inkscape:version="1.4.2 (ebf0e940d0, 2025-05-08)"
   xmlns:inkscape="http://www.inkscape.org/namespaces/inkscape"
   xmlns:sodipodi="http://sodipodi.sourceforge.net/DTD/sodipodi-0.dtd"
   xmlns="http://www.w3.org/2000/svg"
   xmlns:svg="http://www.w3.org/2000/svg"><sodipodi:namedview
     id="namedview1"
     pagecolor="#c1c1c1"
     bordercolor="#000000"
     borderopacity="0.25"
     inkscape:showpageshadow="2"
     inkscape:pageopacity="0.0"
     inkscape:pagecheckerboard="0"
     inkscape:deskcolor="#d1d1d1"
     inkscape:document-units="mm"
     inkscape:zoom="0.028284271"
     inkscape:cx="16440.233"
     inkscape:cy="12144.559"
     inkscape:window-width="1920"
     inkscape:window-height="1048"
     inkscape:window-x="0"
     inkscape:window-y="0"
     inkscape:window-maximized="1"
     inkscape:current-layer="layer1"
     showgrid="false"><inkscape:page
       x="0"
       y="0"
       width="338.66669"
       height="97.51181"
       id="page1"
       margin="0"
       bleed="0" /></sodipodi:namedview><defs
     id="defs1" /><g
     inkscape:label="Layer 1"
     inkscape:groupmode="layer"
     id="layer1"
     transform="translate(7074.6782,1077.4414)"><g
       id="logo_black"
       transform="matrix(0.26032306,0,0,0.26032306,-6581.3333,-647.53525)"><g
         id="g60"
         transform="matrix(2.7512198,0,0,2.7512198,1785.9056,794.80416)"><path
           style="font-size:112.499px;font-family:Monda;-inkscape-font-specification:Monda;opacity:0.968051;fill:#1a1825;fill-opacity:1;stroke-width:1.18363"
           d="m -876.89808,-753.82634 h 11.79681 v -51.88627 h -11.79681 z"
           id="path52" /><path
           id="path53"
           style="font-size:112.499px;font-family:Monda;-inkscape-font-specification:Monda;opacity:0.968051;fill:#1a1825;fill-opacity:1;stroke-width:1.18363"
           d="m -904.81702,-806.43917 c -12.87818,0 -26.14971,9.13212 -26.24801,26.66969 -0.0983,13.49043 8.35612,26.66969 25.46149,26.66969 4.4238,0 9.14251,-0.93416 12.97647,-3.52847 v 2.90577 h 11.7967 v -28.33005 c 0,-17.12247 -11.79661,-24.38663 -23.98665,-24.38663 z m -0.29507,11.62255 c 6.68486,0.10378 13.17307,4.98129 12.97647,15.15101 -0.0983,7.57539 -4.12881,15.1505 -12.18996,15.1505 -10.0273,0 -14.94276,-7.78285 -14.94276,-15.35824 0,-9.85839 7.17647,-15.04704 14.15625,-14.94327 z" /><path
           style="font-size:112.499px;font-family:Monda;-inkscape-font-specification:Monda;opacity:0.968051;fill:#de5ba7;fill-opacity:1;stroke-width:1.18363"
           d="m -947.77731,-777.66827 c 0,3.94335 2.55598,6.64145 6.29163,6.64145 3.83397,0 6.38995,-2.6981 6.38995,-6.64145 0,-4.04713 -2.55598,-6.64145 -6.38995,-6.64145 -3.73565,0 -6.29163,2.59432 -6.29163,6.64145 z"
           id="path54" /><path
           style="font-size:112.499px;font-family:Monda;-inkscape-font-specification:Monda;opacity:0.968051;fill:#1a1825;fill-opacity:1;stroke-width:1.18363"
           d="m -974.41854,-806.43902 c -14.45109,0 -22.70886,9.23575 -22.70886,24.5941 v 28.01858 h 11.79682 v -29.78272 c 0,-6.84899 4.5221,-11.41498 10.91204,-11.41498 6.38994,0 10.91205,4.56599 10.91205,11.41498 v 29.78272 h 11.79681 v -28.01858 c 0,-15.35835 -8.25776,-24.5941 -22.70886,-24.5941 z"
           id="path55" /><path
           style="font-size:112.499px;font-family:Monda;-inkscape-font-specification:Monda;opacity:0.968051;fill:#1a1825;fill-opacity:1;stroke-width:1.18363"
           d="m -1012.9547,-753.82634 h 11.7968 v -51.88627 h -11.7968 z"
           id="path56" /><path
           style="font-size:112.499px;font-family:Monda;-inkscape-font-specification:Monda;opacity:0.968051;fill:#1a1825;fill-opacity:1;stroke-width:1.18363"
           d="m -1034.0906,-753.82634 v -36.32039 c 0,-2.49054 1.1797,-4.1509 4.3255,-4.1509 h 12.9765 v -11.41498 h -14.746 c -9.4375,0 -14.3528,5.91503 -14.3528,14.11306 v 37.77321 z"
           id="path57" /><path
           style="font-size:112.499px;font-family:Monda;-inkscape-font-specification:Monda;opacity:0.968051;fill:#1a1825;fill-opacity:1;stroke-width:1.18363"
           d="m -1097.0069,-806.43902 c -12.5833,0 -19.7597,9.23575 -19.7597,24.5941 v 28.01858 h 11.7968 v -31.23553 c 0,-6.849 3.9323,-9.96217 7.9629,-9.96217 3.9323,0 7.8645,3.11317 7.8645,9.96217 v 31.23553 h 11.6985 v -31.23553 c 0,-6.849 3.9323,-9.96217 7.9629,-9.96217 3.9323,0 7.8645,3.11317 7.8645,9.96217 v 31.23553 h 11.7968 v -28.01858 c 0,-15.35835 -7.0781,-24.5941 -19.6613,-24.5941 -5.8001,0 -10.4205,1.97168 -13.763,5.60372 -3.2441,-3.63204 -7.9628,-5.60372 -13.7629,-5.60372 z"
           id="path58" /><path
           id="path59"
           style="font-size:112.499px;font-family:Monda;-inkscape-font-specification:Monda;opacity:0.968051;fill:#1a1825;fill-opacity:1;stroke-width:1.18363"
           d="m -1145.8654,-806.75026 c -18.0885,0 -26.0511,13.38648 -26.0511,26.87691 0,13.49043 7.9626,26.87743 26.0511,26.87743 14.4511,0 22.5123,-8.61331 25.0683,-18.99057 h -12.3869 c -2.1627,4.35845 -6.4881,7.57525 -12.6814,7.57525 -8.0612,0 -12.6817,-5.39619 -14.058,-11.62255 h 38.8312 c 0.098,-1.24527 0.2951,-2.59428 0.2951,-3.83956 0,-13.49043 -7.9629,-26.87691 -25.0683,-26.87691 z m 0,11.41481 c 6.1933,0 10.4204,3.83967 12.2882,8.92452 h -25.5597 c 1.9661,-4.98108 6.39,-8.92452 13.2715,-8.92452 z" /><path
           style="font-size:112.499px;font-family:Monda;-inkscape-font-specification:Monda;opacity:0.968051;fill:#1a1825;fill-opacity:1;stroke-width:1.18363"
           d="m -1191.9711,-753.82634 v -36.32039 c 0,-2.49054 1.1797,-4.1509 4.3255,-4.1509 h 12.9765 v -11.41498 h -14.7461 c -9.4374,0 -14.3527,5.91503 -14.3527,14.11306 v 37.77321 z"
           id="path60" /></g><g
         id="g68"
         transform="translate(-2244.431,-392.42714)"
         style="fill:#1a1825;fill-opacity:1"><g
           id="g64"
           transform="matrix(0.83092212,0,0,0.83092212,747.89888,-373.72593)"
           style="fill:#1a1825;fill-opacity:1"><path
             id="path61"
             style="opacity:1;fill:#1a1825;fill-opacity:1;stroke-width:1.05027"
             d="m -379.65994,-1057.574 205.64824,118.82238 100.514339,105.21186 c -11.52189,25.14564 -40.947319,75.15189 -137.048219,44.8089 13.08656,41.93859 53.99768,153.90207 58.75782,168.76976 l -46.52173,-0.26041 -30.28354,-92.25986 h -25.70705 c 1.26918,-32.68478 -12.78321,-70.75221 -52.46851,-84.51208 29.54866,24.04588 55.45316,57.97369 16.19923,118.31771 56.98889,6.03758 64.4018,33.05033 73.94781,59.1599 l -159.16552,-0.70567 -59.51064,-63.73638 c 4.78822,-81.57605 27.19039,-172.69409 167.26407,-165.85482 -2.37853,-23.93494 3.48566,-58.01188 51.76491,-73.2442 l -150.01051,-90.85279 c -6.67648,-6.4203 -13.19131,-29.0654 -13.3807,-43.6643 z m 192.26547,155.64345 c -2.76044,9.91782 -9.08403,38.95444 9.86069,55.63779 10.14942,9.75326 28.85532,14.2288 52.11564,9.86064 z" /><path
             style="opacity:1;fill:#1a1825;fill-opacity:1;stroke-width:1.05027"
             d="m -138.9841,-913.10126 -27.62307,-32.13911 -180.48446,-118.91593 c 22.31418,0.1532 32.0116,-5.0561 50.85783,4.6339 l 137.90119,96.69965 z"
             id="path62"
             sodipodi:nodetypes="cccccc" /><path
             style="opacity:1;fill:#1a1825;fill-opacity:1;stroke-width:0.951049"
             d="m -108.51158,-880.96699 -22.20883,-23.92309 58.599329,-23.28845 z"
             id="path63"
             sodipodi:nodetypes="cccc" /><ellipse
             style="opacity:1;fill:#1a1825;fill-opacity:1;stroke-width:0.82575"
             id="ellipse63"
             cx="450.89233"
             cy="-648.02417"
             rx="28.80806"
             ry="27.614826"
             transform="scale(-1,1)" /><path
             style="opacity:1;fill:#1a1825;fill-opacity:1;stroke-width:0.709328"
             d="m -172.13732,-696.09541 c 8.13373,24.66192 17.31133,49.93419 26.43962,75.97231 l 46.605709,0.58234 -18.928209,-52.60542 z"
             id="path64"
             sodipodi:nodetypes="ccccc" /></g><path
           id="path65"
           style="fill:#1a1825;fill-opacity:1;stroke-width:0.872693"
           d="m 432.43104,-1252.4876 170.87767,98.7322 83.51959,87.4228 c -9.5738,20.8941 -34.02404,62.4454 -113.8764,37.2328 10.87391,34.84765 44.86787,127.88059 48.82317,140.23448 l -38.65593,-0.21638 -25.16327,-76.66076 h -21.36055 c 1.05459,-27.15851 -10.62185,-58.78954 -43.59725,-70.22294 24.55264,19.9802 46.07726,48.1716 13.4603,98.31279 47.35333,5.01675 53.51288,27.46225 61.44487,49.15726 l -132.25415,-0.58635 -49.44871,-52.95997 c 3.97864,-67.78333 22.5931,-143.49533 138.98342,-137.81243 -1.97637,-19.8881 2.89631,-48.2034 43.01261,-60.8602 l -124.64705,-75.4916 c -5.54764,-5.3348 -10.96095,-24.1511 -11.11832,-36.2817 z m 159.75763,129.3276 c -2.29371,8.241 -7.54812,32.3681 8.19347,46.2307 8.43337,8.1042 23.97652,11.823 43.30403,8.1934 z" /><path
           style="fill:#1a1825;fill-opacity:1;stroke-width:0.872693"
           d="m 632.41392,-1132.442 -22.95262,-26.7051 -149.96853,-98.8098 c 18.54134,0.1273 26.59914,-4.2013 42.25889,3.8504 l 114.58515,80.3498 z"
           id="path66"
           sodipodi:nodetypes="cccccc" /><path
           style="fill:#1a1825;fill-opacity:1;stroke-width:0.790248"
           d="m 657.73421,-1105.7409 -18.45381,-19.8782 48.69148,-19.3509 z"
           id="path67"
           sodipodi:nodetypes="cccc" /><ellipse
           style="fill:#1a1825;fill-opacity:1;stroke-width:0.686134"
           id="ellipse67"
           cx="-373.24246"
           cy="-912.18353"
           rx="23.937254"
           ry="22.94577"
           transform="scale(-1,1)" /><path
           style="fill:#1a1825;fill-opacity:1;stroke-width:0.589396"
           d="m 604.86617,-952.127 c 6.7585,20.49213 14.38437,41.49142 21.96927,63.12707 l 38.72571,0.48388 -15.72786,-43.71101 z"
           id="path68"
           sodipodi:nodetypes="ccccc" /></g></g></g></svg>
