<?xml version="1.0" encoding="UTF-8" standalone="no"?>
<!-- Created with Inkscape (http://www.inkscape.org/) -->

<svg
   width="338.66684mm"
   height="370.51065mm"
   viewBox="0 0 338.66685 370.51065"
   version="1.1"
   id="svg1"
   xml:space="preserve"
   sodipodi:docname="remrin_logos_master.svg"
   inkscape:export-filename="remrin.svg"
   inkscape:export-xdpi="125"
   inkscape:export-ydpi="125"
   inkscape:export-batch-path="/mnt/Data68/remrin/chat/public/logos"
   inkscape:export-batch-name="remrin"
   inkscape:version="1.4.2 (ebf0e940d0, 2025-05-08)"
   xmlns:inkscape="http://www.inkscape.org/namespaces/inkscape"
   xmlns:sodipodi="http://sodipodi.sourceforge.net/DTD/sodipodi-0.dtd"
   xmlns="http://www.w3.org/2000/svg"
   xmlns:svg="http://www.w3.org/2000/svg"><sodipodi:namedview
     id="namedview1"
     pagecolor="#c1c1c1"
     bordercolor="#000000"
     borderopacity="0.25"
     inkscape:showpageshadow="2"
     inkscape:pageopacity="0.0"
     inkscape:pagecheckerboard="0"
     inkscape:deskcolor="#d1d1d1"
     inkscape:document-units="mm"
     inkscape:zoom="0.028284271"
     inkscape:cx="16440.233"
     inkscape:cy="12144.559"
     inkscape:window-width="1920"
     inkscape:window-height="1048"
     inkscape:window-x="0"
     inkscape:window-y="0"
     inkscape:window-maximized="1"
     inkscape:current-layer="layer1"
     showgrid="false"><inkscape:page
       x="0"
       y="0"
       width="338.66687"
       height="370.51065"
       id="page1"
       margin="0"
       bleed="0" /></sodipodi:namedview><defs
     id="defs1" /><g
     inkscape:label="Layer 1"
     inkscape:groupmode="layer"
     id="layer1"
     transform="translate(7704.0385,2105.0558)"><g
       id="icon_dark_background"
       transform="translate(-4359.1677,-982.21601)"><g
         id="g89"
         transform="matrix(0.83092212,0,0,0.83092212,-2946.277,-237.55974)"
         style="fill:#1a1825;fill-opacity:1"><path
           id="path86"
           style="opacity:1;fill:#1a1825;fill-opacity:1;stroke-width:1.05027"
           d="m -379.65994,-1057.574 205.64824,118.82238 100.514339,105.21186 c -11.52189,25.14564 -40.947319,75.15189 -137.048219,44.8089 13.08656,41.93859 53.99768,153.90207 58.75782,168.76976 l -46.52173,-0.26041 -30.28354,-92.25986 h -25.70705 c 1.26918,-32.68478 -12.78321,-70.75221 -52.46851,-84.51208 29.54866,24.04588 55.45316,57.97369 16.19923,118.31771 56.98889,6.03758 64.4018,33.05033 73.94781,59.1599 l -159.16552,-0.70567 -59.51064,-63.73638 c 4.78822,-81.57605 27.19039,-172.69409 167.26407,-165.85482 -2.37853,-23.93494 3.48566,-58.01188 51.76491,-73.2442 l -150.01051,-90.85279 c -6.67648,-6.4203 -13.19131,-29.0654 -13.3807,-43.6643 z m 192.26547,155.64345 c -2.76044,9.91782 -9.08403,38.95444 9.86069,55.63779 10.14942,9.75326 28.85532,14.2288 52.11564,9.86064 z" /><path
           style="opacity:1;fill:#1a1825;fill-opacity:1;stroke-width:1.05027"
           d="m -138.9841,-913.10126 -27.62307,-32.13911 -180.48446,-118.91593 c 22.31418,0.1532 32.0116,-5.0561 50.85783,4.6339 l 137.90119,96.69965 z"
           id="path87"
           sodipodi:nodetypes="cccccc" /><path
           style="opacity:1;fill:#1a1825;fill-opacity:1;stroke-width:0.951049"
           d="m -108.51158,-880.96699 -22.20883,-23.92309 58.599329,-23.28845 z"
           id="path88"
           sodipodi:nodetypes="cccc" /><ellipse
           style="opacity:1;fill:#1a1825;fill-opacity:1;stroke-width:0.82575"
           id="ellipse88"
           cx="450.89233"
           cy="-648.02417"
           rx="28.80806"
           ry="27.614826"
           transform="scale(-1,1)" /><path
           style="opacity:1;fill:#1a1825;fill-opacity:1;stroke-width:0.709328"
           d="m -172.13732,-696.09541 c 8.13373,24.66192 17.31133,49.93419 26.43962,75.97231 l 46.605709,0.58234 -18.928209,-52.60542 z"
           id="path89"
           sodipodi:nodetypes="ccccc" /></g><path
         id="path90"
         style="fill:#ffffff;fill-opacity:1;stroke-width:0.872693"
         d="m -3261.7449,-1116.3214 170.8777,98.7322 83.5196,87.42279 c -9.5738,20.8941 -34.024,62.4454 -113.8764,37.2328 10.8739,34.84765 44.8679,127.88059 48.8232,140.23448 l -38.656,-0.21638 -25.1632,-76.66076 h -21.3606 c 1.0546,-27.15851 -10.6218,-58.78954 -43.5972,-70.22294 24.5526,19.9802 46.0772,48.1716 13.4603,98.31279 47.3533,5.01675 53.5128,27.46225 61.4448,49.15726 l -132.2541,-0.58635 -49.4487,-52.95997 c 3.9786,-67.78333 22.5931,-143.49533 138.9834,-137.81243 -1.9764,-19.8881 2.8963,-48.2034 43.0126,-60.86019 l -124.647,-75.4916 c -5.5477,-5.3348 -10.961,-24.1511 -11.1184,-36.2817 z m 159.7577,129.32759 c -2.2937,8.241 -7.5482,32.3681 8.1934,46.2307 8.4334,8.1042 23.9766,11.823 43.3041,8.1934 z" /><path
         style="fill:#de5ba7;fill-opacity:0.968627;stroke-width:0.872693"
         d="m -3061.762,-996.27581 -22.9526,-26.70509 -149.9685,-98.8098 c 18.5413,0.1273 26.5991,-4.2013 42.2589,3.8504 l 114.5851,80.3498 z"
         id="path91"
         sodipodi:nodetypes="cccccc" /><path
         style="fill:#de5ba7;fill-opacity:0.968627;stroke-width:0.790248"
         d="m -3036.4417,-969.57471 -18.4538,-19.8782 48.6915,-19.35089 z"
         id="path92"
         sodipodi:nodetypes="cccc" /><ellipse
         style="fill:#de5ba7;fill-opacity:0.968627;stroke-width:0.686134"
         id="ellipse92"
         cx="3320.9336"
         cy="-776.01733"
         rx="23.937254"
         ry="22.94577"
         transform="scale(-1,1)" /><path
         style="fill:#ffffff;fill-opacity:1;stroke-width:0.589396"
         d="m -3089.3097,-815.96081 c 6.7585,20.49213 14.3843,41.49142 21.9692,63.12707 l 38.7257,0.48388 -15.7278,-43.71101 z"
         id="path93"
         sodipodi:nodetypes="ccccc" /></g></g></svg>
