<?xml version="1.0" encoding="UTF-8" standalone="no"?>
<!-- Created with Inkscape (http://www.inkscape.org/) -->

<svg
   width="338.66669mm"
   height="370.51065mm"
   viewBox="0 0 338.66669 370.51065"
   version="1.1"
   id="svg1"
   xml:space="preserve"
   sodipodi:docname="remrin_logos_master.svg"
   inkscape:export-filename="remrin.svg"
   inkscape:export-xdpi="125"
   inkscape:export-ydpi="125"
   inkscape:export-batch-path="/mnt/Data68/remrin/chat/public/logos"
   inkscape:export-batch-name="remrin"
   inkscape:version="1.4.2 (ebf0e940d0, 2025-05-08)"
   xmlns:inkscape="http://www.inkscape.org/namespaces/inkscape"
   xmlns:sodipodi="http://sodipodi.sourceforge.net/DTD/sodipodi-0.dtd"
   xmlns="http://www.w3.org/2000/svg"
   xmlns:svg="http://www.w3.org/2000/svg"><sodipodi:namedview
     id="namedview1"
     pagecolor="#c1c1c1"
     bordercolor="#000000"
     borderopacity="0.25"
     inkscape:showpageshadow="2"
     inkscape:pageopacity="0.0"
     inkscape:pagecheckerboard="0"
     inkscape:deskcolor="#d1d1d1"
     inkscape:document-units="mm"
     inkscape:zoom="0.028284271"
     inkscape:cx="16440.233"
     inkscape:cy="12144.559"
     inkscape:window-width="1920"
     inkscape:window-height="1048"
     inkscape:window-x="0"
     inkscape:window-y="0"
     inkscape:window-maximized="1"
     inkscape:current-layer="layer1"
     showgrid="false"><inkscape:page
       x="0"
       y="0"
       width="338.66669"
       height="370.51065"
       id="page1"
       margin="0"
       bleed="0" /></sodipodi:namedview><defs
     id="defs1" /><g
     inkscape:label="Layer 1"
     inkscape:groupmode="layer"
     id="layer1"
     transform="translate(7700.15,1628.5708)"><g
       id="icon_light_background"
       transform="translate(-8049.4552,-369.56479)"><g
         id="g97"
         transform="matrix(0.83092212,0,0,0.83092212,747.89888,-373.72593)"
         style="fill:#1a1825;fill-opacity:1"><path
           id="path94"
           style="opacity:1;fill:#1a1825;fill-opacity:1;stroke-width:1.05027"
           d="m -379.65994,-1057.574 205.64824,118.82238 100.514339,105.21186 c -11.52189,25.14564 -40.947319,75.15189 -137.048219,44.8089 13.08656,41.93859 53.99768,153.90207 58.75782,168.76976 l -46.52173,-0.26041 -30.28354,-92.25986 h -25.70705 c 1.26918,-32.68478 -12.78321,-70.75221 -52.46851,-84.51208 29.54866,24.04588 55.45316,57.97369 16.19923,118.31771 56.98889,6.03758 64.4018,33.05033 73.94781,59.1599 l -159.16552,-0.70567 -59.51064,-63.73638 c 4.78822,-81.57605 27.19039,-172.69409 167.26407,-165.85482 -2.37853,-23.93494 3.48566,-58.01188 51.76491,-73.2442 l -150.01051,-90.85279 c -6.67648,-6.4203 -13.19131,-29.0654 -13.3807,-43.6643 z m 192.26547,155.64345 c -2.76044,9.91782 -9.08403,38.95444 9.86069,55.63779 10.14942,9.75326 28.85532,14.2288 52.11564,9.86064 z" /><path
           style="opacity:1;fill:#1a1825;fill-opacity:1;stroke-width:1.05027"
           d="m -138.9841,-913.10126 -27.62307,-32.13911 -180.48446,-118.91593 c 22.31418,0.1532 32.0116,-5.0561 50.85783,4.6339 l 137.90119,96.69965 z"
           id="path95"
           sodipodi:nodetypes="cccccc" /><path
           style="opacity:1;fill:#1a1825;fill-opacity:1;stroke-width:0.951049"
           d="m -108.51158,-880.96699 -22.20883,-23.92309 58.599329,-23.28845 z"
           id="path96"
           sodipodi:nodetypes="cccc" /><ellipse
           style="opacity:1;fill:#1a1825;fill-opacity:1;stroke-width:0.82575"
           id="ellipse96"
           cx="450.89233"
           cy="-648.02417"
           rx="28.80806"
           ry="27.614826"
           transform="scale(-1,1)" /><path
           style="opacity:1;fill:#1a1825;fill-opacity:1;stroke-width:0.709328"
           d="m -172.13732,-696.09541 c 8.13373,24.66192 17.31133,49.93419 26.43962,75.97231 l 46.605709,0.58234 -18.928209,-52.60542 z"
           id="path97"
           sodipodi:nodetypes="ccccc" /></g><path
         id="path98"
         style="fill:#1a1825;fill-opacity:1;stroke-width:0.872693"
         d="m 432.43104,-1252.4876 170.87767,98.7322 83.51959,87.4228 c -9.5738,20.8941 -34.02404,62.4454 -113.8764,37.2328 10.87391,34.84765 44.86787,127.88059 48.82317,140.23448 l -38.65593,-0.21638 -25.16327,-76.66076 h -21.36055 c 1.05459,-27.15851 -10.62185,-58.78954 -43.59725,-70.22294 24.55264,19.9802 46.07726,48.1716 13.4603,98.31279 47.35333,5.01675 53.51288,27.46225 61.44487,49.15726 l -132.25415,-0.58635 -49.44871,-52.95997 c 3.97864,-67.78333 22.5931,-143.49533 138.98342,-137.81243 -1.97637,-19.8881 2.89631,-48.2034 43.01261,-60.8602 l -124.64705,-75.4916 c -5.54764,-5.3348 -10.96095,-24.1511 -11.11832,-36.2817 z m 159.75763,129.3276 c -2.29371,8.241 -7.54812,32.3681 8.19347,46.2307 8.43337,8.1042 23.97652,11.823 43.30403,8.1934 z" /><path
         style="fill:#de5ba7;fill-opacity:0.968627;stroke-width:0.872693"
         d="m 632.41392,-1132.442 -22.95262,-26.7051 -149.96853,-98.8098 c 18.54134,0.1273 26.59914,-4.2013 42.25889,3.8504 l 114.58515,80.3498 z"
         id="path99"
         sodipodi:nodetypes="cccccc" /><path
         style="fill:#de5ba7;fill-opacity:0.968627;stroke-width:0.790248"
         d="m 657.73421,-1105.7409 -18.45381,-19.8782 48.69148,-19.3509 z"
         id="path100"
         sodipodi:nodetypes="cccc" /><ellipse
         style="fill:#de5ba7;fill-opacity:0.968627;stroke-width:0.686134"
         id="ellipse100"
         cx="-373.24246"
         cy="-912.18353"
         rx="23.937254"
         ry="22.94577"
         transform="scale(-1,1)" /><path
         style="fill:#1a1825;fill-opacity:1;stroke-width:0.589396"
         d="m 604.86617,-952.127 c 6.7585,20.49213 14.38437,41.49142 21.96927,63.12707 l 38.72571,0.48388 -15.72786,-43.71101 z"
         id="path101"
         sodipodi:nodetypes="ccccc" /></g></g></svg>
