<?xml version="1.0" encoding="UTF-8" standalone="no"?>
<!-- Created with Inkscape (http://www.inkscape.org/) -->

<svg
   width="338.66666mm"
   height="97.51181mm"
   viewBox="0 0 338.66666 97.511809"
   version="1.1"
   id="svg1"
   xml:space="preserve"
   sodipodi:docname="remrin_logos_master.svg"
   inkscape:export-filename="remrin.svg"
   inkscape:export-xdpi="125"
   inkscape:export-ydpi="125"
   inkscape:export-batch-path="/mnt/Data68/remrin/chat/public/logos"
   inkscape:export-batch-name="remrin"
   inkscape:version="1.4.2 (ebf0e940d0, 2025-05-08)"
   xmlns:inkscape="http://www.inkscape.org/namespaces/inkscape"
   xmlns:sodipodi="http://sodipodi.sourceforge.net/DTD/sodipodi-0.dtd"
   xmlns="http://www.w3.org/2000/svg"
   xmlns:svg="http://www.w3.org/2000/svg"><sodipodi:namedview
     id="namedview1"
     pagecolor="#c1c1c1"
     bordercolor="#000000"
     borderopacity="0.25"
     inkscape:showpageshadow="2"
     inkscape:pageopacity="0.0"
     inkscape:pagecheckerboard="0"
     inkscape:deskcolor="#d1d1d1"
     inkscape:document-units="mm"
     inkscape:zoom="0.028284271"
     inkscape:cx="16440.233"
     inkscape:cy="12144.559"
     inkscape:window-width="1920"
     inkscape:window-height="1048"
     inkscape:window-x="0"
     inkscape:window-y="0"
     inkscape:window-maximized="1"
     inkscape:current-layer="layer1"
     showgrid="false"><inkscape:page
       x="0"
       y="0"
       width="338.66666"
       height="97.511803"
       id="page1"
       margin="0"
       bleed="0" /></sodipodi:namedview><defs
     id="defs1" /><g
     inkscape:label="Layer 1"
     inkscape:groupmode="layer"
     id="layer1"
     transform="translate(7078.5649,1233.1312)"><g
       id="logo_white"
       transform="matrix(0.26032304,0,0,0.26032304,-6584.2082,-675.73805)"><path
         style="font-size:112.499px;font-family:Monda;-inkscape-font-specification:Monda;opacity:0.968051;fill:#ffffff;fill-opacity:1;stroke-width:3.25643"
         d="m -630.52047,-1768.8639 h 32.4557 v -142.7506 h -32.4557 z"
         id="path18" /><path
         id="path19"
         style="font-size:112.499px;font-family:Monda;-inkscape-font-specification:Monda;opacity:0.968051;fill:#ffffff;fill-opacity:1;stroke-width:3.25643"
         d="m -707.33157,-1913.6134 c -35.4307,0 -71.9436,25.1245 -72.214,73.3742 -0.2705,37.1151 22.9895,73.3742 70.0501,73.3742 12.1709,0 25.1531,-2.5701 35.7011,-9.7076 v 7.9944 h 32.4553 v -77.9422 c 0,-47.1077 -32.455,-67.093 -65.9925,-67.093 z m -0.8118,31.9762 c 18.3915,0.2855 36.242,13.7046 35.7011,41.6837 -0.2704,20.8416 -11.3592,41.6824 -33.5372,41.6824 -27.5873,0 -41.1109,-21.4123 -41.1109,-42.2539 0,-27.1226 19.7441,-41.3977 38.947,-41.1122 z" /><path
         style="font-size:112.499px;font-family:Monda;-inkscape-font-specification:Monda;opacity:0.968051;fill:#d859a3;fill-opacity:1;stroke-width:3.25643"
         d="m -825.52477,-1834.4583 c 0,10.849 7.0321,18.2721 17.3097,18.2721 10.548,0 17.5801,-7.4231 17.5801,-18.2721 0,-11.1346 -7.0321,-18.2721 -17.5801,-18.2721 -10.2776,0 -17.3097,7.1375 -17.3097,18.2721 z"
         id="path20" /><path
         style="font-size:112.499px;font-family:Monda;-inkscape-font-specification:Monda;opacity:0.968051;fill:#ffffff;fill-opacity:1;stroke-width:3.25643"
         d="m -898.82067,-1913.613 c -39.7581,0 -62.477,25.4096 -62.477,67.6638 v 77.0853 h 32.4556 v -81.9389 c 0,-18.843 12.4413,-31.4051 30.0214,-31.4051 17.5801,0 30.0215,12.5621 30.0215,31.4051 v 81.9389 h 32.4556 v -77.0853 c 0,-42.2542 -22.7189,-67.6638 -62.4771,-67.6638 z"
         id="path21" /><path
         style="font-size:112.499px;font-family:Monda;-inkscape-font-specification:Monda;opacity:0.968051;fill:#ffffff;fill-opacity:1;stroke-width:3.25643"
         d="m -1004.8421,-1768.8639 h 32.45563 v -142.7506 h -32.45563 z"
         id="path22" /><path
         style="font-size:112.499px;font-family:Monda;-inkscape-font-specification:Monda;opacity:0.968051;fill:#ffffff;fill-opacity:1;stroke-width:3.25643"
         d="m -1062.9916,-1768.8639 v -99.9254 c 0,-6.852 3.2456,-11.4201 11.9004,-11.4201 h 35.7012 v -31.4051 h -40.5695 c -25.9647,0 -39.4877,16.2736 -39.4877,38.8281 v 103.9225 z"
         id="path23" /><path
         style="font-size:112.499px;font-family:Monda;-inkscape-font-specification:Monda;opacity:0.968051;fill:#ffffff;fill-opacity:1;stroke-width:3.25643"
         d="m -1236.0882,-1913.613 c -34.6194,0 -54.3633,25.4096 -54.3633,67.6638 v 77.0853 h 32.4556 v -85.9359 c 0,-18.8431 10.8186,-27.4081 21.9077,-27.4081 10.8186,0 21.637,8.565 21.637,27.4081 v 85.9359 h 32.1851 v -85.9359 c 0,-18.8431 10.8186,-27.4081 21.9077,-27.4081 10.8186,0 21.637,8.565 21.637,27.4081 v 85.9359 h 32.4556 v -77.0853 c 0,-42.2542 -19.4735,-67.6638 -54.0926,-67.6638 -15.9574,0 -28.6691,5.4245 -37.865,15.4171 -8.9253,-9.9926 -21.9075,-15.4171 -37.8648,-15.4171 z"
         id="path24" /><path
         id="path25"
         style="font-size:112.499px;font-family:Monda;-inkscape-font-specification:Monda;opacity:0.968051;fill:#ffffff;fill-opacity:1;stroke-width:3.25643"
         d="m -1370.5087,-1914.4693 c -49.7654,0 -71.6723,36.8292 -71.6723,73.9443 0,37.1151 21.9069,73.9457 71.6723,73.9457 39.7582,0 61.9363,-23.6971 68.9684,-52.2472 h -34.0791 c -5.95,11.991 -17.8501,20.8412 -34.8893,20.8412 -22.1781,0 -34.8901,-14.8461 -38.6766,-31.9762 h 106.8331 c 0.2697,-3.426 0.8119,-7.1375 0.8119,-10.5635 0,-37.1151 -21.9077,-73.9443 -68.9684,-73.9443 z m 0,31.4047 c 17.0392,0 28.6688,10.5637 33.8076,24.5533 h -70.3204 c 5.4092,-13.7041 17.5803,-24.5533 36.5128,-24.5533 z" /><path
         style="font-size:112.499px;font-family:Monda;-inkscape-font-specification:Monda;opacity:0.968051;fill:#ffffff;fill-opacity:1;stroke-width:3.25643"
         d="m -1497.3556,-1768.8639 v -99.9254 c 0,-6.852 3.2456,-11.4201 11.9004,-11.4201 h 35.7012 v -31.4051 h -40.5697 c -25.9644,0 -39.4875,16.2736 -39.4875,38.8281 v 103.9225 z"
         id="path26" /><g
         id="g34"
         transform="translate(-2248.3177,-882.15331)"
         style="fill:#ffffff"><g
           id="g30"
           transform="matrix(0.83092212,0,0,0.83092212,747.89888,-373.72593)"
           style="fill:#ffffff;fill-opacity:1"><path
             id="path27"
             style="opacity:1;fill:#ffffff;fill-opacity:1;stroke-width:1.05027"
             d="m -379.65994,-1057.574 205.64824,118.82238 100.514339,105.21186 c -11.52189,25.14564 -40.947319,75.15189 -137.048219,44.8089 13.08656,41.93859 53.99768,153.90207 58.75782,168.76976 l -46.52173,-0.26041 -30.28354,-92.25986 h -25.70705 c 1.26918,-32.68478 -12.78321,-70.75221 -52.46851,-84.51208 29.54866,24.04588 55.45316,57.97369 16.19923,118.31771 56.98889,6.03758 64.4018,33.05033 73.94781,59.1599 l -159.16552,-0.70567 -59.51064,-63.73638 c 4.78822,-81.57605 27.19039,-172.69409 167.26407,-165.85482 -2.37853,-23.93494 3.48566,-58.01188 51.76491,-73.2442 l -150.01051,-90.85279 c -6.67648,-6.4203 -13.19131,-29.0654 -13.3807,-43.6643 z m 192.26547,155.64345 c -2.76044,9.91782 -9.08403,38.95444 9.86069,55.63779 10.14942,9.75326 28.85532,14.2288 52.11564,9.86064 z" /><path
             style="opacity:1;fill:#ffffff;fill-opacity:1;stroke-width:1.05027"
             d="m -138.9841,-913.10126 -27.62307,-32.13911 -180.48446,-118.91593 c 22.31418,0.1532 32.0116,-5.0561 50.85783,4.6339 l 137.90119,96.69965 z"
             id="path28"
             sodipodi:nodetypes="cccccc" /><path
             style="opacity:1;fill:#ffffff;fill-opacity:1;stroke-width:0.951049"
             d="m -108.51158,-880.96699 -22.20883,-23.92309 58.599329,-23.28845 z"
             id="path29"
             sodipodi:nodetypes="cccc" /><ellipse
             style="opacity:1;fill:#ffffff;fill-opacity:1;stroke-width:0.82575"
             id="ellipse29"
             cx="450.89233"
             cy="-648.02417"
             rx="28.80806"
             ry="27.614826"
             transform="scale(-1,1)" /><path
             style="opacity:1;fill:#ffffff;fill-opacity:1;stroke-width:0.709328"
             d="m -172.13732,-696.09541 c 8.13373,24.66192 17.31133,49.93419 26.43962,75.97231 l 46.605709,0.58234 -18.928209,-52.60542 z"
             id="path30"
             sodipodi:nodetypes="ccccc" /></g><path
           id="path31"
           style="fill:#ffffff;fill-opacity:1;stroke-width:0.872693"
           d="m 432.43104,-1252.4876 170.87767,98.7322 83.51959,87.4228 c -9.5738,20.8941 -34.02404,62.4454 -113.8764,37.2328 10.87391,34.84765 44.86787,127.88059 48.82317,140.23448 l -38.65593,-0.21638 -25.16327,-76.66076 h -21.36055 c 1.05459,-27.15851 -10.62185,-58.78954 -43.59725,-70.22294 24.55264,19.9802 46.07726,48.1716 13.4603,98.31279 47.35333,5.01675 53.51288,27.46225 61.44487,49.15726 l -132.25415,-0.58635 -49.44871,-52.95997 c 3.97864,-67.78333 22.5931,-143.49533 138.98342,-137.81243 -1.97637,-19.8881 2.89631,-48.2034 43.01261,-60.8602 l -124.64705,-75.4916 c -5.54764,-5.3348 -10.96095,-24.1511 -11.11832,-36.2817 z m 159.75763,129.3276 c -2.29371,8.241 -7.54812,32.3681 8.19347,46.2307 8.43337,8.1042 23.97652,11.823 43.30403,8.1934 z" /><path
           style="fill:#ffffff;fill-opacity:0.968627;stroke-width:0.872693"
           d="m 632.41392,-1132.442 -22.95262,-26.7051 -149.96853,-98.8098 c 18.54134,0.1273 26.59914,-4.2013 42.25889,3.8504 l 114.58515,80.3498 z"
           id="path32"
           sodipodi:nodetypes="cccccc" /><path
           style="fill:#ffffff;fill-opacity:0.968627;stroke-width:0.790248"
           d="m 657.73421,-1105.7409 -18.45381,-19.8782 48.69148,-19.3509 z"
           id="path33"
           sodipodi:nodetypes="cccc" /><ellipse
           style="fill:#ffffff;fill-opacity:0.968627;stroke-width:0.686134"
           id="ellipse33"
           cx="-373.24246"
           cy="-912.18353"
           rx="23.937254"
           ry="22.94577"
           transform="scale(-1,1)" /><path
           style="fill:#ffffff;fill-opacity:1;stroke-width:0.589396"
           d="m 604.86617,-952.127 c 6.7585,20.49213 14.38437,41.49142 21.96927,63.12707 l 38.72571,0.48388 -15.72786,-43.71101 z"
           id="path34"
           sodipodi:nodetypes="ccccc" /></g></g></g></svg>
