<svg xmlns="http://www.w3.org/2000/svg" width="240" height="240" style="width:100%;height:100%;transform:translate3d(0,0,0);content-visibility:visible" viewBox="0 0 240 240"><defs><clipPath id="a"><path d="M0 0h240v240H0z"/></clipPath><clipPath id="c"><path d="M0 0h240v240H0z"/></clipPath><clipPath id="b"><path d="M0 0h240v240H0z"/></clipPath></defs><g clip-path="url(#a)"><g clip-path="url(#b)" style="display:block"><g style="display:block"><path fill="red" d="M55 147.5c15.188 0 27.5-12.312 27.5-27.5S70.188 92.5 55 92.5 27.5 104.812 27.5 120s12.312 27.5 27.5 27.5" class="secondary"/><path fill="#121331" d="M55 147.5c15.188 0 27.5-12.312 27.5-27.5S70.188 92.5 55 92.5 27.5 104.812 27.5 120s12.312 27.5 27.5 27.5" class="primary"/><path fill="none" stroke="#121331" stroke-linecap="round" stroke-linejoin="round" stroke-width="15" d="M55 147.5c15.188 0 27.5-12.312 27.5-27.5S70.188 92.5 55 92.5 27.5 104.812 27.5 120s12.312 27.5 27.5 27.5" class="primary"/></g><g style="display:none"><path fill="red" d="M175 82.5c15.188 0 27.5-12.312 27.5-27.5S190.188 27.5 175 27.5 147.5 39.812 147.5 55s12.312 27.5 27.5 27.5" class="secondary"/><path fill="#121331" d="M175 82.5c15.188 0 27.5-12.312 27.5-27.5S190.188 27.5 175 27.5 147.5 39.812 147.5 55s12.312 27.5 27.5 27.5" class="primary"/><path fill="none" stroke="#121331" stroke-linecap="round" stroke-linejoin="round" stroke-width="15" d="M175 82.5c15.188 0 27.5-12.312 27.5-27.5S190.188 27.5 175 27.5 147.5 39.812 147.5 55s12.312 27.5 27.5 27.5" class="primary"/></g><g style="display:none"><path fill="red" d="M175.002 212.5c15.188 0 27.5-12.312 27.5-27.5s-12.312-27.5-27.5-27.5-27.5 12.312-27.5 27.5 12.312 27.5 27.5 27.5" class="secondary"/><path fill="#121331" d="M175.002 212.5c15.188 0 27.5-12.312 27.5-27.5s-12.312-27.5-27.5-27.5-27.5 12.312-27.5 27.5 12.312 27.5 27.5 27.5" class="primary"/><path fill="none" stroke="#121331" stroke-linecap="round" stroke-linejoin="round" stroke-width="15" d="M175.002 212.5c15.188 0 27.5-12.312 27.5-27.5s-12.312-27.5-27.5-27.5-27.5 12.312-27.5 27.5 12.312 27.5 27.5 27.5" class="primary"/></g><path fill="none" stroke="#121331" stroke-linecap="round" stroke-linejoin="round" stroke-width="15" d="M0 0" class="primary" style="display:block" transform="translate(144.079 133.998)"/><path fill="none" stroke="#121331" stroke-linecap="round" stroke-linejoin="round" stroke-width="15" d="M0 0" class="primary" style="display:block" transform="translate(145.079 102.498)"/><g style="display:block"><path fill="red" d="M149.319 175.148a27.4 27.4 0 0 0-1.817 9.852c0 15.188 12.312 27.5 27.5 27.5s27.5-12.312 27.5-27.5-12.312-27.5-27.5-27.5c-11.716 0-21.721 7.326-25.683 17.648" class="secondary"/><path fill="#121331" d="M149.319 175.148a27.4 27.4 0 0 0-1.817 9.852c0 15.188 12.312 27.5 27.5 27.5s27.5-12.312 27.5-27.5-12.312-27.5-27.5-27.5c-11.716 0-21.721 7.326-25.683 17.648" class="primary"/><path fill="none" stroke="#121331" stroke-linecap="round" stroke-linejoin="round" stroke-width="15" d="M149.319 175.148a27.4 27.4 0 0 0-1.817 9.852c0 15.188 12.312 27.5 27.5 27.5q0 0 0 0c15.188 0 27.5-12.312 27.5-27.5s-12.312-27.5-27.5-27.5c-11.716 0-21.721 7.326-25.683 17.648" class="primary"/></g><path fill="none" stroke="#121331" stroke-linecap="round" stroke-linejoin="round" stroke-width="15" d="m-36.107 13.485 72.214 37.763" class="primary" style="display:block" transform="translate(115.079 119.998)"/><g style="display:block"><path fill="red" d="M151.177 68.747C155.932 76.968 164.82 82.5 175 82.5c15.188 0 27.5-12.312 27.5-27.5S190.188 27.5 175 27.5 147.5 39.812 147.5 55a27.37 27.37 0 0 0 3.677 13.747" class="secondary"/><path fill="#121331" d="M151.177 68.747C155.932 76.968 164.82 82.5 175 82.5c15.188 0 27.5-12.312 27.5-27.5S190.188 27.5 175 27.5 147.5 39.812 147.5 55a27.37 27.37 0 0 0 3.677 13.747" class="primary"/><path fill="none" stroke="#121331" stroke-linecap="round" stroke-linejoin="round" stroke-width="15" d="M151.177 68.747C155.932 76.968 164.82 82.5 175 82.5q0 0 0 0c15.188 0 27.5-12.312 27.5-27.5S190.188 27.5 175 27.5 147.5 39.812 147.5 55a27.37 27.37 0 0 0 3.677 13.747" class="primary"/></g><path fill="none" stroke="#121331" stroke-linecap="round" stroke-linejoin="round" stroke-width="15" d="m-36.107-13.485 72.214-37.763" class="primary" style="display:block" transform="translate(115.079 119.998)"/></g><g clip-path="url(#c)" style="display:none"><g style="display:none"><path class="secondary"/><path class="primary"/><path fill="none" class="primary"/></g><g style="display:none"><path class="secondary"/><path class="primary"/><path fill="none" class="primary"/></g><path fill="none" class="primary" style="display:none"/><g style="display:none"><path class="secondary"/><path class="primary"/><path fill="none" class="primary"/></g><path fill="none" class="primary" style="display:none"/></g></g></svg>