<svg xmlns="http://www.w3.org/2000/svg" width="500" height="500" style="width:100%;height:100%;transform:translate3d(0,0,0);content-visibility:visible" viewBox="0 0 500 500"><defs><clipPath id="a"><path d="M0 0h500v500H0z"/></clipPath><clipPath id="d"><path d="M0 0h500v500H0z"/></clipPath><clipPath id="c"><path d="M0 0h500v500H0z"/></clipPath><clipPath id="b"><path d="M0 0h500v500H0z"/></clipPath></defs><g clip-path="url(#a)"><g clip-path="url(#b)" style="display:none"><g class="primary design" style="display:none"><path class="primary"/></g><g class="primary design" style="display:none"><path fill="none" class="primary"/></g><g class="primary design" style="display:none"><path fill="none" class="primary"/></g><g class="primary design" style="display:none"><path fill="none" class="primary"/></g><g class="primary design" style="display:none"><path fill="none" class="primary"/></g><g class="primary design" style="display:none"><path fill="none" class="primary"/></g><g class="primary design" style="display:none"><path fill="none" class="primary"/></g><g class="primary design" style="display:none"><path fill="none" class="primary"/></g><g class="primary design" style="display:none"><path class="primary"/><path class="primary"/><path class="primary"/><path class="primary"/></g><g class="primary design" style="display:none"><path class="primary"/><path class="primary"/><path class="primary"/><path class="primary"/></g></g><g clip-path="url(#c)" style="display:block"><g class="primary design" style="display:none"><path class="primary"/></g><g class="primary design" style="display:none"><path fill="none" class="primary"/></g><g class="primary design" style="display:none"><path fill="none" class="primary"/></g><g class="primary design" style="display:none"><path fill="none" class="primary"/></g><g class="primary design" style="display:none"><path fill="none" class="primary"/></g><g class="primary design" style="display:none"><path fill="none" class="primary"/></g><g class="primary design" style="display:none"><path fill="none" class="primary"/></g><g class="primary design" style="display:none"><path class="primary"/><path class="primary"/><path class="primary"/><path class="primary"/></g><g fill="#121331" class="primary design" style="display:block"><path d="M250.046 417.556c-4.167 0-8.333-.833-12.083-2.291-3.75-1.667-7.292-3.959-10-7.084-2.917-2.708-5.209-6.25-6.667-10-1.667-3.75-2.5-7.708-2.5-11.875 0-2.083.209-3.959.417-6.042.417-2.083 1.041-3.958 2.083-6.041.833-1.667 1.666-3.751 2.708-5.209 1.25-1.667 2.501-3.541 3.959-4.791 1.25-1.458 2.916-2.709 4.791-3.959 1.458-1.042 3.542-2.083 5.209-2.708 2.083-1.042 3.958-1.458 6.041-2.083 3.958-.833 7.917-.833 12.084 0 2.083.417 3.958 1.041 6.041 2.083 1.667.833 3.751 1.666 5.209 2.708 1.667 1.25 3.541 2.501 4.791 3.959 6.042 5.833 9.167 13.75 9.167 21.875 0 4.167-.833 8.333-2.5 11.875-1.458 3.75-3.75 7.292-6.667 10-2.708 2.917-6.25 5.208-10 7.083-3.75 1.667-7.916 2.5-12.083 2.5zm125-152.139c-4.792 0-9.584-1.667-13.542-5-15.625-13.542-33.542-23.958-53.542-31.458-36.667-13.542-78.958-13.542-115.625 0-20 7.292-37.916 17.916-53.541 31.458-8.75 7.5-21.875 6.667-29.375-2.083s-6.667-21.875 2.083-29.375c19.375-16.875 41.666-30.001 66.458-38.959 46.042-16.875 98.334-16.875 144.376 0 24.792 9.167 47.083 22.292 66.458 38.959 8.75 7.5 9.583 20.625 2.083 29.375-4.167 4.583-10 7.083-15.833 7.083z" class="primary"/><path d="M62.546 187.5c-5.833 0-11.874-2.5-16.041-7.5-7.5-8.75-6.25-21.875 2.5-29.375C68.588 134.167 90.671 120 114.213 108.75c82.5-40.208 188.541-40.208 271.458 0 23.542 11.042 45.417 25.209 65 41.667 8.75 7.5 10 20.625 2.5 29.375-7.292 8.75-20.625 10-29.375 2.5-16.875-14.167-35.833-26.459-56.25-36.042-72.083-35-163.749-35-235.416 0-20.417 10-39.375 22.083-56.25 36.458-3.75 3.125-8.542 4.792-13.334 4.792zm125 145.833c-5.833 0-11.458-2.292-15.625-6.875-7.708-8.542-6.875-21.667 1.667-29.375 21.25-18.958 48.541-29.375 76.458-29.375s55 10.417 76.25 29.375c8.542 7.708 9.375 20.833 1.667 29.375-7.708 8.542-20.833 9.375-29.375 1.667-27.917-24.792-69.584-24.792-97.292 0-3.958 3.542-8.75 5.208-13.75 5.208z" class="primary"/></g></g><g clip-path="url(#d)" style="display:none"><g class="primary design" style="display:none"><path class="primary"/></g><g class="primary design" style="display:none"><path fill="none" class="primary"/></g><g class="primary design" style="display:none"><path fill="none" class="primary"/></g><g class="primary design" style="display:none"><path fill="none" class="primary"/></g><g class="primary design" style="display:none"><path class="primary"/><path class="primary"/><path class="primary"/><path class="primary"/></g></g></g></svg>