<svg xmlns="http://www.w3.org/2000/svg" width="500" height="500" style="width:100%;height:100%;transform:translate3d(0,0,0);content-visibility:visible" viewBox="0 0 500 500"><defs><clipPath id="a"><path d="M0 0h500v500H0z"/></clipPath><clipPath id="c"><path d="M0 0h500v500H0z"/></clipPath><clipPath id="b"><path d="M0 0h500v500H0z"/></clipPath></defs><g clip-path="url(#a)"><g class="primary design" clip-path="url(#b)" style="display:block"><path fill="#121331" d="M333.379 41.667H166.713c-34.375 0-62.5 28.125-62.5 62.5v291.666c0 34.375 28.125 62.5 62.5 62.5h166.666c34.375 0 62.5-28.125 62.5-62.5V104.167c0-34.375-28.125-62.5-62.5-62.5zm-62.5 354.166h-41.666c-11.458 0-20.834-9.375-20.834-20.833 0-11.458 9.376-20.833 20.834-20.833h41.666c11.458 0 20.834 9.375 20.834 20.833 0 11.458-9.376 20.833-20.834 20.833z" class="primary"/></g><g clip-path="url(#c)" style="display:none"><g class="primary design" style="display:none"><path class="primary"/><path fill="none" class="primary"/><path fill="none" class="primary"/></g><g class="primary design" style="display:none"><path class="primary"/></g></g></g></svg>