<svg xmlns="http://www.w3.org/2000/svg" width="500" height="500" style="width:100%;height:100%;transform:translate3d(0,0,0);content-visibility:visible" viewBox="0 0 500 500"><defs><clipPath id="g"><path d="M0 0h500v500H0z"/></clipPath><clipPath id="j"><path d="M0 0h500v500H0z"/></clipPath><clipPath id="e"><path d="M0 0h500v500H0z"/></clipPath><clipPath id="h"><path d="M0 0h500v500H0z"/></clipPath><clipPath id="f"><path d="M0 0h500v500H0z"/></clipPath><filter id="a" width="100%" height="100%" x="0%" y="0%" filterUnits="objectBoundingBox"><feComponentTransfer in="SourceGraphic"><feFuncA tableValues="1.0 0.0" type="table"/></feComponentTransfer></filter><filter id="c" width="100%" height="100%" x="0%" y="0%" filterUnits="objectBoundingBox"><feComponentTransfer in="SourceGraphic"><feFuncA tableValues="1.0 0.0" type="table"/></feComponentTransfer></filter><mask id="k" mask-type="alpha"><g filter="url(#a)"><path fill="#fff" d="M0 0h500v500H0z" opacity="0"/><use xmlns:ns1="http://www.w3.org/1999/xlink" ns1:href="#b"/></g></mask><mask id="i" mask-type="alpha"><g filter="url(#c)"><path fill="#fff" d="M0 0h500v500H0z" opacity="0"/><use xmlns:ns2="http://www.w3.org/1999/xlink" ns2:href="#d"/></g></mask><g id="b" clip-path="url(#e)" style="display:none"><g class="primary design" style="display:none"><path fill-opacity="0" stroke-linecap="round" stroke-miterlimit="10" class="primary"/></g><g class="primary design" style="display:none"><path fill-opacity="0" stroke-linecap="round" stroke-linejoin="round" class="primary"/></g></g><g id="d" clip-path="url(#f)" style="display:none"><g fill-opacity="0" stroke-linecap="round" class="primary design" style="display:none"><path stroke-linejoin="round" class="primary"/><path stroke-miterlimit="10" class="primary"/></g><g class="primary design" style="display:none"><path fill-opacity="0" stroke-linecap="round" stroke-linejoin="round" class="primary"/></g><g class="primary design" style="display:none"><path class="primary"/><path fill-opacity="0" stroke-linecap="round" stroke-linejoin="round" class="primary"/></g></g></defs><g clip-path="url(#g)"><g clip-path="url(#h)" style="display:block"><g class="primary design" style="display:none"><path fill="none" class="primary"/></g><g class="primary design" mask="url(#i)" style="display:none"><path class="primary"/><path fill="none" class="primary"/></g><g class="primary design" style="display:none"><path class="primary"/><path fill="none" class="primary"/></g><g class="primary design" style="display:none"><path class="primary"/><path class="primary"/></g><g fill="#121331" class="primary design" style="display:block"><path d="M250 208.279c34.518 0 62.5 27.982 62.5 62.5s-27.982 62.5-62.5 62.5-62.5-27.982-62.5-62.5 27.982-62.5 62.5-62.5z" class="primary"/><path d="M417.338 133.125h-46.25l-10.834-30C351.712 78.75 328.379 62.5 302.546 62.5H200.671c-24.375 0-46.667 14.583-56.25 37.083l-14.583 33.542H82.754c-22.708 0-41.041 18.542-41.041 41.042v222.291c0 22.708 18.333 41.042 41.041 41.042h334.584c22.708 0 41.041-18.334 41.041-41.042V174.167c0-22.5-18.333-41.042-41.041-41.042zM250.046 375c-57.5 0-104.167-46.667-104.167-104.167s46.667-104.166 104.167-104.166 104.167 46.666 104.167 104.166S307.546 375 250.046 375zm171.458-161.667c-.417 1.667-.833 3.333-1.666 5-.625 1.458-1.459 3.125-2.292 4.375-1.042 1.458-2.083 2.917-3.333 3.959-4.792 5-11.459 7.708-18.334 7.708s-13.541-2.708-18.333-7.708c-1.25-1.042-2.291-2.501-3.333-3.959-.833-1.25-1.667-2.917-2.292-4.375-.833-1.667-1.25-3.333-1.667-5-.208-1.667-.416-3.333-.416-5 0-6.875 2.708-13.541 7.708-18.333 1.042-1.25 2.5-2.291 3.958-3.333 1.25-.833 2.917-1.667 4.375-2.292 1.667-.833 3.333-1.25 5-1.667a26.901 26.901 0 0 1 10 0c1.667.417 3.333.834 5 1.667 1.458.625 3.125 1.459 4.375 2.292 1.458 1.042 2.917 2.083 3.959 3.333 5 4.792 7.708 11.458 7.708 18.333 0 1.667-.209 3.333-.417 5z" class="primary"/></g><g class="primary design" style="display:none"><path class="primary"/><path class="primary"/></g></g><g clip-path="url(#j)" style="display:none"><g class="primary design" mask="url(#k)" style="display:none"><path class="primary"/><path fill="none" class="primary"/></g><g class="primary design" style="display:none"><path class="primary"/><path class="primary"/></g></g></g></svg>