<svg xmlns="http://www.w3.org/2000/svg" width="500" height="500" style="width:100%;height:100%;transform:translate3d(0,0,0);content-visibility:visible" viewBox="0 0 500 500"><defs><clipPath id="a"><path d="M0 0h500v500H0z"/></clipPath><clipPath id="c"><path d="M0 0h500v500H0z"/></clipPath><clipPath id="b"><path d="M0 0h500v500H0z"/></clipPath></defs><g clip-path="url(#a)"><g clip-path="url(#b)" style="display:block"><g fill="none" class="primary design" style="display:none"><path class="primary"/><path class="primary"/></g><g class="primary design" style="display:block"><path fill="#121331" d="m436.296 267.083-24.167 121.25c-5.625 28.542-30.833 49.167-59.791 49.167H166.713V208.333h.208l14.955-25.486 29.127-49.638 35.501-60.501c3.75-6.25 10.625-10.208 17.917-10.208 19.583 0 37.5 8.75 49.167 24.167 11.875 15.417 15.833 35.208 10.833 53.958l-25 66.875 78.958.833c22.708 0 39.584 6.25 49.584 18.542 6.042 7.292 12.291 20.208 8.333 40.208z" class="primary"/></g><g class="primary design" style="display:block"><path fill="#121331" d="M83.379 208.334h41.667V437.5H83.379c-11.458 0-20.833-9.375-20.833-20.833v-187.5c0-11.458 9.375-20.833 20.833-20.833z" class="primary"/></g></g><g clip-path="url(#c)" style="display:none"><g fill="none" class="primary design" style="display:none"><path class="primary"/><path class="primary"/></g><g class="primary design" style="display:none"><path class="primary"/></g><g class="primary design" style="display:none"><path class="primary"/></g></g></g></svg>