<svg xmlns="http://www.w3.org/2000/svg" width="500" height="500" style="width:100%;height:100%;transform:translate3d(0,0,0);content-visibility:visible" viewBox="0 0 500 500"><defs><clipPath id="k"><path d="M0 0h500v500H0z"/></clipPath><clipPath id="p"><path d="M0 0h500v500H0z"/></clipPath><clipPath id="q"><path d="M0 0h500v500H0z"/></clipPath><clipPath id="l"><path d="M0 0h500v500H0z"/></clipPath><clipPath id="i"><path d="M0 0h500v500H0z"/></clipPath><clipPath id="m"><path d="M0 0h500v500H0z"/></clipPath><clipPath id="j"><path d="M0 0h500v500H0z"/></clipPath><filter id="a" width="100%" height="100%" x="0%" y="0%" filterUnits="objectBoundingBox"><feComponentTransfer in="SourceGraphic"><feFuncA tableValues="1.0 0.0" type="table"/></feComponentTransfer></filter><filter id="c" width="100%" height="100%" x="0%" y="0%" filterUnits="objectBoundingBox"><feComponentTransfer in="SourceGraphic"><feFuncA tableValues="1.0 0.0" type="table"/></feComponentTransfer></filter><filter id="e" width="100%" height="100%" x="0%" y="0%" filterUnits="objectBoundingBox"><feComponentTransfer in="SourceGraphic"><feFuncA tableValues="1.0 0.0" type="table"/></feComponentTransfer></filter><filter id="g" width="100%" height="100%" x="0%" y="0%" filterUnits="objectBoundingBox"><feComponentTransfer in="SourceGraphic"><feFuncA tableValues="1.0 0.0" type="table"/></feComponentTransfer></filter><mask id="s" mask-type="alpha"><g filter="url(#a)"><path fill="#fff" d="M0 0h500v500H0z" opacity="0"/><use xmlns:ns1="http://www.w3.org/1999/xlink" ns1:href="#b"/></g></mask><mask id="r" mask-type="alpha"><g filter="url(#c)"><path fill="#fff" d="M0 0h500v500H0z" opacity="0"/><use xmlns:ns2="http://www.w3.org/1999/xlink" ns2:href="#d"/></g></mask><mask id="o" mask-type="alpha"><g filter="url(#e)"><path fill="#fff" d="M0 0h500v500H0z" opacity="0"/><use xmlns:ns3="http://www.w3.org/1999/xlink" ns3:href="#f"/></g></mask><mask id="n" mask-type="alpha"><g filter="url(#g)"><path fill="#fff" d="M0 0h500v500H0z" opacity="0"/><use xmlns:ns4="http://www.w3.org/1999/xlink" ns4:href="#h"/></g></mask><g id="d" class="primary design" style="display:none"><path fill-opacity="0" stroke-linecap="round" stroke-linejoin="round" class="primary"/><path fill-opacity="0" stroke-linecap="round" stroke-linejoin="round" class="primary"/><path fill-opacity="0" stroke-linecap="round" stroke-linejoin="round" class="primary"/><path fill-opacity="0" stroke-linecap="round" stroke-linejoin="round" class="primary"/><path class="primary"/></g><g id="b" class="primary design" style="display:none"><path fill-opacity="0" stroke-linecap="round" stroke-linejoin="round" class="primary"/><path class="primary"/></g><g id="h" clip-path="url(#i)" style="display:none"><g class="primary design" style="display:none"><path fill-opacity="0" stroke-linecap="round" stroke-linejoin="round" class="primary"/><path fill-opacity="0" stroke-linecap="round" stroke-linejoin="round" class="primary"/><path fill-opacity="0" stroke-linecap="round" stroke-linejoin="round" class="primary"/><path class="primary"/><path fill-opacity="0" stroke-linecap="round" stroke-linejoin="round" class="primary"/></g><g class="primary design" style="display:none"><path fill-opacity="0" stroke-linecap="round" stroke-linejoin="round" class="primary"/><path fill-opacity="0" stroke-linecap="round" stroke-linejoin="round" class="primary"/><path class="primary"/></g><g class="primary design" style="display:none"><path fill-opacity="0" stroke-linecap="round" stroke-linejoin="round" class="primary"/></g></g><g id="f" clip-path="url(#j)" style="display:none"><g class="primary design" style="display:none"><path class="primary"/><path fill-opacity="0" stroke-linecap="round" stroke-linejoin="round" class="primary"/></g><g class="primary design" style="display:none"><path class="primary"/><path fill-opacity="0" stroke-linecap="round" stroke-linejoin="round" class="primary"/></g></g></defs><g clip-path="url(#k)"><g clip-path="url(#l)" style="display:block"><g clip-path="url(#m)" mask="url(#n)" style="display:none"><g class="primary design" mask="url(#o)" style="display:none"><path class="primary"/><path fill="none" class="primary"/><path fill="none" class="primary"/></g><g class="primary design" style="display:none"><path class="primary"/><path fill="none" class="primary"/></g><g class="primary design" style="display:none"><path class="primary"/><path fill="none" class="primary"/></g></g><g class="primary design" style="display:block"><path fill="#121331" d="M374.98 41.976H125.02c-22.913 0-41.66 18.747-41.66 41.66v333.28c0 22.913 18.747 41.66 41.66 41.66h249.96c22.913 0 41.66-18.747 41.66-41.66V83.636c0-22.913-18.747-41.66-41.66-41.66zm-229.13 64.99c0-12.915 10.415-23.33 23.33-23.33h57.49c12.915 0 23.33 10.415 23.33 23.33v57.49c0 12.915-10.415 23.33-23.33 23.33h-57.49c-12.915 0-23.33-10.415-23.33-23.33v-57.49zm85.82 310.158h-69.99c-8.748 0-15.622-7.082-15.622-15.622 0-8.749 6.874-15.623 15.623-15.623h69.989c8.748 0 15.83 6.874 15.83 15.623 0 8.54-7.082 15.622-15.83 15.622zm106.233-73.113H160.848c-8.749 0-15.623-6.874-15.623-15.623 0-8.54 6.874-15.622 15.623-15.622h177.055c8.54 0 15.622 7.082 15.622 15.622 0 8.749-7.082 15.623-15.622 15.623zm0-72.905H161.056c-8.54 0-15.622-7.082-15.622-15.623 0-8.54 7.082-15.622 15.622-15.622h176.847c8.54 0 15.622 7.082 15.622 15.622s-7.082 15.623-15.622 15.623z" class="primary"/></g><g class="primary design" style="display:none"><path class="primary"/></g></g><g clip-path="url(#p)" style="display:none"><g clip-path="url(#q)" mask="url(#r)" style="display:none"><g class="primary design" mask="url(#s)" style="display:none"><path class="primary"/><path fill="none" class="primary"/></g><g class="primary design" style="display:none"><path fill="none" class="primary"/><path class="primary"/></g></g><g class="primary design" style="display:none"><path class="primary"/></g></g></g></svg>