<svg xmlns="http://www.w3.org/2000/svg" width="500" height="500" style="width:100%;height:100%;transform:translate3d(0,0,0);content-visibility:visible" viewBox="0 0 500 500"><defs><clipPath id="a"><path d="M0 0h500v500H0z"/></clipPath><clipPath id="e"><path d="M0 0h500v500H0z"/></clipPath><clipPath id="d"><path d="M0 0h500v500H0z"/></clipPath><clipPath id="c"><path d="M0 0h500v500H0z"/></clipPath><clipPath id="b"><path d="M0 0h500v500H0z"/></clipPath></defs><g clip-path="url(#a)"><g clip-path="url(#b)" style="display:none"><path class="primary" style="display:none"/></g><g clip-path="url(#c)" style="display:none"><path class="primary" style="display:none"/><path class="primary" style="display:none"/></g><g clip-path="url(#d)" style="display:block"><path fill="none" class="primary" style="display:none"/><g style="display:none"><path class="primary"/><path fill="none" class="primary"/></g><path fill="none" class="primary" style="display:none"/><g style="display:none"><path class="primary"/><path fill="none" class="primary"/></g><path fill="#121331" d="M104.496-105.092a15.626 15.626 0 0 0-19.14-1.838 15.63 15.63 0 0 0-6.429 18.122l24.393 73.183h-296.028c-8.629 0-15.625 6.996-15.625 15.625s6.996 15.625 15.625 15.625H103.32L78.927 88.808a15.63 15.63 0 0 0 6.429 18.122 15.626 15.626 0 0 0 19.14-1.838l98.959-93.75c.035-.033.065-.068.099-.101q.187-.18.369-.367.103-.107.203-.215.143-.152.283-.309a14 14 0 0 0 .486-.578q.125-.156.246-.316a15 15 0 0 0 .281-.382l.146-.206a16 16 0 0 0 .352-.535l.057-.089A15.55 15.55 0 0 0 208.333 0c0-3.028-.865-5.852-2.356-8.246l-.057-.089a16 16 0 0 0-.779-1.123q-.12-.16-.246-.316a14 14 0 0 0-.486-.578q-.14-.157-.283-.309-.1-.108-.203-.215a16 16 0 0 0-.369-.367l-.099-.099z" class="primary" style="display:none" transform="translate(250 250)"/><path fill="#121331" d="M104.496-105.092a15.626 15.626 0 0 0-19.14-1.838 15.63 15.63 0 0 0-6.429 18.122l24.393 73.183h-296.028c-8.629 0-15.625 6.996-15.625 15.625s6.996 15.625 15.625 15.625H103.32L78.927 88.808a15.63 15.63 0 0 0 6.429 18.122 15.626 15.626 0 0 0 19.14-1.838l98.959-93.75c.035-.033.065-.068.099-.101q.187-.18.369-.367.103-.107.203-.215.143-.152.283-.309a14 14 0 0 0 .486-.578q.125-.156.246-.316a15 15 0 0 0 .281-.382l.146-.206a16 16 0 0 0 .352-.535l.057-.089A15.55 15.55 0 0 0 208.333 0c0-3.028-.865-5.852-2.356-8.246l-.057-.089a16 16 0 0 0-.779-1.123q-.12-.16-.246-.316a14 14 0 0 0-.486-.578q-.14-.157-.283-.309-.1-.108-.203-.215a16 16 0 0 0-.369-.367l-.099-.099z" class="primary" style="display:block" transform="translate(250 250)"/></g><g clip-path="url(#e)" style="display:none"><path fill="none" class="primary" style="display:none"/><g style="display:none"><path class="primary"/><path fill="none" class="primary"/></g><path class="primary" style="display:none"/></g></g></svg>