<svg xmlns="http://www.w3.org/2000/svg" width="500" height="500" style="width:100%;height:100%;transform:translate3d(0,0,0);content-visibility:visible" viewBox="0 0 500 500"><defs><clipPath id="f"><path d="M0 0h500v500H0z"/></clipPath><clipPath id="i"><path d="M0 0h500v500H0z"/></clipPath><clipPath id="g"><path d="M0 0h500v500H0z"/></clipPath><clipPath id="e"><path d="M0 0h500v500H0z"/></clipPath><filter id="a" width="100%" height="100%" x="0%" y="0%" filterUnits="objectBoundingBox"><feComponentTransfer in="SourceGraphic"><feFuncA tableValues="1.0 0.0" type="table"/></feComponentTransfer></filter><filter id="c" width="100%" height="100%" x="0%" y="0%" filterUnits="objectBoundingBox"><feComponentTransfer in="SourceGraphic"><feFuncA tableValues="1.0 0.0" type="table"/></feComponentTransfer></filter><mask id="j" mask-type="alpha"><g filter="url(#a)"><path fill="#fff" d="M0 0h500v500H0z" opacity="0"/><use xmlns:ns1="http://www.w3.org/1999/xlink" ns1:href="#b"/></g></mask><mask id="h" mask-type="alpha"><g filter="url(#c)"><path fill="#fff" d="M0 0h500v500H0z" opacity="0"/><use xmlns:ns2="http://www.w3.org/1999/xlink" ns2:href="#d"/></g></mask><g id="b" class="primary design" style="display:none"><path fill-opacity="0" stroke-linecap="round" stroke-linejoin="round" class="primary"/><path class="primary"/><path fill-opacity="0" stroke-linecap="round" stroke-linejoin="round" class="primary"/><path class="primary"/></g><g id="d" clip-path="url(#e)" style="display:block"><g class="primary design" style="display:block"><path fill="#121331" d="M280.25 229.5h-39.125c-22.109 0-40-17.891-40-40l.062-22.893c0-23.115 18.707-41.607 41.822-41.607l14.357.002c22.941.187 41.447 18.595 41.447 41.58L298.75 211c0 10.113-8.387 18.5-18.5 18.5zm53.5 145.5H166.333c-11.207 0-20.5-9.293-20.5-20.5v-5.541c0-43.125 35-78.126 78.125-78.126h52.084c43.125 0 78.125 35.001 78.125 78.126v5.624c0 11.161-9.256 20.417-20.417 20.417z" class="primary"/></g><g class="primary design" style="display:block"><path fill="#121331" d="M671.25 229.5h-39.125c-22.109 0-40-17.891-40-40l.062-22.893c0-23.115 18.707-41.607 41.822-41.607l14.357.002c22.941.187 41.447 18.595 41.447 41.58L689.75 211c0 10.113-8.387 18.5-18.5 18.5zm53.5 145.5H557.333c-11.207 0-20.5-9.293-20.5-20.5v-5.541c0-43.125 35-78.126 78.125-78.126h52.084c43.125 0 78.125 35.001 78.125 78.126v5.624c0 11.161-9.256 20.417-20.417 20.417z" class="primary"/></g><g class="primary design" style="display:block"><path fill="#121331" d="m1055.125 248.09-33.883-19.563c-19.147-11.055-25.695-35.494-14.64-54.641l11.5-19.795c11.557-20.019 37.004-26.68 57.022-15.122.1.058 12.332 7.121 12.432 7.18 19.774 11.633 26.597 36.827 15.104 56.733l-22.263 38.436c-5.057 8.758-16.513 11.828-25.272 6.771zM1115.75 375H948.333c-11.207 0-20.5-9.293-20.5-20.5v-5.541c0-43.125 35-78.126 78.125-78.126h52.084c43.125 0 78.125 35.001 78.125 78.126v5.624c0 11.161-9.256 20.417-20.417 20.417z" class="primary"/></g><g class="primary design" style="display:block"><path fill="#121331" d="m1087.97-211.928-32.05 22.442c-18.11 12.68-43.028 8.287-55.709-9.823l-13.08-18.789c-13.258-18.934-8.54-44.812 10.394-58.07l11.762-8.234c18.9-13.005 44.617-8.54 57.8 10.288l25.426 36.421c5.8 8.284 3.74 19.965-4.543 25.765zM1115.75-26H948.333c-11.207 0-20.5-9.293-20.5-20.5v-5.541c0-43.125 35-78.126 78.125-78.126h52.084c43.125 0 78.125 35.001 78.125 78.126v5.624c0 11.161-9.256 20.417-20.417 20.417z" class="primary"/></g></g></defs><g clip-path="url(#f)"><g clip-path="url(#g)" style="display:block"><g class="primary design" mask="url(#h)" style="display:none"><path class="primary"/></g><g class="primary design" style="display:block"><path fill="#121331" d="M395.879 62.5H104.213c-22.916 0-41.667 18.751-41.667 41.667v291.666c0 22.916 18.751 41.667 41.667 41.667h291.666c22.916 0 41.667-18.751 41.667-41.667V104.167c0-22.916-18.751-41.667-41.667-41.667zM200.88 166.667c0-22.916 18.541-41.667 41.666-41.667h15c23.125 0 41.666 18.751 41.666 41.667v42.708c0 11.458-9.166 20.833-20.833 20.833h-36.041c-22.916 0-41.458-18.75-41.458-41.667v-21.874zm153.333 187.5c0 11.458-9.376 20.833-20.834 20.833H166.713c-11.458 0-20.834-9.375-20.834-20.833v-8.959c0-41.042 35.626-74.375 79.584-74.375h49.166c43.751 0 79.584 33.333 79.584 74.375v8.959z" class="primary"/></g><g class="primary design" style="display:none"><path class="primary"/></g></g><g clip-path="url(#i)" style="display:none"><g class="primary design" mask="url(#j)" style="display:none"><path class="primary"/></g><g class="primary design" style="display:none"><path class="primary"/></g></g></g></svg>