<svg xmlns="http://www.w3.org/2000/svg" width="500" height="500" style="width:100%;height:100%;transform:translate3d(0,0,0);content-visibility:visible" viewBox="0 0 500 500"><defs><filter id="a" width="100%" height="100%" x="0%" y="0%" filterUnits="objectBoundingBox"><feComponentTransfer in="SourceGraphic"><feFuncA tableValues="1.0 0.0" type="table"/></feComponentTransfer></filter><filter id="c" width="100%" height="100%" x="0%" y="0%" filterUnits="objectBoundingBox"><feComponentTransfer in="SourceGraphic"><feFuncA tableValues="1.0 0.0" type="table"/></feComponentTransfer></filter><filter id="e" width="100%" height="100%" x="0%" y="0%" filterUnits="objectBoundingBox"><feComponentTransfer in="SourceGraphic"><feFuncA tableValues="1.0 0.0" type="table"/></feComponentTransfer></filter><filter id="g" width="100%" height="100%" x="0%" y="0%" filterUnits="objectBoundingBox"><feComponentTransfer in="SourceGraphic"><feFuncA tableValues="1.0 0.0" type="table"/></feComponentTransfer></filter><mask id="o" mask-type="alpha"><g filter="url(#a)"><path fill="#fff" d="M0 0h500v500H0z" opacity="0"/><use xmlns:ns1="http://www.w3.org/1999/xlink" ns1:href="#b"/></g></mask><mask id="n" mask-type="alpha"><g filter="url(#c)"><path fill="#fff" d="M0 0h500v500H0z" opacity="0"/><use xmlns:ns2="http://www.w3.org/1999/xlink" ns2:href="#d"/></g></mask><mask id="l" mask-type="alpha"><g filter="url(#e)"><path fill="#fff" d="M0 0h500v500H0z" opacity="0"/><use xmlns:ns3="http://www.w3.org/1999/xlink" ns3:href="#f"/></g></mask><mask id="k" mask-type="alpha"><g filter="url(#g)"><path fill="#fff" d="M0 0h500v500H0z" opacity="0"/><use xmlns:ns4="http://www.w3.org/1999/xlink" ns4:href="#h"/></g></mask><clipPath id="i"><path d="M0 0h500v500H0z"/></clipPath><clipPath id="m"><path d="M0 0h500v500H0z"/></clipPath><clipPath id="j"><path d="M0 0h500v500H0z"/></clipPath><path id="d" class="primary design" style="display:none"/><path id="h" class="primary design" style="display:none"/><g id="b" fill-opacity="0" stroke-linecap="round" stroke-miterlimit="10" class="primary design" style="display:none"><path class="primary"/><path class="primary"/><path class="primary"/></g><g id="f" fill-opacity="0" stroke-linecap="round" stroke-miterlimit="10" class="primary design" style="display:none"><path class="primary"/><path class="primary"/><path class="primary"/></g></defs><g clip-path="url(#i)"><g clip-path="url(#j)" style="display:block"><g class="primary design" mask="url(#k)" style="display:none"><path fill="none" class="primary"/></g><g class="primary design" mask="url(#l)" style="display:none"><path fill="none" class="primary"/><path class="primary"/></g><g class="primary design" style="display:block"><path fill="#121331" d="M395.671 236.458c.209-1.666.208-3.333.208-5v-25.416c0-67.708-55-122.709-122.708-122.709h-108.75c-67.708 0-122.708 55.001-122.708 122.709v127.291c0 11.458 9.375 20.834 20.833 20.834h105.625c7.708 47.292 48.75 83.333 98.126 83.333h171.249c11.458 0 20.833-9.375 20.833-20.833v-87.916c0-41.875-26.041-77.918-62.708-92.293zM161.087 223.75c-.416 1.667-.833 3.334-1.666 5-.626 1.458-1.458 3.125-2.292 4.375-1.041 1.458-2.083 2.917-3.333 3.958-1.041 1.25-2.5 2.292-3.958 3.333-1.458.834-2.918 1.667-4.376 2.293-1.666.833-3.333 1.25-5 1.666-1.667.209-3.332.417-4.999.417-1.667 0-3.333-.208-5-.417-1.667-.416-3.334-.833-5-1.666-1.458-.626-3.125-1.459-4.375-2.293-1.458-1.041-2.918-2.083-3.959-3.333-1.25-1.041-2.292-2.5-3.333-3.958-.834-1.25-1.666-2.917-2.292-4.375-.833-1.666-1.25-3.333-1.666-5-.209-1.667-.417-3.333-.417-5 0-6.875 2.708-13.542 7.708-18.333 9.375-9.791 27.083-9.791 36.667 0 1.25 1.041 2.292 2.5 3.333 3.958.834 1.25 1.666 2.917 2.292 4.375.833 1.666 1.25 3.333 1.666 5 .209 1.667.417 3.333.417 5 0 1.667-.208 3.333-.417 5zm122.709-23.333c9.584-9.791 27.292-9.791 36.667 0 5 4.791 7.708 11.458 7.708 18.333 0 1.667-.208 3.333-.417 5-.416 1.667-.833 3.334-1.666 5 0 .209-.208.208-.208.417-.626 1.25-1.251 2.917-2.085 3.958-1.041 1.458-2.082 2.917-3.332 3.958-4.791 5-11.459 7.709-18.334 7.709s-13.542-2.709-18.333-7.709c-1.25-1.041-2.292-2.5-3.333-3.958-.834-1.041-1.458-2.708-2.084-3.958 0-.209-.209-.208-.209-.417-.833-1.666-1.249-3.333-1.665-5-.209-1.667-.417-3.333-.417-5 0-6.875 2.708-13.542 7.708-18.333zm-83.334 0c9.584-9.791 27.083-9.791 36.667 0 5 4.791 7.709 11.458 7.709 18.333 0 1.667-.208 3.333-.417 5-.416 1.667-.833 3.334-1.666 5-.626 1.25-1.25 2.708-2.084 3.958 0 .209-.209.208-.209.417-1.041 1.458-2.083 2.917-3.333 3.958-4.791 5-11.458 7.709-18.333 7.709-1.667 0-3.333-.208-5-.417-1.667-.416-3.334-.833-5-1.666-1.458-.626-3.125-1.459-4.375-2.293-1.458-1.041-2.918-2.083-3.959-3.333-1.25-1.041-2.291-2.5-3.332-3.958-.834-1.25-1.667-2.917-2.293-4.375-.833-1.666-1.25-3.333-1.666-5-.209-1.667-.417-3.333-.417-5 0-6.875 2.708-13.542 7.708-18.333zm216.251 195.416H266.297c-26.25 0-48.542-17.5-55.626-41.666h62.5c51.25 0 95-31.459 113.542-76.043 17.916 9.792 30 28.96 30 50.627v67.082z" class="primary"/></g><g class="primary design" style="display:none"><path class="primary"/></g></g><g clip-path="url(#m)" style="display:none"><g class="primary design" mask="url(#n)" style="display:none"><path fill="none" class="primary"/></g><g class="primary design" mask="url(#o)" style="display:none"><path class="primary"/><path fill="none" class="primary"/></g><g class="primary design" style="display:none"><path class="primary"/></g></g></g></svg>