<svg xmlns="http://www.w3.org/2000/svg" width="500" height="500" style="width:100%;height:100%;transform:translate3d(0,0,0);content-visibility:visible" viewBox="0 0 500 500"><defs><clipPath id="a"><path d="M0 0h500v500H0z"/></clipPath><clipPath id="c"><path d="M0 0h500v500H0z"/></clipPath><clipPath id="b"><path d="M0 0h500v500H0z"/></clipPath></defs><g clip-path="url(#a)"><g clip-path="url(#b)" style="display:block"><g class="primary design" opacity="0" style="display:block"><path fill="#121331" d="M192.702 364.612a15.597 15.597 0 0 1-10.612-4.151L46.673 235.46a15.652 15.652 0 0 1 0-22.999l135.417-125c6.351-5.862 16.253-5.468 22.116.884 5.862 6.351 5.466 16.253-.885 22.115L80.362 223.96l122.959 113.502c6.351 5.862 6.747 15.764.885 22.115a15.609 15.609 0 0 1-11.504 5.035z" class="primary" opacity="1"/></g><g class="primary design" style="display:block"><path fill="#121331" d="M310.67 141.251v-37.084c0-8.334-5-15.833-12.708-19.166-7.5-3.334-16.458-1.667-22.5 3.958L152.337 205.625c-4.167 3.958-6.458 9.584-6.458 15.417 0 5.625 2.5 11.25 6.875 15L275.67 348.75c6.251 5.625 15.001 7.084 22.501 3.75 7.5-3.541 12.499-10.832 12.499-19.166v-33.542h6.875c38.958 0 73.334 26.25 87.709 66.667l12.708 36.25c2.917 8.541 10.834 13.958 19.584 13.958 1.041 0 2.291.001 3.541-.208 10.001-1.874 17.292-10.417 17.292-20.625v-90c0-89.011-65.604-161.829-147.282-164.569l-.427-.014z" class="primary"/></g><g class="primary design" style="display:block"><path fill="#121331" d="m93.17 218.542 108.333-99.167c8.542-7.708 8.958-20.834 1.25-29.375-7.708-8.542-20.833-8.958-29.374-1.25l-125 114.584c-4.167 3.958-6.667 9.582-6.667 15.416s2.5 11.459 6.667 15.417l125 114.583c4.167 3.541 9.166 5.417 14.166 5.417 5.625 0 11.25-2.291 15.208-7.084 7.708-8.333 7.292-21.667-1.25-29.375L93.17 218.542z" class="primary"/></g></g><g clip-path="url(#c)" style="display:none"><g class="primary design" style="display:none"><path class="primary"/><path fill="none" class="primary"/></g><g class="primary design" style="display:none"><path fill="none" class="primary"/></g><g class="primary design" style="display:none"><path class="primary"/></g><g class="primary design" style="display:none"><path class="primary"/></g></g></g></svg>