<svg xmlns="http://www.w3.org/2000/svg" width="500" height="500" style="width:100%;height:100%;transform:translate3d(0,0,0);content-visibility:visible" viewBox="0 0 500 500"><defs><clipPath id="a"><path d="M0 0h500v500H0z"/></clipPath><clipPath id="c"><path d="M0 0h500v500H0z"/></clipPath><clipPath id="b"><path d="M0 0h500v500H0z"/></clipPath></defs><g clip-path="url(#a)"><g clip-path="url(#b)" style="display:block"><g fill="none" class="primary design" style="display:none"><path class="primary"/><path class="primary"/></g><g fill="none" class="primary design" style="display:none"><path class="primary"/><path class="primary"/></g><g class="primary design" style="display:block"><path fill="#121331" d="M372.129 244.166h-3.541c-33.805 0-62.883 19.802-77.01 48.241l-16.803-26.146 96.938-150.845c6.25-9.583 3.333-22.499-6.251-28.75-9.583-6.25-22.499-3.333-28.75 6.251l-86.666 134.862L163.38 92.917c-6.251-9.584-18.959-12.501-28.75-6.251-9.584 6.251-12.501 19.167-6.251 28.75l96.938 150.845-16.803 26.146c-14.127-28.439-43.205-48.241-77.01-48.241h-3.541c-47.501 0-86.25 38.751-86.25 86.25 0 47.501 38.749 86.251 86.25 86.251h3.541c30.937 0 57.85-16.581 73.071-41.167l45.471-70.758 44.88 69.838c15.114 25.08 42.352 42.087 73.662 42.087h3.541c47.501 0 86.25-38.75 86.25-86.251 0-47.499-38.749-86.25-86.25-86.25zM131.504 375h-3.541c-24.583 0-44.584-20.001-44.584-44.584 0-24.583 20.001-44.583 44.584-44.583h3.541c24.583 0 44.584 20 44.584 44.583 0 7.65-2.115 14.747-5.524 21.045l-2.81 4.373c-.137.21-.136.457-.264.671C159.377 367.658 146.319 375 131.504 375zm240.625 0h-3.541c-14.812 0-27.869-7.339-35.982-18.489-.13-.215-.129-.465-.268-.677l-2.81-4.373c-3.409-6.298-5.524-13.395-5.524-21.045 0-24.583 20.001-44.583 44.584-44.583h3.541c24.583 0 44.584 20 44.584 44.583S396.712 375 372.129 375z" class="primary"/></g><g class="primary design" style="display:none"><path class="primary"/></g></g><g clip-path="url(#c)" style="display:none"><g fill="none" class="primary design" style="display:none"><path class="primary"/><path class="primary"/></g><g fill="none" class="primary design" style="display:none"><path class="primary"/><path class="primary"/></g><g class="primary design" style="display:none"><path class="primary"/></g><g class="primary design" style="display:none"><path class="primary"/></g></g></g></svg>