<svg xmlns="http://www.w3.org/2000/svg" width="500" height="500" style="width:100%;height:100%;transform:translate3d(0,0,0);content-visibility:visible" viewBox="0 0 500 500"><defs><clipPath id="g"><path d="M0 0h500v500H0z"/></clipPath><clipPath id="j"><path d="M0 0h500v500H0z"/></clipPath><clipPath id="e"><path d="M0 0h500v500H0z"/></clipPath><clipPath id="h"><path d="M0 0h500v500H0z"/></clipPath><clipPath id="f"><path d="M0 0h500v500H0z"/></clipPath><filter id="a" width="100%" height="100%" x="0%" y="0%" filterUnits="objectBoundingBox"><feComponentTransfer in="SourceGraphic"><feFuncA tableValues="1.0 0.0" type="table"/></feComponentTransfer></filter><filter id="c" width="100%" height="100%" x="0%" y="0%" filterUnits="objectBoundingBox"><feComponentTransfer in="SourceGraphic"><feFuncA tableValues="1.0 0.0" type="table"/></feComponentTransfer></filter><mask id="k" mask-type="alpha"><g filter="url(#a)"><path fill="#fff" d="M0 0h500v500H0z" opacity="0"/><use xmlns:ns1="http://www.w3.org/1999/xlink" ns1:href="#b"/></g></mask><mask id="i" mask-type="alpha"><g filter="url(#c)"><path fill="#fff" d="M0 0h500v500H0z" opacity="0"/><use xmlns:ns2="http://www.w3.org/1999/xlink" ns2:href="#d"/></g></mask><g id="b" clip-path="url(#e)" style="display:none"><g fill-opacity="0" stroke-linecap="round" stroke-linejoin="round" class="primary design" style="display:none"><path class="primary"/><path class="primary"/></g><g class="primary design" style="display:none"><path class="primary"/></g><g class="primary design" style="display:none"><path class="primary"/></g><g class="primary design" style="display:none"><path class="primary"/></g><g class="primary design" style="display:none"><path fill-opacity="0" stroke-linecap="round" stroke-linejoin="round" class="primary"/></g></g><g id="d" clip-path="url(#f)" style="display:none"><g fill-opacity="0" stroke-linecap="round" stroke-linejoin="round" class="primary design" style="display:none"><path class="primary"/><path class="primary"/></g><g class="primary design" style="display:none"><path class="primary"/></g><g class="primary design" style="display:none"><path class="primary"/></g><g class="primary design" style="display:none"><path class="primary"/></g><g class="primary design" style="display:none"><path fill-opacity="0" stroke-linecap="round" stroke-linejoin="round" class="primary"/></g></g></defs><g clip-path="url(#g)"><g clip-path="url(#h)" style="display:block"><g class="primary design" mask="url(#i)" style="display:none"><path class="primary"/></g><g class="primary design" style="display:block"><path fill="#121331" d="M250.046 41.667C135.254 41.667 41.713 135.208 41.713 250s93.541 208.333 208.333 208.333S458.379 364.792 458.379 250 364.838 41.667 250.046 41.667zm-24.792 76.875a24.718 24.718 0 0 1 24.792-24.792 24.718 24.718 0 0 1 24.792 24.792v25.416c0 6.667-5.625 12.292-12.5 12.292h-12.292a24.718 24.718 0 0 1-24.792-24.792v-12.916zM363.588 276.25c-3.125 2.917-7.084 4.583-11.042 4.583-4.167 0-7.917-1.666-11.042-4.583l-37.5-37.5c-2.5-2.5-7.083-.833-7.083 2.917v139.375c0 8.542-7.083 15.625-15.625 15.625h-.208c-8.542 0-15.625-7.083-15.625-15.625v-84.167c0-8.542-6.875-15.625-15.417-15.625s-15.417 7.083-15.417 15.625v84.167c0 8.542-7.083 15.625-15.625 15.625h-.208c-8.542 0-15.625-7.083-15.625-15.625V241.667c0-3.75-4.583-5.417-7.083-2.917l-37.5 37.5c-3.125 2.917-6.875 4.583-11.042 4.583-3.958 0-7.917-1.666-11.042-4.583-6.042-6.042-6.042-16.041 0-22.083l54.375-54.375c7.917-7.917 18.542-12.292 29.584-12.292h59.166c11.042 0 21.667 4.375 29.584 12.292l54.375 54.375c6.042 6.042 6.042 16.041 0 22.083z" class="primary"/></g><g class="primary design" style="display:none"><path class="primary"/></g></g><g clip-path="url(#j)" style="display:none"><g class="primary design" mask="url(#k)" style="display:none"><path class="primary"/><path fill="none" class="primary"/></g><g class="primary design" style="display:none"><path class="primary"/></g></g></g></svg>