<svg xmlns="http://www.w3.org/2000/svg" width="500" height="500" style="width:100%;height:100%;transform:translate3d(0,0,0);content-visibility:visible" viewBox="0 0 500 500"><defs><clipPath id="a"><path d="M0 0h500v500H0z"/></clipPath><clipPath id="c"><path d="M0 0h500v500H0z"/></clipPath><clipPath id="b"><path d="M0 0h500v500H0z"/></clipPath></defs><g clip-path="url(#a)"><g clip-path="url(#b)" style="display:block"><g class="primary design" style="display:none"><path fill="none" class="primary"/><path class="primary"/><path fill="none" class="primary"/></g><g class="primary design" style="display:block"><path fill="#121331" d="M430.804 139.184c-2.083-4.582-6.457-7.707-11.456-8.748-5-.833-9.998.625-13.54 4.166l-73.53 71.655-38.535-38.536 71.655-73.53c3.541-3.54 5-8.748 4.166-13.747-1.041-5-4.166-9.165-8.748-11.248-48.534-22.497-90.61-13.332-132.687 28.953-30.62 30.412-35.203 75.405-28.954 110.4L72.737 334.985c-6.874 6.874-10.624 16.04-10.624 25.621 0 9.79 3.75 18.956 10.624 25.83l40.826 40.826a36.298 36.298 0 0 0 25.621 10.624c9.374 0 18.747-3.541 25.83-10.624l126.438-126.438c34.786 6.25 79.987 1.667 110.399-28.954 41.868-41.868 51.241-85.194 28.953-132.687zM156.265 364.565c0 11.457-9.165 20.83-20.83 20.83-11.457 0-20.83-9.373-20.83-20.83 0-11.457 9.165-20.83 20.83-20.83s20.83 9.373 20.83 20.83z" class="primary"/></g></g><g clip-path="url(#c)" style="display:none"><g class="primary design" style="display:none"><path class="primary"/><path class="primary"/><path fill="none" class="primary"/></g><g class="primary design" style="display:none"><path class="primary"/><path fill="none" class="primary"/><path fill="none" class="primary"/></g><g class="primary design" style="display:none"><path class="primary"/></g></g></g></svg>