<svg xmlns="http://www.w3.org/2000/svg" width="500" height="500" style="width:100%;height:100%;transform:translate3d(0,0,0);content-visibility:visible" viewBox="0 0 500 500"><defs><clipPath id="a"><path d="M0 0h500v500H0z"/></clipPath><clipPath id="h"><path d="M0 0h500v500H0z"/></clipPath><clipPath id="i"><path fill="#fff"/></clipPath><clipPath id="e"><path d="M0 0h500v500H0z"/></clipPath><clipPath id="f"><path fill="#fff"/></clipPath><clipPath id="g"><path fill="#fff" d="M262.987 238.142h-25.373l.003 24.075h25.373l-.003-24.075"/></clipPath><clipPath id="b"><path d="M0 0h500v500H0z"/></clipPath><clipPath id="d"><path fill="#fff"/></clipPath><clipPath id="c"><path fill="#fff"/></clipPath></defs><g clip-path="url(#a)"><g clip-path="url(#b)" style="display:none"><g class="primary design" clip-path="url(#c)" style="display:none"><path fill="none" class="primary"/><path fill="none" class="primary"/><path class="primary"/><path fill="none" class="primary"/><path class="primary"/><path fill="none" class="primary"/><path class="primary"/><path fill="none" class="primary"/><path class="primary"/><path fill="none" class="primary"/><path class="primary"/><path fill="none" class="primary"/><path class="primary"/><path fill="none" class="primary"/></g><g class="primary design" clip-path="url(#d)" style="display:none"><path class="primary"/><path class="primary"/></g><g class="primary design" style="display:none"><path fill="none" class="primary"/></g></g><g clip-path="url(#e)" style="display:block"><g class="primary design" clip-path="url(#f)" style="display:none"><path fill="none" class="primary"/><path class="primary"/><path fill="none" class="primary"/></g><g class="primary design" clip-path="url(#g)" style="display:block" transform="translate(-4957.502 -4957.504) scale(20.83)"><path fill="#121331" d="M257 242h-2v-1a1 1 0 1 0-2 0v1h-6v-1a1 1 0 1 0-2 0v1h-2c-1.1 0-2 .9-2 2v2.04h18V244c0-1.1-.9-2-2-2zm0 5.54h-16V257c0 1.1.9 2 2 2h14c1.1 0 2-.9 2-2v-9.46h-2zm-3.01 2.99h.01c.55 0 1 .44 1 1 0 .55-.45 1-1 1s-1-.45-1-1c0-.56.44-1 .99-1zm-3.99 0c.56 0 1 .44 1 1 0 .55-.44 1-1 1-.55 0-1-.45-1-1 0-.56.44-1 1-1zm0 3.5c.56 0 1 .45 1 1s-.44 1-1 1c-.55 0-1-.45-1-1s.44-1 1-1zm-4-3.5c.55 0 1 .44 1 1 0 .55-.44 1-.99 1H246c-.55 0-1-.45-1-1 0-.56.45-1 1-1zm0 3.5c.55 0 1 .45 1 1s-.44 1-.99 1H246c-.55 0-1-.45-1-1s.45-1 1-1z" class="primary"/></g><g class="primary design" style="display:none"><path fill="none" class="primary"/></g></g><g clip-path="url(#h)" style="display:none"><g class="primary design" clip-path="url(#i)" style="display:none"><path class="primary"/><path class="primary"/></g><g class="primary design" style="display:none"><path fill="none" class="primary"/></g></g></g></svg>