<svg xmlns="http://www.w3.org/2000/svg" width="500" height="500" style="width:100%;height:100%;transform:translate3d(0,0,0);content-visibility:visible" viewBox="0 0 500 500"><defs><clipPath id="s"><path d="M0 0h500v500H0z"/></clipPath><clipPath id="E"><path d="M0 0h500v500H0z"/></clipPath><clipPath id="m"><path d="M0 0h500v500H0z"/></clipPath><clipPath id="C"><path d="M0 0h500v500H0z"/></clipPath><clipPath id="n"><path d="M0 0h500v500H0z"/></clipPath><clipPath id="A"><path d="M0 0h500v500H0z"/></clipPath><clipPath id="o"><path d="M0 0h500v500H0z"/></clipPath><clipPath id="y"><path d="M0 0h500v500H0z"/></clipPath><clipPath id="p"><path d="M0 0h500v500H0z"/></clipPath><clipPath id="w"><path d="M0 0h500v500H0z"/></clipPath><clipPath id="q"><path d="M0 0h500v500H0z"/></clipPath><clipPath id="v"><path d="M0 0h500v500H0z"/></clipPath><clipPath id="t"><path d="M0 0h500v500H0z"/></clipPath><clipPath id="r"><path d="M0 0h500v500H0z"/></clipPath><filter id="a" width="100%" height="100%" x="0%" y="0%" filterUnits="objectBoundingBox"><feComponentTransfer in="SourceGraphic"><feFuncA tableValues="1.0 0.0" type="table"/></feComponentTransfer></filter><filter id="c" width="100%" height="100%" x="0%" y="0%" filterUnits="objectBoundingBox"><feComponentTransfer in="SourceGraphic"><feFuncA tableValues="1.0 0.0" type="table"/></feComponentTransfer></filter><filter id="e" width="100%" height="100%" x="0%" y="0%" filterUnits="objectBoundingBox"><feComponentTransfer in="SourceGraphic"><feFuncA tableValues="1.0 0.0" type="table"/></feComponentTransfer></filter><filter id="g" width="100%" height="100%" x="0%" y="0%" filterUnits="objectBoundingBox"><feComponentTransfer in="SourceGraphic"><feFuncA tableValues="1.0 0.0" type="table"/></feComponentTransfer></filter><filter id="i" width="100%" height="100%" x="0%" y="0%" filterUnits="objectBoundingBox"><feComponentTransfer in="SourceGraphic"><feFuncA tableValues="1.0 0.0" type="table"/></feComponentTransfer></filter><filter id="k" width="100%" height="100%" x="0%" y="0%" filterUnits="objectBoundingBox"><feComponentTransfer in="SourceGraphic"><feFuncA tableValues="1.0 0.0" type="table"/></feComponentTransfer></filter><mask id="F" mask-type="alpha"><g filter="url(#a)"><path fill="#fff" d="M0 0h500v500H0z" opacity="0"/><use xmlns:ns1="http://www.w3.org/1999/xlink" ns1:href="#b"/></g></mask><mask id="D" mask-type="alpha"><g filter="url(#c)"><path fill="#fff" d="M0 0h500v500H0z" opacity="0"/><use xmlns:ns2="http://www.w3.org/1999/xlink" ns2:href="#d"/></g></mask><mask id="B" mask-type="alpha"><g filter="url(#e)"><path fill="#fff" d="M0 0h500v500H0z" opacity="0"/><use xmlns:ns3="http://www.w3.org/1999/xlink" ns3:href="#f"/></g></mask><mask id="z" mask-type="alpha"><g filter="url(#g)"><path fill="#fff" d="M0 0h500v500H0z" opacity="0"/><use xmlns:ns4="http://www.w3.org/1999/xlink" ns4:href="#h"/></g></mask><mask id="x" mask-type="alpha"><g filter="url(#i)"><path fill="#fff" d="M0 0h500v500H0z" opacity="0"/><use xmlns:ns5="http://www.w3.org/1999/xlink" ns5:href="#j"/></g></mask><mask id="u" mask-type="alpha"><g filter="url(#k)"><path fill="#fff" d="M0 0h500v500H0z" opacity="0"/><use xmlns:ns6="http://www.w3.org/1999/xlink" ns6:href="#l"/></g></mask><g id="b" fill-opacity="0" stroke-linecap="round" stroke-linejoin="round" clip-path="url(#m)" style="display:none"><path class="primary design" style="display:none"/><path class="primary design" style="display:none"/></g><g id="d" fill-opacity="0" stroke-linecap="round" stroke-linejoin="round" clip-path="url(#n)" style="display:none"><path class="primary design" style="display:none"/><path class="primary design" style="display:none"/></g><g id="f" fill-opacity="0" stroke-linecap="round" stroke-linejoin="round" clip-path="url(#o)" style="display:none"><path class="primary design" style="display:none"/><path class="primary design" style="display:none"/></g><g id="h" fill-opacity="0" stroke-linecap="round" stroke-linejoin="round" clip-path="url(#p)" style="display:none"><path class="primary design" style="display:none"/><path class="primary design" style="display:none"/></g><g id="j" fill-opacity="0" stroke-linecap="round" stroke-linejoin="round" clip-path="url(#q)" style="display:none"><path class="primary design" style="display:none"/><path class="primary design" style="display:none"/></g><g id="l" fill-opacity="0" stroke-linecap="round" stroke-linejoin="round" clip-path="url(#r)" style="display:none"><path class="primary design" style="display:none"/><path class="primary design" style="display:none"/><path class="primary design" style="display:none"/></g></defs><g clip-path="url(#s)"><g clip-path="url(#t)" style="display:none"><g class="primary design" style="display:none"><path class="primary"/><path fill="none" class="primary"/></g><g class="primary design" style="display:none"><path class="primary"/><path fill="none" class="primary"/></g><g class="primary design" mask="url(#u)" style="display:none"><path class="primary"/><path fill="none" class="primary"/></g></g><g class="primary design" clip-path="url(#v)" style="display:none"><path class="primary"/><path fill="none" class="primary"/></g><g clip-path="url(#w)" style="display:none"><g class="primary design" style="display:none"><path class="primary"/></g><g class="primary design" style="display:none"><path class="primary"/></g><g class="primary design" mask="url(#x)" style="display:none"><path class="primary"/></g></g><g clip-path="url(#y)" style="display:none"><g class="primary design" mask="url(#z)" style="display:none"><path class="primary"/><path fill="none" class="primary"/></g><g class="primary design" style="display:none"><path class="primary"/></g><g class="primary design" style="display:none"><path class="primary"/></g></g><g clip-path="url(#A)" style="display:none"><g class="primary design" mask="url(#B)" style="display:none"><path class="primary"/><path fill="none" class="primary"/></g><g class="primary design" style="display:none"><path class="primary"/></g><g class="primary design" style="display:none"><path class="primary"/></g></g><g clip-path="url(#C)" style="display:block"><g class="primary design" mask="url(#D)" style="display:none"><path class="primary"/><path fill="none" class="primary"/></g><g class="primary design" style="display:block"><path fill="#121331" d="M245 41.7C130.229 44.616 38.993 140.226 41.7 255c2.708 113.106 95.61 203.3 208.3 203.3h5c114.772-2.916 206.008-98.526 203.3-213.3C455.384 130.229 360.19 38.785 245 41.7zm87.487 261.208c8.123 8.124 8.123 21.455 0 29.579-4.166 3.958-9.374 6.04-14.79 6.04-5.415 0-10.623-2.082-14.789-6.04L250 279.579l-52.908 52.908c-4.166 3.958-9.374 6.04-14.79 6.04-5.415 0-10.623-2.082-14.789-6.04-8.123-8.124-8.123-21.455 0-29.579L220.421 250l-52.908-52.908c-8.123-8.124-8.123-21.455 0-29.579 8.124-8.123 21.455-8.123 29.579 0L250 220.421l52.908-52.908c8.124-8.123 21.455-8.123 29.579 0 8.123 8.124 8.123 21.455 0 29.579L279.579 250l52.908 52.908z" class="primary"/></g><g class="primary design" style="display:none"><path class="primary"/></g></g><g clip-path="url(#E)" style="display:none"><g class="primary design" mask="url(#F)" style="display:none"><path class="primary"/><path fill="none" class="primary"/></g><g class="primary design" style="display:none"><path class="primary"/></g></g></g></svg>