<svg xmlns="http://www.w3.org/2000/svg" width="240" height="240" style="width:100%;height:100%;transform:translate3d(0,0,0);content-visibility:visible" viewBox="0 0 240 240"><defs><clipPath id="g"><path d="M0 0h240v240H0z"/></clipPath><clipPath id="j"><path d="M0 0h240v240H0z"/></clipPath><clipPath id="h"><path d="M0 0h240v240H0z"/></clipPath><clipPath id="f"><path d="M0 0h240v240H0z"/></clipPath><filter id="a" width="100%" height="100%" x="0%" y="0%" filterUnits="objectBoundingBox"><feComponentTransfer in="SourceGraphic"><feFuncA tableValues="1.0 0.0" type="table"/></feComponentTransfer></filter><filter id="c" width="100%" height="100%" x="0%" y="0%" filterUnits="objectBoundingBox"><feComponentTransfer in="SourceGraphic"><feFuncA tableValues="1.0 0.0" type="table"/></feComponentTransfer></filter><mask id="k" mask-type="alpha" maskUnits="userSpaceOnUse"><g filter="url(#a)"><path fill="#fff" d="M0 0h240v240H0z" opacity="0"/><use xmlns:ns1="http://www.w3.org/1999/xlink" ns1:href="#b"/></g></mask><mask id="i" mask-type="alpha" maskUnits="userSpaceOnUse"><g filter="url(#c)"><path fill="#fff" d="M0 0h240v240H0z" opacity="0"/><use xmlns:ns2="http://www.w3.org/1999/xlink" ns2:href="#d"/></g></mask><path id="b" class="primary" style="display:none"/><g id="d" fill="#121331" clip-path="url(#f)" style="display:block"><path d="M47.846-27.76a7.5 7.5 0 0 0-10.606-.086l-50.5 49.687-18.841-19.544a7.5 7.5 0 0 0-10.604-.194 7.5 7.5 0 0 0-.194 10.604l24.098 25a7.5 7.5 0 0 0 10.66.142L47.76-17.154a7.5 7.5 0 0 0 .086-10.606" class="primary" style="display:none" transform="translate(120 120)"/><path d="M47.846-27.76a7.5 7.5 0 0 0-10.606-.086l-50.5 49.687-18.841-19.544a7.5 7.5 0 0 0-10.604-.194 7.5 7.5 0 0 0-.194 10.604l24.098 25a7.5 7.5 0 0 0 10.66.142L47.76-17.154a7.5 7.5 0 0 0 .086-10.606" class="primary" style="display:block" transform="translate(120 120)"/></g></defs><g clip-path="url(#g)"><g fill="#121331" clip-path="url(#h)" style="display:block"><g mask="url(#i)" style="display:block"><path d="M120.244 210.541c-.26 0-.502.072-.71.196-.215.128-.533.514-.652.735.127.11.348.019.532.167.156.126.52.289.828.294.228.003.447-.055.774-.256.199-.123.417-.055.584-.216-.122-.223-.445-.61-.666-.736a1.4 1.4 0 0 0-.69-.184m.587-181.932c32.095 0 49.108 10.645 68.98 30.746 22.77 23.033 27.873 60.7 20.62 85.124-8.321 28.019-12.412 23.064-31.558 44.628-12.607 14.198-26.074 22.768-58.042 22.156-34.273-.656-53.73-17.751-67.072-31.95-12.197-12.98-20.939-27.426-23.769-41.988.382-38.081-1.61-52.115 18.989-76.563 18.122-21.509 38.76-32.153 71.852-32.153" class="primary"/><path d="M120 220c55.228 0 100-44.772 100-100S175.228 20 120 20 20 64.772 20 120s44.772 100 100 100m0-185c46.944 0 85 38.056 85 85 0 33.032-18.842 61.663-46.364 75.732a84.4 84.4 0 0 1-14.948 5.923 84.6 84.6 0 0 1-16.447 3.041 86.3 86.3 0 0 1-15.597-.102 84.4 84.4 0 0 1-30.764-9.111C53.621 181.327 35 152.838 35 120c0-46.944 38.056-85 85-85" class="primary"/></g><path d="M0 100c55.228 0 100-44.772 100-100S55.228-100 0-100-100-55.228-100 0-55.228 100 0 100M0-85c46.944 0 85 38.056 85 85S46.944 85 0 85-85 46.944-85 0s38.056-85 85-85" class="primary" style="display:block" transform="translate(120 120)"/></g><g clip-path="url(#j)" style="display:none"><g mask="url(#k)" style="display:none"><path class="primary"/><path class="primary"/></g><path class="primary" style="display:none"/></g></g></svg>