<svg xmlns="http://www.w3.org/2000/svg" width="500" height="500" style="width:100%;height:100%;transform:translate3d(0,0,0);content-visibility:visible" viewBox="0 0 500 500"><defs><clipPath id="a"><path d="M0 0h500v500H0z"/></clipPath><clipPath id="c"><path d="M0 0h500v500H0z"/></clipPath><clipPath id="b"><path d="M0 0h500v500H0z"/></clipPath></defs><g clip-path="url(#a)"><g class="primary design" clip-path="url(#b)" style="display:block"><path fill="#121331" d="M440 312.487H298.25l38.494-40.035c7.978-8.29 7.686-21.476-.583-29.454-8.311-7.978-21.497-7.707-29.454.584l-72.322 75.217c-7.748 8.06-7.748 20.809 0 28.87l72.322 75.196c4.083 4.25 9.54 6.374 15.019 6.374 5.186 0 10.394-1.916 14.435-5.811 8.27-7.978 8.56-21.164.583-29.454l-38.306-39.827h141.56c11.52 0 20.83-9.332 20.83-20.83 0-11.498-9.31-20.83-20.83-20.83zM265.901 173.26l-72.26-75.196c-7.977-8.27-21.142-8.54-29.453-.583-8.27 7.978-8.54 21.163-.562 29.454L202.1 166.99H63.018c-11.52 0-20.83 9.331-20.83 20.83 0 11.498 9.31 20.83 20.83 20.83h138.874l-38.265 39.827c-7.978 8.29-7.707 21.475.583 29.453a20.78 20.78 0 0 0 14.435 5.812 20.714 20.714 0 0 0 14.998-6.395l72.26-75.217c7.748-8.061 7.748-20.81 0-28.87z" class="primary"/></g><g class="primary design" clip-path="url(#c)" style="display:none"><path class="primary"/></g></g></svg>