<svg xmlns="http://www.w3.org/2000/svg" width="240" height="240" style="width:100%;height:100%;transform:translate3d(0,0,0);content-visibility:visible" viewBox="0 0 240 240"><defs><clipPath id="a"><path d="M0 0h240v240H0z"/></clipPath><clipPath id="c"><path d="M0 0h240v240H0z"/></clipPath><clipPath id="b"><path d="M0 0h240v240H0z"/></clipPath></defs><g clip-path="url(#a)"><g fill="#121331" clip-path="url(#b)" style="display:block"><path d="M-58.979-58.979c26.36-26.36 69.099-26.36 95.459 0s26.36 69.099 0 95.459-69.099 26.36-95.459 0-26.36-69.099 0-95.459M47.087-69.585c-32.218-32.218-84.454-32.218-116.672 0s-32.218 84.454 0 116.672c30.431 30.431 78.719 32.119 111.131 5.065l39.4 39.4 10.606-10.606-39.4-39.4c27.054-32.412 25.366-80.7-5.065-111.131M91.552 91.552a7.5 7.5 0 0 0 0-10.606L80.946 91.552a7.5 7.5 0 0 0 10.606 0" class="primary" style="display:block" transform="translate(116.249 116.251)"/><path d="M0 45c24.853 0 45-20.147 45-45S24.853-45 0-45-45-24.853-45 0s20.147 45 45 45" class="primary" style="display:block" transform="translate(105.004 105.005)"/></g><g clip-path="url(#c)" style="display:none"><path class="primary" style="display:none"/><path class="primary" style="display:none"/><path class="primary" style="display:none"/></g></g></svg>