<svg xmlns="http://www.w3.org/2000/svg" width="500" height="500" style="width:100%;height:100%;transform:translate3d(0,0,0);content-visibility:visible" viewBox="0 0 500 500"><defs><clipPath id="a"><path d="M0 0h500v500H0z"/></clipPath><clipPath id="d"><path d="M0 0h500v500H0z"/></clipPath><clipPath id="c"><path d="M0 0h500v500H0z"/></clipPath><clipPath id="b"><path d="M0 0h500v500H0z"/></clipPath></defs><g clip-path="url(#a)"><g clip-path="url(#b)" style="display:none"><g class="primary design" style="display:none"><path class="primary"/></g><g class="primary design" style="display:none"><path class="primary"/></g></g><g clip-path="url(#c)" style="display:block"><g class="primary design" style="display:block"><path fill="#121331" d="M298.779 33.953c-11.519 0-20.83 9.332-20.83 20.83v145.81c0 11.498 9.311 20.83 20.83 20.83h145.81c11.519 0 20.83-9.332 20.83-20.83 0-42.577-16.06-81.487-42.43-110.982-30.538-34.14-74.905-55.658-124.21-55.658z" class="primary"/></g><g class="primary design" style="display:block"><path fill="#121331" d="M374.978 272.229h-145.81V125.023c0-11.498-9.311-20.83-20.83-20.83-95.006 0-166.64 76.113-166.64 177.055 0 97.63 79.425 177.055 177.055 177.055 100.942 0 177.055-71.051 177.055-165.244 0-11.499-9.311-20.83-20.83-20.83z" class="primary"/></g></g><g clip-path="url(#d)" style="display:none"><g class="primary design" style="display:none"><path fill="none" class="primary"/></g><g class="primary design" style="display:none"><path fill="none" class="primary"/></g><g class="primary design" style="display:none"><path class="primary"/></g><g class="primary design" style="display:none"><path class="primary"/></g></g></g></svg>