<svg xmlns="http://www.w3.org/2000/svg" width="240" height="240" style="width:100%;height:100%;transform:translate3d(0,0,0);content-visibility:visible" viewBox="0 0 240 240"><defs><clipPath id="c"><path d="M0 0h240v240H0z"/></clipPath><clipPath id="f"><path d="M0 0h240v240H0z"/></clipPath><clipPath id="d"><path d="M0 0h240v240H0z"/></clipPath><filter id="a" width="100%" height="100%" x="0%" y="0%" filterUnits="objectBoundingBox"><feComponentTransfer in="SourceGraphic"><feFuncA tableValues="1.0 0.0" type="table"/></feComponentTransfer></filter><path id="b" style="display:none"/><mask id="e" mask-type="alpha" maskUnits="userSpaceOnUse"><g filter="url(#a)"><path fill="#fff" d="M0 0h240v240H0z" opacity="0"/><use xmlns:ns1="http://www.w3.org/1999/xlink" ns1:href="#b"/></g></mask></defs><g clip-path="url(#c)"><g clip-path="url(#d)" style="display:block"><g mask="url(#e)" style="display:block"><path fill="#121331" d="M106.201 43.603A7.5 7.5 0 0 0 99.793 40H27.5a7.5 7.5 0 0 0-7.5 7.5v135c0 9.642 7.858 17.5 17.5 17.5h165c9.642 0 17.5-7.858 17.5-17.5v-100c0-9.642-7.858-17.5-17.5-17.5h-83.283z" class="primary"/></g><g style="display:block"><path fill="#121331" d="M212.5 182.5v-100c0-5.5-4.5-10-10-10h-175v110c0 5.5 4.5 10 10 10h165c5.5 0 10-4.5 10-10" class="primary"/><path fill="none" stroke="#121331" stroke-linecap="round" stroke-linejoin="round" stroke-width="15" d="M212.5 182.5v-100c0-5.5-4.5-10-10-10h-175v110c0 5.5 4.5 10 10 10h165c5.5 0 10-4.5 10-10" class="primary"/></g></g><g clip-path="url(#f)" style="display:none"><path class="primary" style="display:none"/></g></g></svg>