<svg xmlns="http://www.w3.org/2000/svg" width="240" height="240" style="width:100%;height:100%;transform:translate3d(0,0,0);content-visibility:visible" viewBox="0 0 240 240"><defs><clipPath id="a"><path d="M0 0h240v240H0z"/></clipPath><clipPath id="c"><path d="M0 0h240v240H0z"/></clipPath><clipPath id="b"><path d="M0 0h240v240H0z"/></clipPath></defs><g clip-path="url(#a)"><g clip-path="url(#b)" style="display:block"><g style="display:none"><path class="primary"/><path fill="none" class="primary"/></g><path fill="#121331" d="M-11.249-68.544A51.1 51.1 0 0 1-.001-51.617a51.1 51.1 0 0 1 11.25-16.931c20.02-20.02 52.48-20.02 72.5 0 19.602 19.602 20.011 51.13 1.227 71.23L7.071 80.635c-3.905 3.905-10.237 3.905-14.142 0L-85 2.7l.019-.018c-18.78-20.1-18.369-51.625 1.232-71.226 20.02-20.02 52.48-20.021 72.5 0" class="primary" style="display:none" transform="translate(120 124.794)"/><path fill="#121331" d="M-11.249-68.544A51.1 51.1 0 0 1-.001-51.617a51.1 51.1 0 0 1 11.25-16.931c20.02-20.02 52.48-20.02 72.5 0 19.602 19.602 20.011 51.13 1.227 71.23L7.071 80.635c-3.905 3.905-10.237 3.905-14.142 0L-85 2.7l.019-.018c-18.78-20.1-18.369-51.625 1.232-71.226 20.02-20.02 52.48-20.021 72.5 0" class="primary" style="display:block" transform="translate(120 124.794)"/><path fill="#121331" d="M16.552-63.245c17.091-17.091 44.803-17.091 61.894 0 16.713 16.713 17.081 43.581 1.11 60.74L1.768 75.332a2.5 2.5 0 0 1-3.346.171l-.189-.171-77.491-77.497a7 7 0 0 0-.243-.274C-95.53-19.595-95.178-46.508-78.446-63.24c17.091-17.091 44.803-17.091 61.894 0A43.6 43.6 0 0 1-6.95-48.794a7.5 7.5 0 0 0 13.898 0 43.6 43.6 0 0 1 9.604-14.451m72.5-10.607c-22.949-22.949-60.157-22.949-83.106 0a59 59 0 0 0-5.949 6.945 59 59 0 0 0-5.943-6.94c-22.949-22.949-60.157-22.949-83.106 0-22.315 22.315-22.932 58.108-1.85 81.172q.276.354.599.679 38.965 38.966 77.929 77.934c6.834 6.834 17.914 6.834 24.748 0L90.282 7.983q.089-.088.174-.18c21.535-23.044 21.067-59.184-1.404-81.655" class="primary" style="display:block" transform="translate(120 124.794)"/></g><g clip-path="url(#c)" style="display:none"><g style="display:none"><path class="primary"/><path fill="none" class="primary"/></g><path class="primary" style="display:none"/><path class="primary" style="display:none"/></g></g></svg>