<svg xmlns="http://www.w3.org/2000/svg" width="500" height="500" style="width:100%;height:100%;transform:translate3d(0,0,0);content-visibility:visible" viewBox="0 0 500 500"><defs><clipPath id="e"><path d="M0 0h500v500H0z"/></clipPath><clipPath id="h"><path d="M0 0h500v500H0z"/></clipPath><clipPath id="f"><path d="M0 0h500v500H0z"/></clipPath><filter id="a" width="100%" height="100%" x="0%" y="0%" filterUnits="objectBoundingBox"><feComponentTransfer in="SourceGraphic"><feFuncA tableValues="1.0 0.0" type="table"/></feComponentTransfer></filter><filter id="c" width="100%" height="100%" x="0%" y="0%" filterUnits="objectBoundingBox"><feComponentTransfer in="SourceGraphic"><feFuncA tableValues="1.0 0.0" type="table"/></feComponentTransfer></filter><mask id="i" mask-type="alpha"><g filter="url(#a)"><path fill="#fff" d="M0 0h500v500H0z" opacity="0"/><use xmlns:ns1="http://www.w3.org/1999/xlink" ns1:href="#b"/></g></mask><mask id="g" mask-type="alpha"><g filter="url(#c)"><path fill="#fff" d="M0 0h500v500H0z" opacity="0"/><use xmlns:ns2="http://www.w3.org/1999/xlink" ns2:href="#d"/></g></mask><g id="b" class="primary design" style="display:none"><path class="primary"/></g><g id="d" class="primary design" style="display:none"><path class="primary"/></g></defs><g clip-path="url(#e)"><g clip-path="url(#f)" style="display:block"><g class="primary design" mask="url(#g)" style="display:none"><path fill="none" class="primary"/></g><g class="primary design" style="display:block"><path fill="#121331" d="M333.318 145.846h124.98v-20.83c0-22.913-18.747-41.66-41.66-41.66H83.358c-22.913 0-41.66 18.747-41.66 41.66v249.96c0 22.913 18.747 41.66 41.66 41.66h333.28c22.913 0 41.66-18.747 41.66-41.66v-20.83h-124.98c-57.49 0-104.15-46.66-104.15-104.15 0-57.49 46.66-104.15 104.15-104.15z" class="primary"/></g><g class="primary design" style="display:block"><path fill="#121331" d="M333.32 187.51c-34.37 0-62.49 28.12-62.49 62.49 0 34.37 28.12 62.49 62.49 62.49H458.3V187.51H333.32zm21.247 88.527c-14.373 0-26.246-11.664-26.246-26.037s11.665-26.037 26.037-26.037h.209c14.372 0 26.037 11.664 26.037 26.037s-11.665 26.037-26.037 26.037z" class="primary"/></g></g><g clip-path="url(#h)" style="display:none"><g class="primary design" mask="url(#i)" style="display:none"><path fill="none" class="primary"/></g><g class="primary design" style="display:none"><path class="primary"/></g></g></g></svg>