<svg xmlns="http://www.w3.org/2000/svg" width="500" height="500" style="width:100%;height:100%;transform:translate3d(0,0,0);content-visibility:visible" viewBox="0 0 500 500"><defs><clipPath id="a"><path d="M0 0h500v500H0z"/></clipPath><clipPath id="e"><path d="M0 0h500v500H0z"/></clipPath><clipPath id="d"><path d="M0 0h500v500H0z"/></clipPath><clipPath id="c"><path d="M0 0h500v500H0z"/></clipPath><clipPath id="b"><path d="M0 0h500v500H0z"/></clipPath></defs><g clip-path="url(#a)"><g class="primary design" clip-path="url(#b)" style="display:none"><path class="primary"/></g><g class="primary design" clip-path="url(#c)" style="display:none"><path class="primary"/></g><g class="primary design" clip-path="url(#d)" style="display:block"><path fill="#121331" d="m433.992 295.539-39.937-23.067a146.234 146.234 0 0 0 0-45.945l39.937-23.065c12.291-7.292 16.666-23.124 9.583-35.623l-26.04-44.997c-3.542-6.042-9.166-10.416-15.832-12.291-6.875-1.667-13.958-.834-19.791 2.708l-39.984 23.093a145.86 145.86 0 0 0-39.802-23.055V67.22c0-14.374-11.666-26.04-26.04-26.04h-52.08c-14.374 0-26.04 11.666-26.04 26.04v46.077a145.86 145.86 0 0 0-39.802 23.055l-39.984-23.093c-6.041-3.542-12.916-4.375-19.791-2.708-6.666 1.875-12.29 6.249-15.832 12.291l-26.04 44.996c-7.083 12.5-2.708 28.541 9.583 35.624l39.937 23.066a146.345 146.345 0 0 0 0 45.944L66.1 295.539c-12.291 7.083-16.666 23.123-9.583 35.622l26.04 44.997c3.542 6.042 9.166 10.416 15.832 12.291 2.292.417 4.583.834 6.875.834 4.583 0 8.958-1.25 12.916-3.542l39.984-23.093a145.885 145.885 0 0 0 39.802 23.055v46.077c0 14.374 11.666 26.04 26.04 26.04h52.08c14.374 0 26.04-11.666 26.04-26.04v-46.077a145.885 145.885 0 0 0 39.802-23.055l39.984 23.093c3.958 2.292 8.333 3.542 12.916 3.542 2.292 0 4.583-.417 6.875-.834 6.666-1.875 12.29-6.249 15.832-12.291l26.04-44.997c7.083-12.499 2.708-28.331-9.583-35.622zm-183.946 26.873c-40.206 0-72.912-32.706-72.912-72.912s32.706-72.912 72.912-72.912 72.912 32.706 72.912 72.912-32.706 72.912-72.912 72.912z" class="primary"/></g><g class="primary design" clip-path="url(#e)" style="display:none"><path class="primary"/></g></g></svg>