<svg xmlns="http://www.w3.org/2000/svg" width="144" height="144" style="width:100%;height:100%;transform:translate3d(0,0,0);content-visibility:visible" viewBox="0 0 144 144"><defs><clipPath id="az"><path d="M0 0h144v144H0z"/></clipPath><clipPath id="aM"><path d="M0 0h144v144H0z"/></clipPath><clipPath id="o"><path d="M0 0h144v144H0z"/></clipPath><clipPath id="w"><path d="M0 0h144v144H0z"/></clipPath><clipPath id="v"><path d="M0 0h144v144H0z"/></clipPath><clipPath id="u"><path d="M0 0h144v144H0z"/></clipPath><clipPath id="t"><path d="M0 0h144v144H0z"/></clipPath><clipPath id="s"><path d="M0 0h144v144H0z"/></clipPath><clipPath id="r"><path d="M0 0h144v144H0z"/></clipPath><clipPath id="q"><path d="M0 0h144v144H0z"/></clipPath><clipPath id="p"><path d="M0 0h144v144H0z"/></clipPath><clipPath id="aK"><path d="M0 0h144v144H0z"/></clipPath><clipPath id="x"><path d="M0 0h144v144H0z"/></clipPath><clipPath id="F"><path d="M0 0h144v144H0z"/></clipPath><clipPath id="E"><path d="M0 0h144v144H0z"/></clipPath><clipPath id="D"><path d="M0 0h144v144H0z"/></clipPath><clipPath id="C"><path d="M0 0h144v144H0z"/></clipPath><clipPath id="B"><path d="M0 0h144v144H0z"/></clipPath><clipPath id="A"><path d="M0 0h144v144H0z"/></clipPath><clipPath id="z"><path d="M0 0h144v144H0z"/></clipPath><clipPath id="y"><path d="M0 0h144v144H0z"/></clipPath><clipPath id="aI"><path d="M0 0h144v144H0z"/></clipPath><clipPath id="G"><path d="M0 0h144v144H0z"/></clipPath><clipPath id="O"><path d="M0 0h144v144H0z"/></clipPath><clipPath id="N"><path d="M0 0h144v144H0z"/></clipPath><clipPath id="M"><path d="M0 0h144v144H0z"/></clipPath><clipPath id="L"><path d="M0 0h144v144H0z"/></clipPath><clipPath id="K"><path d="M0 0h144v144H0z"/></clipPath><clipPath id="J"><path d="M0 0h144v144H0z"/></clipPath><clipPath id="I"><path d="M0 0h144v144H0z"/></clipPath><clipPath id="H"><path d="M0 0h144v144H0z"/></clipPath><clipPath id="aG"><path d="M0 0h144v144H0z"/></clipPath><clipPath id="P"><path d="M0 0h144v144H0z"/></clipPath><clipPath id="X"><path d="M0 0h144v144H0z"/></clipPath><clipPath id="W"><path d="M0 0h144v144H0z"/></clipPath><clipPath id="V"><path d="M0 0h144v144H0z"/></clipPath><clipPath id="U"><path d="M0 0h144v144H0z"/></clipPath><clipPath id="T"><path d="M0 0h144v144H0z"/></clipPath><clipPath id="S"><path d="M0 0h144v144H0z"/></clipPath><clipPath id="R"><path d="M0 0h144v144H0z"/></clipPath><clipPath id="Q"><path d="M0 0h144v144H0z"/></clipPath><clipPath id="aE"><path d="M0 0h144v144H0z"/></clipPath><clipPath id="Y"><path d="M0 0h144v144H0z"/></clipPath><clipPath id="ag"><path d="M0 0h144v144H0z"/></clipPath><clipPath id="af"><path d="M0 0h144v144H0z"/></clipPath><clipPath id="ae"><path d="M0 0h144v144H0z"/></clipPath><clipPath id="ad"><path d="M0 0h144v144H0z"/></clipPath><clipPath id="ac"><path d="M0 0h144v144H0z"/></clipPath><clipPath id="ab"><path d="M0 0h144v144H0z"/></clipPath><clipPath id="aa"><path d="M0 0h144v144H0z"/></clipPath><clipPath id="Z"><path d="M0 0h144v144H0z"/></clipPath><clipPath id="aC"><path d="M0 0h144v144H0z"/></clipPath><clipPath id="ah"><path d="M0 0h144v144H0z"/></clipPath><clipPath id="ap"><path d="M0 0h144v144H0z"/></clipPath><clipPath id="ao"><path d="M0 0h144v144H0z"/></clipPath><clipPath id="an"><path d="M0 0h144v144H0z"/></clipPath><clipPath id="am"><path d="M0 0h144v144H0z"/></clipPath><clipPath id="al"><path d="M0 0h144v144H0z"/></clipPath><clipPath id="ak"><path d="M0 0h144v144H0z"/></clipPath><clipPath id="aj"><path d="M0 0h144v144H0z"/></clipPath><clipPath id="ai"><path d="M0 0h144v144H0z"/></clipPath><clipPath id="aA"><path d="M0 0h144v144H0z"/></clipPath><clipPath id="aq"><path d="M0 0h144v144H0z"/></clipPath><clipPath id="ay"><path d="M0 0h144v144H0z"/></clipPath><clipPath id="ax"><path d="M0 0h144v144H0z"/></clipPath><clipPath id="aw"><path d="M0 0h144v144H0z"/></clipPath><clipPath id="av"><path d="M0 0h144v144H0z"/></clipPath><clipPath id="au"><path d="M0 0h144v144H0z"/></clipPath><clipPath id="at"><path d="M0 0h144v144H0z"/></clipPath><clipPath id="as"><path d="M0 0h144v144H0z"/></clipPath><clipPath id="ar"><path d="M0 0h144v144H0z"/></clipPath><filter id="a" width="100%" height="100%" x="0%" y="0%" filterUnits="objectBoundingBox"><feComponentTransfer in="SourceGraphic"><feFuncA tableValues="1.0 0.0" type="table"/></feComponentTransfer></filter><filter id="c" width="100%" height="100%" x="0%" y="0%" filterUnits="objectBoundingBox"><feComponentTransfer in="SourceGraphic"><feFuncA tableValues="1.0 0.0" type="table"/></feComponentTransfer></filter><filter id="e" width="100%" height="100%" x="0%" y="0%" filterUnits="objectBoundingBox"><feComponentTransfer in="SourceGraphic"><feFuncA tableValues="1.0 0.0" type="table"/></feComponentTransfer></filter><filter id="g" width="100%" height="100%" x="0%" y="0%" filterUnits="objectBoundingBox"><feComponentTransfer in="SourceGraphic"><feFuncA tableValues="1.0 0.0" type="table"/></feComponentTransfer></filter><filter id="i" width="100%" height="100%" x="0%" y="0%" filterUnits="objectBoundingBox"><feComponentTransfer in="SourceGraphic"><feFuncA tableValues="1.0 0.0" type="table"/></feComponentTransfer></filter><filter id="k" width="100%" height="100%" x="0%" y="0%" filterUnits="objectBoundingBox"><feComponentTransfer in="SourceGraphic"><feFuncA tableValues="1.0 0.0" type="table"/></feComponentTransfer></filter><filter id="m" width="100%" height="100%" x="0%" y="0%" filterUnits="objectBoundingBox"><feComponentTransfer in="SourceGraphic"><feFuncA tableValues="1.0 0.0" type="table"/></feComponentTransfer></filter><mask id="aN" mask-type="alpha"><g filter="url(#a)"><path fill="#fff" d="M0 0h144v144H0z" opacity="0"/><use xmlns:ns1="http://www.w3.org/1999/xlink" ns1:href="#b"/></g></mask><mask id="aL" mask-type="alpha"><g filter="url(#c)"><path fill="#fff" d="M0 0h144v144H0z" opacity="0"/><use xmlns:ns2="http://www.w3.org/1999/xlink" ns2:href="#d"/></g></mask><mask id="aJ" mask-type="alpha"><g filter="url(#e)"><path fill="#fff" d="M0 0h144v144H0z" opacity="0"/><use xmlns:ns3="http://www.w3.org/1999/xlink" ns3:href="#f"/></g></mask><mask id="aH" mask-type="alpha"><g filter="url(#g)"><path fill="#fff" d="M0 0h144v144H0z" opacity="0"/><use xmlns:ns4="http://www.w3.org/1999/xlink" ns4:href="#h"/></g></mask><mask id="aF" mask-type="alpha"><g filter="url(#i)"><path fill="#fff" d="M0 0h144v144H0z" opacity="0"/><use xmlns:ns5="http://www.w3.org/1999/xlink" ns5:href="#j"/></g></mask><mask id="aD" mask-type="alpha"><g filter="url(#k)"><path fill="#fff" d="M0 0h144v144H0z" opacity="0"/><use xmlns:ns6="http://www.w3.org/1999/xlink" ns6:href="#l"/></g></mask><mask id="aB" mask-type="alpha"><g filter="url(#m)"><path fill="#fff" d="M0 0h144v144H0z" opacity="0"/><use xmlns:ns7="http://www.w3.org/1999/xlink" ns7:href="#n"/></g></mask><g id="b" clip-path="url(#o)" style="display:none"><g clip-path="url(#p)" style="display:none"><path fill-opacity="0" stroke-linecap="round" class="primary" style="display:none"/></g><g clip-path="url(#q)" style="display:none"><path fill-opacity="0" stroke-linecap="round" class="primary" style="display:none"/></g><g clip-path="url(#r)" style="display:none"><path fill-opacity="0" stroke-linecap="round" class="primary" style="display:none"/></g><g clip-path="url(#s)" style="display:none"><path fill-opacity="0" stroke-linecap="round" class="primary" style="display:none"/></g><g clip-path="url(#t)" style="display:none"><path fill-opacity="0" stroke-linecap="round" class="primary" style="display:none"/></g><g clip-path="url(#u)" style="display:none"><path fill-opacity="0" stroke-linecap="round" class="primary" style="display:none"/></g><g clip-path="url(#v)" style="display:none"><path fill-opacity="0" stroke-linecap="round" class="primary" style="display:none"/></g><g clip-path="url(#w)" style="display:none"><path fill-opacity="0" stroke-linecap="round" class="primary" style="display:none"/></g></g><g id="d" clip-path="url(#x)" style="display:block"><g clip-path="url(#y)" style="display:block" transform="matrix(.79 0 0 .79 15.12 15.12)"><path fill-opacity="0" stroke="#FFF" stroke-linecap="round" stroke-width="11" d="M0-6.373V-27" class="primary" style="display:block" transform="translate(72 43.25)"/></g><g clip-path="url(#z)" style="display:block" transform="rotate(45 46.189 82.691) scale(.79)"><path fill-opacity="0" stroke="#FFF" stroke-linecap="round" stroke-width="11" d="M0-6.373V-27" class="primary" style="display:block" transform="translate(72 43.25)"/></g><g clip-path="url(#A)" style="display:block" transform="rotate(90 56.88 72) scale(.79)"><path fill-opacity="0" stroke="#FFF" stroke-linecap="round" stroke-width="11" d="M0-6.373V-27" class="primary" style="display:block" transform="translate(72 43.25)"/></g><g clip-path="url(#B)" style="display:block" transform="rotate(135 61.309 67.571) scale(.79)"><path fill-opacity="0" stroke="#FFF" stroke-linecap="round" stroke-width="11" d="M0-6.373V-27" class="primary" style="display:block" transform="translate(72 43.25)"/></g><g clip-path="url(#C)" style="display:block" transform="rotate(180 64.44 64.44) scale(.79)"><path fill-opacity="0" stroke="#FFF" stroke-linecap="round" stroke-width="11" d="M0-6.373V-27" class="primary" style="display:block" transform="translate(72 43.25)"/></g><g clip-path="url(#D)" style="display:block" transform="rotate(-135 67.571 61.309) scale(.79)"><path fill-opacity="0" stroke="#FFF" stroke-linecap="round" stroke-width="11" d="M0-6.373V-27" class="primary" style="display:block" transform="translate(72 43.25)"/></g><g clip-path="url(#E)" style="display:block" transform="rotate(-90 72 56.88) scale(.79)"><path fill-opacity="0" stroke="#FFF" stroke-linecap="round" stroke-width="11" d="M0-6.373V-27" class="primary" style="display:block" transform="translate(72 43.25)"/></g><g clip-path="url(#F)" style="display:block" transform="rotate(-45 82.691 46.189) scale(.79)"><path fill-opacity="0" stroke="#FFF" stroke-linecap="round" stroke-width="11" d="M0-6.373V-27" class="primary" style="display:block" transform="translate(72 43.25)"/></g><path class="primary" style="display:none"/></g><g id="f" clip-path="url(#G)" style="display:none"><g clip-path="url(#H)" style="display:none"><path fill-opacity="0" stroke-linecap="round" class="primary" style="display:none"/></g><g clip-path="url(#I)" style="display:none"><path fill-opacity="0" stroke-linecap="round" class="primary" style="display:none"/></g><g clip-path="url(#J)" style="display:none"><path fill-opacity="0" stroke-linecap="round" class="primary" style="display:none"/></g><g clip-path="url(#K)" style="display:none"><path fill-opacity="0" stroke-linecap="round" class="primary" style="display:none"/></g><g clip-path="url(#L)" style="display:none"><path fill-opacity="0" stroke-linecap="round" class="primary" style="display:none"/></g><g clip-path="url(#M)" style="display:none"><path fill-opacity="0" stroke-linecap="round" class="primary" style="display:none"/></g><g clip-path="url(#N)" style="display:none"><path fill-opacity="0" stroke-linecap="round" class="primary" style="display:none"/></g><g clip-path="url(#O)" style="display:none"><path fill-opacity="0" stroke-linecap="round" class="primary" style="display:none"/></g></g><g id="h" clip-path="url(#P)" style="display:none"><g clip-path="url(#Q)" style="display:none"><path fill-opacity="0" stroke-linecap="round" class="primary" style="display:none"/></g><g clip-path="url(#R)" style="display:none"><path fill-opacity="0" stroke-linecap="round" class="primary" style="display:none"/></g><g clip-path="url(#S)" style="display:none"><path fill-opacity="0" stroke-linecap="round" class="primary" style="display:none"/></g><g clip-path="url(#T)" style="display:none"><path fill-opacity="0" stroke-linecap="round" class="primary" style="display:none"/></g><g clip-path="url(#U)" style="display:none"><path fill-opacity="0" stroke-linecap="round" class="primary" style="display:none"/></g><g clip-path="url(#V)" style="display:none"><path fill-opacity="0" stroke-linecap="round" class="primary" style="display:none"/></g><g clip-path="url(#W)" style="display:none"><path fill-opacity="0" stroke-linecap="round" class="primary" style="display:none"/></g><g clip-path="url(#X)" style="display:none"><path fill-opacity="0" stroke-linecap="round" class="primary" style="display:none"/></g></g><g id="j" clip-path="url(#Y)" style="display:none"><g clip-path="url(#Z)" style="display:none"><path fill-opacity="0" stroke-linecap="round" class="primary" style="display:none"/></g><g clip-path="url(#aa)" style="display:none"><path fill-opacity="0" stroke-linecap="round" class="primary" style="display:none"/></g><g clip-path="url(#ab)" style="display:none"><path fill-opacity="0" stroke-linecap="round" class="primary" style="display:none"/></g><g clip-path="url(#ac)" style="display:none"><path fill-opacity="0" stroke-linecap="round" class="primary" style="display:none"/></g><g clip-path="url(#ad)" style="display:none"><path fill-opacity="0" stroke-linecap="round" class="primary" style="display:none"/></g><g clip-path="url(#ae)" style="display:none"><path fill-opacity="0" stroke-linecap="round" class="primary" style="display:none"/></g><g clip-path="url(#af)" style="display:none"><path fill-opacity="0" stroke-linecap="round" class="primary" style="display:none"/></g><g clip-path="url(#ag)" style="display:none"><path fill-opacity="0" stroke-linecap="round" class="primary" style="display:none"/></g></g><g id="l" clip-path="url(#ah)" style="display:none"><g clip-path="url(#ai)" style="display:none"><path fill-opacity="0" stroke-linecap="round" class="primary" style="display:none"/></g><g clip-path="url(#aj)" style="display:none"><path fill-opacity="0" stroke-linecap="round" class="primary" style="display:none"/></g><g clip-path="url(#ak)" style="display:none"><path fill-opacity="0" stroke-linecap="round" class="primary" style="display:none"/></g><g clip-path="url(#al)" style="display:none"><path fill-opacity="0" stroke-linecap="round" class="primary" style="display:none"/></g><g clip-path="url(#am)" style="display:none"><path fill-opacity="0" stroke-linecap="round" class="primary" style="display:none"/></g><g clip-path="url(#an)" style="display:none"><path fill-opacity="0" stroke-linecap="round" class="primary" style="display:none"/></g><g clip-path="url(#ao)" style="display:none"><path fill-opacity="0" stroke-linecap="round" class="primary" style="display:none"/></g><g clip-path="url(#ap)" style="display:none"><path fill-opacity="0" stroke-linecap="round" class="primary" style="display:none"/></g></g><g id="n" clip-path="url(#aq)" style="display:none"><g clip-path="url(#ar)" style="display:none"><path fill-opacity="0" stroke-linecap="round" class="primary" style="display:none"/></g><g clip-path="url(#as)" style="display:none"><path fill-opacity="0" stroke-linecap="round" class="primary" style="display:none"/></g><g clip-path="url(#at)" style="display:none"><path fill-opacity="0" stroke-linecap="round" class="primary" style="display:none"/></g><g clip-path="url(#au)" style="display:none"><path fill-opacity="0" stroke-linecap="round" class="primary" style="display:none"/></g><g clip-path="url(#av)" style="display:none"><path fill-opacity="0" stroke-linecap="round" class="primary" style="display:none"/></g><g clip-path="url(#aw)" style="display:none"><path fill-opacity="0" stroke-linecap="round" class="primary" style="display:none"/></g><g clip-path="url(#ax)" style="display:none"><path fill-opacity="0" stroke-linecap="round" class="primary" style="display:none"/></g><g clip-path="url(#ay)" style="display:none"><path fill-opacity="0" stroke-linecap="round" class="primary" style="display:none"/></g></g></defs><g clip-path="url(#az)"><g clip-path="url(#aA)" mask="url(#aB)" style="display:none"><path class="primary"/><path fill="none" class="primary"/></g><g clip-path="url(#aC)" mask="url(#aD)" style="display:none"><path class="primary"/><path fill="none" class="primary"/></g><g clip-path="url(#aE)" mask="url(#aF)" style="display:none"><path class="primary"/><path fill="none" class="primary"/></g><g clip-path="url(#aG)" mask="url(#aH)" style="display:none"><path class="primary"/><path fill="none" class="primary"/></g><g clip-path="url(#aI)" mask="url(#aJ)" style="display:none"><path class="primary"/><path fill="none" class="primary"/></g><g clip-path="url(#aK)" mask="url(#aL)" style="display:block"><path fill="#121331" d="M72 127.5c30.652 0 55.5-24.848 55.5-55.5S102.652 16.5 72 16.5 16.5 41.348 16.5 72s24.848 55.5 55.5 55.5z" class="primary"/><path fill="none" stroke="#121331" stroke-linecap="round" stroke-width="9" d="M72 127.5c30.652 0 55.5-24.848 55.5-55.5S102.652 16.5 72 16.5 16.5 41.348 16.5 72s24.848 55.5 55.5 55.5z" class="primary"/></g><g clip-path="url(#aM)" mask="url(#aN)" style="display:none"><path class="primary"/><path fill="none" class="primary"/></g></g></svg>