<svg xmlns="http://www.w3.org/2000/svg" width="144" height="144" style="width:100%;height:100%;transform:translate3d(0,0,0);content-visibility:visible" viewBox="0 0 144 144"><defs><clipPath id="a"><path d="M0 0h144v144H0z"/></clipPath><clipPath id="r"><path d="M0 0h144v144H0z"/></clipPath><clipPath id="q"><path d="M0 0h144v144H0z"/></clipPath><clipPath id="p"><path d="M0 0h144v144H0z"/></clipPath><clipPath id="o"><path d="M0 0h144v144H0z"/></clipPath><clipPath id="n"><path d="M0 0h144v144H0z"/></clipPath><clipPath id="m"><path d="M0 0h144v144H0z"/></clipPath><clipPath id="l"><path d="M0 0h144v144H0z"/></clipPath><clipPath id="k"><path d="M0 0h144v144H0z"/></clipPath><clipPath id="j"><path d="M0 0h144v144H0z"/></clipPath><clipPath id="i"><path d="M0 0h144v144H0z"/></clipPath><clipPath id="h"><path d="M0 0h144v144H0z"/></clipPath><clipPath id="g"><path d="M0 0h144v144H0z"/></clipPath><clipPath id="f"><path d="M0 0h144v144H0z"/></clipPath><clipPath id="e"><path d="M0 0h144v144H0z"/></clipPath><clipPath id="d"><path d="M0 0h144v144H0z"/></clipPath><clipPath id="c"><path d="M0 0h144v144H0z"/></clipPath><clipPath id="b"><path d="M0 0h144v144H0z"/></clipPath></defs><g clip-path="url(#a)"><g clip-path="url(#b)" style="display:none"><g style="display:none"><path class="primary"/><path fill="none" class="primary"/></g><g style="display:none"><path class="primary"/><path fill="none" class="primary"/></g><g style="display:none"><path class="primary"/><path fill="none" class="primary"/></g></g><g clip-path="url(#c)" style="display:none"><g style="display:none"><path class="primary"/><path fill="none" class="primary"/></g><g style="display:none"><path class="primary"/><path fill="none" class="primary"/></g><g style="display:none"><path class="primary"/><path fill="none" class="primary"/></g></g><g clip-path="url(#d)" style="display:none"><g style="display:none"><path class="primary"/><path fill="none" class="primary"/></g><g style="display:none"><path class="primary"/><path fill="none" class="primary"/></g><g style="display:none"><path class="primary"/><path fill="none" class="primary"/></g></g><g clip-path="url(#e)" style="display:none"><g style="display:none"><path class="primary"/><path fill="none" class="primary"/></g><g style="display:none"><path class="primary"/><path fill="none" class="primary"/></g><g style="display:none"><path class="primary"/><path fill="none" class="primary"/></g></g><g clip-path="url(#f)" style="display:none"><g style="display:none"><path class="primary"/><path fill="none" class="primary"/></g><g style="display:none"><path class="primary"/><path fill="none" class="primary"/></g><g style="display:none"><path class="primary"/><path fill="none" class="primary"/></g></g><g clip-path="url(#g)" style="display:none"><g style="display:none"><path class="primary"/><path fill="none" class="primary"/></g><g style="display:none"><path class="primary"/><path fill="none" class="primary"/></g><g style="display:none"><path class="primary"/><path fill="none" class="primary"/></g></g><g clip-path="url(#h)" style="display:none"><g style="display:none"><path class="primary"/><path fill="none" class="primary"/></g><g style="display:none"><path class="primary"/><path fill="none" class="primary"/></g><g style="display:none"><path class="primary"/><path fill="none" class="primary"/></g></g><g clip-path="url(#i)" style="display:none"><g style="display:none"><path class="primary"/><path fill="none" class="primary"/></g><g style="display:none"><path class="primary"/><path fill="none" class="primary"/></g><g style="display:none"><path class="primary"/><path fill="none" class="primary"/></g></g><g clip-path="url(#j)" style="display:none"><g style="display:none"><path class="primary"/><path fill="none" class="primary"/></g><g style="display:none"><path class="primary"/><path fill="none" class="primary"/></g><g style="display:none"><path class="primary"/><path fill="none" class="primary"/></g><g style="display:none"><path class="primary"/><path fill="none" class="primary"/></g><g style="display:none"><path class="primary"/><path fill="none" class="primary"/></g></g><g clip-path="url(#k)" style="display:none"><g style="display:none"><path class="primary"/><path fill="none" class="primary"/></g><g style="display:none"><path class="primary"/><path fill="none" class="primary"/></g><g style="display:none"><path class="primary"/><path fill="none" class="primary"/></g></g><g clip-path="url(#l)" style="display:none"><g style="display:none"><path class="primary"/><path fill="none" class="primary"/></g><g style="display:none"><path class="primary"/><path fill="none" class="primary"/></g><g style="display:none"><path class="primary"/><path fill="none" class="primary"/></g></g><g clip-path="url(#m)" style="display:none"><g style="display:none"><path class="primary"/><path fill="none" class="primary"/></g><g style="display:none"><path class="primary"/><path fill="none" class="primary"/></g><g style="display:none"><path class="primary"/><path fill="none" class="primary"/></g></g><g clip-path="url(#n)" style="display:none"><path class="primary" style="display:none"/><g style="display:none"><path class="primary"/><path fill="none" class="primary"/></g><g style="display:none"><path class="primary"/><path fill="none" class="primary"/></g><path class="primary" style="display:none"/></g><g clip-path="url(#o)" style="display:none"><g style="display:none"><path class="primary"/><path fill="none" class="primary"/></g><g style="display:none"><path class="primary"/><path fill="none" class="primary"/></g><g style="display:none"><path class="primary"/><path fill="none" class="primary"/></g></g><g clip-path="url(#p)" style="display:none"><g style="display:none"><path class="primary"/><path fill="none" class="primary"/></g><g style="display:none"><path class="primary"/><path fill="none" class="primary"/></g><g style="display:none"><path class="primary"/><path fill="none" class="primary"/></g><g style="display:none"><path class="primary"/><path fill="none" class="primary"/></g><g style="display:none"><path class="primary"/><path fill="none" class="primary"/></g><g style="display:none"><path class="primary"/><path fill="none" class="primary"/></g></g><g clip-path="url(#q)" style="display:block"><g style="display:block"><path fill="#121331" d="M24 58.5c7.45 0 13.5 6.05 13.5 13.5S31.45 85.5 24 85.5 10.5 79.45 10.5 72 16.55 58.5 24 58.5z" class="primary"/><path fill="none" stroke="#121331" stroke-linecap="round" stroke-width="9" d="M24 58.5c7.45 0 13.5 6.05 13.5 13.5S31.45 85.5 24 85.5 10.5 79.45 10.5 72 16.55 58.5 24 58.5z" class="primary"/></g><g style="display:block"><path fill="#121331" d="M72 58.5c7.45 0 13.5 6.05 13.5 13.5S79.45 85.5 72 85.5 58.5 79.45 58.5 72 64.55 58.5 72 58.5z" class="primary"/><path fill="none" stroke="#121331" stroke-linecap="round" stroke-width="9" d="M72 58.5c7.45 0 13.5 6.05 13.5 13.5S79.45 85.5 72 85.5 58.5 79.45 58.5 72 64.55 58.5 72 58.5z" class="primary"/></g><g style="display:block"><path fill="none" stroke="#121331" stroke-linecap="round" stroke-width="9" d="M120 58.5c7.45 0 13.5 6.05 13.5 13.5s-6.05 13.5-13.5 13.5-13.5-6.05-13.5-13.5 6.05-13.5 13.5-13.5z" class="primary"/><path fill="#121331" d="M120 58.5c7.45 0 13.5 6.05 13.5 13.5s-6.05 13.5-13.5 13.5-13.5-6.05-13.5-13.5 6.05-13.5 13.5-13.5z" class="primary"/></g></g><g clip-path="url(#r)" style="display:none"><path class="primary" style="display:none"/><path class="primary" style="display:none"/><path class="primary" style="display:none"/></g></g></svg>