<svg xmlns="http://www.w3.org/2000/svg" width="144" height="144" style="width:100%;height:100%;transform:translate3d(0,0,0);content-visibility:visible" viewBox="0 0 144 144"><defs><clipPath id="bh"><path d="M0 0h144v144H0z"/></clipPath><clipPath id="bG"><path d="M0 0h144v144H0z"/></clipPath><clipPath id="A"><path d="M0 0h144v144H0z"/></clipPath><clipPath id="bE"><path d="M0 0h144v144H0z"/></clipPath><clipPath id="B"><path d="M0 0h144v144H0z"/></clipPath><clipPath id="bC"><path d="M0 0h144v144H0z"/></clipPath><clipPath id="C"><path d="M0 0h144v144H0z"/></clipPath><clipPath id="K"><path d="M0 0h50v144H0z"/></clipPath><clipPath id="J"><path d="M0 0h50v144H0z"/></clipPath><clipPath id="I"><path d="M0 0h50v144H0z"/></clipPath><clipPath id="H"><path d="M0 0h50v144H0z"/></clipPath><clipPath id="G"><path d="M0 0h50v144H0z"/></clipPath><clipPath id="F"><path d="M0 0h50v144H0z"/></clipPath><clipPath id="E"><path d="M0 0h50v144H0z"/></clipPath><clipPath id="D"><path d="M0 0h50v144H0z"/></clipPath><clipPath id="bA"><path d="M0 0h144v144H0z"/></clipPath><clipPath id="L"><path d="M0 0h144v144H0z"/></clipPath><clipPath id="by"><path d="M0 0h144v144H0z"/></clipPath><clipPath id="M"><path d="M0 0h144v144H0z"/></clipPath><clipPath id="U"><path d="M0 0h50v144H0z"/></clipPath><clipPath id="T"><path d="M0 0h50v144H0z"/></clipPath><clipPath id="S"><path d="M0 0h50v144H0z"/></clipPath><clipPath id="R"><path d="M0 0h50v144H0z"/></clipPath><clipPath id="Q"><path d="M0 0h50v144H0z"/></clipPath><clipPath id="P"><path d="M0 0h50v144H0z"/></clipPath><clipPath id="O"><path d="M0 0h50v144H0z"/></clipPath><clipPath id="N"><path d="M0 0h50v144H0z"/></clipPath><clipPath id="bw"><path d="M0 0h144v144H0z"/></clipPath><clipPath id="V"><path d="M0 0h144v144H0z"/></clipPath><clipPath id="ad"><path d="M0 0h50v144H0z"/></clipPath><clipPath id="ac"><path d="M0 0h50v144H0z"/></clipPath><clipPath id="ab"><path d="M0 0h50v144H0z"/></clipPath><clipPath id="aa"><path d="M0 0h50v144H0z"/></clipPath><clipPath id="Z"><path d="M0 0h50v144H0z"/></clipPath><clipPath id="Y"><path d="M0 0h50v144H0z"/></clipPath><clipPath id="X"><path d="M0 0h50v144H0z"/></clipPath><clipPath id="W"><path d="M0 0h50v144H0z"/></clipPath><clipPath id="bu"><path d="M0 0h144v144H0z"/></clipPath><clipPath id="ae"><path d="M0 0h144v144H0z"/></clipPath><clipPath id="bs"><path d="M0 0h144v144H0z"/></clipPath><clipPath id="af"><path d="M0 0h144v144H0z"/></clipPath><clipPath id="an"><path d="M0 0h50v144H0z"/></clipPath><clipPath id="am"><path d="M0 0h50v144H0z"/></clipPath><clipPath id="al"><path d="M0 0h50v144H0z"/></clipPath><clipPath id="ak"><path d="M0 0h50v144H0z"/></clipPath><clipPath id="aj"><path d="M0 0h50v144H0z"/></clipPath><clipPath id="ai"><path d="M0 0h50v144H0z"/></clipPath><clipPath id="ah"><path d="M0 0h50v144H0z"/></clipPath><clipPath id="ag"><path d="M0 0h50v144H0z"/></clipPath><clipPath id="bq"><path d="M0 0h144v144H0z"/></clipPath><clipPath id="ao"><path d="M0 0h144v144H0z"/></clipPath><clipPath id="aw"><path d="M0 0h50v144H0z"/></clipPath><clipPath id="av"><path d="M0 0h50v144H0z"/></clipPath><clipPath id="au"><path d="M0 0h50v144H0z"/></clipPath><clipPath id="at"><path d="M0 0h50v144H0z"/></clipPath><clipPath id="as"><path d="M0 0h50v144H0z"/></clipPath><clipPath id="ar"><path d="M0 0h50v144H0z"/></clipPath><clipPath id="aq"><path d="M0 0h50v144H0z"/></clipPath><clipPath id="ap"><path d="M0 0h50v144H0z"/></clipPath><clipPath id="bo"><path d="M0 0h144v144H0z"/></clipPath><clipPath id="ax"><path d="M0 0h144v144H0z"/></clipPath><clipPath id="aF"><path d="M0 0h50v144H0z"/></clipPath><clipPath id="aE"><path d="M0 0h50v144H0z"/></clipPath><clipPath id="aD"><path d="M0 0h50v144H0z"/></clipPath><clipPath id="aC"><path d="M0 0h50v144H0z"/></clipPath><clipPath id="aB"><path d="M0 0h50v144H0z"/></clipPath><clipPath id="aA"><path d="M0 0h50v144H0z"/></clipPath><clipPath id="az"><path d="M0 0h50v144H0z"/></clipPath><clipPath id="ay"><path d="M0 0h50v144H0z"/></clipPath><clipPath id="bm"><path d="M0 0h144v144H0z"/></clipPath><clipPath id="aG"><path d="M0 0h144v144H0z"/></clipPath><clipPath id="aO"><path d="M0 0h50v144H0z"/></clipPath><clipPath id="aN"><path d="M0 0h50v144H0z"/></clipPath><clipPath id="aM"><path d="M0 0h50v144H0z"/></clipPath><clipPath id="aL"><path d="M0 0h50v144H0z"/></clipPath><clipPath id="aK"><path d="M0 0h50v144H0z"/></clipPath><clipPath id="aJ"><path d="M0 0h50v144H0z"/></clipPath><clipPath id="aI"><path d="M0 0h50v144H0z"/></clipPath><clipPath id="aH"><path d="M0 0h50v144H0z"/></clipPath><clipPath id="bk"><path d="M0 0h144v144H0z"/></clipPath><clipPath id="aP"><path d="M0 0h144v144H0z"/></clipPath><clipPath id="aX"><path d="M0 0h50v144H0z"/></clipPath><clipPath id="aW"><path d="M0 0h50v144H0z"/></clipPath><clipPath id="aV"><path d="M0 0h50v144H0z"/></clipPath><clipPath id="aU"><path d="M0 0h50v144H0z"/></clipPath><clipPath id="aT"><path d="M0 0h50v144H0z"/></clipPath><clipPath id="aS"><path d="M0 0h50v144H0z"/></clipPath><clipPath id="aR"><path d="M0 0h50v144H0z"/></clipPath><clipPath id="aQ"><path d="M0 0h50v144H0z"/></clipPath><clipPath id="bi"><path d="M0 0h144v144H0z"/></clipPath><clipPath id="aY"><path d="M0 0h144v144H0z"/></clipPath><clipPath id="bg"><path d="M0 0h50v144H0z"/></clipPath><clipPath id="bf"><path d="M0 0h50v144H0z"/></clipPath><clipPath id="be"><path d="M0 0h50v144H0z"/></clipPath><clipPath id="bd"><path d="M0 0h50v144H0z"/></clipPath><clipPath id="bc"><path d="M0 0h50v144H0z"/></clipPath><clipPath id="bb"><path d="M0 0h50v144H0z"/></clipPath><clipPath id="ba"><path d="M0 0h50v144H0z"/></clipPath><clipPath id="aZ"><path d="M0 0h50v144H0z"/></clipPath><filter id="a" width="100%" height="100%" x="0%" y="0%" filterUnits="objectBoundingBox"><feComponentTransfer in="SourceGraphic"><feFuncA tableValues="1.0 0.0" type="table"/></feComponentTransfer></filter><filter id="c" width="100%" height="100%" x="0%" y="0%" filterUnits="objectBoundingBox"><feComponentTransfer in="SourceGraphic"><feFuncA tableValues="1.0 0.0" type="table"/></feComponentTransfer></filter><filter id="e" width="100%" height="100%" x="0%" y="0%" filterUnits="objectBoundingBox"><feComponentTransfer in="SourceGraphic"><feFuncA tableValues="1.0 0.0" type="table"/></feComponentTransfer></filter><filter id="g" width="100%" height="100%" x="0%" y="0%" filterUnits="objectBoundingBox"><feComponentTransfer in="SourceGraphic"><feFuncA tableValues="1.0 0.0" type="table"/></feComponentTransfer></filter><filter id="i" width="100%" height="100%" x="0%" y="0%" filterUnits="objectBoundingBox"><feComponentTransfer in="SourceGraphic"><feFuncA tableValues="1.0 0.0" type="table"/></feComponentTransfer></filter><filter id="k" width="100%" height="100%" x="0%" y="0%" filterUnits="objectBoundingBox"><feComponentTransfer in="SourceGraphic"><feFuncA tableValues="1.0 0.0" type="table"/></feComponentTransfer></filter><filter id="m" width="100%" height="100%" x="0%" y="0%" filterUnits="objectBoundingBox"><feComponentTransfer in="SourceGraphic"><feFuncA tableValues="1.0 0.0" type="table"/></feComponentTransfer></filter><filter id="o" width="100%" height="100%" x="0%" y="0%" filterUnits="objectBoundingBox"><feComponentTransfer in="SourceGraphic"><feFuncA tableValues="1.0 0.0" type="table"/></feComponentTransfer></filter><filter id="q" width="100%" height="100%" x="0%" y="0%" filterUnits="objectBoundingBox"><feComponentTransfer in="SourceGraphic"><feFuncA tableValues="1.0 0.0" type="table"/></feComponentTransfer></filter><filter id="s" width="100%" height="100%" x="0%" y="0%" filterUnits="objectBoundingBox"><feComponentTransfer in="SourceGraphic"><feFuncA tableValues="1.0 0.0" type="table"/></feComponentTransfer></filter><filter id="u" width="100%" height="100%" x="0%" y="0%" filterUnits="objectBoundingBox"><feComponentTransfer in="SourceGraphic"><feFuncA tableValues="1.0 0.0" type="table"/></feComponentTransfer></filter><filter id="w" width="100%" height="100%" x="0%" y="0%" filterUnits="objectBoundingBox"><feComponentTransfer in="SourceGraphic"><feFuncA tableValues="1.0 0.0" type="table"/></feComponentTransfer></filter><filter id="y" width="100%" height="100%" x="0%" y="0%" filterUnits="objectBoundingBox"><feComponentTransfer in="SourceGraphic"><feFuncA tableValues="1.0 0.0" type="table"/></feComponentTransfer></filter><mask id="bH" mask-type="alpha"><g filter="url(#a)"><path fill="#fff" d="M0 0h144v144H0z" opacity="0"/><use xmlns:ns1="http://www.w3.org/1999/xlink" ns1:href="#b"/></g></mask><mask id="bF" mask-type="alpha"><g filter="url(#c)"><path fill="#fff" d="M0 0h144v144H0z" opacity="0"/><use xmlns:ns2="http://www.w3.org/1999/xlink" ns2:href="#d"/></g></mask><mask id="bD" mask-type="alpha"><g filter="url(#e)"><path fill="#fff" d="M0 0h144v144H0z" opacity="0"/><use xmlns:ns3="http://www.w3.org/1999/xlink" ns3:href="#f"/></g></mask><mask id="bB" mask-type="alpha"><g filter="url(#g)"><path fill="#fff" d="M0 0h144v144H0z" opacity="0"/><use xmlns:ns4="http://www.w3.org/1999/xlink" ns4:href="#h"/></g></mask><mask id="bz" mask-type="alpha"><g filter="url(#i)"><path fill="#fff" d="M0 0h144v144H0z" opacity="0"/><use xmlns:ns5="http://www.w3.org/1999/xlink" ns5:href="#j"/></g></mask><mask id="bx" mask-type="alpha"><g filter="url(#k)"><path fill="#fff" d="M0 0h144v144H0z" opacity="0"/><use xmlns:ns6="http://www.w3.org/1999/xlink" ns6:href="#l"/></g></mask><mask id="bv" mask-type="alpha"><g filter="url(#m)"><path fill="#fff" d="M0 0h144v144H0z" opacity="0"/><use xmlns:ns7="http://www.w3.org/1999/xlink" ns7:href="#n"/></g></mask><mask id="bt" mask-type="alpha"><g filter="url(#o)"><path fill="#fff" d="M0 0h144v144H0z" opacity="0"/><use xmlns:ns8="http://www.w3.org/1999/xlink" ns8:href="#p"/></g></mask><mask id="br" mask-type="alpha"><g filter="url(#q)"><path fill="#fff" d="M0 0h144v144H0z" opacity="0"/><use xmlns:ns9="http://www.w3.org/1999/xlink" ns9:href="#r"/></g></mask><mask id="bp" mask-type="alpha"><g filter="url(#s)"><path fill="#fff" d="M0 0h144v144H0z" opacity="0"/><use xmlns:ns10="http://www.w3.org/1999/xlink" ns10:href="#t"/></g></mask><mask id="bn" mask-type="alpha"><g filter="url(#u)"><path fill="#fff" d="M0 0h144v144H0z" opacity="0"/><use xmlns:ns11="http://www.w3.org/1999/xlink" ns11:href="#v"/></g></mask><mask id="bl" mask-type="alpha"><g filter="url(#w)"><path fill="#fff" d="M0 0h144v144H0z" opacity="0"/><use xmlns:ns12="http://www.w3.org/1999/xlink" ns12:href="#x"/></g></mask><mask id="bj" mask-type="alpha"><g filter="url(#y)"><path fill="#fff" d="M0 0h144v144H0z" opacity="0"/><use xmlns:ns13="http://www.w3.org/1999/xlink" ns13:href="#z"/></g></mask><g id="b" clip-path="url(#A)" style="display:none"><g style="display:none"><path class="primary"/><path fill-opacity="0" stroke-linecap="round" class="primary"/></g><g style="display:none"><path class="primary"/><path fill-opacity="0" stroke-linecap="round" class="primary"/></g><g style="display:none"><path class="primary"/><path fill-opacity="0" stroke-linecap="round" class="primary"/></g><g style="display:none"><path class="primary"/><path fill-opacity="0" stroke-linecap="round" class="primary"/></g><g style="display:none"><path class="primary"/><path fill-opacity="0" stroke-linecap="round" class="primary"/></g><g style="display:none"><path class="primary"/><path fill-opacity="0" stroke-linecap="round" class="primary"/></g><g style="display:none"><path class="primary"/><path fill-opacity="0" stroke-linecap="round" class="primary"/></g><g style="display:none"><path class="primary"/><path fill-opacity="0" stroke-linecap="round" class="primary"/></g></g><g id="d" clip-path="url(#B)" style="display:block"><g style="display:block"><path fill="#121331" d="M44.508 38.433a6.078 6.078 0 0 1 6.075 6.075 6.078 6.078 0 0 1-6.075 6.075 6.078 6.078 0 0 1-6.075-6.075 6.078 6.078 0 0 1 6.075-6.075z" class="primary"/><path fill-opacity="0" stroke="#121331" stroke-linecap="round" stroke-width="6.075" d="M44.508 38.433a6.078 6.078 0 0 1 6.075 6.075 6.078 6.078 0 0 1-6.075 6.075 6.078 6.078 0 0 1-6.075-6.075 6.078 6.078 0 0 1 6.075-6.075z" class="primary"/></g><g style="display:block"><path fill="#121331" d="M28.824 67.704a6.078 6.078 0 0 1 8.592 0 6.078 6.078 0 0 1 0 8.592 6.078 6.078 0 0 1-8.592 0 6.078 6.078 0 0 1 0-8.592z" class="primary"/><path fill-opacity="0" stroke="#121331" stroke-linecap="round" stroke-width="6.075" d="M28.824 67.704a6.078 6.078 0 0 1 8.592 0 6.078 6.078 0 0 1 0 8.592 6.078 6.078 0 0 1-8.592 0 6.078 6.078 0 0 1 0-8.592z" class="primary"/></g><g style="display:block"><path fill="#121331" d="M38.433 99.492a6.078 6.078 0 0 1 6.075-6.075 6.078 6.078 0 0 1 6.075 6.075 6.078 6.078 0 0 1-6.075 6.075 6.078 6.078 0 0 1-6.075-6.075z" class="primary"/><path fill-opacity="0" stroke="#121331" stroke-linecap="round" stroke-width="6.075" d="M38.433 99.492a6.078 6.078 0 0 1 6.075-6.075 6.078 6.078 0 0 1 6.075 6.075 6.078 6.078 0 0 1-6.075 6.075 6.078 6.078 0 0 1-6.075-6.075z" class="primary"/></g><g style="display:block"><path fill="#121331" d="M67.704 115.176a6.078 6.078 0 0 1 0-8.592 6.078 6.078 0 0 1 8.592 0 6.078 6.078 0 0 1 0 8.592 6.078 6.078 0 0 1-8.592 0z" class="primary"/><path fill-opacity="0" stroke="#121331" stroke-linecap="round" stroke-width="6.075" d="M67.704 115.176a6.078 6.078 0 0 1 0-8.592 6.078 6.078 0 0 1 8.592 0 6.078 6.078 0 0 1 0 8.592 6.078 6.078 0 0 1-8.592 0z" class="primary"/></g><g style="display:block"><path fill="#121331" d="M115.176 76.296a6.078 6.078 0 0 1-8.592 0 6.078 6.078 0 0 1 0-8.592 6.078 6.078 0 0 1 8.592 0 6.078 6.078 0 0 1 0 8.592z" class="primary"/><path fill-opacity="0" stroke="#121331" stroke-linecap="round" stroke-width="6.075" d="M115.176 76.296a6.078 6.078 0 0 1-8.592 0 6.078 6.078 0 0 1 0-8.592 6.078 6.078 0 0 1 8.592 0 6.078 6.078 0 0 1 0 8.592z" class="primary"/></g><g style="display:block"><path fill="#121331" d="M76.296 28.824a6.078 6.078 0 0 1 0 8.592 6.078 6.078 0 0 1-8.592 0 6.078 6.078 0 0 1 0-8.592 6.078 6.078 0 0 1 8.592 0z" class="primary"/><path fill-opacity="0" stroke="#121331" stroke-linecap="round" stroke-width="6.075" d="M76.296 28.824a6.078 6.078 0 0 1 0 8.592 6.078 6.078 0 0 1-8.592 0 6.078 6.078 0 0 1 0-8.592 6.078 6.078 0 0 1 8.592 0z" class="primary"/></g></g><g id="f" clip-path="url(#C)" style="display:none"><g clip-path="url(#D)" style="display:none"><path class="primary"/><path fill-opacity="0" stroke-linecap="round" class="primary"/></g><g clip-path="url(#E)" style="display:none"><path class="primary"/><path fill-opacity="0" stroke-linecap="round" class="primary"/></g><g clip-path="url(#F)" style="display:none"><path class="primary"/><path fill-opacity="0" stroke-linecap="round" class="primary"/></g><g clip-path="url(#G)" style="display:none"><path class="primary"/><path fill-opacity="0" stroke-linecap="round" class="primary"/></g><g clip-path="url(#H)" style="display:none"><path class="primary"/><path fill-opacity="0" stroke-linecap="round" class="primary"/></g><g clip-path="url(#I)" style="display:none"><path class="primary"/><path fill-opacity="0" stroke-linecap="round" class="primary"/></g><g clip-path="url(#J)" style="display:none"><path class="primary"/><path fill-opacity="0" stroke-linecap="round" class="primary"/></g><g clip-path="url(#K)" style="display:none"><path class="primary"/><path fill-opacity="0" stroke-linecap="round" class="primary"/></g><path class="primary" style="display:none"/></g><g id="h" clip-path="url(#L)" style="display:none"><g style="display:none"><path class="primary"/><path fill-opacity="0" stroke-linecap="round" class="primary"/></g><g style="display:none"><path class="primary"/><path fill-opacity="0" stroke-linecap="round" class="primary"/></g><g style="display:none"><path class="primary"/><path fill-opacity="0" stroke-linecap="round" class="primary"/></g><g style="display:none"><path class="primary"/><path fill-opacity="0" stroke-linecap="round" class="primary"/></g><g style="display:none"><path class="primary"/><path fill-opacity="0" stroke-linecap="round" class="primary"/></g><g style="display:none"><path class="primary"/><path fill-opacity="0" stroke-linecap="round" class="primary"/></g></g><g id="j" clip-path="url(#M)" style="display:none"><g clip-path="url(#N)" style="display:none"><path class="primary"/><path fill-opacity="0" stroke-linecap="round" class="primary"/></g><g clip-path="url(#O)" style="display:none"><path class="primary"/><path fill-opacity="0" stroke-linecap="round" class="primary"/></g><g clip-path="url(#P)" style="display:none"><path class="primary"/><path fill-opacity="0" stroke-linecap="round" class="primary"/></g><g clip-path="url(#Q)" style="display:none"><path class="primary"/><path fill-opacity="0" stroke-linecap="round" class="primary"/></g><g clip-path="url(#R)" style="display:none"><path class="primary"/><path fill-opacity="0" stroke-linecap="round" class="primary"/></g><g clip-path="url(#S)" style="display:none"><path class="primary"/><path fill-opacity="0" stroke-linecap="round" class="primary"/></g><g clip-path="url(#T)" style="display:none"><path class="primary"/><path fill-opacity="0" stroke-linecap="round" class="primary"/></g><g clip-path="url(#U)" style="display:none"><path class="primary"/><path fill-opacity="0" stroke-linecap="round" class="primary"/></g></g><g id="l" clip-path="url(#V)" style="display:none"><g clip-path="url(#W)" style="display:none"><path class="primary"/><path fill-opacity="0" stroke-linecap="round" class="primary"/></g><g clip-path="url(#X)" style="display:none"><path class="primary"/><path fill-opacity="0" stroke-linecap="round" class="primary"/></g><g clip-path="url(#Y)" style="display:none"><path class="primary"/><path fill-opacity="0" stroke-linecap="round" class="primary"/></g><g clip-path="url(#Z)" style="display:none"><path class="primary"/><path fill-opacity="0" stroke-linecap="round" class="primary"/></g><g clip-path="url(#aa)" style="display:none"><path class="primary"/><path fill-opacity="0" stroke-linecap="round" class="primary"/></g><g clip-path="url(#ab)" style="display:none"><path class="primary"/><path fill-opacity="0" stroke-linecap="round" class="primary"/></g><g clip-path="url(#ac)" style="display:none"><path class="primary"/><path fill-opacity="0" stroke-linecap="round" class="primary"/></g><g clip-path="url(#ad)" style="display:none"><path class="primary"/><path fill-opacity="0" stroke-linecap="round" class="primary"/></g></g><g id="n" clip-path="url(#ae)" style="display:none"><g style="display:none"><path class="primary"/><path fill-opacity="0" stroke-linecap="round" class="primary"/></g><g style="display:none"><path class="primary"/><path fill-opacity="0" stroke-linecap="round" class="primary"/></g><g style="display:none"><path class="primary"/><path fill-opacity="0" stroke-linecap="round" class="primary"/></g><g style="display:none"><path class="primary"/><path fill-opacity="0" stroke-linecap="round" class="primary"/></g><g style="display:none"><path class="primary"/><path fill-opacity="0" stroke-linecap="round" class="primary"/></g><g style="display:none"><path class="primary"/><path fill-opacity="0" stroke-linecap="round" class="primary"/></g><g style="display:none"><path class="primary"/><path fill-opacity="0" stroke-linecap="round" class="primary"/></g><g style="display:none"><path class="primary"/><path fill-opacity="0" stroke-linecap="round" class="primary"/></g></g><g id="p" clip-path="url(#af)" style="display:none"><g clip-path="url(#ag)" style="display:none"><path class="primary" style="display:none"/></g><g clip-path="url(#ah)" style="display:none"><path class="primary" style="display:none"/></g><g clip-path="url(#ai)" style="display:none"><path class="primary" style="display:none"/></g><g clip-path="url(#aj)" style="display:none"><path class="primary" style="display:none"/></g><g clip-path="url(#ak)" style="display:none"><path class="primary" style="display:none"/></g><g clip-path="url(#al)" style="display:none"><path class="primary" style="display:none"/></g><g clip-path="url(#am)" style="display:none"><path class="primary" style="display:none"/></g><g clip-path="url(#an)" style="display:none"><path class="primary" style="display:none"/></g></g><g id="r" clip-path="url(#ao)" style="display:none"><g clip-path="url(#ap)" style="display:none"><path class="primary" style="display:none"/></g><g clip-path="url(#aq)" style="display:none"><path class="primary" style="display:none"/></g><g clip-path="url(#ar)" style="display:none"><path class="primary" style="display:none"/></g><g clip-path="url(#as)" style="display:none"><path class="primary" style="display:none"/></g><g clip-path="url(#at)" style="display:none"><path class="primary" style="display:none"/></g><g clip-path="url(#au)" style="display:none"><path class="primary" style="display:none"/></g><g clip-path="url(#av)" style="display:none"><path class="primary" style="display:none"/></g><g clip-path="url(#aw)" style="display:none"><path class="primary" style="display:none"/></g></g><g id="t" clip-path="url(#ax)" style="display:none"><g clip-path="url(#ay)" style="display:none"><path class="primary" style="display:none"/></g><g clip-path="url(#az)" style="display:none"><path class="primary" style="display:none"/></g><g clip-path="url(#aA)" style="display:none"><path class="primary" style="display:none"/></g><g clip-path="url(#aB)" style="display:none"><path class="primary" style="display:none"/></g><g clip-path="url(#aC)" style="display:none"><path class="primary" style="display:none"/></g><g clip-path="url(#aD)" style="display:none"><path class="primary" style="display:none"/></g><g clip-path="url(#aE)" style="display:none"><path class="primary" style="display:none"/></g><g clip-path="url(#aF)" style="display:none"><path class="primary" style="display:none"/></g></g><g id="v" clip-path="url(#aG)" style="display:none"><g clip-path="url(#aH)" style="display:none"><path class="primary"/><path fill-opacity="0" stroke-linecap="round" class="primary"/></g><g clip-path="url(#aI)" style="display:none"><path class="primary"/><path fill-opacity="0" stroke-linecap="round" class="primary"/></g><g clip-path="url(#aJ)" style="display:none"><path class="primary"/><path fill-opacity="0" stroke-linecap="round" class="primary"/></g><g clip-path="url(#aK)" style="display:none"><path class="primary"/><path fill-opacity="0" stroke-linecap="round" class="primary"/></g><g clip-path="url(#aL)" style="display:none"><path class="primary"/><path fill-opacity="0" stroke-linecap="round" class="primary"/></g><g clip-path="url(#aM)" style="display:none"><path class="primary"/><path fill-opacity="0" stroke-linecap="round" class="primary"/></g><g clip-path="url(#aN)" style="display:none"><path class="primary"/><path fill-opacity="0" stroke-linecap="round" class="primary"/></g><g clip-path="url(#aO)" style="display:none"><path class="primary"/><path fill-opacity="0" stroke-linecap="round" class="primary"/></g></g><g id="x" clip-path="url(#aP)" style="display:none"><g clip-path="url(#aQ)" style="display:none"><path class="primary"/><path fill-opacity="0" stroke-linecap="round" class="primary"/></g><g clip-path="url(#aR)" style="display:none"><path class="primary"/><path fill-opacity="0" stroke-linecap="round" class="primary"/></g><g clip-path="url(#aS)" style="display:none"><path class="primary"/><path fill-opacity="0" stroke-linecap="round" class="primary"/></g><g clip-path="url(#aT)" style="display:none"><path class="primary"/><path fill-opacity="0" stroke-linecap="round" class="primary"/></g><g clip-path="url(#aU)" style="display:none"><path class="primary"/><path fill-opacity="0" stroke-linecap="round" class="primary"/></g><g clip-path="url(#aV)" style="display:none"><path class="primary"/><path fill-opacity="0" stroke-linecap="round" class="primary"/></g><g clip-path="url(#aW)" style="display:none"><path class="primary"/><path fill-opacity="0" stroke-linecap="round" class="primary"/></g><g clip-path="url(#aX)" style="display:none"><path class="primary"/><path fill-opacity="0" stroke-linecap="round" class="primary"/></g></g><g id="z" clip-path="url(#aY)" style="display:none"><g clip-path="url(#aZ)" style="display:none"><path class="primary"/><path fill-opacity="0" stroke-linecap="round" class="primary"/></g><g clip-path="url(#ba)" style="display:none"><path class="primary"/><path fill-opacity="0" stroke-linecap="round" class="primary"/></g><g clip-path="url(#bb)" style="display:none"><path class="primary"/><path fill-opacity="0" stroke-linecap="round" class="primary"/></g><g clip-path="url(#bc)" style="display:none"><path class="primary"/><path fill-opacity="0" stroke-linecap="round" class="primary"/></g><g clip-path="url(#bd)" style="display:none"><path class="primary"/><path fill-opacity="0" stroke-linecap="round" class="primary"/></g><g clip-path="url(#be)" style="display:none"><path class="primary"/><path fill-opacity="0" stroke-linecap="round" class="primary"/></g><g clip-path="url(#bf)" style="display:none"><path class="primary"/><path fill-opacity="0" stroke-linecap="round" class="primary"/></g><g clip-path="url(#bg)" style="display:none"><path class="primary"/><path fill-opacity="0" stroke-linecap="round" class="primary"/></g></g></defs><g clip-path="url(#bh)"><g clip-path="url(#bi)" mask="url(#bj)" style="display:none"><path class="primary"/><path fill="none" class="primary"/></g><g clip-path="url(#bk)" mask="url(#bl)" style="display:none"><path class="primary"/><path fill="none" class="primary"/></g><g clip-path="url(#bm)" mask="url(#bn)" style="display:none"><path class="primary"/><path fill="none" class="primary"/></g><g clip-path="url(#bo)" mask="url(#bp)" style="display:none"><path class="primary"/><path fill="none" class="primary"/></g><g clip-path="url(#bq)" mask="url(#br)" style="display:none"><path class="primary"/><path fill="none" class="primary"/></g><g clip-path="url(#bs)" mask="url(#bt)" style="display:none"><path class="primary"/><path fill="none" class="primary"/></g><g clip-path="url(#bu)" mask="url(#bv)" style="display:none"><path class="primary"/><path fill="none" class="primary"/></g><g clip-path="url(#bw)" mask="url(#bx)" style="display:none"><path class="primary"/><path fill="none" class="primary"/></g><g clip-path="url(#by)" mask="url(#bz)" style="display:none"><path class="primary"/><path fill="none" class="primary"/></g><g clip-path="url(#bA)" mask="url(#bB)" style="display:none"><path class="primary"/><path fill="none" class="primary"/></g><g clip-path="url(#bC)" mask="url(#bD)" style="display:none"><path class="primary"/><path fill="none" class="primary"/></g><g clip-path="url(#bE)" mask="url(#bF)" style="display:block"><path fill="#121331" d="M72 127.5c30.652 0 55.5-24.848 55.5-55.5S102.652 16.5 72 16.5 16.5 41.348 16.5 72s24.848 55.5 55.5 55.5z" class="primary"/><path fill="none" stroke="#121331" stroke-linecap="round" stroke-width="9" d="M72 127.5c30.652 0 55.5-24.848 55.5-55.5S102.652 16.5 72 16.5 16.5 41.348 16.5 72s24.848 55.5 55.5 55.5z" class="primary"/></g><g clip-path="url(#bG)" mask="url(#bH)" style="display:none"><path class="primary"/><path fill="none" class="primary"/></g></g></svg>