<svg xmlns="http://www.w3.org/2000/svg" width="500" height="500" style="width:100%;height:100%;transform:translate3d(0,0,0);content-visibility:visible" viewBox="0 0 500 500"><defs><clipPath id="j"><path d="M0 0h500v500H0z"/></clipPath><clipPath id="o"><path d="M0 0h500v500H0z"/></clipPath><clipPath id="g"><path d="M0 0h500v500H0z"/></clipPath><clipPath id="m"><path d="M0 0h500v500H0z"/></clipPath><clipPath id="h"><path d="M0 0h500v500H0z"/></clipPath><clipPath id="k"><path d="M0 0h500v500H0z"/></clipPath><clipPath id="i"><path d="M0 0h500v500H0z"/></clipPath><filter id="a" width="100%" height="100%" x="0%" y="0%" filterUnits="objectBoundingBox"><feComponentTransfer in="SourceGraphic"><feFuncA tableValues="1.0 0.0" type="table"/></feComponentTransfer></filter><filter id="c" width="100%" height="100%" x="0%" y="0%" filterUnits="objectBoundingBox"><feComponentTransfer in="SourceGraphic"><feFuncA tableValues="1.0 0.0" type="table"/></feComponentTransfer></filter><filter id="e" width="100%" height="100%" x="0%" y="0%" filterUnits="objectBoundingBox"><feComponentTransfer in="SourceGraphic"><feFuncA tableValues="1.0 0.0" type="table"/></feComponentTransfer></filter><mask id="p" mask-type="alpha"><g filter="url(#a)"><path fill="#fff" d="M0 0h500v500H0z" opacity="0"/><use xmlns:ns1="http://www.w3.org/1999/xlink" ns1:href="#b"/></g></mask><mask id="n" mask-type="alpha"><g filter="url(#c)"><path fill="#fff" d="M0 0h500v500H0z" opacity="0"/><use xmlns:ns2="http://www.w3.org/1999/xlink" ns2:href="#d"/></g></mask><mask id="l" mask-type="alpha"><g filter="url(#e)"><path fill="#fff" d="M0 0h500v500H0z" opacity="0"/><use xmlns:ns3="http://www.w3.org/1999/xlink" ns3:href="#f"/></g></mask><g id="b" clip-path="url(#g)" style="display:none"><g class="primary design" style="display:none"><path fill-opacity="0" stroke-linecap="round" stroke-linejoin="round" class="primary"/></g><g class="primary design" style="display:none"><path fill-opacity="0" stroke-linecap="round" stroke-linejoin="round" class="primary"/></g><g class="primary design" style="display:none"><path fill-opacity="0" stroke-linecap="round" stroke-linejoin="round" class="primary"/></g><g class="primary design" style="display:none"><path fill-opacity="0" stroke-linecap="round" stroke-linejoin="round" class="primary"/></g><g class="primary design" style="display:none"><path fill-opacity="0" stroke-linecap="round" stroke-linejoin="round" class="primary"/></g><g class="primary design" style="display:none"><path fill-opacity="0" stroke-linecap="round" stroke-linejoin="round" class="primary"/></g><g class="primary design" style="display:none"><path fill-opacity="0" stroke-linecap="round" stroke-linejoin="round" class="primary"/></g></g><g id="d" fill-opacity="0" stroke-linecap="round" stroke-linejoin="round" clip-path="url(#h)" style="display:none"><path class="primary design" style="display:none"/><path class="primary design" style="display:none"/><path class="primary design" style="display:none"/><path class="primary design" style="display:none"/><path class="primary design" style="display:none"/><path class="primary design" style="display:none"/></g><g id="f" clip-path="url(#i)" style="display:none"><g class="primary design" style="display:none"><path fill-opacity="0" stroke-linecap="round" stroke-linejoin="round" class="primary"/></g><g class="primary design" style="display:none"><path fill-opacity="0" stroke-linecap="round" stroke-linejoin="round" class="primary"/></g><g class="primary design" style="display:none"><path fill-opacity="0" stroke-linecap="round" stroke-linejoin="round" class="primary"/></g><g class="primary design" style="display:none"><path fill-opacity="0" stroke-linecap="round" stroke-linejoin="round" class="primary"/></g><g class="primary design" style="display:none"><path fill-opacity="0" stroke-linecap="round" stroke-linejoin="round" class="primary"/></g><g class="primary design" style="display:none"><path fill-opacity="0" stroke-linecap="round" stroke-linejoin="round" class="primary"/></g></g></defs><g clip-path="url(#j)"><g clip-path="url(#k)" style="display:none"><g class="primary design" mask="url(#l)" style="display:none"><path class="primary"/><path fill="none" class="primary"/></g><g class="primary design" style="display:none"><path class="primary"/><path class="primary"/><path class="primary"/><path class="primary"/><path class="primary"/><path class="primary"/></g><g class="primary design" style="display:none"><path class="primary"/><path class="primary"/><path class="primary"/><path class="primary"/><path class="primary"/><path class="primary"/></g></g><g clip-path="url(#m)" style="display:block"><g class="primary design" mask="url(#n)" style="display:none"><path class="primary"/><path fill="none" class="primary"/></g><g class="primary design" style="display:none"><path class="primary"/><path class="primary"/><path class="primary"/><path class="primary"/><path class="primary"/><path class="primary"/></g><g class="primary design" style="display:block"><path fill="#121331" d="M177.917 442.291c.417 1.25.833 2.5 1.458 3.75-73.958-26.667-128.541-94.166-136.666-175.208h108.75c1.458 65 10.624 124.583 26.041 170 .208.417.209 1.041.417 1.458zm-26.458-213.125H42.709c8.125-81.042 62.708-148.541 136.666-175.208-.625 1.25-1.041 2.5-1.458 3.75 0 .417-.209 1.041-.417 1.458-15.417 45.417-24.583 105-26.041 170zm41.666 41.667h113.75c-1.458 60.417-10.208 116.875-24.375 157.708 0 .625-.209 1.042-.417 1.667-3.542 10.417-7.499 19.583-11.666 27.083-6.667.625-13.542 1.042-20.417 1.042-6.875 0-13.75-.417-20.417-1.042-4.167-7.5-8.124-16.667-11.666-26.875-.208-.625-.417-1.25-.417-1.875-14.167-40.833-22.917-97.291-24.375-157.708zm113.75-41.666h-113.75c1.458-60.417 10.208-116.875 24.375-157.708 0-.625.209-1.042.417-1.667 3.542-10.417 7.499-19.583 11.666-27.083 6.667-.625 13.542-1.042 20.417-1.042 6.875 0 13.75.417 20.417 1.042 4.167 7.5 8.124 16.667 11.666 26.875.208.625.417 1.25.417 1.875 14.167 40.833 22.917 97.291 24.375 157.708zm41.666 41.666h108.75c-8.125 81.042-62.708 148.541-136.666 175.208.625-1.25 1.041-2.5 1.458-3.75 0-.417.209-1.041.417-1.458 15.417-45.417 24.583-105 26.041-170zM322.083 57.708c-.417-1.25-.833-2.5-1.458-3.75 73.958 26.667 128.541 94.166 136.666 175.208h-108.75c-1.458-65-10.624-124.583-26.041-170-.208-.417-.209-1.041-.417-1.458z" class="primary"/></g></g><g clip-path="url(#o)" style="display:none"><g class="primary design" mask="url(#p)" style="display:none"><path class="primary"/><path fill="none" class="primary"/></g><g class="primary design" style="display:none"><path fill="none" class="primary"/></g><g class="primary design" style="display:none"><path class="primary"/><path class="primary"/><path class="primary"/><path class="primary"/><path class="primary"/><path class="primary"/></g></g></g></svg>