<svg xmlns="http://www.w3.org/2000/svg" width="500" height="500" style="width:100%;height:100%;transform:translate3d(0,0,0);content-visibility:visible" viewBox="0 0 500 500"><defs><clipPath id="e"><path d="M0 0h500v500H0z"/></clipPath><clipPath id="i"><path d="M0 0h500v500H0z"/></clipPath><clipPath id="j"><path d="M0 0h500v500H0z"/></clipPath><clipPath id="f"><path d="M0 0h500v500H0z"/></clipPath><clipPath id="g"><path d="M0 0h500v500H0z"/></clipPath><filter id="a" width="100%" height="100%" x="0%" y="0%" filterUnits="objectBoundingBox"><feComponentTransfer in="SourceGraphic"><feFuncA tableValues="1.0 0.0" type="table"/></feComponentTransfer></filter><filter id="c" width="100%" height="100%" x="0%" y="0%" filterUnits="objectBoundingBox"><feComponentTransfer in="SourceGraphic"><feFuncA tableValues="1.0 0.0" type="table"/></feComponentTransfer></filter><mask id="k" mask-type="alpha"><g filter="url(#a)"><path fill="#fff" d="M0 0h500v500H0z" opacity="0"/><use xmlns:ns1="http://www.w3.org/1999/xlink" ns1:href="#b"/></g></mask><mask id="h" mask-type="alpha"><g filter="url(#c)"><path fill="#fff" d="M0 0h500v500H0z" opacity="0"/><use xmlns:ns2="http://www.w3.org/1999/xlink" ns2:href="#d"/></g></mask><g id="b" fill-opacity="0" stroke-linecap="round" stroke-linejoin="round" class="primary design" style="display:none"><path class="primary"/><path class="primary"/><path class="primary"/></g><g id="d" class="primary design" style="display:none"><path/><path fill-opacity="0" stroke-linecap="round" stroke-linejoin="round" class="primary"/><path fill-opacity="0" stroke-linecap="round" stroke-linejoin="round" class="primary"/><path fill-opacity="0" stroke-linecap="round" stroke-linejoin="round" class="primary"/></g></defs><g clip-path="url(#e)"><g clip-path="url(#f)" style="display:block"><g clip-path="url(#g)" mask="url(#h)" style="display:none"><g class="primary design" style="display:none"><path fill="none" class="primary"/></g><g class="primary design" style="display:none"><path fill="none" class="primary"/></g><g class="primary design" style="display:none"><path fill="none" class="primary"/></g><g class="primary design" style="display:none"><path fill="none" class="primary"/></g><g class="primary design" style="display:none"><path fill="none" class="primary"/></g><g class="primary design" style="display:none"><path class="primary"/></g><g class="primary design" style="display:none"><path class="primary"/></g><g class="primary design" style="display:none"><path class="primary"/></g><g class="primary design" style="display:none"><path class="primary"/></g></g><g class="primary design" style="display:none"><path class="primary"/></g><g class="primary design" style="display:block"><path fill="#121331" d="M416.667 187.5h-83.334V78.125c0-8.542-7.083-15.625-15.625-15.625H78.125c-8.542 0-15.625 7.083-15.625 15.625v291.667c0 37.292 30.416 67.708 67.708 67.708h239.584c37.292 0 67.708-30.416 67.708-67.708V208.333c0-11.458-9.375-20.833-20.833-20.833zM250 375H145.833C134.375 375 125 365.625 125 354.167c0-11.458 9.375-20.834 20.833-20.834H250c11.458 0 20.833 9.376 20.833 20.834S261.458 375 250 375zm0-83.333H145.833c-11.458 0-20.833-9.376-20.833-20.834S134.375 250 145.833 250H250c11.458 0 20.833 9.375 20.833 20.833 0 11.458-9.375 20.834-20.833 20.834zM270.833 187.5c0 11.458-9.375 20.833-20.833 20.833H145.833c-11.458 0-20.833-9.375-20.833-20.833v-41.667c0-11.458 9.375-20.833 20.833-20.833H250c11.458 0 20.833 9.375 20.833 20.833V187.5zm125 182.292c0 11.042-6.874 20.624-16.666 24.166-2.917 1.25-11.251 1.875-14.584 1.875-17.292 0-31.25-13.958-31.25-31.25V229.167h62.5v140.625z" class="primary"/></g></g><g clip-path="url(#i)" style="display:none"><g class="primary design" style="display:none"><path class="primary"/></g><g clip-path="url(#j)" mask="url(#k)" style="display:none"><g class="primary design" style="display:none"><path class="primary"/></g><g class="primary design" style="display:none"><path class="primary"/></g></g></g></g></svg>