<svg xmlns="http://www.w3.org/2000/svg" width="240" height="240" style="width:100%;height:100%;transform:translate3d(0,0,0);content-visibility:visible" viewBox="0 0 240 240"><defs><path id="a" style="display:none"/><path id="b" style="display:none"/><path id="c" style="display:none"/><path id="d" style="display:none"/><mask id="k" mask-type="alpha"><use xmlns:ns1="http://www.w3.org/1999/xlink" ns1:href="#a"/></mask><mask id="j" mask-type="alpha"><use xmlns:ns2="http://www.w3.org/1999/xlink" ns2:href="#b"/></mask><mask id="i" mask-type="alpha"><use xmlns:ns3="http://www.w3.org/1999/xlink" ns3:href="#c"/></mask><mask id="h" mask-type="alpha"><use xmlns:ns4="http://www.w3.org/1999/xlink" ns4:href="#d"/></mask><clipPath id="e"><path d="M0 0h240v240H0z"/></clipPath><clipPath id="g"><path d="M0 0h240v240H0z"/></clipPath><clipPath id="f"><path d="M0 0h240v240H0z"/></clipPath></defs><g clip-path="url(#e)"><g fill="#121331" clip-path="url(#f)" style="display:block"><path d="M-85 0c0-46.944 38.056-85 85-85S85-46.944 85 0c0 21.137-7.74 40.451-20.508 55.322C56.526 40.268 40.723 30.002 22.5 30h-45c-18.224.002-34.036 10.266-42.002 25.322C-77.268 40.452-85 21.135-85 0m31.973 66.406C-48.491 53.925-36.541 45.002-22.5 45h45c14.038.002 25.989 8.919 30.527 21.396a85 85 0 0 1-28.004 14.849A84.7 84.7 0 0 1 0 85a84.8 84.8 0 0 1-25.437-3.881 84.9 84.9 0 0 1-27.59-14.713M100 0c0-55.228-44.772-100-100-100S-100-55.228-100 0-55.228 100 0 100c25.644 0 49.019-9.667 66.719-25.537.037-.035.081-.062.117-.098C87.19 56.06 100 29.53 100 0" class="primary" style="display:block" transform="translate(120 120)"/><path d="M33.903-25c0-18.724-15.179-33.903-33.903-33.903S-33.903-43.724-33.903-25-18.724 8.903 0 8.903 33.903-6.276 33.903-25" class="primary" style="display:block" transform="translate(120 120)"/><path d="M-25-25c0-13.807 11.193-25 25-25s25 11.193 25 25S13.807 0 0 0s-25-11.193-25-25m65 0c0-22.091-17.909-40-40-40s-40 17.909-40 40 17.909 40 40 40S40-2.909 40-25M.171 91.766c39.902 0 60.162-22.167 54.88-31.135-6.771-12.796-20.204-21.522-35.693-21.523h-38.249c-15.49.001-28.93 8.726-35.701 21.523C-57.527 71.179-39.731 91.766.171 91.766" class="primary" style="display:block" transform="translate(120 120)"/></g><g clip-path="url(#g)" style="display:none"><g mask="url(#h)" style="display:none"><path class="primary"/></g><g mask="url(#i)" style="display:none"><path class="primary"/></g><g mask="url(#j)" style="display:none"><path class="primary"/></g><g mask="url(#k)" style="display:none"><path class="primary"/></g><path class="primary" style="display:none"/></g></g></svg>