<svg xmlns="http://www.w3.org/2000/svg" width="500" height="500" style="width:100%;height:100%;transform:translate3d(0,0,0);content-visibility:visible" viewBox="0 0 500 500"><defs><clipPath id="a"><path d="M0 0h500v500H0z"/></clipPath><clipPath id="d"><path d="M0 0h500v500H0z"/></clipPath><clipPath id="c"><path d="M0 0h500v500H0z"/></clipPath><clipPath id="b"><path d="M0 0h500v500H0z"/></clipPath></defs><g clip-path="url(#a)"><g clip-path="url(#b)" style="display:none"><g class="primary design" style="display:none"><path class="primary"/></g><g class="primary design" style="display:none"><path fill="none" class="primary"/></g><g class="primary design" style="display:none"><path fill="none" class="primary"/></g></g><g clip-path="url(#c)" style="display:block"><g class="primary design" style="display:none"><path class="primary"/></g><g fill="none" class="primary design" style="display:none"><path class="primary"/><path class="primary"/></g><g class="primary design" style="display:none"><path fill="none" class="primary"/></g><g fill="#121331" class="primary design" style="display:block"><path d="M416.713 270.834c-11.458 0-20.834 9.375-20.834 20.833v88.125c0 15.209-17.292 16.042-20.833 16.042h-250c-3.541 0-20.833-.833-20.833-16.042v-88.125c0-11.458-9.376-20.833-20.834-20.833s-20.833 9.375-20.833 20.833v88.125c0 33.543 26.25 57.708 62.5 57.708h250c36.25 0 62.5-24.165 62.5-57.708v-88.125c0-11.458-9.375-20.833-20.833-20.833z" class="primary"/><path d="M166.712 208.333c5.417 0 10.626-2.083 14.793-6.041l47.707-47.854v178.895c0 11.458 9.376 20.834 20.834 20.834s20.833-9.376 20.833-20.834V154.438l47.708 47.854c8.125 8.124 21.251 8.124 29.376 0 8.125-8.125 8.125-21.251 0-29.376L265.3 90.253c-3.817-4.183-9.178-6.92-15.254-6.92-5.797 0-11.032 2.422-14.819 6.277l-83.307 83.306c-8.124 8.125-8.124 21.251 0 29.376 4.167 3.958 9.375 6.041 14.792 6.041z" class="primary"/></g><g class="primary design" style="display:none"><path class="primary"/><path class="primary"/></g></g><g clip-path="url(#d)" style="display:none"><g class="primary design" style="display:none"><path fill="none" class="primary"/></g><g class="primary design" style="display:none"><path fill="none" class="primary"/></g><g class="primary design" style="display:none"><path class="primary"/><path class="primary"/></g></g></g></svg>