<svg xmlns="http://www.w3.org/2000/svg" width="240" height="240" style="width:100%;height:100%;transform:translate3d(0,0,0);content-visibility:visible" viewBox="0 0 240 240"><defs><clipPath id="e"><path d="M0 0h240v240H0z"/></clipPath><clipPath id="k"><path d="M0 0h240v240H0z"/></clipPath><clipPath id="j"><path d="M0 0h240v240H0z"/></clipPath><clipPath id="h"><path d="M0 0h240v240H0z"/></clipPath><clipPath id="f"><path d="M0 0h240v240H0z"/></clipPath><filter id="a" width="100%" height="100%" x="0%" y="0%" filterUnits="objectBoundingBox"><feComponentTransfer in="SourceGraphic"><feFuncA tableValues="1.0 0.0" type="table"/></feComponentTransfer></filter><filter id="c" width="100%" height="100%" x="0%" y="0%" filterUnits="objectBoundingBox"><feComponentTransfer in="SourceGraphic"><feFuncA tableValues="1.0 0.0" type="table"/></feComponentTransfer></filter><mask id="i" mask-type="alpha" maskUnits="userSpaceOnUse"><g filter="url(#a)"><path fill="#fff" d="M0 0h240v240H0z" opacity="0"/><use xmlns:ns1="http://www.w3.org/1999/xlink" ns1:href="#b"/></g></mask><mask id="g" mask-type="alpha" maskUnits="userSpaceOnUse"><g filter="url(#c)"><path fill="#fff" d="M0 0h240v240H0z" opacity="0"/><use xmlns:ns2="http://www.w3.org/1999/xlink" ns2:href="#d"/></g></mask><g id="b" style="display:none"><path/><path fill-opacity="0"/></g><g id="d" style="display:none"><path/><path fill-opacity="0"/></g></defs><g clip-path="url(#e)"><g clip-path="url(#f)" style="display:none"><g mask="url(#g)" style="display:none"><path class="primary"/></g><path class="primary" style="display:none"/><path class="primary" style="display:none"/></g><g clip-path="url(#h)" style="display:none"><g mask="url(#i)" style="display:none"><path class="primary"/></g><path class="primary" style="display:none"/><path class="primary" style="display:none"/></g><g fill="#121331" clip-path="url(#j)" style="display:block"><path d="M90 17.5a7.5 7.5 0 0 0-15 0v45C75 69.358 69.358 75 62.5 75h-125C-69.358 75-75 69.358-75 62.5v-45a7.5 7.5 0 0 0-15 0v45C-90 77.642-77.642 90-62.5 90h125C77.642 90 90 77.642 90 62.5z" class="primary" style="display:block" transform="translate(120 120)"/><path d="M7.5-82.5a7.5 7.5 0 0 0-15 0v72.969l-32.207-7.764a7.51 7.51 0 0 0-8.281 3.584 7.51 7.51 0 0 0 1.152 8.945l41.465 42.5.068.069c.912.912 2.067 1.557 3.35 1.904.154.042.302.105.459.137q.679.138 1.396.146l.049.01.01-.01L0 40c.45 0 .889-.051 1.318-.127l.166-.029a7.47 7.47 0 0 0 3.819-2.041l42.5-42.5a7.505 7.505 0 0 0 1.25-8.955 7.51 7.51 0 0 0-8.272-3.653L7.5-9.482z" class="primary" style="display:block" transform="translate(120 120)"/></g><g clip-path="url(#k)" style="display:none"><path fill="none" class="primary" style="display:none"/><path class="primary" style="display:none"/><path class="primary" style="display:none"/></g></g></svg>