<svg xmlns="http://www.w3.org/2000/svg" width="500" height="500" style="width:100%;height:100%;transform:translate3d(0,0,0);content-visibility:visible" viewBox="0 0 500 500"><defs><clipPath id="a"><path d="M0 0h500v500H0z"/></clipPath><clipPath id="e"><path d="M0 0h500v500H0z"/></clipPath><clipPath id="d"><path d="M0 0h500v500H0z"/></clipPath><clipPath id="c"><path d="M0 0h500v500H0z"/></clipPath><clipPath id="b"><path d="M0 0h500v500H0z"/></clipPath></defs><g clip-path="url(#a)"><g class="primary design" clip-path="url(#b)" style="display:none"><path class="primary"/></g><g class="primary design" clip-path="url(#c)" style="display:none"><path class="primary"/></g><g class="primary design" clip-path="url(#d)" style="display:block"><path fill="#121331" d="M104.121 104.167h41.666v41.666c0 26.25 10.417 50.834 28.125 66.042L218.072 250l-44.16 38.125c-17.708 15.208-28.125 39.792-28.125 66.042v41.666h-41.666c-11.458 0-20.834 9.376-20.834 20.834s9.376 20.833 20.834 20.833h291.666c11.458 0 20.834-9.375 20.834-20.833 0-11.458-9.376-20.834-20.834-20.834h-41.666v-41.666c0-26.25-10.417-50.834-28.125-66.042L281.836 250l44.16-38.125c17.708-15.208 28.125-39.792 28.125-66.042v-41.666h41.666c11.458 0 20.834-9.376 20.834-20.834S407.245 62.5 395.787 62.5H104.121c-11.458 0-20.834 9.375-20.834 20.833 0 11.458 9.376 20.834 20.834 20.834z" class="primary"/></g><g class="primary design" clip-path="url(#e)" style="display:none"><path class="primary"/></g></g></svg>