<svg xmlns="http://www.w3.org/2000/svg" width="500" height="500" style="width:100%;height:100%;transform:translate3d(0,0,0);content-visibility:visible" viewBox="0 0 500 500"><defs><clipPath id="a"><path d="M0 0h500v500H0z"/></clipPath><clipPath id="e"><path d="M0 0h500v500H0z"/></clipPath><clipPath id="d"><path d="M0 0h500v500H0z"/></clipPath><clipPath id="c"><path d="M0 0h500v500H0z"/></clipPath><clipPath id="b"><path d="M0 0h500v500H0z"/></clipPath></defs><g clip-path="url(#a)"><g clip-path="url(#b)" style="display:none"><g class="primary design" style="display:none"><path fill="none" class="primary"/><path class="primary"/></g><g class="primary design" style="display:none"><path class="primary"/></g><g class="primary design" style="display:none"><path class="primary"/></g></g><g clip-path="url(#c)" style="display:none"><g class="primary design" style="display:none"><path fill="none" class="primary"/><path class="primary"/></g><g class="primary design" style="display:none"><path class="primary"/></g><g class="primary design" style="display:none"><path class="primary"/></g></g><g clip-path="url(#d)" style="display:block"><g class="primary design" style="display:none"><path class="primary"/><path fill="none" class="primary"/></g><g class="primary design" style="display:none"><path class="primary"/><path fill="none" class="primary"/></g><g class="primary design" style="display:block"><path fill="#121331" d="M250.046 41.667c-91.874 0-166.667 76.249-166.667 169.792 0 12.499 1.251 23.957 3.542 34.374C92.129 272.5 104.004 297.917 121.92 320l113.959 131.249c3.958 4.584 9.792 7.084 15.834 7.084 6.25 0 11.875-2.708 15.833-7.291l111.041-131.667c17.501-21.459 29.376-46.874 34.376-72.916 2.5-11.042 3.75-22.501 3.75-35 0-93.543-74.793-169.792-166.667-169.792zm0 229.166c-34.376 0-62.5-28.124-62.5-62.5 0-34.376 28.124-62.5 62.5-62.5 34.376 0 62.5 28.124 62.5 62.5 0 34.376-28.124 62.5-62.5 62.5z" class="primary"/></g></g><g clip-path="url(#e)" style="display:none"><g class="primary design" style="display:none"><path fill="none" class="primary"/><path class="primary"/></g><g class="primary design" style="display:none"><path class="primary"/></g></g></g></svg>