<svg xmlns="http://www.w3.org/2000/svg" width="240" height="240" style="width:100%;height:100%;transform:translate3d(0,0,0);content-visibility:visible" viewBox="0 0 240 240"><defs><clipPath id="a"><path d="M0 0h240v240H0z"/></clipPath><clipPath id="e"><path d="M0 0h240v240H0z"/></clipPath><clipPath id="d"><path d="M0 0h240v240H0z"/></clipPath><clipPath id="c"><path d="M0 0h240v240H0z"/></clipPath><clipPath id="b"><path d="M0 0h240v240H0z"/></clipPath></defs><g clip-path="url(#a)"><g class="5" clip-path="url(#b)" style="display:none"><path class="primary" style="display:none"/></g><g clip-path="url(#c)" style="display:none"><path fill="none" class="primary" style="display:none"/><path fill="none" class="primary" style="display:none"/><path class="primary" style="display:none"/><path class="primary" style="display:none"/><path class="primary" style="display:none"/></g><g fill="#121331" clip-path="url(#d)" style="display:block"><path d="M-35-50c0-19.33 15.67-35 35-35s35 15.67 35 35v20h-70zm-30 37.5a2.5 2.5 0 0 1 2.5-2.5h125a2.5 2.5 0 0 1 2.5 2.5v95a2.5 2.5 0 0 1-2.5 2.5h-125a2.5 2.5 0 0 1-2.5-2.5zM50-50c0-27.614-22.386-50-50-50s-50 22.386-50 50v20h-12.5C-72.165-30-80-22.165-80-12.5v95c0 9.665 7.835 17.5 17.5 17.5h125c9.665 0 17.5-7.835 17.5-17.5v-95C80-22.165 72.165-30 62.5-30H50z" class="primary" style="display:block" transform="translate(120 120)"/><path d="M-45.941-24.723h-11.485c-8.88 0-16.08 7.199-16.08 16.079v87.288c0 8.88 7.2 16.079 16.08 16.079H57.426c8.88 0 16.08-7.199 16.08-16.079V-8.644c0-8.88-7.2-16.079-16.08-16.079zM7.5 22.5v30a7.5 7.5 0 0 1-15 0v-30a7.5 7.5 0 0 1 15 0" class="primary" style="display:block" transform="translate(120 120)"/></g><g clip-path="url(#e)" style="display:none"><path class="primary" style="display:none"/><path fill="none" class="primary" style="display:none"/><path fill="none" class="primary" style="display:none"/><path class="primary" style="display:none"/></g></g></svg>