<svg version="1.2" xmlns="http://www.w3.org/2000/svg" viewBox="0 0 2908 828" width="2908" height="828">
	<style>
		.s0 { fill: #ffffff } 
		.s1 { fill: #0097e5 } 
		.s2 { fill: #de5ba7 } 
	</style>
	<g id="Layer 8">
		<path id="Path 0" class="s0" d="m2452.99 60.75c0 0.41-0.91 7.5-2.01 15.75-1.1 8.25-2 17.03-2 19.5v4.5c13.58 6.74 21.35 10.98 26.02 13.76 4.68 2.78 12.78 7.98 18 11.56 5.23 3.57 13.78 9.9 19 14.06 5.23 4.16 15.29 13.2 22.36 20.09 7.08 6.89 16.68 17.25 21.33 23.03 4.65 5.78 12.82 17.03 18.14 25 5.33 7.97 12.91 20.8 16.85 28.5 3.94 7.7 9.18 18.95 11.64 25 2.46 6.05 6.13 16.18 8.17 22.5 2.03 6.32 5.05 17.35 6.7 24.5 1.64 7.15 3.18 13.34 3.4 13.75 0.23 0.41 4.8 1.71 10.16 2.89 5.36 1.17 13.8 3.15 18.75 4.4 4.95 1.24 13.5 3.93 19 5.96 5.5 2.04 15.18 6.36 21.5 9.6 6.33 3.25 16.23 9.44 22 13.76 5.78 4.32 13.16 10.74 16.41 14.25 3.25 3.51 8.15 9.54 10.88 13.39 2.73 3.85 6.9 11.05 9.26 16 2.36 4.95 5.02 11.7 5.91 15 0.88 3.3 1.86 10.95 2.18 17 0.42 8.17 0.15 12.93-1.06 18.5-0.89 4.12-2.65 9.75-3.91 12.5-1.26 2.75-4.1 7.48-6.32 10.5-2.22 3.02-7.59 8.81-11.94 12.86-5.52 5.14-10.33 8.52-15.91 11.21-4.4 2.12-11.82 4.78-16.5 5.91-4.67 1.14-13.67 2.33-20 2.65-9.95 0.51-13.21 0.24-24.25-2.02-7.01-1.44-14.21-2.63-16-2.65-2.05-0.02-5.09 1.18-8.23 3.25-2.73 1.81-6.68 5.77-8.77 8.79-3.05 4.42-3.79 6.38-3.75 10 0.03 3.2 0.88 5.8 2.93 9 1.58 2.48 4.38 5.67 6.22 7.1 1.84 1.43 4.93 3.42 6.85 4.41 1.93 0.99 8 3.12 13.5 4.74 5.96 1.76 13.74 3.21 19.26 3.6l9.25 0.65c-0.01 29.35-0.49 35.92-1.96 43.25-1.08 5.36-3.38 14.02-5.12 19.25-1.75 5.23-4.89 13.1-6.99 17.5-2.1 4.4-6.15 11.83-9.01 16.5-2.85 4.67-7.77 11.87-10.94 16-3.16 4.12-8.95 10.76-12.87 14.75-3.92 3.99-8.58 8.01-10.37 8.94-2.07 1.08-6.51 1.84-12.25 2.12-4.95 0.24-13.05 0.11-18-0.28l-9-0.72c1.21-6.44 1.84-12.81 2.18-18.31 0.38-6.08 0.13-13.72-0.63-19.5-0.7-5.23-2.38-13.77-3.74-19-1.36-5.23-4.19-13.1-6.28-17.5-2.1-4.4-6.67-12.27-10.16-17.5-3.48-5.23-9.95-13.1-14.37-17.5-4.42-4.4-11.4-10.32-15.52-13.15-4.11-2.83-11.08-6.75-15.48-8.69-4.4-1.95-11.82-4.47-16.5-5.6-6.38-1.53-11.87-2.05-22-2.06-8.93-0.01-15.19 0.47-18.5 1.44-2.75 0.8-6.91 2.83-9.25 4.51-3.1 2.22-4.7 4.34-5.91 7.8-1.17 3.33-1.46 6.09-0.97 9.25 0.38 2.48 1.49 5.85 2.46 7.5 0.97 1.65 3.99 4.36 6.72 6.02 4.15 2.54 6.72 3.22 15.95 4.24 6.05 0.67 14.15 2.28 18 3.58 3.85 1.29 10.15 4.27 14 6.62 3.85 2.34 8.97 5.9 11.38 7.9 2.4 2 6.55 6.56 9.22 10.14 2.66 3.58 6.2 9.31 7.87 12.75 1.67 3.44 3.95 9.74 5.06 14 1.12 4.26 2.31 11.35 2.65 15.75 0.36 4.63 0.08 12-0.66 17.5l-1.27 9.5c-68.39 1.16-112.44 1.5-142 1.5h-53.75c-4.04-4.26-7.75-8.88-10.86-13-3.1-4.13-7.29-10.66-9.31-14.5-2.01-3.85-5.5-11.61-7.75-17.25-2.24-5.64-5.16-14.41-6.48-19.5-1.32-5.09-2.96-13.75-3.65-19.25-0.79-6.3-1.01-14.62-0.62-22.5 0.35-6.88 1.3-16.77 2.1-22 0.81-5.23 2.64-13.55 4.08-18.5 1.44-4.95 4.61-13.73 7.04-19.5 2.44-5.77 6.98-14.77 10.09-20 3.11-5.23 8.18-12.86 11.26-16.97 3.08-4.11 9.65-11.72 14.6-16.91 4.95-5.19 13.05-12.68 18-16.63 4.95-3.95 12.38-9.35 16.5-12 4.13-2.66 12.45-7.18 18.5-10.07 6.05-2.88 14.38-6.38 18.5-7.77 4.13-1.4 13.35-3.76 20.5-5.24 11.65-2.42 15.75-2.75 39.5-3.2l26.5-0.5c10.15-6.43 11.82-8.23 13.44-11.96 1.13-2.61 2.06-6.77 2.06-9.25 0-2.48-0.59-5.96-1.31-7.75-0.72-1.79-2.63-4.98-4.25-7.09-1.62-2.11-5.18-4.92-7.94-6.25-3.39-1.63-9.02-2.93-17.5-4.05-10.79-1.41-14.68-1.47-28.5-0.45-8.8 0.66-21.17 2.07-27.5 3.15-6.32 1.08-15.32 3.08-20 4.44-4.67 1.36-13.22 4.32-19 6.57-5.77 2.25-15.67 6.73-22 9.95-6.32 3.22-16.22 9-22 12.83-5.77 3.84-15.45 11.22-21.5 16.41-6.05 5.19-15.09 14.12-20.08 19.84-4.99 5.72-11.56 13.77-14.6 17.9-3.03 4.12-8.61 12.68-12.39 19-3.79 6.32-8.87 16-11.3 21.5-2.42 5.5-6.17 15.17-8.31 21.5-2.15 6.33-4.99 16.9-6.31 23.5-1.31 6.6-2.93 19.2-3.58 28-0.7 9.42-0.92 22.17-0.54 31 0.36 8.25 1.29 19.27 2.08 24.5 0.78 5.23 2.61 13.1 4.05 17.5 1.44 4.4 5.19 13.62 8.33 20.5 3.14 6.87 10.03 19.92 15.31 29 5.29 9.08 12.75 22.35 16.6 29.5l6.99 13 331.25 0.5c6.59-8.06 15.41-18.29 23.86-27.95 8.45-9.65 18.4-21.6 22.1-26.55 3.7-4.95 9.1-13.05 12.01-18 2.9-4.95 6.74-11.92 8.53-15.5 1.79-3.58 4.84-10.77 6.79-16 1.95-5.23 4.69-13.55 6.08-18.5 1.4-4.95 3.3-12.38 4.24-16.5 1.22-5.32 1.88-14.26 2.3-30.78l0.59-23.28c11.63-5.01 19.73-9.59 25.5-13.41 5.78-3.82 13.65-10.15 17.5-14.07 3.85-3.92 9.54-10.91 12.64-15.54 3.1-4.63 7.1-11.35 8.87-14.92 1.78-3.57 4.73-11 6.54-16.5 1.82-5.5 4.07-14.73 5.02-20.5 1.24-7.61 1.55-13.39 1.12-21-0.33-5.77-1.32-13.88-2.21-18-0.89-4.13-3.11-12-4.93-17.5-1.82-5.5-5.44-14.27-8.05-19.5-2.62-5.23-7.37-13.32-10.56-18-3.2-4.68-10-12.96-15.13-18.4-5.12-5.45-13.13-13.11-17.81-17.03-4.67-3.93-11.87-9.42-16-12.22-4.12-2.79-13.01-7.84-19.75-11.21-6.74-3.38-17.54-7.97-24-10.2-6.46-2.24-15.35-4.94-19.75-6.02-4.4-1.08-8.05-2.06-8.12-2.19-0.06-0.13-1.57-5.18-3.35-11.23-1.78-6.05-5.97-17.97-9.31-26.5-3.34-8.53-9.35-22.03-13.35-30-4-7.97-10.35-19.22-14.11-25-3.76-5.78-10.41-15.22-14.78-21-4.36-5.78-11.96-15.22-16.89-21-4.92-5.78-13.93-15.38-20.02-21.34-6.09-5.97-15.34-14.3-20.57-18.53-5.22-4.22-13.77-10.65-19-14.28-5.22-3.63-14.45-9.44-20.5-12.91-6.05-3.48-15.05-8.21-20-10.51-4.95-2.31-13.16-5.6-18.25-7.32-5.09-1.71-10.37-3.11-11.75-3.11-1.37 0-2.5 0.34-2.51 0.75z"/>
		<path id="Path 1" class="s1" d="m2662 382.75c-3.03 1.25-6.97 3.73-8.76 5.51-1.79 1.78-4.21 5.49-5.37 8.24-1.76 4.16-2 6.09-1.43 11.5 0.58 5.5 1.25 7.17 4.38 10.9 2.02 2.41 5.71 5.54 8.18 6.94q4.5 2.55 9.5 2.69c2.75 0.07 7.25-0.7 10-1.71 2.83-1.05 6.85-3.69 9.27-6.08 2.44-2.43 4.92-6.16 5.79-8.74 1-2.96 1.31-6.04 0.89-9-0.35-2.48-1.44-6.07-2.42-8-0.98-1.93-3.64-5.19-5.91-7.25-2.27-2.06-5.58-4.51-7.37-5.45-1.79-0.93-5.05-1.72-7.25-1.76-2.2-0.04-6.47 0.96-9.5 2.21z"/>
		<path id="Path 2" class="s2" d="m2388.11 119.9c-0.77 0.48-1.59 2.38-1.83 4.23-0.24 1.85-0.46 8.55-0.48 14.87-0.03 6.32 0.22 13.75 0.56 16.5 0.33 2.75 0.84 6.57 1.13 8.5 0.3 1.93 0.75 5.07 1.02 7 0.26 1.93 0.69 4.4 0.96 5.5 0.26 1.1 0.92 3.57 1.46 5.5 0.54 1.93 1.66 6.2 2.5 9.5 0.84 3.3 1.95 7.12 2.47 8.5 0.52 1.37 2.09 5.43 3.48 9 1.39 3.57 5.51 12.12 9.14 19 3.64 6.87 9.16 16.32 12.27 21 3.12 4.68 8.56 12.1 12.1 16.5 3.55 4.4 9.71 11.6 13.71 16 3.99 4.4 12.08 12.27 17.97 17.5 5.9 5.23 14.82 12.57 19.83 16.33 5 3.75 13.04 9.26 17.85 12.25 4.81 2.98 14.26 8.19 21 11.57 6.74 3.39 19.22 8.94 27.75 12.34 8.52 3.39 19.63 7.04 24.69 8.09 5.05 1.06 9.46 1.69 9.79 1.42 0.34-0.27 0.71-7.02 0.82-15 0.11-7.98-0.12-15.63-0.5-17-0.39-1.38-1.8-7.23-3.14-13-1.34-5.77-3.89-15.23-5.67-21-1.78-5.77-4.69-14.32-6.47-19-1.78-4.68-5.3-12.77-7.81-18-2.52-5.22-7.43-14.22-10.93-20-3.49-5.78-8.84-13.88-11.89-18-3.04-4.13-8.93-11.55-13.09-16.5-4.16-4.95-12.01-13.29-17.43-18.54-5.43-5.25-14.15-12.84-19.37-16.88-5.23-4.03-12.65-9.47-16.5-12.08-3.85-2.6-9.03-5.91-11.5-7.34-2.48-1.43-9.45-5.04-15.5-8.03-6.05-2.99-13.59-6.6-16.75-8.03-3.16-1.43-6.5-2.6-7.42-2.6-0.91 0-1.86-0.34-2.1-0.75-0.24-0.41-2.08-1.33-4.08-2.05-2.01-0.71-6.8-2.36-10.65-3.67-3.85-1.31-8.35-2.63-10-2.95-1.65-0.31-3.68-0.79-4.5-1.05-0.83-0.27-2.13-0.1-2.89 0.37z"/>
	</g>
</svg>