<?xml version="1.0" encoding="UTF-8" standalone="no"?>
<!-- Created with Inkscape (http://www.inkscape.org/) -->

<svg
   version="1.1"
   id="svg1"
   width="765.41907"
   height="197.87212"
   viewBox="0 0 765.41905 197.87212"
   sodipodi:docname="raw_svg_logo.svg"
   inkscape:version="1.4.2 (ebf0e940d0, 2025-05-08)"
   inkscape:export-filename="../../remrin/remrin/remrin/remrin/remrin/remrin/remrin/remrin/logo_dark.svg"
   inkscape:export-xdpi="96"
   inkscape:export-ydpi="96"
   xml:space="preserve"
   xmlns:inkscape="http://www.inkscape.org/namespaces/inkscape"
   xmlns:sodipodi="http://sodipodi.sourceforge.net/DTD/sodipodi-0.dtd"
   xmlns="http://www.w3.org/2000/svg"
   xmlns:svg="http://www.w3.org/2000/svg"><defs
     id="defs1"><inkscape:path-effect
       effect="fillet_chamfer"
       id="path-effect101"
       is_visible="true"
       lpeversion="1"
       nodesatellites_param="F,0,0,1,0,16.150483,0,1 @ F,0,0,1,0,0,0,1 @ F,0,0,1,0,16.025483,0,1 @ F,0,0,1,0,0,0,1"
       radius="0"
       unit="px"
       method="auto"
       mode="F"
       chamfer_steps="1"
       flexible="false"
       use_knot_distance="true"
       apply_no_radius="true"
       apply_with_radius="true"
       only_selected="false"
       hide_knots="false" /><inkscape:path-effect
       effect="fillet_chamfer"
       id="path-effect99"
       is_visible="true"
       lpeversion="1"
       nodesatellites_param="F,0,0,1,0,18.650483,0,1 @ F,0,0,1,0,0,0,1 @ F,0,0,1,0,13.775483,0,1 @ F,0,0,1,0,0,0,1"
       radius="0"
       unit="px"
       method="auto"
       mode="F"
       chamfer_steps="1"
       flexible="false"
       use_knot_distance="true"
       apply_no_radius="true"
       apply_with_radius="true"
       only_selected="false"
       hide_knots="false" /><inkscape:path-effect
       effect="fillet_chamfer"
       id="path-effect97"
       is_visible="true"
       lpeversion="1"
       nodesatellites_param="F,0,0,1,0,16.150483,0,1 @ F,0,0,1,0,0,0,1 @ F,0,0,1,0,15.400483,0,1 @ F,0,0,1,0,0,0,1"
       radius="0"
       unit="px"
       method="auto"
       mode="F"
       chamfer_steps="1"
       flexible="false"
       use_knot_distance="true"
       apply_no_radius="true"
       apply_with_radius="true"
       only_selected="false"
       hide_knots="false" /><inkscape:path-effect
       effect="fillet_chamfer"
       id="path-effect94"
       is_visible="true"
       lpeversion="1"
       nodesatellites_param="F,0,0,1,0,0,0,1 @ F,0,0,1,0,8.4293898,0,1 @ F,0,0,1,0,15.142248,0,1 @ F,0,0,1,0,0,0,1 @ F,0,0,1,0,0,0,1 @ F,0,0,1,0,17.600599,0,1 @ F,0,0,1,0,0,0,1 @ F,0,0,1,0,19.821334,0,1"
       radius="0"
       unit="px"
       method="auto"
       mode="F"
       chamfer_steps="1"
       flexible="false"
       use_knot_distance="true"
       apply_no_radius="true"
       apply_with_radius="true"
       only_selected="false"
       hide_knots="false" /><inkscape:path-effect
       effect="fillet_chamfer"
       id="path-effect92"
       is_visible="true"
       lpeversion="1"
       nodesatellites_param="F,0,0,1,0,0,0,1 @ F,0,0,1,0,8.4293898,0,1 @ F,0,0,1,0,15.142248,0,1 @ F,0,0,1,0,0,0,1 @ F,0,0,1,0,0,0,1 @ F,0,0,1,0,17.600599,0,1 @ F,0,0,1,0,0,0,1 @ F,0,0,1,0,16.122337,0,1"
       radius="0"
       unit="px"
       method="auto"
       mode="F"
       chamfer_steps="1"
       flexible="false"
       use_knot_distance="true"
       apply_no_radius="true"
       apply_with_radius="true"
       only_selected="false"
       hide_knots="false" /><inkscape:path-effect
       effect="fillet_chamfer"
       id="path-effect90"
       is_visible="true"
       lpeversion="1"
       nodesatellites_param="F,0,0,1,0,16.150483,0,1 @ F,0,0,1,0,0,0,1 @ F,0,0,1,0,16.025483,0,1 @ F,0,0,1,0,0,0,1"
       radius="0"
       unit="px"
       method="auto"
       mode="F"
       chamfer_steps="1"
       flexible="false"
       use_knot_distance="true"
       apply_no_radius="true"
       apply_with_radius="true"
       only_selected="false"
       hide_knots="false" /><inkscape:path-effect
       effect="fillet_chamfer"
       id="path-effect88"
       is_visible="true"
       lpeversion="1"
       nodesatellites_param="F,0,0,1,0,18.650483,0,1 @ F,0,0,1,0,0,0,1 @ F,0,0,1,0,13.775483,0,1 @ F,0,0,1,0,0,0,1"
       radius="0"
       unit="px"
       method="auto"
       mode="F"
       chamfer_steps="1"
       flexible="false"
       use_knot_distance="true"
       apply_no_radius="true"
       apply_with_radius="true"
       only_selected="false"
       hide_knots="false" /><inkscape:path-effect
       effect="fillet_chamfer"
       id="path-effect86"
       is_visible="true"
       lpeversion="1"
       nodesatellites_param="F,0,0,1,0,16.150483,0,1 @ F,0,0,1,0,0,0,1 @ F,0,0,1,0,15.400483,0,1 @ F,0,0,1,0,0,0,1"
       radius="0"
       unit="px"
       method="auto"
       mode="F"
       chamfer_steps="1"
       flexible="false"
       use_knot_distance="true"
       apply_no_radius="true"
       apply_with_radius="true"
       only_selected="false"
       hide_knots="false" /><inkscape:path-effect
       effect="fillet_chamfer"
       id="path-effect83"
       is_visible="true"
       lpeversion="1"
       nodesatellites_param="F,0,0,1,0,21.990127,0,1 @ F,0,0,1,0,0,0,1 @ F,0,0,1,0,20.990128,0,1 @ F,0,0,1,0,0,0,1"
       radius="0"
       unit="px"
       method="auto"
       mode="F"
       chamfer_steps="1"
       flexible="false"
       use_knot_distance="true"
       apply_no_radius="true"
       apply_with_radius="true"
       only_selected="false"
       hide_knots="false" /><inkscape:path-effect
       effect="fillet_chamfer"
       id="path-effect82"
       is_visible="true"
       lpeversion="1"
       nodesatellites_param="F,0,0,1,0,16.150483,0,1 @ F,0,0,1,0,0,0,1 @ F,0,0,1,0,16.025483,0,1 @ F,0,0,1,0,0,0,1"
       radius="0"
       unit="px"
       method="auto"
       mode="F"
       chamfer_steps="1"
       flexible="false"
       use_knot_distance="true"
       apply_no_radius="true"
       apply_with_radius="true"
       only_selected="false"
       hide_knots="false" /><inkscape:path-effect
       effect="fillet_chamfer"
       id="path-effect81"
       is_visible="true"
       lpeversion="1"
       nodesatellites_param="F,0,0,1,0,18.650483,0,1 @ F,0,0,1,0,0,0,1 @ F,0,0,1,0,13.775483,0,1 @ F,0,0,1,0,0,0,1"
       radius="0"
       unit="px"
       method="auto"
       mode="F"
       chamfer_steps="1"
       flexible="false"
       use_knot_distance="true"
       apply_no_radius="true"
       apply_with_radius="true"
       only_selected="false"
       hide_knots="false" /><inkscape:path-effect
       effect="fillet_chamfer"
       id="path-effect80"
       is_visible="true"
       lpeversion="1"
       nodesatellites_param="F,0,0,1,0,16.150483,0,1 @ F,0,0,1,0,0,0,1 @ F,0,0,1,0,15.400483,0,1 @ F,0,0,1,0,0,0,1"
       radius="0"
       unit="px"
       method="auto"
       mode="F"
       chamfer_steps="1"
       flexible="false"
       use_knot_distance="true"
       apply_no_radius="true"
       apply_with_radius="true"
       only_selected="false"
       hide_knots="false" /><inkscape:path-effect
       effect="fillet_chamfer"
       id="path-effect73"
       is_visible="true"
       lpeversion="1"
       nodesatellites_param="F,0,0,1,0,0,0,1 @ F,0,0,1,0,8.4293898,0,1 @ F,0,0,1,0,15.142248,0,1 @ F,0,0,1,0,0,0,1 @ F,0,0,1,0,0,0,1 @ F,0,0,1,0,17.600599,0,1 @ F,0,0,1,0,0,0,1 @ F,0,0,1,0,19.821334,0,1"
       radius="0"
       unit="px"
       method="auto"
       mode="F"
       chamfer_steps="1"
       flexible="false"
       use_knot_distance="true"
       apply_no_radius="true"
       apply_with_radius="true"
       only_selected="false"
       hide_knots="false" /></defs><sodipodi:namedview
     id="namedview1"
     pagecolor="#ffffff"
     bordercolor="#000000"
     borderopacity="0.25"
     inkscape:showpageshadow="2"
     inkscape:pageopacity="0.0"
     inkscape:pagecheckerboard="0"
     inkscape:deskcolor="#d1d1d1"
     showgrid="false"
     inkscape:zoom="5.6568542"
     inkscape:cx="552.60395"
     inkscape:cy="84.410872"
     inkscape:window-width="1904"
     inkscape:window-height="1032"
     inkscape:window-x="0"
     inkscape:window-y="0"
     inkscape:window-maximized="1"
     inkscape:current-layer="g1"><inkscape:grid
       id="grid21"
       units="px"
       originx="-69.799026"
       originy="-703.67157"
       spacingx="1"
       spacingy="1"
       empcolor="#0099e5"
       empopacity="0.30196078"
       color="#0099e5"
       opacity="0.14901961"
       empspacing="5"
       enabled="true"
       visible="false" /><inkscape:page
       x="0"
       y="0"
       width="765.41907"
       height="197.87212"
       id="page2"
       margin="0"
       bleed="0" /></sodipodi:namedview><g
     inkscape:groupmode="layer"
     inkscape:label="Image"
     id="g1"
     style="display:inline"
     transform="translate(-69.799031,-703.67153)"><path
       style="opacity:1;fill:#000000;fill-opacity:0.795666;stroke-width:0"
       d="m 242.67157,175.33579 46.8207,-0.21186 a 8.527673,8.527673 135.07283 0 0 8.48887,-8.46732 l 0.33342,-47.17895 a 15.002237,15.002237 45.138793 0 0 -15.0352,-15.10822 l -97.35779,0.21635 42,41.875 -24.64948,0.0729 a 17.705209,17.705209 135.00025 0 0 -17.65275,17.65259 l -0.19777,66.64948 h 36.92867 a 20.000709,20.000709 135.25808 0 0 19.99989,-19.82053 z"
       id="path70"
       sodipodi:nodetypes="ccccccccc"
       inkscape:path-effect="#path-effect73"
       inkscape:original-d="m 242.67157,175.33579 55.25,-0.25 0.5,-70.75 -112.5,0.25 42,41.875 -42.25,0.125 -0.25,84.25 h 56.75 z"
       transform="matrix(0.99994011,0.01099067,-0.01088338,0.99853647,371.90436,668.49796)" /><path
       style="opacity:1;fill:#000000;fill-opacity:0.795666;stroke-width:0"
       id="rect74"
       width="45.254833"
       height="124.45079"
       x="305.08374"
       y="750.11145"
       inkscape:path-effect="#path-effect80"
       sodipodi:type="rect"
       d="m 321.23422,750.11145 h 29.10435 v 109.05031 a 15.400483,15.400483 135 0 1 -15.40048,15.40048 H 305.08374 V 766.26193 a 16.150483,16.150483 135 0 1 16.15048,-16.15048 z"
       transform="matrix(1,0,0,1.0099432,375.17918,17.759912)" /><path
       style="opacity:1;fill:#000000;fill-opacity:0.795666;stroke-width:0"
       id="rect75"
       width="45.254833"
       height="124.45079"
       x="358.48071"
       y="750.61145"
       inkscape:path-effect="#path-effect81"
       sodipodi:type="rect"
       d="m 377.1312,750.61145 h 26.60435 v 110.67531 a 13.775483,13.775483 135 0 1 -13.77549,13.77548 H 358.48071 V 769.26193 a 18.650483,18.650483 135 0 1 18.65049,-18.65048 z"
       transform="matrix(1,0,0,1.0142045,376.36483,13.827758)" /><path
       style="opacity:1;fill:#000000;fill-opacity:0.795666;stroke-width:0"
       id="rect76"
       width="45.254833"
       height="124.45079"
       x="415.13763"
       y="750.16949"
       inkscape:path-effect="#path-effect82"
       sodipodi:type="rect"
       d="m 431.28812,750.16949 h 29.10435 V 858.5948 a 16.025483,16.025483 135 0 1 -16.02549,16.02549 l -29.22935,0 V 766.31998 a 16.150483,16.150483 135 0 1 16.15049,-16.15049 z"
       transform="matrix(1,0,0,1.0170455,374.82562,11.72432)" /><path
       style="opacity:1;fill:#000000;fill-opacity:0.795666;stroke-width:0"
       id="rect78"
       width="45.401276"
       height="39.305115"
       x="305.93976"
       y="699.55347"
       ry="0"
       inkscape:path-effect="#path-effect83"
       sodipodi:type="rect"
       d="m 327.92989,699.55347 h 23.41114 l 0,18.31498 a 20.990128,20.990128 135 0 1 -20.99012,20.99013 l -24.41115,0 v -17.31499 a 21.990127,21.990127 135 0 1 21.99013,-21.99012 z"
       transform="translate(376.06306,26.455844)" /><path
       style="opacity:1;fill:#000000;fill-opacity:0.795666;stroke-width:0"
       id="path83"
       width="45.254833"
       height="124.45079"
       x="305.08374"
       y="750.11145"
       inkscape:path-effect="#path-effect86"
       sodipodi:type="rect"
       d="m 321.23422,750.11145 h 29.10435 v 109.05031 a 15.400483,15.400483 135 0 1 -15.40048,15.40048 H 305.08374 V 766.26193 a 16.150483,16.150483 135 0 1 16.15048,-16.15048 z"
       transform="matrix(-0.00524312,-0.81384216,0.99998625,-0.00426713,-493.67914,1153.1032)" /><path
       style="opacity:1;fill:#000000;fill-opacity:0.795666;stroke-width:0"
       id="path84"
       width="45.254833"
       height="124.45079"
       x="358.48071"
       y="750.61145"
       inkscape:path-effect="#path-effect88"
       sodipodi:type="rect"
       d="m 377.1312,750.61145 h 26.60435 v 110.67531 a 13.775483,13.775483 135 0 1 -13.77549,13.77548 H 358.48071 V 769.26193 a 18.650483,18.650483 135 0 1 18.65049,-18.65048 z"
       transform="matrix(-0.00524312,-0.81384216,0.99998625,-0.00426713,-495.2987,1151.6432)" /><path
       style="opacity:1;fill:#000000;fill-opacity:0.795666;stroke-width:0"
       id="path85"
       width="45.254833"
       height="124.45079"
       x="415.13763"
       y="750.16949"
       inkscape:path-effect="#path-effect90"
       sodipodi:type="rect"
       d="m 431.28812,750.16949 h 29.10435 V 858.5948 a 16.025483,16.025483 135 0 1 -16.02549,16.02549 l -29.22935,0 V 766.31998 a 16.150483,16.150483 135 0 1 16.15049,-16.15049 z"
       transform="matrix(-0.00524312,-0.81384216,0.99998625,-0.00426713,-494.91658,1153.1032)" /><path
       style="opacity:1;fill:#e20074;fill-opacity:1;stroke-width:0"
       d="m 242.67157,175.33579 46.8207,-0.21186 a 8.527673,8.527673 135.07283 0 0 8.48887,-8.46732 l 0.33342,-47.17895 a 15.002237,15.002237 45.138793 0 0 -15.0352,-15.10822 l -97.35779,0.21635 42,41.875 -24.64948,0.0729 a 17.705209,17.705209 135.00025 0 0 -17.65275,17.65259 l -0.19777,66.64948 h 40.62766 a 16.268238,16.268238 135.25808 0 0 16.26758,-16.12168 z"
       id="path90"
       sodipodi:nodetypes="ccccccccc"
       inkscape:path-effect="#path-effect92"
       inkscape:original-d="m 242.67157,175.33579 55.25,-0.25 0.5,-70.75 -112.5,0.25 42,41.875 -42.25,0.125 -0.25,84.25 h 56.75 z"
       transform="matrix(-0.99997995,-0.00633281,0.0062974,-0.9943888,425.00089,1005.5876)" /><path
       style="opacity:1;fill:#e20074;fill-opacity:1;stroke-width:0"
       d="m 242.67157,175.33579 46.8207,-0.21186 a 8.527673,8.527673 135.07283 0 0 8.48887,-8.46732 l 0.33342,-47.17895 a 15.002237,15.002237 45.138793 0 0 -15.0352,-15.10822 l -97.35779,0.21635 42,41.875 -24.64948,0.0729 a 17.705209,17.705209 135.00025 0 0 -17.65275,17.65259 l -0.19777,66.64948 h 36.92867 a 20.000709,20.000709 135.25808 0 0 19.99989,-19.82053 z"
       id="path91"
       sodipodi:nodetypes="ccccccccc"
       inkscape:path-effect="#path-effect94"
       inkscape:original-d="m 242.67157,175.33579 55.25,-0.25 0.5,-70.75 -112.5,0.25 42,41.875 -42.25,0.125 -0.25,84.25 h 56.75 z"
       transform="matrix(0.99994011,0.01094458,-0.01088338,0.99434918,-113.09916,597.6419)" /><path
       style="opacity:1;fill:#000000;fill-opacity:0.795666;stroke-width:0"
       id="path94"
       width="45.254833"
       height="124.45079"
       x="305.08374"
       y="750.11145"
       inkscape:path-effect="#path-effect97"
       sodipodi:type="rect"
       d="m 321.23422,750.11145 h 29.10435 v 109.05031 a 15.400483,15.400483 135 0 1 -15.40048,15.40048 H 305.08374 V 766.26193 a 16.150483,16.150483 135 0 1 16.15048,-16.15048 z"
       transform="matrix(1,0,0,1.0085227,85.167391,18.928074)" /><path
       style="opacity:1;fill:#000000;fill-opacity:0.795666;stroke-width:0"
       id="path95"
       width="45.254833"
       height="124.45079"
       x="358.48071"
       y="750.61145"
       inkscape:path-effect="#path-effect99"
       sodipodi:type="rect"
       d="m 377.1312,750.61145 h 26.60435 v 110.67531 a 13.775483,13.775483 135 0 1 -13.77549,13.77548 H 358.48071 V 769.26193 a 18.650483,18.650483 135 0 1 18.65049,-18.65048 z"
       transform="matrix(1,0,0,1.0099432,86.029831,17.305823)" /><path
       style="opacity:1;fill:#000000;fill-opacity:0.795666;stroke-width:0"
       id="path96"
       width="45.254833"
       height="124.45079"
       x="415.13763"
       y="750.16949"
       inkscape:path-effect="#path-effect101"
       sodipodi:type="rect"
       d="m 431.28812,750.16949 h 29.10435 V 858.5948 a 16.025483,16.025483 135 0 1 -16.02549,16.02549 l -29.22935,0 V 766.31998 a 16.150483,16.150483 135 0 1 16.15049,-16.15049 z"
       transform="matrix(1,0,0,1.0142045,84.167391,14.225912)" /></g></svg>
