<?xml version="1.0" encoding="UTF-8" standalone="no"?>
<!-- Created with Inkscape (http://www.inkscape.org/) -->

<svg
   version="1.1"
   id="svg1"
   width="765.41907"
   height="197.87212"
   viewBox="0 0 765.41905 197.87212"
   xml:space="preserve"
   xmlns="http://www.w3.org/2000/svg"
   xmlns:svg="http://www.w3.org/2000/svg"><defs
     id="defs1" /><g
     id="g1"
     style="display:inline"
     transform="translate(-69.799031,-703.67153)"><path
       style="opacity:1;fill:#ebebeb;fill-opacity:0.795666;stroke-width:0"
       d="m 242.67157,175.33579 46.8207,-0.21186 a 8.527673,8.527673 135.07283 0 0 8.48887,-8.46732 l 0.33342,-47.17895 a 15.002237,15.002237 45.138793 0 0 -15.0352,-15.10822 l -97.35779,0.21635 42,41.875 -24.64948,0.0729 a 17.705209,17.705209 135.00025 0 0 -17.65275,17.65259 l -0.19777,66.64948 h 36.92867 a 20.000709,20.000709 135.25808 0 0 19.99989,-19.82053 z"
       id="path70"
       transform="matrix(0.99994011,0.01099067,-0.01088338,0.99853647,371.90436,668.49796)" /><path
       style="opacity:1;fill:#ebebeb;fill-opacity:0.795666;stroke-width:0"
       id="rect74"
       width="45.254833"
       height="124.45079"
       x="305.08374"
       y="750.11145"
       d="m 321.23422,750.11145 h 29.10435 v 109.05031 a 15.400483,15.400483 135 0 1 -15.40048,15.40048 H 305.08374 V 766.26193 a 16.150483,16.150483 135 0 1 16.15048,-16.15048 z"
       transform="matrix(1,0,0,1.0099432,375.17918,17.759912)" /><path
       style="opacity:1;fill:#ebebeb;fill-opacity:0.795666;stroke-width:0"
       id="rect75"
       width="45.254833"
       height="124.45079"
       x="358.48071"
       y="750.61145"
       d="m 377.1312,750.61145 h 26.60435 v 110.67531 a 13.775483,13.775483 135 0 1 -13.77549,13.77548 H 358.48071 V 769.26193 a 18.650483,18.650483 135 0 1 18.65049,-18.65048 z"
       transform="matrix(1,0,0,1.0142045,376.36483,13.827758)" /><path
       style="opacity:1;fill:#ebebeb;fill-opacity:0.795666;stroke-width:0"
       id="rect76"
       width="45.254833"
       height="124.45079"
       x="415.13763"
       y="750.16949"
       d="m 431.28812,750.16949 h 29.10435 V 858.5948 a 16.025483,16.025483 135 0 1 -16.02549,16.02549 l -29.22935,0 V 766.31998 a 16.150483,16.150483 135 0 1 16.15049,-16.15049 z"
       transform="matrix(1,0,0,1.0170455,374.82562,11.72432)" /><path
       style="opacity:1;fill:#ebebeb;fill-opacity:0.795666;stroke-width:0"
       id="rect78"
       width="45.401276"
       height="39.305115"
       x="305.93976"
       y="699.55347"
       ry="0"
       d="m 327.92989,699.55347 h 23.41114 l 0,18.31498 a 20.990128,20.990128 135 0 1 -20.99012,20.99013 l -24.41115,0 v -17.31499 a 21.990127,21.990127 135 0 1 21.99013,-21.99012 z"
       transform="translate(376.06306,26.455844)" /><path
       style="opacity:1;fill:#ebebeb;fill-opacity:0.795666;stroke-width:0"
       id="path83"
       width="45.254833"
       height="124.45079"
       x="305.08374"
       y="750.11145"
       d="m 321.23422,750.11145 h 29.10435 v 109.05031 a 15.400483,15.400483 135 0 1 -15.40048,15.40048 H 305.08374 V 766.26193 a 16.150483,16.150483 135 0 1 16.15048,-16.15048 z"
       transform="matrix(-0.00524312,-0.81384216,0.99998625,-0.00426713,-493.67914,1153.1032)" /><path
       style="opacity:1;fill:#ebebeb;fill-opacity:0.795666;stroke-width:0"
       id="path84"
       width="45.254833"
       height="124.45079"
       x="358.48071"
       y="750.61145"
       d="m 377.1312,750.61145 h 26.60435 v 110.67531 a 13.775483,13.775483 135 0 1 -13.77549,13.77548 H 358.48071 V 769.26193 a 18.650483,18.650483 135 0 1 18.65049,-18.65048 z"
       transform="matrix(-0.00524312,-0.81384216,0.99998625,-0.00426713,-495.2987,1151.6432)" /><path
       style="opacity:1;fill:#ebebeb;fill-opacity:0.795666;stroke-width:0"
       id="path85"
       width="45.254833"
       height="124.45079"
       x="415.13763"
       y="750.16949"
       d="m 431.28812,750.16949 h 29.10435 V 858.5948 a 16.025483,16.025483 135 0 1 -16.02549,16.02549 l -29.22935,0 V 766.31998 a 16.150483,16.150483 135 0 1 16.15049,-16.15049 z"
       transform="matrix(-0.00524312,-0.81384216,0.99998625,-0.00426713,-494.91658,1153.1032)" /><path
       style="opacity:1;fill:#e20074;fill-opacity:1;stroke-width:0"
       d="m 242.67157,175.33579 46.8207,-0.21186 a 8.527673,8.527673 135.07283 0 0 8.48887,-8.46732 l 0.33342,-47.17895 a 15.002237,15.002237 45.138793 0 0 -15.0352,-15.10822 l -97.35779,0.21635 42,41.875 -24.64948,0.0729 a 17.705209,17.705209 135.00025 0 0 -17.65275,17.65259 l -0.19777,66.64948 h 40.62766 a 16.268238,16.268238 135.25808 0 0 16.26758,-16.12168 z"
       id="path90"
       transform="matrix(-0.99997995,-0.00633281,0.0062974,-0.9943888,425.00089,1005.5876)" /><path
       style="opacity:1;fill:#e20074;fill-opacity:1;stroke-width:0"
       d="m 242.67157,175.33579 46.8207,-0.21186 a 8.527673,8.527673 135.07283 0 0 8.48887,-8.46732 l 0.33342,-47.17895 a 15.002237,15.002237 45.138793 0 0 -15.0352,-15.10822 l -97.35779,0.21635 42,41.875 -24.64948,0.0729 a 17.705209,17.705209 135.00025 0 0 -17.65275,17.65259 l -0.19777,66.64948 h 36.92867 a 20.000709,20.000709 135.25808 0 0 19.99989,-19.82053 z"
       id="path91"
       transform="matrix(0.99994011,0.01094458,-0.01088338,0.99434918,-113.09916,597.6419)" /><path
       style="opacity:1;fill:#ebebeb;fill-opacity:0.795666;stroke-width:0"
       id="path94"
       width="45.254833"
       height="124.45079"
       x="305.08374"
       y="750.11145"
       d="m 321.23422,750.11145 h 29.10435 v 109.05031 a 15.400483,15.400483 135 0 1 -15.40048,15.40048 H 305.08374 V 766.26193 a 16.150483,16.150483 135 0 1 16.15048,-16.15048 z"
       transform="matrix(1,0,0,1.0085227,85.167391,18.928074)" /><path
       style="opacity:1;fill:#ebebeb;fill-opacity:0.795666;stroke-width:0"
       id="path95"
       width="45.254833"
       height="124.45079"
       x="358.48071"
       y="750.61145"
       d="m 377.1312,750.61145 h 26.60435 v 110.67531 a 13.775483,13.775483 135 0 1 -13.77549,13.77548 H 358.48071 V 769.26193 a 18.650483,18.650483 135 0 1 18.65049,-18.65048 z"
       transform="matrix(1,0,0,1.0099432,86.029831,17.305823)" /><path
       style="opacity:1;fill:#ebebeb;fill-opacity:0.795666;stroke-width:0"
       id="path96"
       width="45.254833"
       height="124.45079"
       x="415.13763"
       y="750.16949"
       d="m 431.28812,750.16949 h 29.10435 V 858.5948 a 16.025483,16.025483 135 0 1 -16.02549,16.02549 l -29.22935,0 V 766.31998 a 16.150483,16.150483 135 0 1 16.15049,-16.15049 z"
       transform="matrix(1,0,0,1.0142045,84.167391,14.225912)" /></g></svg>
