<svg version="1.2" xmlns="http://www.w3.org/2000/svg" viewBox="0 0 2044 515" width="2044" height="515"><defs><filter x="-50%" y="-50%" width="200%" height="200%" id="f1" ><feDropShadow dx="-2.598076211353316" dy="1.4999999999999998" stdDeviation="0" flood-color="#000000" flood-opacity=".3"/></filter><filter x="-50%" y="-50%" width="200%" height="200%" id="f2" ><feDropShadow dx="-2.598076211353316" dy="1.4999999999999998" stdDeviation="0" flood-color="#000000" flood-opacity=".3"/></filter><filter x="-50%" y="-50%" width="200%" height="200%" id="f3" ><feDropShadow dx="-2.598076211353316" dy="1.4999999999999998" stdDeviation="0" flood-color="#000000" flood-opacity=".3"/></filter><filter x="-50%" y="-50%" width="200%" height="200%" id="f4" ><feDropShadow dx="-2.598076211353316" dy="1.4999999999999998" stdDeviation="0" flood-color="#000000" flood-opacity=".3"/></filter><filter x="-50%" y="-50%" width="200%" height="200%" id="f5" ><feDropShadow dx="-2.598076211353316" dy="1.4999999999999998" stdDeviation="0" flood-color="#000000" flood-opacity=".3"/></filter><filter x="-50%" y="-50%" width="200%" height="200%" id="f6" ><feDropShadow dx="-2.598076211353316" dy="1.4999999999999998" stdDeviation="0" flood-color="#000000" flood-opacity=".3"/></filter><filter x="-50%" y="-50%" width="200%" height="200%" id="f7" ><feDropShadow dx="-2.598076211353316" dy="1.4999999999999998" stdDeviation="0" flood-color="#000000" flood-opacity=".3"/></filter></defs><style>.a{display:none;fill:#1a1825}.b{display:none;fill:#fff}.c{filter:url(#f1);fill:#1a1825}.d{filter:url(#f2);fill:#de5ba7}.e{filter:url(#f3);fill:#de5ba7}.f{filter:url(#f4);fill:#de5ba7}.g{filter:url(#f5);fill:#1a1825}.h{opacity:.97;filter:url(#f6);fill:#1a1825}.i{opacity:.97;filter:url(#f7);fill:#de5ba7}.j{display:none;fill:#de5ba7}.k{opacity:.97;display:none;fill:#fff}</style><path fill-rule="evenodd" class="a" d="m1363 146v870h-1140v-870z"/><path fill-rule="evenodd" class="b" d="m1356-689v870h-1140v-870z"/><path class="c" d="m142.5 43.5l205.7 118.8 100.5 105.2c-11.5 25.1-41 75.1-137.1 44.8 13.1 41.9 54 153.9 58.8 168.8l-46.5-0.3-30.3-92.3h-25.7c1.2-32.6-12.8-70.7-52.5-84.5 29.6 24.1 55.5 58 16.2 118.4 57 6 64.4 33 74 59.1l-159.2-0.7-59.5-63.7c4.8-81.6 27.2-172.7 167.2-165.9-2.3-23.9 3.5-58 51.8-73.2l-150-90.9c-6.7-6.4-13.2-29-13.4-43.6zm192.3 155.6c-2.8 9.9-9.1 39 9.8 55.6 10.2 9.8 28.9 14.3 52.2 9.9z"/><path class="d" d="m383.2 187.9l-27.6-32.1-180.5-118.9c22.3 0.1 32-5.1 50.8 4.6l137.9 96.7z"/><path class="e" d="m413.7 220.1l-22.2-24 58.6-23.2z"/><path fill-rule="evenodd" class="f" d="m71.3 480.6c15.9 0 28.8-12.3 28.8-27.6 0-15.3-12.9-27.6-28.8-27.6-15.9 0-28.8 12.3-28.8 27.6 0 15.3 12.9 27.6 28.8 27.6z"/><path class="g" d="m350 404.9c8.2 24.7 17.4 50 26.5 76l46.6 0.6-18.9-52.6z"/><path class="h" d="m569.5 480.3v-149.2c0-10 4.8-17 17.8-17h52.9v-46.7h-60.3c-38.9 0-58.9 24.1-58.9 57.8v155.1zm239.9-74.4c-8.5 17.8-26.3 31.1-51.8 31.1-33.3 0-52.2-22.2-57.8-47.7h159.6c0.4-5.2 1.1-10.8 1.1-16 0-55.1-32.6-110.3-102.9-110.3-74.4 0-107 55.2-107 110.3 0 55.6 32.6 110.4 107 110.4 59.2 0 92.5-35.2 102.9-77.8zm-106.6-59.2c8.1-20.8 26.3-36.7 54.4-36.7 25.6 0 43 15.6 50.4 36.7zm258.8-82.2c-51.9 0-81.1 37.7-81.1 100.7v115.1h48.5v-128.1c0-28.1 15.9-41.1 32.6-41.1 16.3 0 32.2 13 32.2 41.1v128.1h48.1v-128.1c0-28.1 16.3-41.1 32.6-41.1 16.3 0 32.2 13 32.2 41.1v128.1h48.5v-115.1c0-63-28.9-100.7-80.7-100.7-23.7 0-42.6 7.8-56.3 22.9-13.3-15.1-32.9-22.9-56.6-22.9zm255.8 215.8v-149.2c0-10 4.8-17 17.8-17h52.9v-46.7h-60.3c-38.9 0-58.9 24.1-58.9 57.8v155.1zm88.5 0h48.5v-212.9h-48.5zm156.2-216.2c-59.2 0-93.3 38.2-93.3 101.1v115.1h48.5v-122.5c0-28.1 18.5-46.7 44.8-46.7 26.3 0 44.8 18.6 44.8 46.7v122.5h48.5v-115.1c0-62.9-34-101.1-93.3-101.1zm386.9 100.4c0-70.4-48.5-100.4-98.4-100.4-53 0-107.4 37.4-107.8 109.6-0.4 55.5 34.4 109.6 104.4 109.6 18.2 0 37.8-4.1 53.3-14.4v11.8h48.5zm-157.7 8.9c0-40.4 29.3-61.8 58.1-61.5 27.4 0.4 54.1 20.4 53.4 62.2-0.4 31.1-17.1 62.2-50.4 62.2-41.1 0-61.1-31.8-61.1-62.9zm173.7 107h48.5v-213.3h-48.5z"/><path fill-rule="evenodd" class="i" d="m1600 412c-14.9 0-27-12.7-27-28.5 0-15.8 12.1-28.5 27-28.5 14.9 0 26.9 12.7 26.9 28.5 0 15.8-12 28.5-26.9 28.5z"/><path class="a" d="m655.5 272.5l205.7 118.8 100.5 105.2c-11.5 25.1-41 75.1-137.1 44.8 13.1 41.9 54 153.9 58.8 168.8l-46.5-0.3-30.3-92.3h-25.7c1.2-32.6-12.8-70.7-52.5-84.5 29.6 24.1 55.5 58 16.2 118.4 57 6 64.4 33 74 59.1l-159.2-0.7-59.5-63.7c4.8-81.6 27.2-172.7 167.2-165.9-2.3-23.9 3.5-58 51.8-73.2l-150-90.9c-6.7-6.4-13.2-29-13.4-43.6zm192.3 155.6c-2.8 9.9-9.1 39 9.8 55.6 10.2 9.8 28.9 14.3 52.2 9.9z"/><path class="b" d="m655.5 272.5l205.7 118.8 100.5 105.2c-11.5 25.1-41 75.1-137.1 44.8 13.1 41.9 54 153.9 58.8 168.8l-46.5-0.3-30.3-92.3h-25.7c1.2-32.6-12.8-70.7-52.5-84.5 29.6 24.1 55.5 58 16.2 118.4 57 6 64.4 33 74 59.1l-159.2-0.7-59.5-63.7c4.8-81.6 27.2-172.7 167.2-165.9-2.3-23.9 3.5-58 51.8-73.2l-150-90.9c-6.7-6.4-13.2-29-13.4-43.6zm192.3 155.6c-2.8 9.9-9.1 39 9.8 55.6 10.2 9.8 28.9 14.3 52.2 9.9z"/><path class="j" d="m896.2 416.9l-27.6-32.1-180.5-118.9c22.3 0.1 32-5.1 50.8 4.6l137.9 96.7z"/><path class="j" d="m926.7 449.1l-22.2-24 58.6-23.2z"/><path fill-rule="evenodd" class="j" d="m584.3 709.6c15.9 0 28.8-12.3 28.8-27.6 0-15.3-12.9-27.6-28.8-27.6-15.9 0-28.8 12.3-28.8 27.6 0 15.3 12.9 27.6 28.8 27.6z"/><path class="b" d="m863 633.9c8.2 24.7 17.4 50 26.5 76l46.6 0.6-18.9-52.6z"/><path class="k" d="m571.3 786v-40.3c0-2.7 1.3-4.6 4.8-4.6h14.3v-12.6h-16.3c-10.5 0-15.9 6.5-15.9 15.6v41.9zm64.8-20.1c-2.3 4.8-7.1 8.4-14 8.4-9 0-14.1-6-15.6-12.9h43.1c0.1-1.4 0.3-2.9 0.3-4.3 0-14.9-8.8-29.8-27.8-29.8-20.1 0-28.9 14.9-28.9 29.8 0 15 8.8 29.8 28.9 29.8 16 0 25-9.5 27.8-21zm-28.8-16c2.2-5.6 7.1-9.9 14.7-9.9 6.9 0 11.6 4.2 13.6 9.9zm69.9-22.2c-14 0-21.9 10.2-21.9 27.2v31.1h13.1v-34.6c0-7.6 4.3-11.1 8.8-11.1 4.4 0 8.7 3.5 8.7 11.1v34.6h13v-34.6c0-7.6 4.4-11.1 8.8-11.1 4.4 0 8.7 3.5 8.7 11.1v34.6h13.1v-31.1c0-17-7.8-27.2-21.8-27.2-6.4 0-11.5 2.1-15.2 6.2-3.6-4.1-8.9-6.2-15.3-6.2zm69.1 58.3v-40.3c0-2.7 1.3-4.6 4.8-4.6h14.3v-12.6h-16.3c-10.5 0-15.9 6.5-15.9 15.6v41.9zm23.9 0h13.1v-57.5h-13.1zm42.2-58.4c-16 0-25.2 10.3-25.2 27.3v31.1h13.1v-33.1c0-7.6 5-12.6 12.1-12.6 7.1 0 12.1 5 12.1 12.6v33.1h13.1v-31.1c0-17-9.2-27.3-25.2-27.3zm29.8 52.2c0 4.3 2.8 7.3 7 7.3 4.2 0 7.1-3 7.1-7.3 0-4.5-2.9-7.4-7.1-7.4-4.2 0-7 2.9-7 7.4zm74.7-25.1c0-19-13.1-27.1-26.6-27.1-14.3 0-29 10.1-29.1 29.6-0.1 15 9.3 29.6 28.2 29.6 4.9 0 10.2-1.1 14.4-3.9v3.2h13.1zm-42.6 2.4c0-10.9 7.9-16.7 15.7-16.6 7.4 0.1 14.6 5.5 14.4 16.8-0.1 8.4-4.6 16.8-13.6 16.8-11.1 0-16.5-8.6-16.5-17zm46.9 28.9h13.1v-57.6h-13.1z"/></svg>