<svg version="1.2" xmlns="http://www.w3.org/2000/svg" viewBox="0 0 220 217" width="220" height="217"><style>.a{fill:#e20074}</style><path class="a" d="m135.6 137.1l-46.8-0.1q-1.7 0-3.3 0.6-1.5 0.7-2.7 1.8-1.2 1.2-1.9 2.8-0.6 1.5-0.6 3.2l-0.7 46.9c0 1.9 0.4 3.9 1.1 5.7 0.7 1.8 1.8 3.5 3.2 4.9 1.4 1.4 3.1 2.5 4.9 3.3 1.8 0.8 3.8 1.2 5.8 1.2l97.3 0.4-41.7-41.9 24.6 0.1c2.3 0 4.6-0.5 6.7-1.3 2.2-0.9 4.1-2.2 5.8-3.8 1.6-1.6 2.9-3.5 3.8-5.7 1-2.1 1.4-4.4 1.4-6.7l0.7-66.2-40.6-0.3c-2.2 0-4.3 0.4-6.2 1.2-2 0.8-3.8 2-5.3 3.4-1.5 1.5-2.7 3.3-3.6 5.2-0.8 2-1.3 4-1.3 6.2z"/><path class="a" d="m79.8 82.1l46.8 0.3q1.7 0 3.3-0.7 1.5-0.6 2.7-1.8 1.2-1.1 1.9-2.7 0.7-1.5 0.7-3.2l0.9-46.9c0-1.9-0.4-3.9-1.1-5.7-0.7-1.8-1.8-3.5-3.2-4.9-1.4-1.4-3-2.6-4.9-3.3-1.8-0.8-3.7-1.2-5.7-1.2l-97.3-0.9 41.5 42.1-24.6-0.2c-2.4 0-4.7 0.4-6.8 1.3-2.1 0.8-4.1 2.1-5.8 3.7-1.6 1.6-2.9 3.5-3.8 5.7-1 2.1-1.4 4.3-1.5 6.7l-0.9 66.2 36.9 0.4c2.6 0 5.2-0.5 7.6-1.4 2.5-1 4.7-2.4 6.5-4.2 1.9-1.8 3.4-4 4.5-6.3 1-2.4 1.6-5 1.6-7.6z"/></svg>