<svg xmlns="http://www.w3.org/2000/svg" width="240" height="240" style="width:100%;height:100%;transform:translate3d(0,0,0);content-visibility:visible" viewBox="0 0 240 240"><defs><clipPath id="a"><path d="M0 0h240v240H0z"/></clipPath><clipPath id="d"><path d="M0 0h240v240H0z"/></clipPath><clipPath id="c"><path d="M0 0h240v240H0z"/></clipPath><clipPath id="b"><path d="M0 0h240v240H0z"/></clipPath></defs><g clip-path="url(#a)"><g class="5" clip-path="url(#b)" style="display:none"><path class="primary" style="display:none"/><path fill="none" class="primary" style="display:none"/><path fill="none" class="primary" style="display:none"/><path fill="none" class="primary" style="display:none"/><path fill="none" class="primary" style="display:none"/><path fill="none" class="primary" style="display:none"/><g style="display:none"><path class="primary"/><path fill="none" class="primary"/></g><path fill="none" class="primary" style="display:none"/><g style="display:none"><path class="primary"/><path fill="none" class="primary"/></g><path fill="none" class="primary" style="display:none"/></g><g fill="none" stroke="#121331" stroke-linecap="round" stroke-linejoin="round" stroke-width="15" clip-path="url(#c)" style="display:block"><path d="M0 27.5c15.188 0 27.5-12.312 27.5-27.5S15.188-27.5 0-27.5-27.5-15.188-27.5 0-15.188 27.5 0 27.5" class="primary" style="display:block" transform="translate(55 120)"/><path d="M0 27.5c15.188 0 27.5-12.312 27.5-27.5S15.188-27.5 0-27.5-27.5-15.188-27.5 0-15.188 27.5 0 27.5" class="primary" style="display:none" transform="translate(175 55)"/><path d="M0 27.5c15.188 0 27.5-12.312 27.5-27.5S15.188-27.5 0-27.5-27.5-15.188-27.5 0-15.188 27.5 0 27.5" class="primary" style="display:none" transform="translate(175.002 185)"/><path d="M0 0" class="primary" style="display:block" transform="translate(144.079 133.998)"/><path d="M0 0" class="primary" style="display:block" transform="translate(145.079 102.498)"/><path d="M-25.683-9.852A27.4 27.4 0 0 0-27.5 0c0 15.188 12.312 27.5 27.5 27.5q0 0 0 0c15.188 0 27.5-12.312 27.5-27.5S15.188-27.5 0-27.5c-11.716 0-21.721 7.326-25.683 17.648" class="primary" style="display:block" transform="translate(175.002 185)"/><path d="m-36.107 13.485 72.214 37.763" class="primary" style="display:block" transform="translate(115.079 119.998)"/><path d="M-23.823 13.747C-19.068 21.968-10.18 27.5 0 27.5q0 0 0 0c15.188 0 27.5-12.312 27.5-27.5S15.188-27.5 0-27.5-27.5-15.188-27.5 0a27.37 27.37 0 0 0 3.677 13.747" class="primary" style="display:block" transform="translate(175 55)"/><path d="m-36.107-13.485 72.214-37.763" class="primary" style="display:block" transform="translate(115.079 119.998)"/></g><g fill="none" clip-path="url(#d)" style="display:none"><path class="primary" style="display:none"/><path class="primary" style="display:none"/><path class="primary" style="display:none"/><path class="primary" style="display:none"/><path class="primary" style="display:none"/></g></g></svg>