<svg xmlns="http://www.w3.org/2000/svg" width="500" height="500" style="width:100%;height:100%;transform:translate3d(0,0,0);content-visibility:visible" viewBox="0 0 500 500"><defs><clipPath id="a"><path d="M0 0h500v500H0z"/></clipPath><clipPath id="d"><path d="M0 0h500v500H0z"/></clipPath><clipPath id="f"><path fill="#fff"/></clipPath><clipPath id="e"><path fill="#fff"/></clipPath><clipPath id="c"><path d="M0 0h500v500H0z"/></clipPath><clipPath id="b"><path d="M0 0h500v500H0z"/></clipPath></defs><g clip-path="url(#a)"><g clip-path="url(#b)" style="display:none"><g class="primary design" style="display:none"><path fill="none" class="primary"/></g><g class="primary design" style="display:none"><path fill="none" class="primary"/></g><g class="primary design" style="display:none"><path fill="none" class="primary"/></g><g class="primary design" style="display:none"><path fill="none" class="primary"/></g><g class="primary design" style="display:none"><path fill="none" class="primary"/></g><g class="primary design" style="display:none"><path class="primary"/></g><g class="primary design" style="display:none"><path class="primary"/></g></g><g clip-path="url(#c)" style="display:block"><g class="primary design" style="display:none"><path fill="none" class="primary"/></g><g class="primary design" style="display:none"><path fill="none" class="primary"/></g><g class="primary design" style="display:none"><path fill="none" class="primary"/></g><g class="primary design" style="display:none"><path fill="none" class="primary"/></g><g class="primary design" style="display:none"><path fill="none" class="primary"/></g><g class="primary design" style="display:block"><path fill="#121331" d="M429.664 83.916a15.655 15.655 0 0 0-15.691.07c-51.467 30.133-103.978 14.76-159.573-1.513-59.519-17.423-121.063-35.439-184.179 1.513a15.65 15.65 0 0 0-7.743 13.506v324.387c0 8.643 7.006 15.649 15.65 15.649s15.65-7.006 15.65-15.649v-94.848c48.994-24.399 99.02-9.757 151.829 5.7 33.973 9.945 68.598 20.081 103.807 20.081 26.475 0 53.283-5.736 80.373-21.595a15.648 15.648 0 0 0 7.743-13.505V97.492a15.649 15.649 0 0 0-7.866-13.576zm-23.435 224.482c-48.991 24.395-99.02 9.752-151.829-5.706-33.973-9.945-68.597-20.081-103.806-20.081-18.775 0-37.726 2.887-56.816 10.221V106.806c48.991-24.396 99.02-9.752 151.829 5.706 52.089 15.248 105.733 30.946 160.622 9.86v186.026z" class="primary"/></g><g class="primary design" style="display:none"><path class="primary"/></g></g><g clip-path="url(#d)" style="display:none"><g class="primary design" style="display:none"><path fill="none" class="primary"/></g><g class="primary design" clip-path="url(#e)" style="display:none"><path fill="none" class="primary"/></g><g class="primary design" clip-path="url(#f)" style="display:none"><path fill="none" class="primary"/></g><g class="primary design" style="display:none"><path fill="none" class="primary"/></g><g class="primary design" style="display:none"><path class="primary"/><path fill="none" class="primary"/></g><g class="primary design" style="display:none"><path class="primary"/></g></g></g></svg>