<svg xmlns="http://www.w3.org/2000/svg" width="500" height="500" style="width:100%;height:100%;transform:translate3d(0,0,0);content-visibility:visible" viewBox="0 0 500 500"><defs><clipPath id="a"><path d="M0 0h500v500H0z"/></clipPath><clipPath id="d"><path d="M0 0h500v500H0z"/></clipPath><clipPath id="c"><path d="M0 0h500v500H0z"/></clipPath><clipPath id="b"><path d="M0 0h500v500H0z"/></clipPath></defs><g clip-path="url(#a)"><g clip-path="url(#b)" style="display:none"><g class="primary design" style="display:none"><path class="primary"/></g><g class="primary design" style="display:none"><path fill="none" class="primary"/></g><g class="primary design" style="display:none"><path fill="none" class="primary"/></g><g class="primary design" style="display:none"><path fill="none" class="primary"/></g><g class="primary design" style="display:none"><path fill="none" class="primary"/></g><g class="primary design" style="display:none"><path fill="none" class="primary"/></g><g class="primary design" style="display:none"><path fill="none" class="primary"/></g><g class="primary design" style="display:none"><path fill="none" class="primary"/></g><g class="primary design" style="display:none"><path class="primary"/><path class="primary"/><path class="primary"/><path class="primary"/></g></g><g clip-path="url(#c)" style="display:block"><g fill="#121331" class="primary design" style="display:block"><path d="M390.205 232.541c-19.65-16.3-42.281-29.056-67.284-37.921-23.221-8.195-47.753-12.351-72.917-12.351s-49.697 4.155-72.938 12.358c-24.983 8.857-47.614 21.614-67.263 37.914-6.652 5.519-7.572 15.385-2.053 22.037a15.619 15.619 0 0 0 12.054 5.659c3.521 0 7.061-1.183 9.983-3.606 16.808-13.943 36.234-24.878 57.717-32.495 19.865-7.011 40.894-10.567 62.5-10.567s42.634 3.555 62.479 10.559c21.503 7.624 40.928 18.56 57.738 32.504 6.652 5.517 16.518 4.597 22.037-2.054 5.519-6.652 4.599-16.518-2.053-22.037z" class="primary"/><path d="M452.745 156.116c-19.794-16.531-41.926-30.629-65.787-41.903-41.796-20.216-89.154-30.903-136.954-30.903-47.8 0-95.158 10.687-136.954 30.903-23.86 11.273-45.994 25.371-65.789 41.903-6.634 5.54-7.52 15.409-1.979 22.043a15.617 15.617 0 0 0 12.021 5.619c3.537 0 7.095-1.194 10.022-3.639 17.771-14.841 37.673-27.509 59.152-37.652l.136-.065c37.589-18.194 80.257-27.812 123.391-27.812s85.801 9.618 123.39 27.812l.136.065c21.48 10.144 41.38 22.811 59.15 37.652 6.634 5.541 16.502 4.653 22.044-1.98 5.54-6.634 4.655-16.502-1.979-22.043zM327.637 308.945c-21.79-17.874-49.361-27.717-77.633-27.717s-55.842 9.843-77.633 27.717c-6.683 5.481-7.657 15.342-2.176 22.025 5.482 6.684 15.342 7.655 22.025 2.175 16.444-13.488 36.426-20.617 57.784-20.617 21.358 0 41.341 7.129 57.784 20.617a15.582 15.582 0 0 0 9.916 3.551 15.62 15.62 0 0 0 12.109-5.725c5.481-6.683 4.508-16.545-2.176-22.026zm-63.269 60.067c-1.241-.834-2.91-1.668-4.375-2.299-1.668-.834-3.336-1.241-4.984-1.668a27.606 27.606 0 0 0-10.01 0c-1.668.427-3.337.834-5.005 1.668-1.445.631-3.113 1.465-4.374 2.299-1.445 1.038-2.909 2.075-3.947 3.336-1.261 1.038-2.299 2.502-3.337 3.947-.834 1.261-1.668 2.93-2.299 4.375-.834 1.668-1.241 3.337-1.668 5.005-.203 1.668-.407 3.336-.407 5.004 0 3.54.63 6.877 2.075 9.99 1.261 3.133 3.134 6.042 5.636 8.341 2.279 2.502 5.208 4.374 8.321 5.839 3.133 1.241 6.47 1.872 10.01 1.872s6.876-.631 9.989-1.872c3.133-1.465 6.043-3.337 8.342-5.839 2.503-2.299 4.374-5.208 5.615-8.341 1.465-3.113 2.096-6.45 2.096-9.99 0-6.877-2.706-13.55-7.711-18.331-1.038-1.261-2.502-2.298-3.967-3.336z" class="primary"/></g><g class="primary design" style="display:none"><path class="primary"/><path class="primary"/><path class="primary"/><path class="primary"/></g><g class="primary design" style="display:none"><path class="primary"/></g><g class="primary design" style="display:none"><path fill="none" class="primary"/></g><g class="primary design" style="display:none"><path fill="none" class="primary"/></g><g class="primary design" style="display:none"><path fill="none" class="primary"/></g><g class="primary design" style="display:none"><path fill="none" class="primary"/></g><g class="primary design" style="display:none"><path fill="none" class="primary"/></g><g class="primary design" style="display:none"><path fill="none" class="primary"/></g></g><g clip-path="url(#d)" style="display:none"><g class="primary design" style="display:none"><path class="primary"/><path class="primary"/><path class="primary"/><path class="primary"/></g><g class="primary design" style="display:none"><path class="primary"/></g><g class="primary design" style="display:none"><path fill="none" class="primary"/></g><g class="primary design" style="display:none"><path fill="none" class="primary"/></g><g class="primary design" style="display:none"><path fill="none" class="primary"/></g></g></g></svg>