<svg xmlns="http://www.w3.org/2000/svg" width="500" height="500" style="width:100%;height:100%;transform:translate3d(0,0,0);content-visibility:visible" viewBox="0 0 500 500"><defs><clipPath id="a"><path d="M0 0h500v500H0z"/></clipPath><clipPath id="c"><path d="M0 0h500v500H0z"/></clipPath><clipPath id="b"><path d="M0 0h500v500H0z"/></clipPath></defs><g clip-path="url(#a)"><g clip-path="url(#b)" style="display:block"><g fill="none" class="primary design" style="display:none"><path class="primary"/><path class="primary"/></g><g fill="#121331" class="primary design" style="display:block"><path d="M338.539 458.359H161.457c-31.604 0-57.317-25.713-57.317-57.317V98.96c0-31.604 25.713-57.317 57.317-57.317h177.082c31.604 0 57.317 25.713 57.317 57.317v302.082c0 31.604-25.713 57.317-57.317 57.317zM161.457 72.943c-14.346 0-26.017 11.671-26.017 26.017v302.082c0 14.346 11.671 26.017 26.017 26.017h177.082c14.346 0 26.017-11.671 26.017-26.017V98.96c0-14.346-11.671-26.017-26.017-26.017H161.457z" class="primary"/><path d="M270.831 395.857h-41.666c-8.644 0-15.651-7.007-15.651-15.65s7.007-15.65 15.651-15.65h41.666c8.644 0 15.651 7.007 15.651 15.65s-7.007 15.65-15.651 15.65z" class="primary"/></g><g class="primary design" style="display:none"><path class="primary"/><path class="primary"/></g></g><g clip-path="url(#c)" style="display:none"><g class="primary design" style="display:none"><path class="primary"/><path fill="none" class="primary"/><path fill="none" class="primary"/></g><g fill="none" class="primary design" style="display:none"><path class="primary"/><path class="primary"/></g><g class="primary design" style="display:none"><path class="primary"/><path class="primary"/></g></g></g></svg>