<svg xmlns="http://www.w3.org/2000/svg" width="500" height="500" style="width:100%;height:100%;transform:translate3d(0,0,0);content-visibility:visible" viewBox="0 0 500 500"><defs><clipPath id="a"><path d="M0 0h500v500H0z"/></clipPath><clipPath id="e"><path d="M0 0h500v500H0z"/></clipPath><clipPath id="d"><path d="M0 0h500v500H0z"/></clipPath><clipPath id="c"><path d="M0 0h500v500H0z"/></clipPath><clipPath id="b"><path d="M0 0h500v500H0z"/></clipPath></defs><g clip-path="url(#a)"><g clip-path="url(#b)" style="display:none"><g class="primary design" style="display:none"><path class="primary"/></g><g fill="none" class="primary design" style="display:none"><path class="primary"/><path class="primary"/></g><g class="primary design" style="display:none"><path class="primary"/><path class="primary"/></g><g class="primary design" style="display:none"><path class="primary"/><path class="primary"/></g></g><g clip-path="url(#c)" style="display:none"><g class="primary design" style="display:none"><path fill="none" class="primary"/><path class="primary"/><path fill="none" class="primary"/></g><g class="primary design" style="display:none"><path class="primary"/><path class="primary"/></g><g class="primary design" style="display:none"><path class="primary"/><path class="primary"/></g></g><g clip-path="url(#d)" style="display:block"><g class="primary design" style="display:none"><path class="primary"/></g><g fill="none" class="primary design" style="display:none"><path class="primary"/><path class="primary"/></g><g class="primary design" style="display:block"><path fill="#121331" d="M296.879 395.862h-93.751c-20.117 0-36.483-16.367-36.483-36.484v-39.633c0-7.691-3.397-14.888-9.319-19.745-33.798-27.721-53.181-68.725-53.181-112.497 0-41.67 17.905-81.452 49.125-109.143 31.185-27.66 72.99-40.647 114.713-35.633 30.625 3.682 60.03 17.674 82.801 39.403 22.822 21.779 38.123 50.522 43.084 80.935 8.514 52.203-10.455 103.256-50.741 136.568-6.206 5.131-9.764 12.473-9.764 20.144v39.601c0 20.117-16.367 36.484-36.484 36.484zM249.848 72.934c-28.062 0-54.56 9.995-75.809 28.842-24.527 21.755-38.593 53.002-38.593 85.727 0 34.361 15.209 66.544 41.73 88.296 13.199 10.826 20.77 26.844 20.77 43.946v39.633a5.189 5.189 0 0 0 5.182 5.184h93.751a5.19 5.19 0 0 0 5.183-5.184v-39.601c0-17.035 7.698-33.168 21.12-44.266 31.62-26.146 46.495-66.302 39.793-107.407-7.946-48.72-49.468-88.379-98.729-94.301a120.588 120.588 0 0 0-14.398-.869zm57.447 385.428H192.711c-8.644 0-15.65-7.007-15.65-15.65s7.006-15.65 15.65-15.65h114.584c8.644 0 15.65 7.007 15.65 15.65s-7.006 15.65-15.65 15.65z" class="primary"/></g><g class="primary design" style="display:none"><path class="primary"/><path class="primary"/></g></g><g clip-path="url(#e)" style="display:none"><g class="primary design" style="display:none"><path class="primary"/></g><g class="primary design" style="display:none"><path fill="none" class="primary"/></g><g class="primary design" style="display:none"><path fill="none" class="primary"/></g><g class="primary design" style="display:none"><path class="primary"/><path class="primary"/></g><g class="primary design" style="display:none"><path fill="none" class="primary"/></g></g></g></svg>