<svg xmlns="http://www.w3.org/2000/svg" width="500" height="500" style="width:100%;height:100%;transform:translate3d(0,0,0);content-visibility:visible" viewBox="0 0 500 500"><defs><clipPath id="a"><path d="M0 0h500v500H0z"/></clipPath><clipPath id="c"><path d="M0 0h500v500H0z"/></clipPath><clipPath id="b"><path d="M0 0h500v500H0z"/></clipPath></defs><g clip-path="url(#a)"><g clip-path="url(#b)" style="display:block"><g class="primary design" style="display:none"><path fill="none" class="primary"/></g><g fill="none" class="primary design" style="display:none"><path class="primary"/><path class="primary"/><path class="primary"/></g><g class="primary design" style="display:none"><path fill="none" class="primary"/></g><g class="primary design" style="display:none"><path class="primary"/><path fill="none" class="primary"/></g><g class="primary design" style="display:none"><path class="primary"/><path fill="none" class="primary"/></g><g fill="#121331" class="primary design" style="display:block"><path d="M421.879 437.529H78.128c-20.117 0-36.485-16.367-36.485-36.484V171.878c0-20.117 16.368-36.484 36.485-36.484h52.18l16.362-38.178a57.252 57.252 0 0 1 52.683-34.739h104.62c24.161 0 45.853 15.288 53.978 38.04l12.457 34.877h51.471c20.117 0 36.484 16.367 36.484 36.484v229.167c0 20.117-16.367 36.484-36.484 36.484zM78.128 166.694a5.19 5.19 0 0 0-5.184 5.184v229.167a5.19 5.19 0 0 0 5.184 5.184h343.751a5.19 5.19 0 0 0 5.183-5.184V171.878a5.19 5.19 0 0 0-5.183-5.184h-62.501a15.65 15.65 0 0 1-14.738-10.386l-16.166-45.264c-3.688-10.328-13.534-17.267-24.501-17.267h-104.62a25.985 25.985 0 0 0-23.913 15.768l-20.428 47.664a15.65 15.65 0 0 1-14.384 9.485h-62.5z" class="primary"/><path d="M250.003 375.028c-51.708 0-93.776-42.067-93.776-93.775 0-51.708 42.068-93.775 93.776-93.775s93.776 42.067 93.776 93.775c0 51.708-42.068 93.775-93.776 93.775zm0-156.25c-34.449 0-62.475 28.026-62.475 62.475s28.026 62.475 62.475 62.475 62.475-28.026 62.475-62.475-28.026-62.475-62.475-62.475zM375 228.832c-.67 0-1.34-.029-2.01-.099a18.637 18.637 0 0 1-1.99-.301c-.65-.13-1.31-.299-1.95-.489-.64-.19-1.27-.42-1.89-.68-.61-.25-1.22-.541-1.81-.851-.59-.32-1.17-.659-1.73-1.029-.551-.37-1.1-.781-1.61-1.201-.53-.42-1.03-.88-1.5-1.35-.479-.47-.93-.98-1.361-1.5-.42-.52-.819-1.059-1.189-1.619-.37-.55-.719-1.13-1.03-1.72-.31-.59-.6-1.2-.861-1.82a21.03 21.03 0 0 1-.67-1.881 23.015 23.015 0 0 1-.5-1.949c-.13-.66-.229-1.331-.299-1.991-.06-.67-.1-1.35-.1-2.02 0-.67.04-1.339.1-2.009.07-.67.169-1.341.299-1.991.141-.65.301-1.309.5-1.949.19-.64.42-1.27.67-1.89.261-.61.551-1.221.861-1.811.311-.59.66-1.17 1.03-1.73.37-.55.769-1.1 1.189-1.62.431-.52.882-1.019 1.361-1.489.47-.48.97-.93 1.5-1.36a20.2 20.2 0 0 1 3.34-2.22c.59-.31 1.2-.6 1.81-.86.62-.25 1.25-.48 1.89-.67.64-.2 1.3-.36 1.95-.49.649-.14 1.319-.24 1.99-.3 1.329-.14 2.69-.14 4.03 0 .66.06 1.33.16 1.99.3a21.01 21.01 0 0 1 3.83 1.16c.62.26 1.229.55 1.82.86.59.31 1.17.659 1.72 1.029.56.37 1.11.771 1.62 1.191.52.43 1.03.88 1.5 1.36a20.271 20.271 0 0 1 2.55 3.109c.37.56.71 1.14 1.03 1.73.31.59.6 1.201.85 1.811.26.62.49 1.25.679 1.89.2.64.361 1.299.491 1.949.13.65.239 1.321.299 1.991.07.67.101 1.339.101 2.009 0 .67-.031 1.35-.101 2.02-.06.66-.169 1.331-.299 1.991-.13.65-.291 1.309-.491 1.949-.189.63-.419 1.271-.679 1.881-.25.62-.54 1.23-.85 1.82-.32.59-.66 1.17-1.03 1.72-.37.56-.769 1.099-1.2 1.619a19.237 19.237 0 0 1-2.85 2.85c-.51.42-1.06.831-1.62 1.201-.55.37-1.13.709-1.72 1.029-.591.31-1.2.601-1.82.851-.61.26-1.25.49-1.88.68-.641.19-1.3.359-1.95.489-.66.13-1.33.241-1.99.301-.67.07-1.35.099-2.02.099z" class="primary"/></g><g class="primary design" style="display:none"><path class="primary"/><path class="primary"/><path class="primary"/></g></g><g clip-path="url(#c)" style="display:none"><g fill="none" class="primary design" style="display:none"><path class="primary"/><path class="primary"/></g><g class="primary design" style="display:none"><path fill="none" class="primary"/></g><g class="primary design" style="display:none"><path class="primary"/><path class="primary"/><path class="primary"/></g></g></g></svg>