<svg xmlns="http://www.w3.org/2000/svg" width="500" height="500" style="width:100%;height:100%;transform:translate3d(0,0,0);content-visibility:visible" viewBox="0 0 500 500"><defs><clipPath id="a"><path d="M0 0h500v500H0z"/></clipPath><clipPath id="c"><path d="M0 0h500v500H0z"/></clipPath><clipPath id="b"><path d="M0 0h500v500H0z"/></clipPath></defs><g clip-path="url(#a)"><g clip-path="url(#b)" style="display:block"><g fill="none" class="primary design" style="display:none"><path class="primary"/><path class="primary"/></g><g class="primary design" style="display:block"><path fill="#121331" d="M425.794 218.875c-10.93-13.332-27.086-20.977-44.325-20.977H305.15l16.734-62.154c4.741-17.611 1.098-36.013-9.996-50.489-11.094-14.476-27.917-22.778-46.155-22.778h-.106a15.65 15.65 0 0 0-12.867 6.742l-89.083 128.674H78.128c-8.644 0-15.65 7.007-15.65 15.65v208.336c0 8.643 7.006 15.65 15.65 15.65h93.749c.588 0 1.167-.039 1.739-.102.572.063 1.15.102 1.738.102h181.12c27.228 0 50.865-19.379 56.203-46.078l24.997-124.998c3.38-16.905-.95-34.246-11.88-47.578zM156.227 406.229H93.778V229.193h62.449v177.036zm250.754-145.913-24.997 124.997c-2.423 12.119-13.151 20.916-25.51 20.916H187.527V218.431l85.594-123.634c5.479 1.553 10.346 4.83 13.924 9.497 5.122 6.684 6.803 15.181 4.614 23.313l-22.042 81.872a15.65 15.65 0 0 0 15.112 19.719h96.74a25.926 25.926 0 0 1 20.12 9.522 25.925 25.925 0 0 1 5.392 21.596z" class="primary"/></g><g class="primary design" style="display:none"><path class="primary"/></g></g><g clip-path="url(#c)" style="display:none"><g fill="none" class="primary design" style="display:none"><path class="primary"/><path class="primary"/></g><g class="primary design" style="display:none"><path class="primary"/></g></g></g></svg>