<svg xmlns="http://www.w3.org/2000/svg" width="500" height="500" style="width:100%;height:100%;transform:translate3d(0,0,0);content-visibility:visible" viewBox="0 0 500 500"><defs><clipPath id="d"><path d="M0 0h500v500H0z"/></clipPath><clipPath id="h"><path d="M0 0h500v500H0z"/></clipPath><clipPath id="e"><path d="M0 0h500v500H0z"/></clipPath><mask id="i" mask-type="alpha"><use xmlns:ns1="http://www.w3.org/1999/xlink" ns1:href="#a"/></mask><mask id="g" mask-type="alpha"><use xmlns:ns2="http://www.w3.org/1999/xlink" ns2:href="#b"/></mask><mask id="f" mask-type="alpha"><use xmlns:ns3="http://www.w3.org/1999/xlink" ns3:href="#c"/></mask><g id="a" class="primary design" style="display:none"><path fill-opacity="0" class="primary"/><path class="primary"/></g><g id="b" class="primary design" style="display:none"><path fill-opacity="0" class="primary"/><path class="primary"/></g><g id="c" class="primary design" style="display:none"><path fill-opacity="0" class="primary"/><path class="primary"/></g></defs><g clip-path="url(#d)"><g clip-path="url(#e)" style="display:block"><g class="primary design" style="display:none"><path class="primary"/><path fill="none" class="primary"/></g><g class="primary design" style="display:none"><path class="primary"/><path fill="none" class="primary"/><path fill="none" class="primary"/></g><g class="primary design" mask="url(#f)" style="display:none"><path class="primary"/><path fill="none" class="primary"/><path fill="none" class="primary"/><path fill="none" class="primary"/><path fill="none" class="primary"/></g><g class="primary design" style="display:none"><path class="primary"/><path fill="none" class="primary"/></g><g class="primary design" mask="url(#g)" style="display:none"><path class="primary"/><path fill="none" class="primary"/></g><g class="primary design" style="display:none"><path fill="none" class="primary"/><path class="primary"/><path class="primary"/><path class="primary"/><path class="primary"/><path class="primary"/></g><g class="primary design" style="display:block"><path fill="none" stroke="#121331" stroke-width="41.66" d="M-4957.498-4957.498" class="primary"/><path fill="#121331" d="M380.19 458.302H119.813c-19.996 0-36.452-16.456-36.452-36.453V78.154c0-19.996 16.456-36.452 36.452-36.452H380.19c19.997 0 36.453 16.456 36.453 36.452V421.85c0 19.997-16.456 36.453-36.453 36.453zM119.813 72.947c-2.916 0-5.207 2.291-5.207 5.207V421.85c0 2.917 2.291 5.208 5.207 5.208H380.19c2.917 0 5.208-2.291 5.208-5.208V78.154c0-2.916-2.291-5.207-5.208-5.207H119.814z" class="primary"/><path fill="#121331" d="M245.003 218.965h-83.528c-8.54 0-15.623-7.082-15.623-15.622v-83.528c0-8.54 7.082-15.623 15.623-15.623h83.528c8.54 0 15.622 7.082 15.622 15.623v83.528c0 8.54-7.082 15.622-15.622 15.622zm-67.906-31.245h52.283v-52.283h-52.283v52.283zm161.433 93.527H161.473c-8.54 0-15.622-7.082-15.622-15.623 0-8.54 7.082-15.622 15.622-15.622H338.53c8.54 0 15.623 7.082 15.623 15.622s-7.082 15.623-15.623 15.623zm0 57.491H161.473c-8.54 0-15.622-7.083-15.622-15.623s7.082-15.622 15.622-15.622H338.53c8.54 0 15.623 7.082 15.623 15.622s-7.082 15.623-15.623 15.623zm-93.736 57.074h-83.32c-8.54 0-15.622-7.082-15.622-15.623 0-8.54 7.082-15.622 15.622-15.622h83.32c8.54 0 15.623 7.082 15.623 15.622s-7.082 15.623-15.623 15.623z" class="primary"/></g></g><g clip-path="url(#h)" style="display:none"><g class="primary design" style="display:none"><path fill="none" class="primary"/><path class="primary"/><path class="primary"/><path class="primary"/><path class="primary"/><path class="primary"/></g><g class="primary design" style="display:none"><path class="primary"/><path fill="none" class="primary"/></g><g class="primary design" style="display:none"><path class="primary"/><path fill="none" class="primary"/></g><g class="primary design" mask="url(#i)" style="display:none"><path class="primary"/><path fill="none" class="primary"/><path fill="none" class="primary"/><path fill="none" class="primary"/><path fill="none" class="primary"/></g></g></g></svg>