<svg xmlns="http://www.w3.org/2000/svg" width="500" height="500" style="width:100%;height:100%;transform:translate3d(0,0,0);content-visibility:visible" viewBox="0 0 500 500"><defs><clipPath id="a"><path d="M0 0h500v500H0z"/></clipPath><clipPath id="c"><path d="M0 0h500v500H0z"/></clipPath><clipPath id="b"><path d="M0 0h500v500H0z"/></clipPath></defs><g clip-path="url(#a)"><g clip-path="url(#b)" style="display:block"><g class="primary design" style="display:none"><path fill="none" class="primary"/></g><g class="primary design" style="display:none"><path fill="none" class="primary"/></g><g class="primary design" style="display:none"><path fill="none" class="primary"/></g><g class="primary design" style="display:none"><path fill="none" class="primary"/></g><g class="primary design" style="display:none"><path class="primary"/></g><g class="primary design" style="display:block"><path fill="#121331" d="M455.286 134.554c.159.214.321.425.469.648.145.218.272.443.405.667.128.215.259.427.377.649.121.228.225.462.334.694.108.231.22.461.317.698.093.228.171.46.253.692.089.251.182.5.258.756.069.232.122.466.18.7.065.261.133.52.185.786.049.253.081.509.117.764.036.25.077.496.101.749.029.308.036.617.047.926.006.185.028.366.028.553V258.42c0 8.643-7.006 15.65-15.65 15.65s-15.651-7.007-15.651-15.65v-77.227L280.098 325.805c-6.091 5.995-15.867 5.993-21.956-.003l-62.623-61.657L68.265 389.367c-6.161 6.063-16.069 5.981-22.131-.178-6.062-6.161-5.983-16.07.178-22.132L184.546 231.03c6.091-5.995 15.867-5.994 21.956.003l62.623 61.657 135.366-133.204h-76.368c-8.644 0-15.651-7.007-15.651-15.65s7.007-15.65 15.651-15.65h114.584l.021.001c.511.001 1.021.027 1.529.077.254.025.502.073.752.11.257.038.513.066.768.117.285.057.562.136.841.208.218.056.437.102.652.167.271.082.532.186.796.282.219.08.441.15.657.24.242.101.473.22.709.333.229.109.462.21.687.331.223.12.434.259.65.389.224.135.451.259.669.406.34.229.664.479.984.733.156.124.31.25.462.381.32.275.634.556.931.855l.047.043c.126.128.233.267.354.398.215.233.432.465.632.711.155.191.293.39.438.586z" class="primary"/></g></g><g clip-path="url(#c)" style="display:none"><g class="primary design" style="display:none"><path fill="none" class="primary"/></g><g class="primary design" style="display:none"><path fill="none" class="primary"/></g><g class="primary design" style="display:none"><path class="primary"/></g></g></g></svg>