<svg xmlns="http://www.w3.org/2000/svg" width="240" height="240" style="width:100%;height:100%;transform:translate3d(0,0,0);content-visibility:visible" viewBox="0 0 240 240"><defs><clipPath id="a"><path d="M0 0h240v240H0z"/></clipPath><clipPath id="f"><path d="M0 0h240v240H0z"/></clipPath><clipPath id="e"><path d="M0 0h240v240H0z"/></clipPath><clipPath id="d"><path d="M0 0h240v240H0z"/></clipPath><clipPath id="c"><path d="M0 0h240v240H0z"/></clipPath><clipPath id="b"><path d="M0 0h240v240H0z"/></clipPath></defs><g clip-path="url(#a)"><g class="5" clip-path="url(#b)" style="display:none"><path class="primary" style="display:none"/><path class="primary" style="display:none"/></g><g clip-path="url(#c)" style="display:none"><path class="primary" style="display:none"/><path class="primary" style="display:none"/></g><g clip-path="url(#d)" style="display:none"><path class="primary" style="display:none"/><path class="primary" style="display:none"/></g><g clip-path="url(#e)" style="display:block"><path fill="#121331" d="M49.871-50.703a7.5 7.5 0 0 0-10.303 10.875l.274.272L73.678-7.5H-92.5a7.5 7.5 0 0 0 0 15H73.678L39.842 39.556a7.5 7.5 0 0 0-.286 10.602 7.5 7.5 0 0 0 10.602.286l47.5-45 .048-.048q.09-.086.177-.176l.097-.104q.07-.073.136-.148l.13-.151q.053-.062.104-.126a9 9 0 0 0 .253-.335l.07-.099q.087-.126.169-.257l.027-.043A7.47 7.47 0 0 0 100 0a7.46 7.46 0 0 0-1.131-3.958l-.027-.043a8 8 0 0 0-.169-.257l-.07-.098a6 6 0 0 0-.253-.335l-.104-.127-.13-.151q-.066-.075-.136-.148l-.097-.104q-.087-.089-.177-.175l-.048-.048-47.5-45z" class="primary" style="display:block" transform="translate(120 120)"/></g><g clip-path="url(#f)" style="display:none"><path class="primary" style="display:none"/></g></g></svg>