<svg xmlns="http://www.w3.org/2000/svg" width="500" height="500" style="width:100%;height:100%;transform:translate3d(0,0,0);content-visibility:visible" viewBox="0 0 500 500"><defs><clipPath id="a"><path d="M0 0h500v500H0z"/></clipPath><clipPath id="c"><path d="M0 0h500v500H0z"/></clipPath><clipPath id="b"><path d="M0 0h500v500H0z"/></clipPath></defs><g clip-path="url(#a)"><g class="primary design" clip-path="url(#b)" style="display:block"><path fill="#121331" d="M317.749 416.736H57.333c-8.644 0-15.65-7.007-15.65-15.65V224.003c0-77.556 63.095-140.652 140.65-140.652h135.416c77.556 0 140.652 63.096 140.652 140.652v52.079c0 77.557-63.096 140.654-140.652 140.654zm-244.766-31.3h244.766c60.297 0 109.351-49.056 109.351-109.354v-52.079c0-60.297-49.054-109.352-109.351-109.352H182.333c-60.296 0-109.35 49.055-109.35 109.352v161.433z" class="primary"/></g><g clip-path="url(#c)" style="display:none"><g class="primary design" style="display:none"><path class="primary"/></g><g class="primary design" style="display:none"><path fill="none" class="primary"/></g></g></g></svg>