<svg xmlns="http://www.w3.org/2000/svg" width="500" height="500" style="width:100%;height:100%;transform:translate3d(0,0,0);content-visibility:visible" viewBox="0 0 500 500"><defs><clipPath id="c"><path d="M0 0h500v500H0z"/></clipPath><clipPath id="g"><path d="M0 0h500v500H0z"/></clipPath><clipPath id="d"><path d="M0 0h500v500H0z"/></clipPath><clipPath id="e"><path d="M0 0h500v500H0z"/></clipPath><mask id="h" mask-type="alpha"><use xmlns:ns1="http://www.w3.org/1999/xlink" ns1:href="#a"/></mask><mask id="f" mask-type="alpha"><use xmlns:ns2="http://www.w3.org/1999/xlink" ns2:href="#b"/></mask><g id="a" class="primary design" style="display:none"><path fill-opacity="0" stroke-linecap="round" stroke-linejoin="round"/><path/></g><g id="b" class="primary design" style="display:block"><path fill="#121331" d="M401.042 437.526H98.958c-20.117 0-36.484-16.367-36.484-36.484V98.957c0-20.117 16.367-36.483 36.484-36.483h302.084c20.117 0 36.484 16.366 36.484 36.483v302.085c0 20.117-16.367 36.484-36.484 36.484z" class="primary"/></g></defs><g clip-path="url(#c)"><g clip-path="url(#d)" style="display:block"><g class="primary design" style="display:block"><path fill="#121331" d="M401.042 437.526H98.958c-20.117 0-36.484-16.367-36.484-36.484V98.957c0-20.117 16.367-36.483 36.484-36.483h302.084c20.117 0 36.484 16.366 36.484 36.483v302.085c0 20.117-16.367 36.484-36.484 36.484zM98.958 93.774a5.19 5.19 0 0 0-5.184 5.183v302.085a5.19 5.19 0 0 0 5.184 5.184h302.084a5.19 5.19 0 0 0 5.184-5.184V98.957a5.19 5.19 0 0 0-5.184-5.183H98.958z" class="primary"/></g><g clip-path="url(#e)" mask="url(#f)" style="display:block"><g class="primary design" style="display:block"><path fill="#121331" d="M291.667 250H250c-31.667 0-57.292-25.624-57.292-57.291v-10.417C192.708 150.625 218.333 125 250 125s57.292 25.625 57.292 57.292v52.083c0 8.542-7.083 15.625-15.625 15.625zM250 156.25c-14.375 0-26.042 11.667-26.042 26.042v10.417c0 14.375 11.667 26.041 26.042 26.041h26.042v-36.458c0-14.375-11.667-26.042-26.042-26.042zM338.542 375H161.458c-8.542 0-15.625-7.083-15.625-15.625v-10.416c0-43.125 35-78.126 78.125-78.126h52.084c43.125 0 78.125 35.001 78.125 78.126v10.416c0 8.542-7.083 15.625-15.625 15.625zm-161.25-31.25H322.5c-2.5-23.333-22.5-41.667-46.667-41.667H223.75c-23.958 0-43.75 18.334-46.458 41.667z" class="primary"/></g><g class="primary design" style="display:block"><path fill="#121331" d="M682.667 250H641c-31.667 0-57.292-25.624-57.292-57.291v-10.417C583.708 150.625 609.333 125 641 125s57.292 25.625 57.292 57.292v52.083c0 8.542-7.083 15.625-15.625 15.625zM641 156.25c-14.375 0-26.042 11.667-26.042 26.042v10.417c0 14.375 11.667 26.041 26.042 26.041h26.042v-36.458c0-14.375-11.667-26.042-26.042-26.042zM729.542 375H552.458c-8.542 0-15.625-7.083-15.625-15.625v-10.416c0-43.125 35-78.126 78.125-78.126h52.084c43.125 0 78.125 35.001 78.125 78.126v10.416c0 8.542-7.083 15.625-15.625 15.625zm-161.25-31.25H713.5c-2.5-23.333-22.5-41.667-46.667-41.667H614.75c-23.958 0-43.75 18.334-46.458 41.667z" class="primary"/></g><g fill="#121331" class="primary design" style="display:block"><path d="m1054.763 271.551-36.085-20.833c-27.424-15.834-36.804-50.837-20.97-78.262l5.208-9.021c15.833-27.425 50.838-36.804 78.262-20.97 27.425 15.833 36.804 50.837 20.97 78.262l-26.041 45.105c-4.271 7.398-13.947 9.99-21.344 5.72zm10.79-102.023c-12.449-7.188-28.386-2.917-35.574 9.532l-5.208 9.021c-7.188 12.45-2.917 28.386 9.532 35.573l22.553 13.021 18.23-31.573c7.187-12.45 2.916-28.387-9.533-35.574z" class="primary"/><path d="M1120.542 375H943.458c-8.542 0-15.625-7.083-15.625-15.625v-10.416c0-43.125 35-78.126 78.125-78.126h52.084c43.125 0 78.125 35.001 78.125 78.126v10.416c0 8.542-7.083 15.625-15.625 15.625zm-161.25-31.25H1104.5c-2.5-23.333-22.5-41.667-46.667-41.667h-52.083c-23.958 0-43.75 18.334-46.458 41.667z" class="primary"/></g><g class="primary design" style="display:block"><path fill="#121331" d="m1109.08-221.683-34.131 23.899c-25.94 18.163-61.629 11.871-79.792-14.069l-5.975-8.533c-18.163-25.94-11.87-61.629 14.07-79.792 25.94-18.164 61.628-11.87 79.792 14.07l29.873 42.663c4.9 6.997 3.16 16.862-3.837 21.762zm-87.904-52.897c-11.775 8.245-14.64 24.494-6.395 36.27l5.975 8.533c8.245 11.775 24.493 14.64 36.268 6.394l21.333-14.937-20.912-29.864c-8.245-11.776-24.494-14.64-36.27-6.396zM1120.542-26H943.458c-8.542 0-15.625-7.083-15.625-15.625v-10.416c0-43.125 35-78.126 78.125-78.126h52.084c43.125 0 78.125 35.001 78.125 78.126v10.416c0 8.542-7.083 15.625-15.625 15.625zm-161.25-31.25H1104.5c-2.5-23.333-22.5-41.667-46.667-41.667h-52.083c-23.958 0-43.75 18.334-46.458 41.667z" class="primary"/></g></g></g><g clip-path="url(#g)" style="display:none"><g class="primary design" style="display:none"><path class="primary"/><path class="primary"/><path class="primary"/></g><g fill="none" class="primary design" mask="url(#h)" style="display:none"><path class="primary"/><path class="primary"/></g><g class="primary design" style="display:none"><path fill="none" class="primary"/></g></g></g></svg>