<svg xmlns="http://www.w3.org/2000/svg" width="500" height="500" style="width:100%;height:100%;transform:translate3d(0,0,0);content-visibility:visible" viewBox="0 0 500 500"><defs><clipPath id="e"><path d="M0 0h500v500H0z"/></clipPath><clipPath id="k"><path d="M0 0h500v500H0z"/></clipPath><clipPath id="j"><path d="M0 0h500v500H0z"/></clipPath><clipPath id="i"><path d="M0 0h500v500H0z"/></clipPath><clipPath id="f"><path d="M0 0h500v500H0z"/></clipPath><filter id="a" width="100%" height="100%" x="0%" y="0%" filterUnits="objectBoundingBox"><feComponentTransfer in="SourceGraphic"><feFuncA tableValues="1.0 0.0" type="table"/></feComponentTransfer></filter><filter id="c" width="100%" height="100%" x="0%" y="0%" filterUnits="objectBoundingBox"><feComponentTransfer in="SourceGraphic"><feFuncA tableValues="1.0 0.0" type="table"/></feComponentTransfer></filter><mask id="h" mask-type="alpha"><g filter="url(#a)"><path fill="#fff" d="M0 0h500v500H0z" opacity="0"/><use xmlns:ns1="http://www.w3.org/1999/xlink" ns1:href="#b"/></g></mask><mask id="g" mask-type="alpha"><g filter="url(#c)"><path fill="#fff" d="M0 0h500v500H0z" opacity="0"/><use xmlns:ns2="http://www.w3.org/1999/xlink" ns2:href="#d"/></g></mask><path id="b" class="primary design" style="display:none"/><g id="d" class="primary design" style="display:none"><path class="primary"/></g></defs><g clip-path="url(#e)"><g clip-path="url(#f)" style="display:none"><g class="primary design" style="display:none"><path fill="none" class="primary"/></g><g class="primary design" style="display:none"><path fill="none" class="primary"/></g><g fill="none" class="primary design" style="display:none"><path class="primary"/><path class="primary"/></g><g class="primary design" style="display:none"><path class="primary"/></g><g class="primary design" mask="url(#g)" style="display:none"><path fill="none" class="primary"/></g><g class="primary design" mask="url(#h)" style="display:none"><path class="primary"/><path class="primary"/><path class="primary"/></g><g class="primary design" style="display:none"><path class="primary"/><path class="primary"/><path class="primary"/></g></g><g clip-path="url(#i)" style="display:none"><g class="primary design" style="display:none"><path fill="none" class="primary"/></g><g class="primary design" style="display:none"><path fill="none" class="primary"/></g><g fill="none" class="primary design" style="display:none"><path class="primary"/><path class="primary"/></g><g class="primary design" style="display:none"><path class="primary"/></g><g class="primary design" style="display:none"><path class="primary"/></g><g class="primary design" style="display:none"><path fill="none" class="primary"/></g><g class="primary design" style="display:none"><path class="primary"/></g></g><g clip-path="url(#j)" style="display:block"><g class="primary design" style="display:none"><path fill="none" class="primary"/></g><g class="primary design" style="display:none"><path fill="none" class="primary"/></g><g class="primary design" style="display:none"><path fill="none" class="primary"/></g><g class="primary design" style="display:block"><path fill="#121331" d="M458.346 98.713c-.005-.281-.024-.56-.043-.84-.017-.243-.03-.487-.058-.727-.029-.251-.073-.5-.114-.749-.043-.261-.083-.523-.139-.779-.05-.229-.115-.454-.175-.681-.07-.265-.137-.531-.221-.79-.073-.227-.163-.451-.247-.675-.093-.247-.18-.496-.285-.737-.102-.237-.221-.467-.336-.699-.109-.219-.213-.441-.331-.654-.13-.234-.276-.46-.418-.688-.127-.204-.25-.41-.386-.607-.147-.212-.307-.417-.465-.623-.156-.204-.311-.409-.477-.605-.154-.182-.32-.356-.483-.532a15.59 15.59 0 0 0-.592-.614c-.059-.057-.11-.119-.17-.175-.111-.104-.23-.19-.343-.29a15.76 15.76 0 0 0-.656-.555 15.9 15.9 0 0 0-.58-.434 15.714 15.714 0 0 0-.66-.453 15.947 15.947 0 0 0-3.423-1.652 15.4 15.4 0 0 0-.738-.232 15.48 15.48 0 0 0-.734-.188 15.615 15.615 0 0 0-.751-.158 15.78 15.78 0 0 0-.78-.119 15.789 15.789 0 0 0-.73-.081 15.991 15.991 0 0 0-.848-.043c-.153-.004-.301-.023-.455-.023H57.29c-.15 0-.296.019-.445.023-.289.008-.577.02-.865.044-.24.02-.476.048-.713.079a16.53 16.53 0 0 0-.798.121 14.98 14.98 0 0 0-.735.155 15.227 15.227 0 0 0-4.25 1.677c-.222.128-.441.26-.658.4-.222.143-.437.293-.651.447-.198.142-.393.285-.586.438-.224.177-.439.364-.653.553-.113.1-.233.187-.344.291-.06.056-.111.118-.17.175a15.59 15.59 0 0 0-.592.614c-.163.176-.329.35-.483.532-.166.196-.321.401-.477.605-.158.206-.318.411-.465.623-.136.197-.259.403-.386.607-.142.228-.289.454-.418.688-.119.214-.222.436-.331.656-.114.232-.234.461-.336.697-.105.242-.193.491-.286.739-.084.224-.173.446-.246.673-.084.259-.151.525-.221.79-.06.227-.125.452-.175.681-.056.256-.096.518-.139.779-.041.249-.085.498-.114.749-.028.24-.041.484-.058.727-.019.28-.038.559-.043.84-.001.083-.012.163-.012.247v302.085c0 8.643 7.006 15.65 15.65 15.65h385.418c8.644 0 15.65-7.007 15.65-15.65V98.96c0-.084-.011-.164-.012-.247zm-51.738 15.897-122.691 131c-8.929 9.534-20.976 14.785-33.919 14.785-12.943 0-24.988-5.251-33.917-14.785l-122.691-131h313.218zM72.94 385.395v-246.83l120.295 128.441c14.91 15.92 35.07 24.689 56.763 24.689h.001c21.692 0 41.853-8.769 56.764-24.688l120.295-128.442v246.83H72.94z" class="primary"/></g><g class="primary design" style="display:none"><path class="primary"/></g></g><g clip-path="url(#k)" style="display:none"><g class="primary design" style="display:none"><path class="primary"/></g><g class="primary design" style="display:none"><path fill="none" class="primary"/></g><g fill="none" class="primary design" style="display:none"><path class="primary"/><path class="primary"/></g></g></g></svg>