<svg xmlns="http://www.w3.org/2000/svg" width="500" height="500" style="width:100%;height:100%;transform:translate3d(0,0,0);content-visibility:visible" viewBox="0 0 500 500"><defs><clipPath id="e"><path d="M0 0h500v500H0z"/></clipPath><clipPath id="h"><path d="M0 0h500v500H0z"/></clipPath><clipPath id="f"><path d="M0 0h500v500H0z"/></clipPath><filter id="a" width="100%" height="100%" x="0%" y="0%" filterUnits="objectBoundingBox"><feComponentTransfer in="SourceGraphic"><feFuncA tableValues="1.0 0.0" type="table"/></feComponentTransfer></filter><filter id="c" width="100%" height="100%" x="0%" y="0%" filterUnits="objectBoundingBox"><feComponentTransfer in="SourceGraphic"><feFuncA tableValues="1.0 0.0" type="table"/></feComponentTransfer></filter><path id="b" class="primary design" style="display:none"/><path id="d" class="primary design" style="display:none"/><mask id="i" mask-type="alpha"><g filter="url(#a)"><path fill="#fff" d="M0 0h500v500H0z" opacity="0"/><use xmlns:ns1="http://www.w3.org/1999/xlink" ns1:href="#b"/></g></mask><mask id="g" mask-type="alpha"><g filter="url(#c)"><path fill="#fff" d="M0 0h500v500H0z" opacity="0"/><use xmlns:ns2="http://www.w3.org/1999/xlink" ns2:href="#d"/></g></mask></defs><g clip-path="url(#e)"><g clip-path="url(#f)" style="display:block"><g class="primary design" mask="url(#g)" style="display:none"><path class="primary"/><path fill="none" class="primary"/></g><g class="primary design" style="display:none"><path class="primary"/><path fill="none" class="primary"/><path fill="none" class="primary"/><path fill="none" class="primary"/><path fill="none" class="primary"/></g><g class="primary design" style="display:none"><path fill="none" class="primary"/><path class="primary"/></g><g class="primary design" style="display:none"><path fill="none" class="primary"/><path class="primary"/></g><g class="primary design" style="display:none"><path fill="none" class="primary"/><path class="primary"/></g><g class="primary design" style="display:none"><path fill="none" class="primary"/><path class="primary"/></g><g class="primary design" style="display:block"><path fill="none" stroke="#121331" stroke-width="2" d="M250 250" class="primary"/><path fill="#121331" d="M395.857 234.672v-33.815c0-64.815-52.732-117.546-117.547-117.546H159.186c-64.815 0-117.547 52.731-117.547 117.546v137.688c0 8.643 7.006 15.65 15.65 15.65h109.994c5.459 46.852 45.384 83.337 93.677 83.337h181.75c8.644 0 15.65-7.007 15.65-15.65v-98.42c0-40.129-25.607-75.55-62.503-88.79zM72.939 200.857c0-47.556 38.69-86.246 86.247-86.246H278.31c47.557 0 86.247 38.69 86.247 86.246v35.791c0 47.557-38.69 86.247-86.247 86.247h-95.962c-.02 0-.038-.003-.058-.003-.02 0-.038.003-.058.003H72.939V200.857zM427.06 406.232h-166.1c-31.002 0-56.828-22.508-62.042-52.037h79.392c54.35 0 100.195-37.08 113.586-87.269 21.055 10.413 35.164 32.178 35.164 56.536v82.77z" class="primary"/></g><g class="primary design" style="display:block"><path fill="none" stroke="#121331" stroke-width="2" d="M135.41 218.753" class="primary"/><path fill="#121331" d="M155.51 214.752c-.13-.66-.291-1.31-.491-1.95-.189-.64-.419-1.27-.679-1.89-.25-.62-.54-1.23-.85-1.81-.32-.59-.66-1.17-1.03-1.73s-.77-1.1-1.2-1.62c-.42-.52-.88-1.02-1.35-1.5-.471-.47-.98-.92-1.5-1.35-.511-.42-1.06-.82-1.62-1.19a18.5 18.5 0 0 0-1.721-1.03c-.59-.32-1.199-.6-1.819-.86-.61-.25-1.25-.48-1.88-.68-.641-.19-1.301-.36-1.95-.49-.66-.13-1.33-.23-1.99-.3a20.88 20.88 0 0 0-4.031 0c-.67.07-1.34.17-1.989.3-.65.13-1.31.3-1.95.49-.641.2-1.271.43-1.891.68a21.462 21.462 0 0 0-3.539 1.89c-.551.37-1.1.77-1.62 1.19-.521.43-1.02.88-1.49 1.35-.48.48-.93.98-1.361 1.5a21.052 21.052 0 0 0-2.219 3.35c-.31.58-.6 1.19-.861 1.81-.25.62-.48 1.25-.67 1.89-.2.64-.359 1.29-.5 1.95-.13.65-.229 1.32-.299 1.98-.06.67-.1 1.35-.1 2.02 0 .67.04 1.35.1 2.02.07.66.169 1.33.299 1.99a22.448 22.448 0 0 0 1.17 3.83 21.81 21.81 0 0 0 1.891 3.54c.37.56.769 1.1 1.189 1.62.431.52.881 1.02 1.361 1.5.47.47.969.92 1.49 1.35.52.42 1.069.82 1.62 1.19a21.462 21.462 0 0 0 3.539 1.89c.62.25 1.25.48 1.891.68.64.19 1.3.36 1.95.49.649.13 1.319.23 1.989.3.67.07 1.341.1 2.011.1.67 0 1.35-.03 2.02-.1.66-.07 1.33-.17 1.99-.3.649-.13 1.309-.3 1.95-.49.63-.2 1.27-.43 1.88-.68.62-.26 1.229-.54 1.819-.86.591-.31 1.171-.66 1.721-1.03.56-.37 1.109-.77 1.62-1.19.52-.43 1.029-.88 1.5-1.35.47-.48.93-.98 1.35-1.5.43-.52.83-1.06 1.2-1.62s.71-1.14 1.03-1.73c.31-.58.6-1.19.85-1.81.26-.62.49-1.25.679-1.89.2-.64.361-1.29.491-1.94.14-.66.239-1.33.299-1.99.07-.67.101-1.35.101-2.02 0-.67-.031-1.35-.101-2.02-.06-.66-.159-1.33-.299-1.98z" class="primary"/></g><g class="primary design" style="display:block"><path fill="none" stroke="#121331" stroke-width="2" d="M218.75 218.753" class="primary"/><path fill="#121331" d="M198.649 222.762c.131.65.302 1.3.491 1.94.2.64.419 1.28.679 1.89.25.62.541 1.23.861 1.82.311.58.65 1.16 1.02 1.72a20.91 20.91 0 0 0 2.55 3.12c.47.47.979.92 1.5 1.35.52.42 1.059.82 1.62 1.19.55.37 1.13.72 1.72 1.03.59.32 1.2.6 1.82.86.609.25 1.25.48 1.89.68.63.19 1.29.36 1.94.49.659.13 1.329.23 1.989.3.67.07 1.351.1 2.021.1.67 0 1.35-.03 2.01-.1.67-.07 1.34-.17 1.99-.3.66-.13 1.309-.3 1.95-.49.64-.2 1.27-.43 1.89-.68.61-.26 1.219-.54 1.809-.86.591-.31 1.17-.66 1.731-1.03.56-.37 1.099-.77 1.62-1.19.52-.43 1.019-.88 1.49-1.35.479-.48.93-.98 1.36-1.5a21.064 21.064 0 0 0 3.08-5.16c.25-.61.481-1.25.67-1.89.2-.64.36-1.29.5-1.94.13-.66.23-1.33.299-1.99.061-.67.101-1.35.101-2.02 0-.67-.04-1.35-.101-2.01-.069-.67-.169-1.34-.299-1.99-.14-.66-.3-1.31-.5-1.95-.189-.64-.42-1.27-.67-1.89-.26-.62-.55-1.23-.861-1.81a20.2 20.2 0 0 0-1.029-1.73c-.37-.56-.77-1.1-1.19-1.62-.43-.52-.881-1.02-1.36-1.5-.471-.47-.97-.92-1.49-1.35a21.26 21.26 0 0 0-1.62-1.19c-.561-.37-1.14-.72-1.731-1.03-.59-.32-1.199-.6-1.809-.86-.62-.25-1.25-.48-1.89-.68-.641-.19-1.29-.36-1.95-.49-.65-.13-1.32-.23-1.99-.3a20.88 20.88 0 0 0-4.031 0c-.66.07-1.33.17-1.989.3-.65.13-1.31.3-1.94.49-.64.2-1.281.43-1.89.68-.62.26-1.23.54-1.82.86-.59.31-1.17.66-1.72 1.03-.561.37-1.1.77-1.62 1.19-.521.43-1.03.88-1.5 1.35a21.263 21.263 0 0 0-2.55 3.12c-.37.56-.709 1.14-1.02 1.73-.32.58-.611 1.19-.861 1.81-.26.62-.479 1.25-.679 1.89-.189.64-.36 1.29-.491 1.95-.13.65-.229 1.32-.299 1.99-.069.66-.1 1.34-.1 2.01 0 .67.031 1.35.1 2.02.07.66.169 1.33.299 1.99z" class="primary"/></g><g class="primary design" style="display:block"><path fill="none" stroke="#121331" stroke-width="2" d="M302.08 218.753" class="primary"/><path fill="#121331" d="M281.979 222.762c.13.65.302 1.3.491 1.94.2.64.429 1.27.679 1.89a20.436 20.436 0 0 0 1.891 3.54c.37.56.769 1.1 1.189 1.62.431.52.88 1.02 1.351 1.5.479.47.979.92 1.5 1.35a20.871 20.871 0 0 0 3.35 2.22c.58.32 1.19.6 1.81.86.609.26 1.25.48 1.89.68.64.19 1.29.36 1.939.49.66.13 1.33.23 1.99.3.67.07 1.351.1 2.021.1.67 0 1.35-.03 2.02-.1.66-.07 1.33-.17 1.99-.3.65-.13 1.299-.3 1.94-.49.64-.2 1.28-.42 1.89-.68a20.281 20.281 0 0 0 3.54-1.89c.56-.37 1.099-.77 1.62-1.19.52-.43 1.02-.88 1.5-1.35.47-.48.93-.98 1.35-1.5a21.064 21.064 0 0 0 2.219-3.34 20.962 20.962 0 0 0 1.54-3.71c.19-.64.361-1.29.491-1.94.13-.66.23-1.33.299-1.99.07-.67.101-1.35.101-2.02 0-.67-.031-1.35-.101-2.02-.069-.66-.169-1.33-.299-1.99-.13-.65-.301-1.3-.491-1.94-.199-.64-.419-1.27-.679-1.89-.26-.62-.541-1.23-.861-1.81a20.2 20.2 0 0 0-1.029-1.73c-.37-.56-.77-1.1-1.19-1.62-.42-.52-.88-1.02-1.35-1.49-.48-.48-.98-.93-1.5-1.36a21.26 21.26 0 0 0-3.34-2.22c-.591-.32-1.2-.6-1.82-.86-.61-.25-1.25-.48-1.89-.68-.641-.19-1.29-.36-1.94-.49-.66-.13-1.33-.23-1.99-.3-1.34-.13-2.701-.13-4.041 0-.66.07-1.33.17-1.99.3-.649.13-1.299.3-1.939.49-.64.2-1.281.43-1.89.68-.62.26-1.23.54-1.81.86a20.871 20.871 0 0 0-3.35 2.22c-.521.43-1.021.88-1.5 1.36-.471.47-.92.97-1.351 1.49a21.052 21.052 0 0 0-2.219 3.35c-.32.58-.6 1.19-.861 1.81-.25.62-.479 1.25-.679 1.89a22.39 22.39 0 0 0-.491 1.94c-.13.66-.229 1.33-.299 1.99-.07.67-.1 1.35-.1 2.02 0 .67.03 1.35.1 2.02.07.66.169 1.33.299 1.99z" class="primary"/></g></g><g clip-path="url(#h)" style="display:none"><g class="primary design" mask="url(#i)" style="display:none"><path fill="none" class="primary"/></g><g fill="none" class="primary design" style="display:none"><path class="primary"/><path class="primary"/><path class="primary"/><path class="primary"/></g><g class="primary design" style="display:none"><path class="primary"/></g><g class="primary design" style="display:none"><path class="primary"/></g><g class="primary design" style="display:none"><path class="primary"/></g><g class="primary design" style="display:none"><path class="primary"/></g></g></g></svg>