<svg xmlns="http://www.w3.org/2000/svg" width="500" height="500" style="width:100%;height:100%;transform:translate3d(0,0,0);content-visibility:visible" viewBox="0 0 500 500"><defs><clipPath id="a"><path d="M0 0h500v500H0z"/></clipPath><clipPath id="c"><path d="M0 0h500v500H0z"/></clipPath><clipPath id="b"><path d="M0 0h500v500H0z"/></clipPath></defs><g clip-path="url(#a)"><g clip-path="url(#b)" style="display:block"><g fill="none" class="primary design" style="display:none"><path class="primary"/><path class="primary"/></g><g fill="none" class="primary design" style="display:none"><path class="primary"/><path class="primary"/></g><g class="primary design" style="display:block"><path fill="#121331" d="M374.998 249.978c-36.276 0-67.197 23.301-78.627 55.716l-27.911-44.602 96.264-153.83c4.585-7.327 2.362-16.983-4.965-21.568-7.326-4.584-16.984-2.362-21.569 4.965L249.998 231.59 161.806 90.659c-4.585-7.328-14.243-9.548-21.569-4.965-7.327 4.585-9.55 14.241-4.965 21.568l96.264 153.83-27.911 44.602c-11.43-32.415-42.352-55.716-78.628-55.716-45.964 0-83.358 37.395-83.358 83.359 0 45.964 37.394 83.358 83.358 83.358 30.617 0 57.415-16.604 71.908-41.268l.943-1.497 52.15-83.336 52.174 83.373.919 1.459c14.493 24.665 41.291 41.269 71.908 41.269 45.964 0 83.358-37.394 83.358-83.358 0-45.964-37.395-83.359-83.359-83.359zM124.997 385.395c-28.705 0-52.058-23.353-52.058-52.058 0-28.706 23.353-52.059 52.058-52.059s52.059 23.353 52.059 52.059a51.72 51.72 0 0 1-6.773 25.627l-2.487 3.95c-.01.015-.017.032-.027.047-9.409 13.543-25.068 22.434-42.772 22.434zm250.002 0h-.001c-17.703 0-33.361-8.889-42.77-22.431l-.028-.05-2.491-3.955a51.718 51.718 0 0 1-6.769-25.622c0-28.706 23.354-52.059 52.059-52.059s52.058 23.353 52.058 52.059c0 28.705-23.353 52.058-52.058 52.058z" class="primary"/></g><g class="primary design" style="display:none"><path class="primary"/></g></g><g clip-path="url(#c)" style="display:none"><g fill="none" class="primary design" style="display:none"><path class="primary"/><path class="primary"/></g><g fill="none" class="primary design" style="display:none"><path class="primary"/><path class="primary"/></g><g class="primary design" style="display:none"><path class="primary"/></g></g></g></svg>