<svg xmlns="http://www.w3.org/2000/svg" width="240" height="240" style="width:100%;height:100%;transform:translate3d(0,0,0);content-visibility:visible" viewBox="0 0 240 240"><defs><clipPath id="e"><path d="M0 0h240v240H0z"/></clipPath><clipPath id="k"><path d="M0 0h240v240H0z"/></clipPath><clipPath id="j"><path d="M0 0h240v240H0z"/></clipPath><clipPath id="g"><path d="M0 0h240v240H0z"/></clipPath><clipPath id="f"><path d="M0 0h240v240H0z"/></clipPath><filter id="a" width="100%" height="100%" x="0%" y="0%" filterUnits="objectBoundingBox"><feComponentTransfer in="SourceGraphic"><feFuncA tableValues="1.0 0.0" type="table"/></feComponentTransfer></filter><filter id="c" width="100%" height="100%" x="0%" y="0%" filterUnits="objectBoundingBox"><feComponentTransfer in="SourceGraphic"><feFuncA tableValues="1.0 0.0" type="table"/></feComponentTransfer></filter><mask id="i" mask-type="alpha" maskUnits="userSpaceOnUse"><g filter="url(#a)"><path fill="#fff" d="M0 0h240v240H0z" opacity="0"/><use xmlns:ns1="http://www.w3.org/1999/xlink" ns1:href="#b"/></g></mask><mask id="h" mask-type="alpha" maskUnits="userSpaceOnUse"><g filter="url(#c)"><path fill="#fff" d="M0 0h240v240H0z" opacity="0"/><use xmlns:ns2="http://www.w3.org/1999/xlink" ns2:href="#d"/></g></mask><g id="b" style="display:none"><path class="primary"/><path class="primary"/></g><g id="d" style="display:none"><path class="primary"/><path class="primary"/><path class="primary"/></g></defs><g clip-path="url(#e)"><g class="5" clip-path="url(#f)" style="display:none"><path class="primary" style="display:none"/><path class="primary" style="display:none"/></g><g class="5" clip-path="url(#g)" style="display:none"><g mask="url(#h)" style="display:none"><path class="primary"/><path class="primary"/></g><g mask="url(#i)" style="display:none"><path class="primary"/><path class="primary"/><path class="primary"/></g></g><g fill="#121331" clip-path="url(#j)" style="display:block"><path d="M47.846-27.76a7.5 7.5 0 0 0-10.606-.086l-50.5 49.687-18.841-19.544a7.5 7.5 0 0 0-10.604-.194 7.5 7.5 0 0 0-.194 10.604l24.098 25a7.5 7.5 0 0 0 10.66.142L47.76-17.154a7.5 7.5 0 0 0 .086-10.606" class="primary" style="display:none" transform="translate(120 120)"/><path d="M47.846-27.76a7.5 7.5 0 0 0-10.606-.086l-50.5 49.687-18.841-19.544a7.5 7.5 0 0 0-10.604-.194 7.5 7.5 0 0 0-.194 10.604l24.098 25a7.5 7.5 0 0 0 10.66.142L47.76-17.154a7.5 7.5 0 0 0 .086-10.606" class="primary" style="display:block" transform="translate(120 120)"/><path d="M0 100c55.228 0 100-44.772 100-100S55.228-100 0-100-100-55.228-100 0-55.228 100 0 100M0-85c46.944 0 85 38.056 85 85S46.944 85 0 85-85 46.944-85 0s38.056-85 85-85" class="primary" style="display:block" transform="translate(120 120)"/></g><g clip-path="url(#k)" style="display:none"><path class="primary" style="display:none"/><path class="primary" style="display:none"/></g></g></svg>