<svg xmlns="http://www.w3.org/2000/svg" width="500" height="500" style="width:100%;height:100%;transform:translate3d(0,0,0);content-visibility:visible" viewBox="0 0 500 500"><defs><clipPath id="a"><path d="M0 0h500v500H0z"/></clipPath><clipPath id="c"><path d="M0 0h500v500H0z"/></clipPath><clipPath id="b"><path d="M0 0h500v500H0z"/></clipPath></defs><g clip-path="url(#a)"><g class="primary design" clip-path="url(#b)" style="display:block"><path fill="#121331" d="M289.37 174.185c0-4.166-1.666-8.123-4.582-11.04L209.592 87.95c-6.25-6.04-16.04-6.04-22.08 0-6.04 6.041-6.249 16.04 0 22.08l48.534 48.534H78.155c-8.54 0-15.623 7.082-15.623 15.622s7.082 15.623 15.623 15.623h157.891l-48.534 48.534c-6.249 6.04-6.249 16.039 0 22.08 3.125 3.124 7.082 4.582 11.04 4.582 3.958 0 7.915-1.458 11.04-4.582l75.196-75.197a15.607 15.607 0 0 0 4.583-11.04zm132.48 136.021H263.957l48.534-48.534c6.04-6.04 6.04-16.04 0-22.08-6.04-6.04-16.04-6.04-22.08 0l-75.196 75.196c-6.04 6.041-6.04 16.04 0 22.08l75.196 75.196c3.125 3.125 7.082 4.583 11.04 4.583 3.958 0 7.915-1.458 11.04-4.583 6.04-6.04 6.04-16.039 0-22.08l-48.534-48.533h157.891c8.54 0 15.623-7.083 15.623-15.623s-7.082-15.622-15.623-15.622z" class="primary"/></g><g class="primary design" clip-path="url(#c)" style="display:none"><path class="primary"/><path class="primary"/></g></g></svg>