<svg xmlns="http://www.w3.org/2000/svg" width="500" height="500" style="width:100%;height:100%;transform:translate3d(0,0,0);content-visibility:visible" viewBox="0 0 500 500"><defs><clipPath id="e"><path d="M0 0h500v500H0z"/></clipPath><clipPath id="p"><path d="M0 0h500v500H0z"/></clipPath><clipPath id="o"><path d="M0 0h500v500H0z"/></clipPath><clipPath id="l"><path d="M0 0h500v500H0z"/></clipPath><clipPath id="m"><path d="M0 0h500v500H0z"/></clipPath><clipPath id="i"><path d="M0 0h500v500H0z"/></clipPath><clipPath id="j"><path d="M0 0h500v500H0z"/></clipPath><clipPath id="f"><path d="M0 0h500v500H0z"/></clipPath><mask id="n" mask-type="alpha"><use xmlns:ns1="http://www.w3.org/1999/xlink" ns1:href="#a"/></mask><mask id="k" mask-type="alpha"><use xmlns:ns2="http://www.w3.org/1999/xlink" ns2:href="#b"/></mask><mask id="h" mask-type="alpha"><use xmlns:ns3="http://www.w3.org/1999/xlink" ns3:href="#c"/></mask><mask id="g" mask-type="alpha"><use xmlns:ns4="http://www.w3.org/1999/xlink" ns4:href="#d"/></mask><g id="a" class="primary design" style="display:none"><path/><path fill-opacity="0" class="primary"/></g><g id="b" class="primary design" style="display:none"><path class="primary"/><path fill-opacity="0" class="primary"/></g><g id="c" class="primary design" style="display:none"><path class="primary"/><path fill-opacity="0" class="primary"/></g><g id="d" class="primary design" style="display:none"><path class="primary"/><path fill-opacity="0" class="primary"/></g></defs><g clip-path="url(#e)"><g clip-path="url(#f)" style="display:none"><g class="primary design" style="display:none"><path class="primary"/><path class="primary"/><path class="primary"/></g><g fill="none" class="primary design" style="display:none"><path class="primary"/><path class="primary"/></g><g class="primary design" style="display:none"><path fill="none" class="primary"/></g><g class="primary design" mask="url(#g)" style="display:none"><path class="primary"/><path class="primary"/><path fill="none" class="primary"/></g><g class="primary design" mask="url(#h)" style="display:none"><path class="primary"/><path fill="none" class="primary"/></g></g><g clip-path="url(#i)" style="display:none"><g class="primary design" style="display:none"><path fill="none" class="primary"/></g><g clip-path="url(#j)" mask="url(#k)" style="display:none"><g class="primary design" style="display:none"><path class="primary"/><path fill="none" class="primary"/></g><g class="primary design" style="display:none"><path class="primary"/><path class="primary"/><path fill="none" class="primary"/></g><g class="primary design" style="display:none"><path class="primary"/><path fill="none" class="primary"/></g><g class="primary design" style="display:none"><path class="primary"/><path fill="none" class="primary"/></g></g></g><g clip-path="url(#l)" style="display:none"><g class="primary design" style="display:none"><path class="primary"/><path class="primary"/><path class="primary"/></g><g fill="none" class="primary design" style="display:none"><path class="primary"/><path class="primary"/></g><g class="primary design" style="display:none"><path fill="none" class="primary"/></g><g clip-path="url(#m)" mask="url(#n)" style="display:none"><g class="primary design" style="display:none"><path class="primary"/><path class="primary"/><path fill="none" class="primary"/></g><g class="primary design" style="display:none"><path class="primary"/><path fill="none" class="primary"/></g></g></g><g clip-path="url(#o)" style="display:block"><g fill="#121331" class="primary design" style="display:block"><path d="M421.85 83.362H265.623V57.324c0-8.54-7.082-15.622-15.622-15.622s-15.623 7.082-15.623 15.622v26.038H78.154c-8.54 0-15.622 7.082-15.622 15.622s7.082 15.623 15.622 15.623h12.082l31.87 292.661c3.124 29.162 27.704 51.034 56.866 51.034h142.06c29.37 0 53.742-21.872 56.866-51.034l31.87-292.661h12.081c8.54 0 15.623-7.082 15.623-15.623 0-8.54-7.082-15.622-15.623-15.622zm-74.99 320.574c-1.458 13.123-12.498 23.12-25.829 23.12h-142.06c-13.332 0-24.371-9.997-25.83-23.12l-22.496-206.01h238.712l-22.497 206.01zm25.83-237.254H127.313l-5.624-52.075h256.834l-5.832 52.075z" class="primary"/><path d="M286.246 250.419c-8.54 0-15.622 7.082-15.622 15.622v93.735c0 8.54 7.082 15.623 15.622 15.623s15.623-7.083 15.623-15.623v-93.735c0-8.54-6.874-15.622-15.623-15.622zm-72.696-.417c-8.54 0-15.623 7.082-15.623 15.622v93.735c0 8.54 7.082 15.623 15.622 15.623s15.623-7.082 15.623-15.623v-93.735c0-8.54-7.082-15.622-15.623-15.622z" class="primary"/></g><g class="primary design" style="display:none"><path class="primary"/><path class="primary"/><path class="primary"/></g><g fill="none" class="primary design" style="display:none"><path class="primary"/><path class="primary"/></g><g fill="none" class="primary design" style="display:none"><path class="primary"/><path class="primary"/></g><g fill="none" class="primary design" style="display:none"><path class="primary"/><path class="primary"/></g><g class="primary design" style="display:none"><path fill="none" class="primary"/></g></g><g clip-path="url(#p)" style="display:none"><g class="primary design" style="display:none"><path class="primary"/><path class="primary"/><path class="primary"/></g><g fill="none" class="primary design" style="display:none"><path class="primary"/><path class="primary"/></g><g class="primary design" style="display:none"><path fill="none" class="primary"/></g></g></g></svg>