<svg xmlns="http://www.w3.org/2000/svg" width="240" height="240" style="width:100%;height:100%;transform:translate3d(0,0,0);content-visibility:visible" viewBox="0 0 240 240"><defs><clipPath id="b"><path d="M0 0h240v240H0z"/></clipPath><clipPath id="g"><path d="M0 0h240v240H0z"/></clipPath><clipPath id="f"><path d="M0 0h240v240H0z"/></clipPath><clipPath id="e"><path d="M0 0h240v240H0z"/></clipPath><clipPath id="c"><path d="M0 0h240v240H0z"/></clipPath><path id="a" class="primary" style="display:none"/><mask id="d" mask-type="alpha"><use xmlns:ns1="http://www.w3.org/1999/xlink" ns1:href="#a"/></mask></defs><g clip-path="url(#b)"><g class="5" clip-path="url(#c)" style="display:none"><g mask="url(#d)" style="display:none"><path class="primary"/></g><path class="primary" style="display:none"/></g><g clip-path="url(#e)" style="display:none"><path fill="none" class="primary" style="display:none"/><path class="primary" style="display:none"/><path class="primary" style="display:none"/></g><g clip-path="url(#f)" style="display:block"><path fill="none" class="primary" style="display:none"/><path fill="none" class="primary" style="display:none"/><path fill="#121331" d="M72.5 92.98c9.665 0 17.5-7.835 17.5-17.5V-33.738a17.5 17.5 0 0 0-8.769-15.166l-72.5-41.743a17.5 17.5 0 0 0-17.462 0l-72.5 41.743A17.5 17.5 0 0 0-90-33.738V75.48c0 9.665 7.835 17.5 17.5 17.5h40c9.665 0 17.5-7.835 17.5-17.5v-47.5h30v47.5c0 9.665 7.835 17.5 17.5 17.5zm1.247-128.884A2.5 2.5 0 0 1 75-33.738V75.48a2.5 2.5 0 0 1-2.5 2.5h-40a2.5 2.5 0 0 1-2.5-2.5v-55a7.5 7.5 0 0 0-7.5-7.5h-45a7.5 7.5 0 0 0-7.5 7.5v55a2.5 2.5 0 0 1-2.5 2.5h-40a2.5 2.5 0 0 1-2.5-2.5V-33.738a2.5 2.5 0 0 1 1.253-2.166l72.5-41.744a2.5 2.5 0 0 1 2.494 0z" class="primary" style="display:none" transform="translate(120 117.023)"/><path fill="#121331" d="M72.5 92.98c9.665 0 17.5-7.835 17.5-17.5V-33.738a17.5 17.5 0 0 0-8.769-15.166l-72.5-41.743a17.5 17.5 0 0 0-17.462 0l-72.5 41.743A17.5 17.5 0 0 0-90-33.738V75.48c0 9.665 7.835 17.5 17.5 17.5h40c9.665 0 17.5-7.835 17.5-17.5v-47.5h30v47.5c0 9.665 7.835 17.5 17.5 17.5zm1.247-128.884A2.5 2.5 0 0 1 75-33.738V75.48a2.5 2.5 0 0 1-2.5 2.5h-40a2.5 2.5 0 0 1-2.5-2.5v-55a7.5 7.5 0 0 0-7.5-7.5h-45a7.5 7.5 0 0 0-7.5 7.5v55a2.5 2.5 0 0 1-2.5 2.5h-40a2.5 2.5 0 0 1-2.5-2.5V-33.738a2.5 2.5 0 0 1 1.253-2.166l72.5-41.744a2.5 2.5 0 0 1 2.494 0z" class="primary" style="display:block" transform="translate(120 117.023)"/></g><g clip-path="url(#g)" style="display:none"><path fill="none" class="primary" style="display:none"/><path fill="none" class="primary" style="display:none"/><path class="primary" style="display:none"/></g></g></svg>