<svg xmlns="http://www.w3.org/2000/svg" width="240" height="240" style="width:100%;height:100%;transform:translate3d(0,0,0);content-visibility:visible" viewBox="0 0 240 240"><defs><clipPath id="d"><path d="M0 0h240v240H0z"/></clipPath><clipPath id="i"><path d="M0 0h240v240H0z"/></clipPath><clipPath id="g"><path d="M0 0h240v240H0z"/></clipPath><clipPath id="e"><path d="M0 0h240v240H0z"/></clipPath><mask id="h" mask-type="alpha" maskUnits="userSpaceOnUse"><g filter="url(#a)"><path fill="#fff" d="M0 0h240v240H0z" opacity="0"/><use xmlns:ns1="http://www.w3.org/1999/xlink" ns1:href="#b"/></g></mask><mask id="f" mask-type="alpha"><use xmlns:ns2="http://www.w3.org/1999/xlink" ns2:href="#c"/></mask><filter id="a" width="100%" height="100%" x="0%" y="0%" filterUnits="objectBoundingBox"><feComponentTransfer in="SourceGraphic"><feFuncA tableValues="1.0 0.0" type="table"/></feComponentTransfer></filter><path id="c" style="display:none"/><g id="b" style="display:none"><path/><path fill-opacity="0"/></g></defs><g clip-path="url(#d)"><g class="5" clip-path="url(#e)" style="display:none"><path class="primary" style="display:none"/><g mask="url(#f)" style="display:none"><path class="primary"/></g></g><g clip-path="url(#g)" style="display:block"><g mask="url(#h)" style="display:block"><path fill="#121331" d="M37.5 185c-1.358 0-2.5-1.142-2.5-2.5V55h60.577l13.015 21.397A7.5 7.5 0 0 0 115 80h87.5c1.358 0 2.5 1.142 2.5 2.5v100c0 1.358-1.142 2.5-2.5 2.5zm68.701-141.397A7.5 7.5 0 0 0 99.793 40H27.5a7.5 7.5 0 0 0-7.5 7.5v135c0 9.642 7.858 17.5 17.5 17.5h165c9.642 0 17.5-7.858 17.5-17.5v-100c0-9.642-7.858-17.5-17.5-17.5h-83.283z" class="primary"/></g><path fill="none" class="primary" style="display:none"/></g><g clip-path="url(#i)" style="display:none"><path class="primary" style="display:none"/></g></g></svg>