<svg xmlns="http://www.w3.org/2000/svg" width="500" height="500" style="width:100%;height:100%;transform:translate3d(0,0,0);content-visibility:visible" viewBox="0 0 500 500"><defs><clipPath id="a"><path d="M0 0h500v500H0z"/></clipPath><clipPath id="g"><path d="M0 0h500v500H0z"/></clipPath><clipPath id="f"><path d="M0 0h500v500H0z"/></clipPath><clipPath id="e"><path d="M0 0h500v500H0z"/></clipPath><clipPath id="d"><path d="M0 0h500v500H0z"/></clipPath><clipPath id="c"><path d="M0 0h500v500H0z"/></clipPath><clipPath id="b"><path d="M0 0h500v500H0z"/></clipPath></defs><g clip-path="url(#a)"><g clip-path="url(#b)" style="display:none"><g class="primary design" style="display:none"><path class="primary"/></g><g class="primary design" style="display:none"><path fill="none" class="primary"/></g><g class="primary design" style="display:none"><path class="primary"/></g></g><g clip-path="url(#c)" style="display:none"><g class="primary design" style="display:none"><path fill="none" class="primary"/></g><g class="primary design" style="display:none"><path fill="none" class="primary"/></g><g class="primary design" style="display:none"><path fill="none" class="primary"/></g><g class="primary design" style="display:none"><path class="primary"/><path class="primary"/></g><g class="primary design" style="display:none"><path class="primary"/></g><g class="primary design" style="display:none"><path class="primary"/></g></g><g clip-path="url(#d)" style="display:none"><g class="primary design" style="display:none"><path fill="none" class="primary"/></g><g class="primary design" style="display:none"><path fill="none" class="primary"/></g><g class="primary design" style="display:none"><path fill="none" class="primary"/></g><g class="primary design" style="display:none"><path fill="none" class="primary"/></g><g class="primary design" style="display:none"><path fill="none" class="primary"/></g><g class="primary design" style="display:none"><path class="primary"/><path class="primary"/></g><g class="primary design" style="display:none"><path class="primary"/></g><g class="primary design" style="display:none"><path class="primary"/><path class="primary"/></g><g class="primary design" style="display:none"><path class="primary"/></g></g><g clip-path="url(#e)" style="display:none"><g class="primary design" style="display:none"><path fill="none" class="primary"/></g><g class="primary design" style="display:none"><path fill="none" class="primary"/></g><g class="primary design" style="display:none"><path fill="none" class="primary"/></g><g class="primary design" style="display:none"><path class="primary"/></g><g class="primary design" style="display:none"><path class="primary"/><path class="primary"/></g><g class="primary design" style="display:none"><path class="primary"/></g></g><g clip-path="url(#f)" style="display:block"><g class="primary design" style="display:none"><path fill="none" class="primary"/></g><g class="primary design" style="display:none"><path fill="none" class="primary"/></g><g class="primary design" style="display:none"><path fill="none" class="primary"/></g><g class="primary design" style="display:none"><path fill="none" class="primary"/></g><g class="primary design" style="display:block"><path fill="#121331" d="M379.616 435.175c-2.66 0-5.333-.183-8.001-.554a359.43 359.43 0 0 1-112.544-35.115c-34.521-17.4-65.93-40.131-93.36-67.56-27.429-27.429-50.159-58.839-67.559-93.36a359.404 359.404 0 0 1-35.115-112.544 58.007 58.007 0 0 1 13.706-46.089 57.676 57.676 0 0 1 43.508-19.823h68.655a36.607 36.607 0 0 1 36.102 30.289l8.069 45.722c3.855 21.851-5.353 44.256-23.459 57.081l-6.573 4.656c25.149 38.341 58.333 71.281 97.082 96.364l4.301-6.097c12.817-18.172 35.251-27.415 57.148-23.553l45.665 8.06a36.606 36.606 0 0 1 30.289 36.101v68.655a57.676 57.676 0 0 1-19.826 43.509 58 58 0 0 1-38.088 14.258zM120.251 91.429c-7.737 0-14.805 3.223-19.901 9.077a26.72 26.72 0 0 0-6.311 21.229c20.247 145.721 136.162 261.636 281.885 281.884a26.702 26.702 0 0 0 21.227-6.309c5.854-5.097 9.078-12.164 9.078-19.902v-68.655a5.35 5.35 0 0 0-4.426-5.277l-.001-.001-45.665-8.059c-10.02-1.764-20.271 2.461-26.131 10.769l-12.781 18.122c-4.69 6.65-13.697 8.597-20.717 4.473-52.731-30.979-96.997-74.946-128.011-127.145-4.167-7.012-2.248-16.049 4.408-20.764l18.621-13.19c8.279-5.865 12.491-16.109 10.727-26.1l-8.069-45.723a5.352 5.352 0 0 0-5.278-4.429h-68.655z" class="primary"/></g><g class="primary design" style="display:none"><path class="primary"/></g></g><g clip-path="url(#g)" style="display:none"><g class="primary design" style="display:none"><path fill="none" class="primary"/></g><g class="primary design" style="display:none"><path class="primary"/></g></g></g></svg>