<svg xmlns="http://www.w3.org/2000/svg" width="500" height="500" style="width:100%;height:100%;transform:translate3d(0,0,0);content-visibility:visible" viewBox="0 0 500 500"><defs><clipPath id="e"><path d="M0 0h500v500H0z"/></clipPath><clipPath id="k"><path d="M0 0h500v500H0z"/></clipPath><clipPath id="j"><path d="M0 0h500v500H0z"/></clipPath><clipPath id="h"><path d="M0 0h500v500H0z"/></clipPath><clipPath id="f"><path d="M0 0h500v500H0z"/></clipPath><filter id="a" width="100%" height="100%" x="0%" y="0%" filterUnits="objectBoundingBox"><feComponentTransfer in="SourceGraphic"><feFuncA tableValues="1.0 0.0" type="table"/></feComponentTransfer></filter><filter id="c" width="100%" height="100%" x="0%" y="0%" filterUnits="objectBoundingBox"><feComponentTransfer in="SourceGraphic"><feFuncA tableValues="1.0 0.0" type="table"/></feComponentTransfer></filter><mask id="i" mask-type="alpha"><g filter="url(#a)"><path fill="#fff" d="M0 0h500v500H0z" opacity="0"/><use xmlns:ns1="http://www.w3.org/1999/xlink" ns1:href="#b"/></g></mask><mask id="g" mask-type="alpha"><g filter="url(#c)"><path fill="#fff" d="M0 0h500v500H0z" opacity="0"/><use xmlns:ns2="http://www.w3.org/1999/xlink" ns2:href="#d"/></g></mask><path id="d" style="display:none"/><g id="b" class="primary design" style="display:none"><path class="primary"/></g></defs><g clip-path="url(#e)"><g clip-path="url(#f)" style="display:none"><path fill="none" class="primary" style="display:none"/><path fill="none" class="primary" style="display:none"/><path fill="none" class="primary" style="display:none"/><path fill="none" class="primary" style="display:none"/><path class="primary" style="display:none"/><g mask="url(#g)" style="display:none"><path fill="none" class="primary"/><path class="primary"/><path fill="none" class="primary"/></g><g class="primary design" style="display:none"><path class="primary"/><path class="primary"/></g><g class="primary design" style="display:none"><path fill="none" class="primary"/></g><g class="primary design" style="display:none"><path fill="none" class="primary"/></g></g><g clip-path="url(#h)" style="display:none"><g class="primary design" style="display:none"><path fill="none" class="primary"/></g><g class="primary design" style="display:none"><path fill="none" class="primary"/></g><g class="primary design" style="display:none"><path fill="none" class="primary"/></g><g class="primary design" style="display:none"><path fill="none" class="primary"/></g><g class="primary design" style="display:none"><path class="primary"/></g><g class="primary design" style="display:none"><path class="primary"/></g><g class="primary design" mask="url(#i)" style="display:none"><path class="primary"/><path fill="none" class="primary"/></g></g><g clip-path="url(#j)" style="display:block"><g class="primary design" style="display:none"><path fill="none" class="primary"/></g><g class="primary design" style="display:none"><path fill="none" class="primary"/></g><g class="primary design" style="display:none"><path fill="none" class="primary"/></g><g class="primary design" style="display:none"><path fill="none" class="primary"/></g><g class="primary design" style="display:block"><path fill="#121331" d="M423.173 166.646H388.35l-68.246-97.495c-4.957-7.081-14.715-8.803-21.796-3.846-7.081 4.957-8.803 14.714-3.847 21.795l55.682 79.546H149.839L205.521 87.1c4.956-7.081 3.234-16.838-3.847-21.795-7.08-4.958-16.839-3.236-21.796 3.846l-68.246 97.495H78.117c-8.644 0-15.65 7.007-15.65 15.65s7.006 15.649 15.65 15.649h7.873l32.648 172.115c5.126 27.02 28.807 46.632 56.309 46.634l150.078.01h.004c27.503 0 51.186-19.612 56.313-46.634v-.001l32.649-172.124h9.182c8.644 0 15.65-7.006 15.65-15.649 0-8.643-7.006-15.65-15.65-15.65zm-72.583 197.59c-2.327 12.267-13.079 21.169-25.563 21.168l-150.078-.009c-12.483-.001-23.233-8.903-25.559-21.168l-31.542-166.282h264.285L350.59 364.236z" class="primary"/></g><g class="primary design" style="display:none"><path class="primary"/></g></g><g clip-path="url(#k)" style="display:none"><g class="primary design" style="display:none"><path fill="none" class="primary"/></g><g class="primary design" style="display:none"><path fill="none" class="primary"/></g><g class="primary design" style="display:none"><path fill="none" class="primary"/></g><g class="primary design" style="display:none"><path fill="none" class="primary"/></g><g class="primary design" style="display:none"><path class="primary"/></g></g></g></svg>