<svg xmlns="http://www.w3.org/2000/svg" width="500" height="500" style="width:100%;height:100%;transform:translate3d(0,0,0);content-visibility:visible" viewBox="0 0 500 500"><defs><clipPath id="a"><path d="M0 0h500v500H0z"/></clipPath><clipPath id="d"><path d="M0 0h500v500H0z"/></clipPath><clipPath id="c"><path d="M0 0h500v500H0z"/></clipPath><clipPath id="b"><path d="M0 0h500v500H0z"/></clipPath></defs><g clip-path="url(#a)"><g clip-path="url(#b)" style="display:none"><g class="primary design" style="display:none"><path fill="none" class="primary"/></g><g class="primary design" style="display:none"><path fill="none" class="primary"/></g><g class="primary design" style="display:none"><path fill="none" class="primary"/></g><g class="primary design" style="display:none"><path class="primary"/></g><g class="primary design" style="display:none"><path class="primary"/></g><g class="primary design" style="display:none"><path class="primary"/></g><g class="primary design" style="display:none"><path class="primary"/></g></g><g clip-path="url(#c)" style="display:block"><g class="primary design" style="display:none"><path fill="none" class="primary"/></g><g class="primary design" style="display:none"><path fill="none" class="primary"/></g><g class="primary design" style="display:none"><path fill="none" class="primary"/></g><g class="primary design" style="display:block"><path fill="#121331" d="M397.33 102.673c-81.241-81.239-213.426-81.238-294.665 0-39.354 39.354-61.027 91.678-61.027 147.333s21.673 107.978 61.027 147.332c40.62 40.62 93.977 60.929 147.333 60.929 53.355 0 106.712-20.309 147.332-60.929 39.354-39.354 61.027-91.677 61.027-147.332 0-55.655-21.673-107.979-61.027-147.333zm-22.133 272.532c-69.034 69.036-181.363 69.037-250.399 0-33.442-33.442-51.86-77.905-51.86-125.199s18.418-91.758 51.86-125.2c34.518-34.518 79.858-51.777 125.199-51.777 45.342 0 90.682 17.259 125.2 51.777 33.442 33.442 51.86 77.906 51.86 125.2s-18.418 91.757-51.86 125.199z" class="primary"/></g><g class="primary design" style="display:block"><path fill="#121331" d="M265.675 243.571v-81.226c0-8.643-7.007-15.65-15.651-15.65s-15.65 7.007-15.65 15.65v87.721c0 4.396 1.818 8.362 4.737 11.205l88.389 88.394a15.599 15.599 0 0 0 11.066 4.584c4.005 0 8.011-1.527 11.067-4.583 6.111-6.111 6.111-16.021 0-22.133l-83.958-83.962z" class="primary"/></g><g class="primary design" style="display:none"><path class="primary"/></g><g class="primary design" style="display:none"><path class="primary"/></g></g><g clip-path="url(#d)" style="display:none"><g class="primary design" style="display:none"><path fill="none" class="primary"/></g><g class="primary design" style="display:none"><path fill="none" class="primary"/></g><g class="primary design" style="display:none"><path fill="none" class="primary"/></g><g class="primary design" style="display:none"><path class="primary"/></g><g class="primary design" style="display:none"><path class="primary"/></g></g></g></svg>