<svg xmlns="http://www.w3.org/2000/svg" width="144" height="144" style="width:100%;height:100%;transform:translate3d(0,0,0);content-visibility:visible" viewBox="0 0 144 144"><defs><clipPath id="a"><path d="M0 0h144v144H0z"/></clipPath><clipPath id="ad"><path d="M0 0h144v144H0z"/></clipPath><clipPath id="al"><path d="M0 0h144v144H0z"/></clipPath><clipPath id="ak"><path d="M0 0h144v144H0z"/></clipPath><clipPath id="aj"><path d="M0 0h144v144H0z"/></clipPath><clipPath id="ai"><path d="M0 0h144v144H0z"/></clipPath><clipPath id="ah"><path d="M0 0h144v144H0z"/></clipPath><clipPath id="ag"><path d="M0 0h144v144H0z"/></clipPath><clipPath id="af"><path d="M0 0h144v144H0z"/></clipPath><clipPath id="ae"><path d="M0 0h144v144H0z"/></clipPath><clipPath id="U"><path d="M0 0h144v144H0z"/></clipPath><clipPath id="ac"><path d="M0 0h144v144H0z"/></clipPath><clipPath id="ab"><path d="M0 0h144v144H0z"/></clipPath><clipPath id="aa"><path d="M0 0h144v144H0z"/></clipPath><clipPath id="Z"><path d="M0 0h144v144H0z"/></clipPath><clipPath id="Y"><path d="M0 0h144v144H0z"/></clipPath><clipPath id="X"><path d="M0 0h144v144H0z"/></clipPath><clipPath id="W"><path d="M0 0h144v144H0z"/></clipPath><clipPath id="V"><path d="M0 0h144v144H0z"/></clipPath><clipPath id="L"><path d="M0 0h144v144H0z"/></clipPath><clipPath id="T"><path d="M0 0h144v144H0z"/></clipPath><clipPath id="S"><path d="M0 0h144v144H0z"/></clipPath><clipPath id="R"><path d="M0 0h144v144H0z"/></clipPath><clipPath id="Q"><path d="M0 0h144v144H0z"/></clipPath><clipPath id="P"><path d="M0 0h144v144H0z"/></clipPath><clipPath id="O"><path d="M0 0h144v144H0z"/></clipPath><clipPath id="N"><path d="M0 0h144v144H0z"/></clipPath><clipPath id="M"><path d="M0 0h144v144H0z"/></clipPath><clipPath id="C"><path d="M0 0h144v144H0z"/></clipPath><clipPath id="K"><path d="M0 0h144v144H0z"/></clipPath><clipPath id="J"><path d="M0 0h144v144H0z"/></clipPath><clipPath id="I"><path d="M0 0h144v144H0z"/></clipPath><clipPath id="H"><path d="M0 0h144v144H0z"/></clipPath><clipPath id="G"><path d="M0 0h144v144H0z"/></clipPath><clipPath id="F"><path d="M0 0h144v144H0z"/></clipPath><clipPath id="E"><path d="M0 0h144v144H0z"/></clipPath><clipPath id="D"><path d="M0 0h144v144H0z"/></clipPath><clipPath id="t"><path d="M0 0h144v144H0z"/></clipPath><clipPath id="B"><path d="M0 0h144v144H0z"/></clipPath><clipPath id="A"><path d="M0 0h144v144H0z"/></clipPath><clipPath id="z"><path d="M0 0h144v144H0z"/></clipPath><clipPath id="y"><path d="M0 0h144v144H0z"/></clipPath><clipPath id="x"><path d="M0 0h144v144H0z"/></clipPath><clipPath id="w"><path d="M0 0h144v144H0z"/></clipPath><clipPath id="v"><path d="M0 0h144v144H0z"/></clipPath><clipPath id="u"><path d="M0 0h144v144H0z"/></clipPath><clipPath id="k"><path d="M0 0h144v144H0z"/></clipPath><clipPath id="s"><path d="M0 0h144v144H0z"/></clipPath><clipPath id="r"><path d="M0 0h144v144H0z"/></clipPath><clipPath id="q"><path d="M0 0h144v144H0z"/></clipPath><clipPath id="p"><path d="M0 0h144v144H0z"/></clipPath><clipPath id="o"><path d="M0 0h144v144H0z"/></clipPath><clipPath id="n"><path d="M0 0h144v144H0z"/></clipPath><clipPath id="m"><path d="M0 0h144v144H0z"/></clipPath><clipPath id="l"><path d="M0 0h144v144H0z"/></clipPath><clipPath id="b"><path d="M0 0h144v144H0z"/></clipPath><clipPath id="j"><path d="M0 0h144v144H0z"/></clipPath><clipPath id="i"><path d="M0 0h144v144H0z"/></clipPath><clipPath id="h"><path d="M0 0h144v144H0z"/></clipPath><clipPath id="g"><path d="M0 0h144v144H0z"/></clipPath><clipPath id="f"><path d="M0 0h144v144H0z"/></clipPath><clipPath id="e"><path d="M0 0h144v144H0z"/></clipPath><clipPath id="d"><path d="M0 0h144v144H0z"/></clipPath><clipPath id="c"><path d="M0 0h144v144H0z"/></clipPath></defs><g clip-path="url(#a)"><g clip-path="url(#b)" style="display:none"><g clip-path="url(#c)" style="display:none"><path fill="none" class="primary" style="display:none"/></g><g clip-path="url(#d)" style="display:none"><path fill="none" class="primary" style="display:none"/></g><g clip-path="url(#e)" style="display:none"><path fill="none" class="primary" style="display:none"/></g><g clip-path="url(#f)" style="display:none"><path fill="none" class="primary" style="display:none"/></g><g clip-path="url(#g)" style="display:none"><path fill="none" class="primary" style="display:none"/></g><g clip-path="url(#h)" style="display:none"><path fill="none" class="primary" style="display:none"/></g><g clip-path="url(#i)" style="display:none"><path fill="none" class="primary" style="display:none"/></g><g clip-path="url(#j)" style="display:none"><path fill="none" class="primary" style="display:none"/></g></g><g clip-path="url(#k)" style="display:none"><g clip-path="url(#l)" style="display:none"><path fill="none" class="primary" style="display:none"/></g><g clip-path="url(#m)" style="display:none"><path fill="none" class="primary" style="display:none"/></g><g clip-path="url(#n)" style="display:none"><path fill="none" class="primary" style="display:none"/></g><g clip-path="url(#o)" style="display:none"><path fill="none" class="primary" style="display:none"/></g><g clip-path="url(#p)" style="display:none"><path fill="none" class="primary" style="display:none"/></g><g clip-path="url(#q)" style="display:none"><path fill="none" class="primary" style="display:none"/></g><g clip-path="url(#r)" style="display:none"><path fill="none" class="primary" style="display:none"/></g><g clip-path="url(#s)" style="display:none"><path fill="none" class="primary" style="display:none"/></g></g><g clip-path="url(#t)" style="display:none"><g clip-path="url(#u)" style="display:none"><path fill="none" class="primary" style="display:none"/></g><g clip-path="url(#v)" style="display:none"><path fill="none" class="primary" style="display:none"/></g><g clip-path="url(#w)" style="display:none"><path fill="none" class="primary" style="display:none"/></g><g clip-path="url(#x)" style="display:none"><path fill="none" class="primary" style="display:none"/></g><g clip-path="url(#y)" style="display:none"><path fill="none" class="primary" style="display:none"/></g><g clip-path="url(#z)" style="display:none"><path fill="none" class="primary" style="display:none"/></g><g clip-path="url(#A)" style="display:none"><path fill="none" class="primary" style="display:none"/></g><g clip-path="url(#B)" style="display:none"><path fill="none" class="primary" style="display:none"/></g></g><g clip-path="url(#C)" style="display:none"><g clip-path="url(#D)" style="display:none"><path fill="none" class="primary" style="display:none"/></g><g clip-path="url(#E)" style="display:none"><path fill="none" class="primary" style="display:none"/></g><g clip-path="url(#F)" style="display:none"><path fill="none" class="primary" style="display:none"/></g><g clip-path="url(#G)" style="display:none"><path fill="none" class="primary" style="display:none"/></g><g clip-path="url(#H)" style="display:none"><path fill="none" class="primary" style="display:none"/></g><g clip-path="url(#I)" style="display:none"><path fill="none" class="primary" style="display:none"/></g><g clip-path="url(#J)" style="display:none"><path fill="none" class="primary" style="display:none"/></g><g clip-path="url(#K)" style="display:none"><path fill="none" class="primary" style="display:none"/></g></g><g clip-path="url(#L)" style="display:none"><g clip-path="url(#M)" style="display:none"><path fill="none" class="primary" style="display:none"/></g><g clip-path="url(#N)" style="display:none"><path fill="none" class="primary" style="display:none"/></g><g clip-path="url(#O)" style="display:none"><path fill="none" class="primary" style="display:none"/></g><g clip-path="url(#P)" style="display:none"><path fill="none" class="primary" style="display:none"/></g><g clip-path="url(#Q)" style="display:none"><path fill="none" class="primary" style="display:none"/></g><g clip-path="url(#R)" style="display:none"><path fill="none" class="primary" style="display:none"/></g><g clip-path="url(#S)" style="display:none"><path fill="none" class="primary" style="display:none"/></g><g clip-path="url(#T)" style="display:none"><path fill="none" class="primary" style="display:none"/></g></g><g clip-path="url(#U)" style="display:block"><g clip-path="url(#V)" style="display:block"><path fill="none" stroke="#121331" stroke-linecap="round" stroke-width="9" d="M0-6.373V-27" class="primary" style="display:block" transform="translate(72 43.25)"/></g><g clip-path="url(#W)" style="display:block" transform="rotate(45 72 72)"><path fill="none" stroke="#121331" stroke-linecap="round" stroke-width="9" d="M0-6.373V-27" class="primary" style="display:block" transform="translate(72 43.25)"/></g><g clip-path="url(#X)" style="display:block" transform="rotate(90 72 72)"><path fill="none" stroke="#121331" stroke-linecap="round" stroke-width="9" d="M0-6.373V-27" class="primary" style="display:block" transform="translate(72 43.25)"/></g><g clip-path="url(#Y)" style="display:block" transform="rotate(135 72 72)"><path fill="none" stroke="#121331" stroke-linecap="round" stroke-width="9" d="M0-6.373V-27" class="primary" style="display:block" transform="translate(72 43.25)"/></g><g clip-path="url(#Z)" style="display:block" transform="rotate(180 72 72)"><path fill="none" stroke="#121331" stroke-linecap="round" stroke-width="9" d="M0-6.373V-27" class="primary" style="display:block" transform="translate(72 43.25)"/></g><g clip-path="url(#aa)" style="display:block" transform="rotate(-135 72 72)"><path fill="none" stroke="#121331" stroke-linecap="round" stroke-width="9" d="M0-6.373V-27" class="primary" style="display:block" transform="translate(72 43.25)"/></g><g clip-path="url(#ab)" style="display:block" transform="rotate(-90 72 72)"><path fill="none" stroke="#121331" stroke-linecap="round" stroke-width="9" d="M0-6.373V-27" class="primary" style="display:block" transform="translate(72 43.25)"/></g><g clip-path="url(#ac)" style="display:block" transform="rotate(-45 72 72)"><path fill="none" stroke="#121331" stroke-linecap="round" stroke-width="9" d="M0-6.373V-27" class="primary" style="display:block" transform="translate(72 43.25)"/></g><path class="primary" style="display:none"/></g><g clip-path="url(#ad)" style="display:none"><g clip-path="url(#ae)" style="display:none"><path fill="none" class="primary" style="display:none"/></g><g clip-path="url(#af)" style="display:none"><path fill="none" class="primary" style="display:none"/></g><g clip-path="url(#ag)" style="display:none"><path fill="none" class="primary" style="display:none"/></g><g clip-path="url(#ah)" style="display:none"><path fill="none" class="primary" style="display:none"/></g><g clip-path="url(#ai)" style="display:none"><path fill="none" class="primary" style="display:none"/></g><g clip-path="url(#aj)" style="display:none"><path fill="none" class="primary" style="display:none"/></g><g clip-path="url(#ak)" style="display:none"><path fill="none" class="primary" style="display:none"/></g><g clip-path="url(#al)" style="display:none"><path fill="none" class="primary" style="display:none"/></g></g></g></svg>