<svg xmlns="http://www.w3.org/2000/svg" width="144" height="144" style="width:100%;height:100%;transform:translate3d(0,0,0);content-visibility:visible" viewBox="0 0 144 144"><defs><clipPath id="a"><path d="M0 0h144v144H0z"/></clipPath><clipPath id="aH"><path d="M0 0h144v144H0z"/></clipPath><clipPath id="aG"><path d="M0 0h144v144H0z"/></clipPath><clipPath id="ax"><path d="M0 0h144v144H0z"/></clipPath><clipPath id="aF"><path d="M0 0h50v144H0z"/></clipPath><clipPath id="aE"><path d="M0 0h50v144H0z"/></clipPath><clipPath id="aD"><path d="M0 0h50v144H0z"/></clipPath><clipPath id="aC"><path d="M0 0h50v144H0z"/></clipPath><clipPath id="aB"><path d="M0 0h50v144H0z"/></clipPath><clipPath id="aA"><path d="M0 0h50v144H0z"/></clipPath><clipPath id="az"><path d="M0 0h50v144H0z"/></clipPath><clipPath id="ay"><path d="M0 0h50v144H0z"/></clipPath><clipPath id="aw"><path d="M0 0h144v144H0z"/></clipPath><clipPath id="an"><path d="M0 0h144v144H0z"/></clipPath><clipPath id="av"><path d="M0 0h50v144H0z"/></clipPath><clipPath id="au"><path d="M0 0h50v144H0z"/></clipPath><clipPath id="at"><path d="M0 0h50v144H0z"/></clipPath><clipPath id="as"><path d="M0 0h50v144H0z"/></clipPath><clipPath id="ar"><path d="M0 0h50v144H0z"/></clipPath><clipPath id="aq"><path d="M0 0h50v144H0z"/></clipPath><clipPath id="ap"><path d="M0 0h50v144H0z"/></clipPath><clipPath id="ao"><path d="M0 0h50v144H0z"/></clipPath><clipPath id="ae"><path d="M0 0h144v144H0z"/></clipPath><clipPath id="am"><path d="M0 0h50v144H0z"/></clipPath><clipPath id="al"><path d="M0 0h50v144H0z"/></clipPath><clipPath id="ak"><path d="M0 0h50v144H0z"/></clipPath><clipPath id="aj"><path d="M0 0h50v144H0z"/></clipPath><clipPath id="ai"><path d="M0 0h50v144H0z"/></clipPath><clipPath id="ah"><path d="M0 0h50v144H0z"/></clipPath><clipPath id="ag"><path d="M0 0h50v144H0z"/></clipPath><clipPath id="af"><path d="M0 0h50v144H0z"/></clipPath><clipPath id="ad"><path d="M0 0h144v144H0z"/></clipPath><clipPath id="U"><path d="M0 0h144v144H0z"/></clipPath><clipPath id="ac"><path d="M0 0h50v144H0z"/></clipPath><clipPath id="ab"><path d="M0 0h50v144H0z"/></clipPath><clipPath id="aa"><path d="M0 0h50v144H0z"/></clipPath><clipPath id="Z"><path d="M0 0h50v144H0z"/></clipPath><clipPath id="Y"><path d="M0 0h50v144H0z"/></clipPath><clipPath id="X"><path d="M0 0h50v144H0z"/></clipPath><clipPath id="W"><path d="M0 0h50v144H0z"/></clipPath><clipPath id="V"><path d="M0 0h50v144H0z"/></clipPath><clipPath id="L"><path d="M0 0h144v144H0z"/></clipPath><clipPath id="T"><path d="M0 0h50v144H0z"/></clipPath><clipPath id="S"><path d="M0 0h50v144H0z"/></clipPath><clipPath id="R"><path d="M0 0h50v144H0z"/></clipPath><clipPath id="Q"><path d="M0 0h50v144H0z"/></clipPath><clipPath id="P"><path d="M0 0h50v144H0z"/></clipPath><clipPath id="O"><path d="M0 0h50v144H0z"/></clipPath><clipPath id="N"><path d="M0 0h50v144H0z"/></clipPath><clipPath id="M"><path d="M0 0h50v144H0z"/></clipPath><clipPath id="C"><path d="M0 0h144v144H0z"/></clipPath><clipPath id="K"><path d="M0 0h50v144H0z"/></clipPath><clipPath id="J"><path d="M0 0h50v144H0z"/></clipPath><clipPath id="I"><path d="M0 0h50v144H0z"/></clipPath><clipPath id="H"><path d="M0 0h50v144H0z"/></clipPath><clipPath id="G"><path d="M0 0h50v144H0z"/></clipPath><clipPath id="F"><path d="M0 0h50v144H0z"/></clipPath><clipPath id="E"><path d="M0 0h50v144H0z"/></clipPath><clipPath id="D"><path d="M0 0h50v144H0z"/></clipPath><clipPath id="t"><path d="M0 0h144v144H0z"/></clipPath><clipPath id="B"><path d="M0 0h50v144H0z"/></clipPath><clipPath id="A"><path d="M0 0h50v144H0z"/></clipPath><clipPath id="z"><path d="M0 0h50v144H0z"/></clipPath><clipPath id="y"><path d="M0 0h50v144H0z"/></clipPath><clipPath id="x"><path d="M0 0h50v144H0z"/></clipPath><clipPath id="w"><path d="M0 0h50v144H0z"/></clipPath><clipPath id="v"><path d="M0 0h50v144H0z"/></clipPath><clipPath id="u"><path d="M0 0h50v144H0z"/></clipPath><clipPath id="k"><path d="M0 0h144v144H0z"/></clipPath><clipPath id="s"><path d="M0 0h50v144H0z"/></clipPath><clipPath id="r"><path d="M0 0h50v144H0z"/></clipPath><clipPath id="q"><path d="M0 0h50v144H0z"/></clipPath><clipPath id="p"><path d="M0 0h50v144H0z"/></clipPath><clipPath id="o"><path d="M0 0h50v144H0z"/></clipPath><clipPath id="n"><path d="M0 0h50v144H0z"/></clipPath><clipPath id="m"><path d="M0 0h50v144H0z"/></clipPath><clipPath id="l"><path d="M0 0h50v144H0z"/></clipPath><clipPath id="b"><path d="M0 0h144v144H0z"/></clipPath><clipPath id="j"><path d="M0 0h50v144H0z"/></clipPath><clipPath id="i"><path d="M0 0h50v144H0z"/></clipPath><clipPath id="h"><path d="M0 0h50v144H0z"/></clipPath><clipPath id="g"><path d="M0 0h50v144H0z"/></clipPath><clipPath id="f"><path d="M0 0h50v144H0z"/></clipPath><clipPath id="e"><path d="M0 0h50v144H0z"/></clipPath><clipPath id="d"><path d="M0 0h50v144H0z"/></clipPath><clipPath id="c"><path d="M0 0h50v144H0z"/></clipPath></defs><g clip-path="url(#a)"><g clip-path="url(#b)" style="display:none"><g clip-path="url(#c)" style="display:none"><path class="primary" style="display:none"/></g><g clip-path="url(#d)" style="display:none"><path class="primary" style="display:none"/></g><g clip-path="url(#e)" style="display:none"><path class="primary" style="display:none"/></g><g clip-path="url(#f)" style="display:none"><path class="primary" style="display:none"/></g><g clip-path="url(#g)" style="display:none"><path class="primary" style="display:none"/></g><g clip-path="url(#h)" style="display:none"><path class="primary" style="display:none"/></g><g clip-path="url(#i)" style="display:none"><path class="primary" style="display:none"/></g><g clip-path="url(#j)" style="display:none"><path class="primary" style="display:none"/></g></g><g clip-path="url(#k)" style="display:none"><g clip-path="url(#l)" style="display:none"><path class="primary" style="display:none"/></g><g clip-path="url(#m)" style="display:none"><path class="primary" style="display:none"/></g><g clip-path="url(#n)" style="display:none"><path class="primary" style="display:none"/></g><g clip-path="url(#o)" style="display:none"><path class="primary" style="display:none"/></g><g clip-path="url(#p)" style="display:none"><path class="primary" style="display:none"/></g><g clip-path="url(#q)" style="display:none"><path class="primary" style="display:none"/></g><g clip-path="url(#r)" style="display:none"><path class="primary" style="display:none"/></g><g clip-path="url(#s)" style="display:none"><path class="primary" style="display:none"/></g></g><g clip-path="url(#t)" style="display:none"><g clip-path="url(#u)" style="display:none"><path class="primary" style="display:none"/></g><g clip-path="url(#v)" style="display:none"><path class="primary" style="display:none"/></g><g clip-path="url(#w)" style="display:none"><path class="primary" style="display:none"/></g><g clip-path="url(#x)" style="display:none"><path class="primary" style="display:none"/></g><g clip-path="url(#y)" style="display:none"><path class="primary" style="display:none"/></g><g clip-path="url(#z)" style="display:none"><path class="primary" style="display:none"/></g><g clip-path="url(#A)" style="display:none"><path class="primary" style="display:none"/></g><g clip-path="url(#B)" style="display:none"><path class="primary" style="display:none"/></g></g><g clip-path="url(#C)" style="display:none"><g clip-path="url(#D)" style="display:none"><path class="primary" style="display:none"/></g><g clip-path="url(#E)" style="display:none"><path class="primary" style="display:none"/></g><g clip-path="url(#F)" style="display:none"><path class="primary" style="display:none"/></g><g clip-path="url(#G)" style="display:none"><path class="primary" style="display:none"/></g><g clip-path="url(#H)" style="display:none"><path class="primary" style="display:none"/></g><g clip-path="url(#I)" style="display:none"><path class="primary" style="display:none"/></g><g clip-path="url(#J)" style="display:none"><path class="primary" style="display:none"/></g><g clip-path="url(#K)" style="display:none"><path class="primary" style="display:none"/></g></g><g clip-path="url(#L)" style="display:none"><g clip-path="url(#M)" style="display:none"><path class="primary" style="display:none"/></g><g clip-path="url(#N)" style="display:none"><path class="primary" style="display:none"/></g><g clip-path="url(#O)" style="display:none"><path class="primary" style="display:none"/></g><g clip-path="url(#P)" style="display:none"><path class="primary" style="display:none"/></g><g clip-path="url(#Q)" style="display:none"><path class="primary" style="display:none"/></g><g clip-path="url(#R)" style="display:none"><path class="primary" style="display:none"/></g><g clip-path="url(#S)" style="display:none"><path class="primary" style="display:none"/></g><g clip-path="url(#T)" style="display:none"><path class="primary" style="display:none"/></g></g><g clip-path="url(#U)" style="display:none"><g clip-path="url(#V)" style="display:none"><path class="primary" style="display:none"/></g><g clip-path="url(#W)" style="display:none"><path class="primary" style="display:none"/></g><g clip-path="url(#X)" style="display:none"><path class="primary" style="display:none"/></g><g clip-path="url(#Y)" style="display:none"><path class="primary" style="display:none"/></g><g clip-path="url(#Z)" style="display:none"><path class="primary" style="display:none"/></g><g clip-path="url(#aa)" style="display:none"><path class="primary" style="display:none"/></g><g clip-path="url(#ab)" style="display:none"><path class="primary" style="display:none"/></g><g clip-path="url(#ac)" style="display:none"><path class="primary" style="display:none"/></g></g><g clip-path="url(#ad)" style="display:none"><g style="display:none"><path class="primary"/><path fill="none" class="primary"/></g><g style="display:none"><path class="primary"/><path fill="none" class="primary"/></g><g style="display:none"><path class="primary"/><path fill="none" class="primary"/></g><g style="display:none"><path class="primary"/><path fill="none" class="primary"/></g><g style="display:none"><path class="primary"/><path fill="none" class="primary"/></g><g style="display:none"><path class="primary"/><path fill="none" class="primary"/></g><g style="display:none"><path class="primary"/><path fill="none" class="primary"/></g><g style="display:none"><path class="primary"/><path fill="none" class="primary"/></g></g><g clip-path="url(#ae)" style="display:none"><g clip-path="url(#af)" style="display:none"><path class="primary"/><path fill="none" class="primary"/></g><g clip-path="url(#ag)" style="display:none"><path class="primary"/><path fill="none" class="primary"/></g><g clip-path="url(#ah)" style="display:none"><path class="primary"/><path fill="none" class="primary"/></g><g clip-path="url(#ai)" style="display:none"><path class="primary"/><path fill="none" class="primary"/></g><g clip-path="url(#aj)" style="display:none"><path class="primary"/><path fill="none" class="primary"/></g><g clip-path="url(#ak)" style="display:none"><path class="primary"/><path fill="none" class="primary"/></g><g clip-path="url(#al)" style="display:none"><path class="primary"/><path fill="none" class="primary"/></g><g clip-path="url(#am)" style="display:none"><path class="primary"/><path fill="none" class="primary"/></g></g><g clip-path="url(#an)" style="display:none"><g clip-path="url(#ao)" style="display:none"><path class="primary"/><path fill="none" class="primary"/></g><g clip-path="url(#ap)" style="display:none"><path class="primary"/><path fill="none" class="primary"/></g><g clip-path="url(#aq)" style="display:none"><path class="primary"/><path fill="none" class="primary"/></g><g clip-path="url(#ar)" style="display:none"><path class="primary"/><path fill="none" class="primary"/></g><g clip-path="url(#as)" style="display:none"><path class="primary"/><path fill="none" class="primary"/></g><g clip-path="url(#at)" style="display:none"><path class="primary"/><path fill="none" class="primary"/></g><g clip-path="url(#au)" style="display:none"><path class="primary"/><path fill="none" class="primary"/></g><g clip-path="url(#av)" style="display:none"><path class="primary"/><path fill="none" class="primary"/></g></g><g clip-path="url(#aw)" style="display:none"><g style="display:none"><path class="primary"/><path fill="none" class="primary"/></g><g style="display:none"><path class="primary"/><path fill="none" class="primary"/></g><g style="display:none"><path class="primary"/><path fill="none" class="primary"/></g><g style="display:none"><path class="primary"/><path fill="none" class="primary"/></g><g style="display:none"><path class="primary"/><path fill="none" class="primary"/></g><g style="display:none"><path class="primary"/><path fill="none" class="primary"/></g></g><g clip-path="url(#ax)" style="display:none"><g clip-path="url(#ay)" style="display:none"><path class="primary" style="display:none"/></g><g clip-path="url(#az)" style="display:none"><path class="primary" style="display:none"/></g><g clip-path="url(#aA)" style="display:none"><path class="primary" style="display:none"/></g><g clip-path="url(#aB)" style="display:none"><path class="primary" style="display:none"/></g><g clip-path="url(#aC)" style="display:none"><path class="primary" style="display:none"/></g><g clip-path="url(#aD)" style="display:none"><path class="primary" style="display:none"/></g><g clip-path="url(#aE)" style="display:none"><path class="primary" style="display:none"/></g><g clip-path="url(#aF)" style="display:none"><path class="primary" style="display:none"/></g><path class="primary" style="display:none"/></g><g clip-path="url(#aG)" style="display:block"><g style="display:block"><path fill="#121331" d="M38.059 30.559c4.14 0 7.5 3.36 7.5 7.5 0 4.14-3.36 7.5-7.5 7.5-4.14 0-7.5-3.36-7.5-7.5 0-4.14 3.36-7.5 7.5-7.5z" class="primary"/><path fill="none" stroke="#121331" stroke-linecap="round" stroke-width="9" d="M38.059 30.559c4.14 0 7.5 3.36 7.5 7.5 0 4.14-3.36 7.5-7.5 7.5-4.14 0-7.5-3.36-7.5-7.5 0-4.14 3.36-7.5 7.5-7.5z" class="primary"/></g><g style="display:block"><path fill="#121331" d="M18.697 66.697a7.504 7.504 0 0 1 10.606 0 7.504 7.504 0 0 1 0 10.606 7.504 7.504 0 0 1-10.606 0 7.504 7.504 0 0 1 0-10.606z" class="primary"/><path fill="none" stroke="#121331" stroke-linecap="round" stroke-width="9" d="M18.697 66.697a7.504 7.504 0 0 1 10.606 0 7.504 7.504 0 0 1 0 10.606 7.504 7.504 0 0 1-10.606 0 7.504 7.504 0 0 1 0-10.606z" class="primary"/></g><g style="display:block"><path fill="#121331" d="M30.559 105.941c0-4.14 3.36-7.5 7.5-7.5 4.14 0 7.5 3.36 7.5 7.5 0 4.14-3.36 7.5-7.5 7.5-4.14 0-7.5-3.36-7.5-7.5z" class="primary"/><path fill="none" stroke="#121331" stroke-linecap="round" stroke-width="9" d="M30.559 105.941c0-4.14 3.36-7.5 7.5-7.5 4.14 0 7.5 3.36 7.5 7.5 0 4.14-3.36 7.5-7.5 7.5-4.14 0-7.5-3.36-7.5-7.5z" class="primary"/></g><g style="display:block"><path fill="#121331" d="M66.697 125.303a7.504 7.504 0 0 1 0-10.606 7.504 7.504 0 0 1 10.606 0 7.504 7.504 0 0 1 0 10.606 7.504 7.504 0 0 1-10.606 0z" class="primary"/><path fill="none" stroke="#121331" stroke-linecap="round" stroke-width="9" d="M66.697 125.303a7.504 7.504 0 0 1 0-10.606 7.504 7.504 0 0 1 10.606 0 7.504 7.504 0 0 1 0 10.606 7.504 7.504 0 0 1-10.606 0z" class="primary"/></g><g style="display:block"><path fill="#121331" d="M125.303 77.303a7.504 7.504 0 0 1-10.606 0 7.504 7.504 0 0 1 0-10.606 7.504 7.504 0 0 1 10.606 0 7.504 7.504 0 0 1 0 10.606z" class="primary"/><path fill="none" stroke="#121331" stroke-linecap="round" stroke-width="9" d="M125.303 77.303a7.504 7.504 0 0 1-10.606 0 7.504 7.504 0 0 1 0-10.606 7.504 7.504 0 0 1 10.606 0 7.504 7.504 0 0 1 0 10.606z" class="primary"/></g><g style="display:block"><path fill="#121331" d="M77.303 18.697a7.504 7.504 0 0 1 0 10.606 7.504 7.504 0 0 1-10.606 0 7.504 7.504 0 0 1 0-10.606 7.504 7.504 0 0 1 10.606 0z" class="primary"/><path fill="none" stroke="#121331" stroke-linecap="round" stroke-width="9" d="M77.303 18.697a7.504 7.504 0 0 1 0 10.606 7.504 7.504 0 0 1-10.606 0 7.504 7.504 0 0 1 0-10.606 7.504 7.504 0 0 1 10.606 0z" class="primary"/></g></g><g clip-path="url(#aH)" style="display:none"><g style="display:none"><path class="primary"/><path fill="none" class="primary"/></g><g style="display:none"><path class="primary"/><path fill="none" class="primary"/></g><g style="display:none"><path class="primary"/><path fill="none" class="primary"/></g><g style="display:none"><path class="primary"/><path fill="none" class="primary"/></g><g style="display:none"><path class="primary"/><path fill="none" class="primary"/></g><g style="display:none"><path class="primary"/><path fill="none" class="primary"/></g><g style="display:none"><path class="primary"/><path fill="none" class="primary"/></g><g style="display:none"><path class="primary"/><path fill="none" class="primary"/></g></g></g></svg>