<svg xmlns="http://www.w3.org/2000/svg" width="500" height="500" style="width:100%;height:100%;transform:translate3d(0,0,0);content-visibility:visible" viewBox="0 0 500 500"><defs><clipPath id="b"><path d="M0 0h500v500H0z"/></clipPath><clipPath id="e"><path d="M0 0h500v500H0z"/></clipPath><clipPath id="f"><path d="M0 0h500v500H0z"/></clipPath><clipPath id="d"><path d="M0 0h500v500H0z"/></clipPath><clipPath id="c"><path d="M0 0h500v500H0z"/></clipPath><mask id="g" mask-type="alpha"><use xmlns:ns1="http://www.w3.org/1999/xlink" ns1:href="#a"/></mask><g id="a" class="primary design" style="display:none"><path class="primary"/></g></defs><g clip-path="url(#b)"><g clip-path="url(#c)" style="display:none"><g class="primary design" style="display:none"><path fill="none" class="primary"/></g><g class="primary design" style="display:none"><path fill="none" class="primary"/></g><g class="primary design" style="display:none"><path fill="none" class="primary"/></g><g class="primary design" style="display:none"><path fill="none" class="primary"/></g><g class="primary design" style="display:none"><path fill="none" class="primary"/></g><g class="primary design" style="display:none"><path fill="none" class="primary"/></g><g class="primary design" style="display:none"><path fill="none" class="primary"/></g><g class="primary design" style="display:none"><path class="primary"/></g><g class="primary design" style="display:none"><path class="primary"/></g></g><g clip-path="url(#d)" style="display:block"><g class="primary design" style="display:none"><path fill="none" class="primary"/></g><g class="primary design" style="display:none"><path fill="none" class="primary"/></g><g class="primary design" style="display:none"><path fill="none" class="primary"/></g><g class="primary design" style="display:none"><path fill="none" class="primary"/></g><g class="primary design" style="display:none"><path fill="none" class="primary"/></g><g class="primary design" style="display:none"><path fill="none" class="primary"/></g><g class="primary design" style="display:none"><path fill="none" class="primary"/></g><g class="primary design" style="display:block"><path fill="#121331" d="M250.004 41.644c-114.89 0-208.36 93.469-208.36 208.359 0 114.89 93.47 208.359 208.36 208.359 114.89 0 208.359-93.469 208.359-208.359 0-114.89-93.469-208.359-208.359-208.359zm176.359 192.709H333.18c-1.393-60.148-10.787-114.217-25.939-151.911 64.896 22.229 112.896 81.165 119.122 151.911zM268.228 73.876c18.941 30.393 31.895 92.344 33.632 160.477H198.139c1.882-76.67 17.393-133.853 33.692-160.483a178.331 178.331 0 0 1 36.397.006zm-75.395 8.542c-15.187 37.791-24.607 91.886-26.006 151.935H73.644c6.228-70.77 54.259-129.724 119.189-151.935zM73.644 265.653h93.183c1.399 60.048 10.817 114.142 26.004 151.934-64.929-22.212-112.959-81.165-119.187-151.934zm158.185 160.482c-16.298-26.632-31.809-83.814-33.691-160.482H301.86c-1.737 68.132-14.689 130.081-33.629 160.476a178.385 178.385 0 0 1-36.402.006zm75.414-8.572c15.151-37.695 24.544-91.763 25.937-151.91h93.183c-6.226 70.745-54.225 129.681-119.12 151.91z" class="primary"/></g><g class="primary design" style="display:none"><path class="primary"/></g></g><g clip-path="url(#e)" style="display:none"><g clip-path="url(#f)" mask="url(#g)" style="display:none"><g class="primary design" style="display:none"><path fill="none" class="primary"/></g><g class="primary design" style="display:none"><path fill="none" class="primary"/></g><g class="primary design" style="display:none"><path fill="none" class="primary"/></g><g class="primary design" style="display:none"><path fill="none" class="primary"/></g><g class="primary design" style="display:none"><path fill="none" class="primary"/></g><g class="primary design" style="display:none"><path fill="none" class="primary"/></g><g class="primary design" style="display:none"><path fill="none" class="primary"/></g></g><g class="primary design" style="display:none"><path fill="none" class="primary"/></g><g class="primary design" style="display:none"><path fill="none" class="primary"/></g><g class="primary design" style="display:none"><path class="primary"/></g></g></g></svg>