<svg xmlns="http://www.w3.org/2000/svg" width="144" height="144" style="width:100%;height:100%;transform:translate3d(0,0,0);content-visibility:visible" viewBox="0 0 144 144"><defs><clipPath id="a"><path d="M0 0h144v144H0z"/></clipPath><clipPath id="e"><path d="M0 0h144v144H0z"/></clipPath><clipPath id="d"><path d="M0 0h144v144H0z"/></clipPath><clipPath id="c"><path d="M0 0h144v144H0z"/></clipPath><clipPath id="b"><path d="M0 0h144v144H0z"/></clipPath></defs><g clip-path="url(#a)"><g fill="none" clip-path="url(#b)" style="display:none"><path class="primary" style="display:none"/><path class="primary" style="display:none"/><path class="primary" style="display:none"/><path class="primary" style="display:none"/></g><g clip-path="url(#c)" style="display:none"><path fill="none" class="primary" style="display:none"/></g><g clip-path="url(#d)" style="display:block"><path fill="none" stroke="#121331" stroke-linecap="round" stroke-width="9" d="M1.789-5.037C.194-6.665.616-9.328 1.897-10.988c2.003-2.595 5.553-3.376 8.593-2.501 3.12.898 5.981 3.437 7.262 6.838 1.099 2.919 1.198 6.368.038 9.521-2.128 5.785-7.49 9.772-13.509 10.528-3.585.451-7.404-.082-10.8-1.746-2.111-1.034-4.107-2.402-5.782-4.137-3.747-3.88-6.083-9.156-6.288-14.631-.162-4.324.799-8.768 2.869-12.564 2.401-4.403 5.934-8.076 10.378-10.491 4.973-2.702 10.773-3.962 16.489-3.312 5.966.678 11.818 3.096 16.461 7.194 4.867 4.296 8.43 9.932 9.977 16.297.791 3.253 1.181 6.679.958 10.055-.347 5.255-1.782 10.419-4.409 14.984-3.425 5.951-8.416 10.965-14.59 14.169-6.902 3.582-14.683 5.115-22.388 4.118-3.941-.51-7.859-1.521-11.512-3.206C-29.181 23.289-38.377 8.438-38.7-7.785c-.019-19.284 13.048-37.305 31.219-43.359 5.168-1.722 10.642-2.71 16.137-2.605 4.324.083 8.674.624 12.861 1.847 18.235 5.327 32.573 20.778 36.162 39.533.768 4.014 1.181 7.995 1.026 12.07-.182 4.804-.866 9.552-2.3 14.143-5.859 18.758-21.113 33.287-39.834 38.005-4.977 1.254-10.123 1.993-15.293 1.901-9.791-.174-19.488-2.532-28.063-7.321-2.673-1.493-5.269-3.109-7.685-4.986-14.33-11.133-23.217-28.36-24.302-46.48" class="primary" style="display:block" transform="translate(72.5 78.001)"/></g><g clip-path="url(#e)" style="display:none"><path fill="none" class="primary" style="display:none"/></g></g></svg>