<svg xmlns="http://www.w3.org/2000/svg" width="500" height="500" style="width:100%;height:100%;transform:translate3d(0,0,0);content-visibility:visible" viewBox="0 0 500 500"><defs><clipPath id="a"><path d="M0 0h500v500H0z"/></clipPath><clipPath id="c"><path d="M0 0h500v500H0z"/></clipPath><clipPath id="b"><path d="M0 0h500v500H0z"/></clipPath></defs><g clip-path="url(#a)"><g clip-path="url(#b)" style="display:block"><g fill="none" class="primary design" style="display:none"><path class="primary"/><path class="primary"/><path class="primary"/></g><g class="primary design" style="display:none"><path fill="none" class="primary"/></g><g class="primary design" style="display:none"><path fill="none" class="primary"/></g><g class="primary design" style="display:none"><path fill="none" class="primary"/></g><g class="primary design" style="display:none"><path fill="none" class="primary"/></g><g class="primary design" style="display:none"><path fill="none" class="primary"/></g><g class="primary design" style="display:none"><path fill="none" class="primary"/></g><g class="primary design" style="display:none"><path fill="none" class="primary"/></g><g class="primary design" style="display:none"><path fill="none" class="primary"/></g><g fill="#121331" class="primary design" style="display:block"><path d="M421.869 187.476h-88.514V78.122c0-8.643-7.006-15.65-15.65-15.65H78.125c-8.644 0-15.65 7.007-15.65 15.65v291.67c0 37.347 30.383 67.73 67.73 67.73h239.581c37.348 0 67.733-30.384 67.733-67.732V203.125c0-8.643-7.006-15.649-15.65-15.649zM93.775 369.792V93.772h208.28v109.315l-.002.038V369.79c0 13.406 3.931 25.904 10.678 36.432H130.205c-20.088 0-36.43-16.343-36.43-36.43zm312.444-.002c0 20.089-16.344 36.432-36.433 36.432s-36.433-16.343-36.433-36.432V218.775h72.866V369.79z" class="primary"/><path d="M255.205 124.972H140.621c-8.644 0-15.65 7.007-15.65 15.65v72.916c0 8.643 7.006 15.65 15.65 15.65h114.584c8.644 0 15.65-7.007 15.65-15.65v-72.916c0-8.643-7.006-15.65-15.65-15.65zm-15.651 72.916h-83.282v-41.616h83.282v41.616zm15.651 62.501H140.621c-8.644 0-15.65 7.007-15.65 15.65s7.006 15.65 15.65 15.65h114.584c8.644 0 15.65-7.007 15.65-15.65s-7.006-15.65-15.65-15.65zm0 63.805H140.621c-8.644 0-15.65 7.007-15.65 15.65s7.006 15.65 15.65 15.65h114.584c8.644 0 15.65-7.007 15.65-15.65s-7.006-15.65-15.65-15.65z" class="primary"/></g><g class="primary design" style="display:none"><path class="primary"/><path class="primary"/><path class="primary"/><path class="primary"/></g></g><g clip-path="url(#c)" style="display:none"><g fill="none" class="primary design" style="display:none"><path class="primary"/><path class="primary"/><path class="primary"/></g><g class="primary design" style="display:none"><path fill="none" class="primary"/></g><g class="primary design" style="display:none"><path fill="none" class="primary"/></g><g class="primary design" style="display:none"><path fill="none" class="primary"/></g><g class="primary design" style="display:none"><path fill="none" class="primary"/></g><g class="primary design" style="display:none"><path fill="none" class="primary"/></g><g class="primary design" style="display:none"><path fill="none" class="primary"/></g><g class="primary design" style="display:none"><path class="primary"/><path class="primary"/><path class="primary"/><path class="primary"/></g></g></g></svg>