<svg xmlns="http://www.w3.org/2000/svg" width="500" height="500" style="width:100%;height:100%;transform:translate3d(0,0,0);content-visibility:visible" viewBox="0 0 500 500"><defs><clipPath id="a"><path d="M0 0h500v500H0z"/></clipPath><clipPath id="c"><path d="M0 0h500v500H0z"/></clipPath><clipPath id="b"><path d="M0 0h500v500H0z"/></clipPath></defs><g clip-path="url(#a)"><g clip-path="url(#b)" style="display:block"><g class="primary design" style="display:none"><path fill="none" class="primary"/></g><g class="primary design" style="display:none"><path fill="none" class="primary"/></g><g class="primary design" style="display:block"><path fill="#121331" d="M442.707 302.06h-26.018V119.791c0-20.117-16.366-36.483-36.483-36.483H119.79c-20.117 0-36.484 16.366-36.484 36.483V302.06H57.289c-8.644 0-15.65 7.007-15.65 15.65v41.667c0 31.604 25.713 57.316 57.317 57.316H401.04c31.604 0 57.317-25.712 57.317-57.316V317.71c0-8.643-7.006-15.65-15.65-15.65zM114.606 119.791a5.19 5.19 0 0 1 5.184-5.183h260.416a5.189 5.189 0 0 1 5.183 5.183V302.06H317.7c-2.838 0-5.621.772-8.054 2.232l-22.313 13.394h-74.662l-22.336-13.397a15.656 15.656 0 0 0-8.05-2.229h-67.679V119.791zm312.451 239.586c0 14.346-11.671 26.017-26.017 26.017H98.956c-14.346 0-26.017-11.671-26.017-26.017V333.36h105.013l22.336 13.396a15.656 15.656 0 0 0 8.05 2.229h83.331c2.838 0 5.621-.771 8.055-2.231l22.313-13.394h105.02v26.017z" class="primary"/></g><g class="primary design" style="display:none"><path class="primary"/></g></g><g clip-path="url(#c)" style="display:none"><g class="primary design" style="display:none"><path fill="none" class="primary"/></g><g class="primary design" style="display:none"><path fill="none" class="primary"/></g><g class="primary design" style="display:none"><path class="primary"/></g></g></g></svg>