<svg xmlns="http://www.w3.org/2000/svg" width="500" height="500" style="width:100%;height:100%;transform:translate3d(0,0,0);content-visibility:visible" viewBox="0 0 500 500"><defs><clipPath id="a"><path d="M0 0h500v500H0z"/></clipPath><clipPath id="d"><path d="M0 0h500v500H0z"/></clipPath><clipPath id="c"><path d="M0 0h500v500H0z"/></clipPath><clipPath id="b"><path d="M0 0h500v500H0z"/></clipPath></defs><g clip-path="url(#a)"><g clip-path="url(#b)" style="display:none"><g class="primary design" style="display:none"><path class="primary"/></g><g class="primary design" style="display:none"><path fill="none" class="primary"/></g><g class="primary design" style="display:none"><path fill="none" class="primary"/></g></g><g clip-path="url(#c)" style="display:block"><g class="primary design" style="display:none"><path fill="none" class="primary"/></g><g fill="none" class="primary design" style="display:none"><path class="primary"/><path class="primary"/></g><g class="primary design" style="display:none"><path fill="none" class="primary"/></g><g fill="#121331" class="primary design" style="display:block"><path d="M421.87 270.81c-8.644 0-15.651 7.007-15.651 15.65v93.743c0 14.345-11.67 26.016-26.016 26.016H119.79c-14.346 0-26.015-11.671-26.015-26.016v-93.748c0-8.643-7.007-15.65-15.651-15.65s-15.65 7.007-15.65 15.65v93.748c0 31.604 25.712 57.316 57.316 57.316h260.413c31.604 0 57.317-25.712 57.317-57.316V286.46c0-8.643-7.006-15.65-15.65-15.65z" class="primary"/><path d="M161.461 203.15c4.005 0 8.011-1.528 11.067-4.584l61.83-61.826-.007 201.801c0 8.643 7.007 15.65 15.65 15.65h.001c8.643 0 15.649-7.006 15.65-15.649l.007-201.804 61.817 61.819c6.112 6.112 16.021 6.111 22.133 0 6.111-6.112 6.111-16.021 0-22.133L261.076 87.89c-.02-.02-.044-.037-.064-.057a15.91 15.91 0 0 0-1.082-.978c-.185-.152-.379-.284-.569-.426-.219-.164-.433-.334-.661-.486-.224-.15-.457-.279-.686-.416-.209-.125-.413-.256-.628-.371-.233-.125-.472-.231-.71-.343-.225-.106-.447-.218-.678-.314-.232-.096-.469-.174-.705-.258-.246-.088-.488-.183-.739-.259-.238-.072-.481-.125-.722-.185-.254-.064-.504-.136-.763-.187-.283-.056-.567-.09-.852-.13-.22-.031-.437-.073-.66-.095a15.702 15.702 0 0 0-3.096 0c-.213.021-.42.062-.63.091-.296.041-.592.077-.885.135-.247.049-.485.118-.728.178-.253.063-.508.118-.758.194-.238.072-.467.162-.7.245-.249.089-.5.171-.746.273-.216.09-.422.195-.633.294-.253.118-.507.231-.755.364-.198.106-.387.227-.58.342-.246.146-.493.286-.732.446-.208.14-.404.295-.605.444-.208.155-.422.301-.624.467-.341.28-.665.58-.981.887-.052.051-.109.093-.161.145l-88.548 88.544c-6.111 6.111-6.111 16.02 0 22.132a15.599 15.599 0 0 0 11.066 4.584z" class="primary"/></g><g class="primary design" style="display:none"><path class="primary"/><path class="primary"/></g></g><g clip-path="url(#d)" style="display:none"><g class="primary design" style="display:none"><path fill="none" class="primary"/></g><g class="primary design" style="display:none"><path fill="none" class="primary"/></g><g class="primary design" style="display:none"><path class="primary"/><path class="primary"/></g></g></g></svg>