<svg xmlns="http://www.w3.org/2000/svg" width="240" height="240" style="width:100%;height:100%;transform:translate3d(0,0,0);content-visibility:visible" viewBox="0 0 240 240"><defs><clipPath id="e"><path d="M0 0h240v240H0z"/></clipPath><clipPath id="l"><path d="M0 0h240v240H0z"/></clipPath><clipPath id="k"><path d="M0 0h240v240H0z"/></clipPath><clipPath id="i"><path d="M0 0h240v240H0z"/></clipPath><clipPath id="g"><path d="M0 0h240v240H0z"/></clipPath><clipPath id="f"><path d="M0 0h240v240H0z"/></clipPath><filter id="a" width="100%" height="100%" x="0%" y="0%" filterUnits="objectBoundingBox"><feComponentTransfer in="SourceGraphic"><feFuncA tableValues="1.0 0.0" type="table"/></feComponentTransfer></filter><filter id="c" width="100%" height="100%" x="0%" y="0%" filterUnits="objectBoundingBox"><feComponentTransfer in="SourceGraphic"><feFuncA tableValues="1.0 0.0" type="table"/></feComponentTransfer></filter><mask id="j" mask-type="alpha" maskUnits="userSpaceOnUse"><g filter="url(#a)"><path fill="#fff" d="M0 0h240v240H0z" opacity="0"/><use xmlns:ns1="http://www.w3.org/1999/xlink" ns1:href="#b"/></g></mask><mask id="h" mask-type="alpha" maskUnits="userSpaceOnUse"><g filter="url(#c)"><path fill="#fff" d="M0 0h240v240H0z" opacity="0"/><use xmlns:ns2="http://www.w3.org/1999/xlink" ns2:href="#d"/></g></mask><g id="b" style="display:none"><path/><path fill-opacity="0"/></g><g id="d" style="display:none"><path/><path fill-opacity="0"/></g></defs><g clip-path="url(#e)"><g class="5" clip-path="url(#f)" style="display:none"><path class="primary" style="display:none"/><path class="primary" style="display:none"/><path class="primary" style="display:none"/></g><g clip-path="url(#g)" style="display:none"><g mask="url(#h)" style="display:none"><path class="primary"/></g><path class="primary" style="display:none"/><path class="primary" style="display:none"/></g><g clip-path="url(#i)" style="display:none"><g mask="url(#j)" style="display:none"><path class="primary"/></g><path class="primary" style="display:none"/><path class="primary" style="display:none"/></g><g fill="#121331" clip-path="url(#k)" style="display:block"><path d="M7.5-82.5a7.5 7.5 0 0 0-15 0v96.895l-29.697-29.698a7.5 7.5 0 0 0-10.606 0 7.5 7.5 0 0 0 0 10.606l42.5 42.5c.484.484 1.035.857 1.602 1.181.271.155.539.319.83.44.32.133.654.217.986.303.131.034.257.09.391.117l.166.029C-.896 39.95-.454 40 0 40c.45 0 .889-.051 1.318-.127l.166-.029c.134-.027.26-.083.391-.117.333-.086.665-.171.986-.303a7.4 7.4 0 0 0 1.416-.781 7.5 7.5 0 0 0 1.026-.84l42.5-42.5a7.5 7.5 0 0 0-10.606-10.606L7.5 14.395z" class="primary" style="display:block" transform="translate(120 120)"/><path d="M90 17.5a7.5 7.5 0 0 0-15 0v45C75 69.358 69.358 75 62.5 75h-125C-69.358 75-75 69.358-75 62.5v-45a7.5 7.5 0 0 0-15 0v45C-90 77.642-77.642 90-62.5 90h125C77.642 90 90 77.642 90 62.5z" class="primary" style="display:block" transform="translate(120 120)"/></g><g clip-path="url(#l)" style="display:none"><path fill="none" class="primary" style="display:none"/><path class="primary" style="display:none"/><path class="primary" style="display:none"/></g></g></svg>