<svg xmlns="http://www.w3.org/2000/svg" width="500" height="500" style="width:100%;height:100%;transform:translate3d(0,0,0);content-visibility:visible" viewBox="0 0 500 500"><defs><clipPath id="a"><path d="M0 0h500v500H0z"/></clipPath><clipPath id="f"><path d="M0 0h500v500H0z"/></clipPath><clipPath id="e"><path d="M0 0h500v500H0z"/></clipPath><clipPath id="d"><path d="M0 0h500v500H0z"/></clipPath><clipPath id="c"><path d="M0 0h500v500H0z"/></clipPath><clipPath id="b"><path d="M0 0h500v500H0z"/></clipPath></defs><g clip-path="url(#a)"><g class="primary design" clip-path="url(#b)" style="display:none"><path class="primary"/></g><g clip-path="url(#c)" style="display:none"><g class="primary design" style="display:none"><path class="primary"/></g><path class="primary" style="display:none"/><path class="primary" style="display:none"/><path class="primary" style="display:none"/></g><g class="primary design" clip-path="url(#d)" style="display:none"><path class="primary"/></g><g class="primary design" clip-path="url(#e)" style="display:block"><path fill="#121331" d="M401.039 406.229h-26.01v-48.89a78.072 78.072 0 0 0-34.27-64.668l-62.886-42.67 62.879-42.666a78.08 78.08 0 0 0 34.27-64.668v-48.89h26.017c8.644 0 15.65-7.007 15.65-15.65s-7.006-15.65-15.65-15.65H98.956c-8.644 0-15.65 7.007-15.65 15.65s7.006 15.65 15.65 15.65h26.017v48.889a78.073 78.073 0 0 0 34.27 64.669l62.885 42.67-62.879 42.666a78.074 78.074 0 0 0-34.27 64.668v48.89H98.956c-8.644 0-15.65 7.007-15.65 15.65s7.006 15.649 15.65 15.649h302.083c8.644 0 15.65-7.006 15.65-15.649 0-8.643-7.006-15.65-15.65-15.65zM156.273 142.666V93.777h187.449v48.89a46.803 46.803 0 0 1-20.544 38.767l-73.18 49.656-73.181-49.656a46.805 46.805 0 0 1-20.544-38.768zm.006 263.563v-48.89a46.805 46.805 0 0 1 20.544-38.768l73.181-49.655 73.181 49.655a46.805 46.805 0 0 1 20.544 38.768v48.89h-187.45z" class="primary"/></g><g clip-path="url(#f)" style="display:none"><g class="primary design" style="display:none"><path fill="none" class="primary"/></g><g class="primary design" style="display:none"><path class="primary"/></g></g></g></svg>