<svg xmlns="http://www.w3.org/2000/svg" width="240" height="240" style="width:100%;height:100%;transform:translate3d(0,0,0);content-visibility:visible" viewBox="0 0 240 240"><defs><clipPath id="b"><path d="M0 0h240v240H0z"/></clipPath><clipPath id="h"><path d="M0 0h240v240H0z"/></clipPath><clipPath id="g"><path d="M0 0h240v240H0z"/></clipPath><clipPath id="f"><path d="M0 0h240v240H0z"/></clipPath><clipPath id="e"><path d="M0 0h240v240H0z"/></clipPath><clipPath id="c"><path d="M0 0h240v240H0z"/></clipPath><path id="a" style="display:none"/><mask id="d" mask-type="alpha"><use xmlns:ns1="http://www.w3.org/1999/xlink" ns1:href="#a"/></mask></defs><g clip-path="url(#b)"><g class="5" clip-path="url(#c)" style="display:none"><g mask="url(#d)" style="display:none"><path class="primary"/></g><g style="display:none"><path class="primary"/><path class="primary"/></g></g><g class="5" clip-path="url(#e)" style="display:none"><path class="primary" style="display:none"/><path class="primary" style="display:none"/><path class="primary" style="display:none"/></g><g clip-path="url(#f)" style="display:none"><path fill="none" class="primary" style="display:none"/><path fill="none" class="primary" style="display:none"/><path fill="none" class="primary" style="display:none"/><path class="primary" style="display:none"/><path class="primary" style="display:none"/></g><g clip-path="url(#g)" style="display:block"><path fill="#121331" d="M-35-50c0-19.33 15.67-35 35-35s35 15.67 35 35v20h-70zm-30 37.5a2.5 2.5 0 0 1 2.5-2.5h125a2.5 2.5 0 0 1 2.5 2.5v95a2.5 2.5 0 0 1-2.5 2.5h-125a2.5 2.5 0 0 1-2.5-2.5zM50-50c0-27.614-22.386-50-50-50s-50 22.386-50 50v20h-12.5C-72.165-30-80-22.165-80-12.5v95c0 9.665 7.835 17.5 17.5 17.5h125c9.665 0 17.5-7.835 17.5-17.5v-95C80-22.165 72.165-30 62.5-30H50zM7.5 22.5a7.5 7.5 0 0 0-15 0v30a7.5 7.5 0 0 0 15 0z" class="primary" style="display:block" transform="translate(120 120)"/></g><g clip-path="url(#h)" style="display:none"><path fill="none" class="primary" style="display:none"/><path fill="none" class="primary" style="display:none"/><path fill="none" class="primary" style="display:none"/><path class="primary" style="display:none"/></g></g></svg>