<svg xmlns="http://www.w3.org/2000/svg" width="240" height="240" style="width:100%;height:100%;transform:translate3d(0,0,0);content-visibility:visible" viewBox="0 0 240 240"><defs><clipPath id="b"><path d="M0 0h240v240H0z"/></clipPath><clipPath id="f"><path d="M0 0h240v240H0z"/></clipPath><clipPath id="e"><path d="M0 0h240v240H0z"/></clipPath><clipPath id="c"><path d="M0 0h240v240H0z"/></clipPath><path id="a" style="display:none"/><mask id="d" mask-type="alpha"><use xmlns:ns1="http://www.w3.org/1999/xlink" ns1:href="#a"/></mask></defs><g clip-path="url(#b)"><g class="5" clip-path="url(#c)" style="display:none"><g mask="url(#d)" style="display:none"><path class="primary"/></g><path class="primary" style="display:none"/></g><g clip-path="url(#e)" style="display:block"><path fill="#121331" d="M-2.727-77.323c1.115-2.26 4.339-2.26 5.454 0l22.22 45.022a7.5 7.5 0 0 0 5.648 4.102l49.682 7.216c2.493.362 3.49 3.424 1.688 5.184L46.05 19.286a7.5 7.5 0 0 0-2.152 6.629l8.459 49.511c.424 2.483-2.183 4.376-4.413 3.203L3.492 55.241a7.5 7.5 0 0 0-6.984 0l-44.452 23.388c-2.23 1.173-4.837-.719-4.413-3.203l8.459-49.511a7.5 7.5 0 0 0-2.152-6.629l-35.915-35.085c-1.802-1.76-.805-4.822 1.688-5.184l49.682-7.216a7.5 7.5 0 0 0 5.648-4.102zm18.905-6.64c-6.618-13.408-25.738-13.408-32.356 0l-20.476 41.487-45.78 6.649c-14.789 2.148-20.703 20.315-10.013 30.758l33.1 32.336-7.796 45.633C-69.661 87.636-54.19 98.865-40.96 91.904L0 70.354l40.96 21.55c13.23 6.961 28.701-4.268 26.183-19.004l-7.797-45.633L92.447-5.069c10.69-10.443 4.776-28.61-10.013-30.758l-45.781-6.649z" class="primary" style="display:block" transform="translate(120.002 114.8)"/></g><g clip-path="url(#f)" style="display:none"><path class="primary" style="display:none"/><path fill="none" class="primary" style="display:none"/><path fill="none" class="primary" style="display:none"/></g></g></svg>