<svg xmlns="http://www.w3.org/2000/svg" xmlns:xlink="http://www.w3.org/1999/xlink" viewBox="0 0 430 430" width="430" height="430" preserveAspectRatio="xMidYMid meet" style="width: 100%; height: 100%; transform: translate3d(0px, 0px, 0px); content-visibility: visible;"><defs><clipPath id="__lottie_element_1534"><rect width="430" height="430" x="0" y="0"/></clipPath><clipPath id="__lottie_element_1536"><path d="M0,0 L430,0 L430,430 L0,430z"/></clipPath><g id="__lottie_element_1550"><g transform="matrix(0.9999921917915344,0,0,0.9999921917915344,-20.248165130615234,-39.374019622802734)" opacity="1" style="display: block;"><g opacity="0" transform="matrix(1,0,0,1,250,139.78399658203125)"><path fill="rgb(109,45,16)" fill-opacity="1" d=" M0,19.187999725341797 C0,19.187999725341797 0,19.187999725341797 0,19.187999725341797 M0,19.187999725341797 C0,19.187999725341797 0,19.187999725341797 0,19.187999725341797 C0,19.187999725341797 0,19.187999725341797 0,19.187999725341797 C0,19.187999725341797 0,19.187999725341797 0,19.187999725341797 C0,19.187999725341797 0,19.187999725341797 0,19.187999725341797z"/></g><g opacity="1" transform="matrix(1,0,0,1,250,139.78399658203125)"><path fill="rgb(109,45,16)" fill-opacity="1" d=" M0,-25.152999877929688 C0,-25.152999877929688 0,19.216999053955078 0,19.216999053955078 M24.75,-49.90299987792969 C24.75,-36.23400115966797 13.668999671936035,-25.152999877929688 0,-25.152999877929688 C-13.668999671936035,-25.152999877929688 -24.75,-36.23400115966797 -24.75,-49.90299987792969 C-24.75,-63.571998596191406 -13.668999671936035,-74.65299987792969 0,-74.65299987792969 C13.668999671936035,-74.65299987792969 24.75,-63.571998596191406 24.75,-49.90299987792969z"/></g></g></g><g id="__lottie_element_1562"><g transform="matrix(0.4999960958957672,0.8660186529159546,-0.8660186529159546,0.4999960958957672,305.41229248046875,-161.50392150878906)" opacity="1" style="display: block;"><g opacity="0" transform="matrix(1,0,0,1,285,139.78399658203125)"><path fill="rgb(98,47,24)" fill-opacity="1" d=" M0,19.187999725341797 C0,19.187999725341797 0,19.187999725341797 0,19.187999725341797 M0,19.187999725341797 C0,19.187999725341797 0,19.187999725341797 0,19.187999725341797 C0,19.187999725341797 0,19.187999725341797 0,19.187999725341797 C0,19.187999725341797 0,19.187999725341797 0,19.187999725341797 C0,19.187999725341797 0,19.187999725341797 0,19.187999725341797z"/></g><g opacity="1" transform="matrix(1,0,0,1,285,139.78399658203125)"><path fill="rgb(98,47,24)" fill-opacity="1" d=" M0,-25.152999877929688 C0,-25.152999877929688 0,19.216999053955078 0,19.216999053955078 M24.75,-49.90299987792969 C24.75,-36.23400115966797 13.668999671936035,-25.152999877929688 0,-25.152999877929688 C-13.668999671936035,-25.152999877929688 -24.75,-36.23400115966797 -24.75,-49.90299987792969 C-24.75,-63.571998596191406 -13.668999671936035,-74.65299987792969 0,-74.65299987792969 C13.668999671936035,-74.65299987792969 24.75,-63.571998596191406 24.75,-49.90299987792969z"/></g></g></g><g id="__lottie_element_1574"><g transform="matrix(-0.4999960958957672,0.8660186529159546,-0.8660186529159546,-0.4999960958957672,572.6602172851562,118.61990356445312)" opacity="1" style="display: block;"><path fill="rgb(98,47,24)" fill-opacity="1" d=" M250,158.97 C250,158.97 250,158.97 250,158.97 M250,158.97 C250,158.97 250,158.97 250,158.97 C250,158.97 250,158.97 250,158.97 C250,158.97 250,158.97 250,158.97 C250,158.97 250,158.97 250,158.97z M250,114.63 C250,114.63 250,159 250,159 M274.75,89.88 C274.75,103.55 263.67,114.63 250,114.63 C236.33,114.63 225.25,103.55 225.25,89.88 C225.25,76.21 236.33,65.13 250,65.13 C263.67,65.13 274.75,76.21 274.75,89.88z"/><g opacity="0" transform="matrix(1,0,0,1,250,139.78399658203125)"/><g opacity="1" transform="matrix(1,0,0,1,250,139.78399658203125)"/></g></g><g id="__lottie_element_1586"><g transform="matrix(-0.9999921917915344,0,0,-0.9999921917915344,479.8729248046875,459.74908447265625)" opacity="1" style="display: block;"><path fill="rgb(98,47,24)" fill-opacity="1" d=" M250,158.97 C250,158.97 250,158.97 250,158.97 M250,158.97 C250,158.97 250,158.97 250,158.97 C250,158.97 250,158.97 250,158.97 C250,158.97 250,158.97 250,158.97 C250,158.97 250,158.97 250,158.97z M250,114.63 C250,114.63 250,159 250,159 M274.75,89.88 C274.75,103.55 263.67,114.63 250,114.63 C236.33,114.63 225.25,103.55 225.25,89.88 C225.25,76.21 236.33,65.13 250,65.13 C263.67,65.13 274.75,76.21 274.75,89.88z"/><g opacity="0" transform="matrix(1,0,0,1,250,139.78399658203125)"/><g opacity="1" transform="matrix(1,0,0,1,250,139.78399658203125)"/></g></g><g id="__lottie_element_1598"><g transform="matrix(-0.4999960958957672,-0.8660186529159546,0.8660186529159546,-0.4999960958957672,136.9626007080078,551.5042114257812)" opacity="1" style="display: block;"><path fill="rgb(98,47,24)" fill-opacity="1" d=" M250,158.97 C250,158.97 250,158.97 250,158.97 M250,158.97 C250,158.97 250,158.97 250,158.97 C250,158.97 250,158.97 250,158.97 C250,158.97 250,158.97 250,158.97 C250,158.97 250,158.97 250,158.97z M250,114.63 C250,114.63 250,159 250,159 M274.75,89.88 C274.75,103.55 263.67,114.63 250,114.63 C236.33,114.63 225.25,103.55 225.25,89.88 C225.25,76.21 236.33,65.13 250,65.13 C263.67,65.13 274.75,76.21 274.75,89.88z"/><g opacity="0" transform="matrix(1,0,0,1,250,139.78399658203125)"/><g opacity="1" transform="matrix(1,0,0,1,250,139.78399658203125)"/></g></g><g id="__lottie_element_1610"><g transform="matrix(0.4999960958957672,-0.8660186529159546,0.8660186529159546,0.4999960958957672,-112.91046905517578,301.5051574707031)" opacity="1" style="display: block;"><path fill="rgb(98,47,24)" fill-opacity="1" d=" M250,158.97 C250,158.97 250,158.97 250,158.97 M250,158.97 C250,158.97 250,158.97 250,158.97 C250,158.97 250,158.97 250,158.97 C250,158.97 250,158.97 250,158.97 C250,158.97 250,158.97 250,158.97z M250,114.63 C250,114.63 250,159 250,159 M274.75,89.88 C274.75,103.55 263.67,114.63 250,114.63 C236.33,114.63 225.25,103.55 225.25,89.88 C225.25,76.21 236.33,65.13 250,65.13 C263.67,65.13 274.75,76.21 274.75,89.88z"/><g opacity="0" transform="matrix(1,0,0,1,250,139.78399658203125)"/><g opacity="1" transform="matrix(1,0,0,1,250,139.78399658203125)"/></g></g><filter id="__lottie_element_1630" filterUnits="objectBoundingBox" x="0%" y="0%" width="100%" height="100%"><feComponentTransfer in="SourceGraphic"><feFuncA type="table" tableValues="1.0 0.0"/></feComponentTransfer></filter><mask id="__lottie_element_1610_2" mask-type="alpha" maskUnits="userSpaceOnUse"><g filter="url(#__lottie_element_1630)"><rect width="430" height="430" x="0" y="0" fill="#ffffff" opacity="0"/><use xmlns:ns1="http://www.w3.org/1999/xlink" ns1:href="#__lottie_element_1610"/></g></mask><filter id="__lottie_element_1631" filterUnits="objectBoundingBox" x="0%" y="0%" width="100%" height="100%"><feComponentTransfer in="SourceGraphic"><feFuncA type="table" tableValues="1.0 0.0"/></feComponentTransfer></filter><mask id="__lottie_element_1598_2" mask-type="alpha" maskUnits="userSpaceOnUse"><g filter="url(#__lottie_element_1631)"><rect width="430" height="430" x="0" y="0" fill="#ffffff" opacity="0"/><use xmlns:ns2="http://www.w3.org/1999/xlink" ns2:href="#__lottie_element_1598"/></g></mask><filter id="__lottie_element_1632" filterUnits="objectBoundingBox" x="0%" y="0%" width="100%" height="100%"><feComponentTransfer in="SourceGraphic"><feFuncA type="table" tableValues="1.0 0.0"/></feComponentTransfer></filter><mask id="__lottie_element_1586_2" mask-type="alpha" maskUnits="userSpaceOnUse"><g filter="url(#__lottie_element_1632)"><rect width="430" height="430" x="0" y="0" fill="#ffffff" opacity="0"/><use xmlns:ns3="http://www.w3.org/1999/xlink" ns3:href="#__lottie_element_1586"/></g></mask><filter id="__lottie_element_1633" filterUnits="objectBoundingBox" x="0%" y="0%" width="100%" height="100%"><feComponentTransfer in="SourceGraphic"><feFuncA type="table" tableValues="1.0 0.0"/></feComponentTransfer></filter><mask id="__lottie_element_1574_2" mask-type="alpha" maskUnits="userSpaceOnUse"><g filter="url(#__lottie_element_1633)"><rect width="430" height="430" x="0" y="0" fill="#ffffff" opacity="0"/><use xmlns:ns4="http://www.w3.org/1999/xlink" ns4:href="#__lottie_element_1574"/></g></mask><filter id="__lottie_element_1634" filterUnits="objectBoundingBox" x="0%" y="0%" width="100%" height="100%"><feComponentTransfer in="SourceGraphic"><feFuncA type="table" tableValues="1.0 0.0"/></feComponentTransfer></filter><mask id="__lottie_element_1562_2" mask-type="alpha" maskUnits="userSpaceOnUse"><g filter="url(#__lottie_element_1634)"><rect width="430" height="430" x="0" y="0" fill="#ffffff" opacity="0"/><use xmlns:ns5="http://www.w3.org/1999/xlink" ns5:href="#__lottie_element_1562"/></g></mask><filter id="__lottie_element_1635" filterUnits="objectBoundingBox" x="0%" y="0%" width="100%" height="100%"><feComponentTransfer in="SourceGraphic"><feFuncA type="table" tableValues="1.0 0.0"/></feComponentTransfer></filter><mask id="__lottie_element_1550_2" mask-type="alpha" maskUnits="userSpaceOnUse"><g filter="url(#__lottie_element_1635)"><rect width="430" height="430" x="0" y="0" fill="#ffffff" opacity="0"/><use xmlns:ns6="http://www.w3.org/1999/xlink" ns6:href="#__lottie_element_1550"/></g></mask></defs><g clip-path="url(#__lottie_element_1534)"><g clip-path="url(#__lottie_element_1536)" transform="matrix(1,0,0,1,0,0)" opacity="1" style="display: block;"><g transform="matrix(0.9999921917915344,0,0,0.9999921917915344,-35.248046875,-34.999053955078125)" opacity="1" style="display: block;"><g opacity="0" transform="matrix(1,0,0,1,250,139.78399658203125)"><path stroke-linecap="round" stroke-linejoin="round" fill-opacity="0" class="quaternary" stroke="rgb(228,209,249)" stroke-opacity="1" stroke-width="7" d=" M0,19.187999725341797 C0,19.187999725341797 0,19.187999725341797 0,19.187999725341797"/></g><g opacity="1" transform="matrix(1,0,0,1,250,139.78399658203125)"><path stroke-linecap="round" stroke-linejoin="round" fill-opacity="0" class="quaternary" stroke="rgb(228,209,249)" stroke-opacity="1" stroke-width="7" d=" M0,-25.152999877929688 C0,-25.152999877929688 0,19.216999053955078 0,19.216999053955078"/></g></g><g transform="matrix(0.9999921917915344,0,0,0.9999921917915344,-35.248046875,-34.999053955078125)" opacity="1" style="display: block;"><g opacity="0" transform="matrix(1,0,0,1,250,139.78399658203125)"><path class="tertiary" fill="rgb(222,91,167)" fill-opacity="1" d=" M0,19.187999725341797 C0,19.187999725341797 0,19.187999725341797 0,19.187999725341797 M0,19.187999725341797 C0,19.187999725341797 0,19.187999725341797 0,19.187999725341797 C0,19.187999725341797 0,19.187999725341797 0,19.187999725341797 C0,19.187999725341797 0,19.187999725341797 0,19.187999725341797 C0,19.187999725341797 0,19.187999725341797 0,19.187999725341797z"/></g><g opacity="1" transform="matrix(1,0,0,1,250,139.78399658203125)"><path class="tertiary" fill="rgb(222,91,167)" fill-opacity="1" d=" M0,-25.152999877929688 C0,-25.152999877929688 0,19.216999053955078 0,19.216999053955078 M24.75,-49.90299987792969 C24.75,-36.23400115966797 13.668999671936035,-25.152999877929688 0,-25.152999877929688 C-13.668999671936035,-25.152999877929688 -24.75,-36.23400115966797 -24.75,-49.90299987792969 C-24.75,-63.571998596191406 -13.668999671936035,-74.65299987792969 0,-74.65299987792969 C13.668999671936035,-74.65299987792969 24.75,-63.571998596191406 24.75,-49.90299987792969z"/></g></g><g mask="url(#__lottie_element_1550_2)" style="display: block;"><g transform="matrix(0.9999921917915344,0,0,0.9999921917915344,-35.248046875,-34.999053955078125)" opacity="1"><g opacity="0" transform="matrix(1,0,0,1,250,139.78399658203125)"><path class="tertiary" fill="rgb(222,91,167)" fill-opacity="1" d=" M0,19.187999725341797 C0,19.187999725341797 0,19.187999725341797 0,19.187999725341797 M0,19.187999725341797 C0,19.187999725341797 0,19.187999725341797 0,19.187999725341797 C0,19.187999725341797 0,19.187999725341797 0,19.187999725341797 C0,19.187999725341797 0,19.187999725341797 0,19.187999725341797 C0,19.187999725341797 0,19.187999725341797 0,19.187999725341797z"/><path class="tertiary" fill="rgb(222,91,167)" fill-opacity="0.5" d=" M0,19.187999725341797 C0,19.187999725341797 0,19.187999725341797 0,19.187999725341797 M0,19.187999725341797 C0,19.187999725341797 0,19.187999725341797 0,19.187999725341797 C0,19.187999725341797 0,19.187999725341797 0,19.187999725341797 C0,19.187999725341797 0,19.187999725341797 0,19.187999725341797 C0,19.187999725341797 0,19.187999725341797 0,19.187999725341797z" style="mix-blend-mode: multiply;"/></g><g opacity="1" transform="matrix(1,0,0,1,250,139.78399658203125)"><path class="tertiary" fill="rgb(222,91,167)" fill-opacity="1" d=" M0,-25.152999877929688 C0,-25.152999877929688 0,19.216999053955078 0,19.216999053955078 M24.75,-49.90299987792969 C24.75,-36.23400115966797 13.668999671936035,-25.152999877929688 0,-25.152999877929688 C-13.668999671936035,-25.152999877929688 -24.75,-36.23400115966797 -24.75,-49.90299987792969 C-24.75,-63.571998596191406 -13.668999671936035,-74.65299987792969 0,-74.65299987792969 C13.668999671936035,-74.65299987792969 24.75,-63.571998596191406 24.75,-49.90299987792969z"/><path class="tertiary" fill="rgb(222,91,167)" fill-opacity="0.5" d=" M0,-25.152999877929688 C0,-25.152999877929688 0,19.216999053955078 0,19.216999053955078 M24.75,-49.90299987792969 C24.75,-36.23400115966797 13.668999671936035,-25.152999877929688 0,-25.152999877929688 C-13.668999671936035,-25.152999877929688 -24.75,-36.23400115966797 -24.75,-49.90299987792969 C-24.75,-63.571998596191406 -13.668999671936035,-74.65299987792969 0,-74.65299987792969 C13.668999671936035,-74.65299987792969 24.75,-63.571998596191406 24.75,-49.90299987792969z" style="mix-blend-mode: multiply;"/></g></g></g><g transform="matrix(0.4999960958957672,0.8660186529159546,-0.8660186529159546,0.4999960958957672,306.91229248046875,-127.00419616699219)" opacity="1" style="display: block;"><g opacity="0" transform="matrix(1,0,0,1,250,139.78399658203125)"><path stroke-linecap="round" stroke-linejoin="round" fill-opacity="0" class="quaternary" stroke="rgb(228,209,249)" stroke-opacity="1" stroke-width="7" d=" M0,19.187999725341797 C0,19.187999725341797 0,19.187999725341797 0,19.187999725341797"/></g><g opacity="1" transform="matrix(1,0,0,1,250,139.78399658203125)"><path stroke-linecap="round" stroke-linejoin="round" fill-opacity="0" class="quaternary" stroke="rgb(228,209,249)" stroke-opacity="1" stroke-width="7" d=" M0,-25.152999877929688 C0,-25.152999877929688 0,19.216999053955078 0,19.216999053955078"/></g></g><g transform="matrix(0.4999960958957672,0.8660186529159546,-0.8660186529159546,0.4999960958957672,306.91229248046875,-127.00419616699219)" opacity="1" style="display: block;"><g opacity="0" transform="matrix(1,0,0,1,250,139.78399658203125)"><path class="tertiary" fill="rgb(222,91,167)" fill-opacity="1" d=" M0,19.187999725341797 C0,19.187999725341797 0,19.187999725341797 0,19.187999725341797 M0,19.187999725341797 C0,19.187999725341797 0,19.187999725341797 0,19.187999725341797 C0,19.187999725341797 0,19.187999725341797 0,19.187999725341797 C0,19.187999725341797 0,19.187999725341797 0,19.187999725341797 C0,19.187999725341797 0,19.187999725341797 0,19.187999725341797z"/></g><g opacity="1" transform="matrix(1,0,0,1,250,139.78399658203125)"><path class="tertiary" fill="rgb(222,91,167)" fill-opacity="1" d=" M0,-25.152999877929688 C0,-25.152999877929688 0,19.216999053955078 0,19.216999053955078 M24.75,-49.90299987792969 C24.75,-36.23400115966797 13.668999671936035,-25.152999877929688 0,-25.152999877929688 C-13.668999671936035,-25.152999877929688 -24.75,-36.23400115966797 -24.75,-49.90299987792969 C-24.75,-63.571998596191406 -13.668999671936035,-74.65299987792969 0,-74.65299987792969 C13.668999671936035,-74.65299987792969 24.75,-63.571998596191406 24.75,-49.90299987792969z"/></g></g><g mask="url(#__lottie_element_1562_2)" style="display: block;"><g transform="matrix(0.4999960958957672,0.8660186529159546,-0.8660186529159546,0.4999960958957672,307.41229248046875,-127.00419616699219)" opacity="1"><g opacity="0" transform="matrix(1,0,0,1,250,139.78399658203125)"><path class="tertiary" fill="rgb(222,91,167)" fill-opacity="1" d=" M0,19.187999725341797 C0,19.187999725341797 0,19.187999725341797 0,19.187999725341797 M0,19.187999725341797 C0,19.187999725341797 0,19.187999725341797 0,19.187999725341797 C0,19.187999725341797 0,19.187999725341797 0,19.187999725341797 C0,19.187999725341797 0,19.187999725341797 0,19.187999725341797 C0,19.187999725341797 0,19.187999725341797 0,19.187999725341797z"/><path class="tertiary" fill="rgb(222,91,167)" fill-opacity="0.5" d=" M0,19.187999725341797 C0,19.187999725341797 0,19.187999725341797 0,19.187999725341797 M0,19.187999725341797 C0,19.187999725341797 0,19.187999725341797 0,19.187999725341797 C0,19.187999725341797 0,19.187999725341797 0,19.187999725341797 C0,19.187999725341797 0,19.187999725341797 0,19.187999725341797 C0,19.187999725341797 0,19.187999725341797 0,19.187999725341797z" style="mix-blend-mode: multiply;"/></g><g opacity="1" transform="matrix(1,0,0,1,250,139.78399658203125)"><path class="tertiary" fill="rgb(222,91,167)" fill-opacity="1" d=" M0,-25.152999877929688 C0,-25.152999877929688 0,19.216999053955078 0,19.216999053955078 M24.75,-49.90299987792969 C24.75,-36.23400115966797 13.668999671936035,-25.152999877929688 0,-25.152999877929688 C-13.668999671936035,-25.152999877929688 -24.75,-36.23400115966797 -24.75,-49.90299987792969 C-24.75,-63.571998596191406 -13.668999671936035,-74.65299987792969 0,-74.65299987792969 C13.668999671936035,-74.65299987792969 24.75,-63.571998596191406 24.75,-49.90299987792969z"/><path class="tertiary" fill="rgb(222,91,167)" fill-opacity="0.5" d=" M0,-25.152999877929688 C0,-25.152999877929688 0,19.216999053955078 0,19.216999053955078 M24.75,-49.90299987792969 C24.75,-36.23400115966797 13.668999671936035,-25.152999877929688 0,-25.152999877929688 C-13.668999671936035,-25.152999877929688 -24.75,-36.23400115966797 -24.75,-49.90299987792969 C-24.75,-63.571998596191406 -13.668999671936035,-74.65299987792969 0,-74.65299987792969 C13.668999671936035,-74.65299987792969 24.75,-63.571998596191406 24.75,-49.90299987792969z" style="mix-blend-mode: multiply;"/></g></g></g><g transform="matrix(-0.4999960958957672,0.8660186529159546,-0.8660186529159546,-0.4999960958957672,557.9103393554688,123.99485778808594)" opacity="1" style="display: block;"><g opacity="0" transform="matrix(1,0,0,1,250,139.78399658203125)"><path stroke-linecap="round" stroke-linejoin="round" fill-opacity="0" class="quaternary" stroke="rgb(228,209,249)" stroke-opacity="1" stroke-width="7" d=" M0,19.187999725341797 C0,19.187999725341797 0,19.187999725341797 0,19.187999725341797"/></g><g opacity="1" transform="matrix(1,0,0,1,250,139.78399658203125)"><path stroke-linecap="round" stroke-linejoin="round" fill-opacity="0" class="quaternary" stroke="rgb(228,209,249)" stroke-opacity="1" stroke-width="7" d=" M0,-25.152999877929688 C0,-25.152999877929688 0,19.216999053955078 0,19.216999053955078"/></g></g><g transform="matrix(-0.4999960958957672,0.8660186529159546,-0.8660186529159546,-0.4999960958957672,557.9103393554688,123.99485778808594)" opacity="1" style="display: block;"><path class="tertiary" fill="rgb(222,91,167)" fill-opacity="1" d=" M250,158.97 C250,158.97 250,158.97 250,158.97 M250,158.97 C250,158.97 250,158.97 250,158.97 C250,158.97 250,158.97 250,158.97 C250,158.97 250,158.97 250,158.97 C250,158.97 250,158.97 250,158.97z M250,114.63 C250,114.63 250,159 250,159 M274.75,89.88 C274.75,103.55 263.67,114.63 250,114.63 C236.33,114.63 225.25,103.55 225.25,89.88 C225.25,76.21 236.33,65.13 250,65.13 C263.67,65.13 274.75,76.21 274.75,89.88z"/><g opacity="0" transform="matrix(1,0,0,1,250,139.78399658203125)"/><g opacity="1" transform="matrix(1,0,0,1,250,139.78399658203125)"/></g><g mask="url(#__lottie_element_1574_2)" style="display: block;"><g transform="matrix(-0.4999960958957672,0.8660186529159546,-0.8660186529159546,-0.4999960958957672,557.9103393554688,123.99485778808594)" opacity="1"><path class="tertiary" fill="rgb(222,91,167)" fill-opacity="1" d=" M250,158.97 C250,158.97 250,158.97 250,158.97 M250,158.97 C250,158.97 250,158.97 250,158.97 C250,158.97 250,158.97 250,158.97 C250,158.97 250,158.97 250,158.97 C250,158.97 250,158.97 250,158.97z M250,114.63 C250,114.63 250,159 250,159 M274.75,89.88 C274.75,103.55 263.67,114.63 250,114.63 C236.33,114.63 225.25,103.55 225.25,89.88 C225.25,76.21 236.33,65.13 250,65.13 C263.67,65.13 274.75,76.21 274.75,89.88z"/><path class="tertiary" fill="rgb(222,91,167)" fill-opacity="0.5" d=" M250,158.97 C250,158.97 250,158.97 250,158.97 M250,158.97 C250,158.97 250,158.97 250,158.97 C250,158.97 250,158.97 250,158.97 C250,158.97 250,158.97 250,158.97 C250,158.97 250,158.97 250,158.97z M250,114.63 C250,114.63 250,159 250,159 M274.75,89.88 C274.75,103.55 263.67,114.63 250,114.63 C236.33,114.63 225.25,103.55 225.25,89.88 C225.25,76.21 236.33,65.13 250,65.13 C263.67,65.13 274.75,76.21 274.75,89.88z" style="mix-blend-mode: multiply;"/><g opacity="0" transform="matrix(1,0,0,1,250,139.78399658203125)"/><g opacity="1" transform="matrix(1,0,0,1,250,139.78399658203125)"/></g></g><g transform="matrix(-0.9999921917915344,0,0,-0.9999921917915344,464.748046875,464.9990539550781)" opacity="1" style="display: block;"><g opacity="0" transform="matrix(1,0,0,1,250,139.78399658203125)"><path stroke-linecap="round" stroke-linejoin="round" fill-opacity="0" class="quaternary" stroke="rgb(228,209,249)" stroke-opacity="1" stroke-width="7" d=" M0,19.187999725341797 C0,19.187999725341797 0,19.187999725341797 0,19.187999725341797"/></g><g opacity="1" transform="matrix(1,0,0,1,250,139.78399658203125)"><path stroke-linecap="round" stroke-linejoin="round" fill-opacity="0" class="quaternary" stroke="rgb(228,209,249)" stroke-opacity="1" stroke-width="7" d=" M0,-25.152999877929688 C0,-25.152999877929688 0,19.216999053955078 0,19.216999053955078"/></g></g><g transform="matrix(-0.9999921917915344,0,0,-0.9999921917915344,464.748046875,464.9990539550781)" opacity="1" style="display: block;"><path class="tertiary" fill="rgb(222,91,167)" fill-opacity="1" d=" M250,158.97 C250,158.97 250,158.97 250,158.97 M250,158.97 C250,158.97 250,158.97 250,158.97 C250,158.97 250,158.97 250,158.97 C250,158.97 250,158.97 250,158.97 C250,158.97 250,158.97 250,158.97z M250,114.63 C250,114.63 250,159 250,159 M274.75,89.88 C274.75,103.55 263.67,114.63 250,114.63 C236.33,114.63 225.25,103.55 225.25,89.88 C225.25,76.21 236.33,65.13 250,65.13 C263.67,65.13 274.75,76.21 274.75,89.88z"/><g opacity="0" transform="matrix(1,0,0,1,250,139.78399658203125)"/><g opacity="1" transform="matrix(1,0,0,1,250,139.78399658203125)"/></g><g mask="url(#__lottie_element_1586_2)" style="display: block;"><g transform="matrix(-0.9999921917915344,0,0,-0.9999921917915344,464.748046875,464.9990539550781)" opacity="1"><path class="tertiary" fill="rgb(222,91,167)" fill-opacity="1" d=" M250,158.97 C250,158.97 250,158.97 250,158.97 M250,158.97 C250,158.97 250,158.97 250,158.97 C250,158.97 250,158.97 250,158.97 C250,158.97 250,158.97 250,158.97 C250,158.97 250,158.97 250,158.97z M250,114.63 C250,114.63 250,159 250,159 M274.75,89.88 C274.75,103.55 263.67,114.63 250,114.63 C236.33,114.63 225.25,103.55 225.25,89.88 C225.25,76.21 236.33,65.13 250,65.13 C263.67,65.13 274.75,76.21 274.75,89.88z"/><path class="tertiary" fill="rgb(222,91,167)" fill-opacity="0.5" d=" M250,158.97 C250,158.97 250,158.97 250,158.97 M250,158.97 C250,158.97 250,158.97 250,158.97 C250,158.97 250,158.97 250,158.97 C250,158.97 250,158.97 250,158.97 C250,158.97 250,158.97 250,158.97z M250,114.63 C250,114.63 250,159 250,159 M274.75,89.88 C274.75,103.55 263.67,114.63 250,114.63 C236.33,114.63 225.25,103.55 225.25,89.88 C225.25,76.21 236.33,65.13 250,65.13 C263.67,65.13 274.75,76.21 274.75,89.88z" style="mix-blend-mode: multiply;"/><g opacity="0" transform="matrix(1,0,0,1,250,139.78399658203125)"/><g opacity="1" transform="matrix(1,0,0,1,250,139.78399658203125)"/></g></g><g transform="matrix(-0.4999960958957672,-0.8660186529159546,0.8660186529159546,-0.4999960958957672,122.08771514892578,556.5042114257812)" opacity="1" style="display: block;"><g opacity="0" transform="matrix(1,0,0,1,250,139.78399658203125)"><path stroke-linecap="round" stroke-linejoin="round" fill-opacity="0" class="quaternary" stroke="rgb(228,209,249)" stroke-opacity="1" stroke-width="7" d=" M0,19.187999725341797 C0,19.187999725341797 0,19.187999725341797 0,19.187999725341797"/></g><g opacity="1" transform="matrix(1,0,0,1,250,139.78399658203125)"><path stroke-linecap="round" stroke-linejoin="round" fill-opacity="0" class="quaternary" stroke="rgb(228,209,249)" stroke-opacity="1" stroke-width="7" d=" M0,-25.152999877929688 C0,-25.152999877929688 0,19.216999053955078 0,19.216999053955078"/></g></g><g transform="matrix(-0.4999960958957672,-0.8660186529159546,0.8660186529159546,-0.4999960958957672,122.08771514892578,556.5042114257812)" opacity="1" style="display: block;"><path class="tertiary" fill="rgb(222,91,167)" fill-opacity="1" d=" M250,158.97 C250,158.97 250,158.97 250,158.97 M250,158.97 C250,158.97 250,158.97 250,158.97 C250,158.97 250,158.97 250,158.97 C250,158.97 250,158.97 250,158.97 C250,158.97 250,158.97 250,158.97z M250,114.63 C250,114.63 250,159 250,159 M274.75,89.88 C274.75,103.55 263.67,114.63 250,114.63 C236.33,114.63 225.25,103.55 225.25,89.88 C225.25,76.21 236.33,65.13 250,65.13 C263.67,65.13 274.75,76.21 274.75,89.88z"/><g opacity="0" transform="matrix(1,0,0,1,250,139.78399658203125)"/><g opacity="1" transform="matrix(1,0,0,1,250,139.78399658203125)"/></g><g mask="url(#__lottie_element_1598_2)" style="display: block;"><g transform="matrix(-0.4999960958957672,-0.8660186529159546,0.8660186529159546,-0.4999960958957672,122.08771514892578,556.5042114257812)" opacity="1"><path class="tertiary" fill="rgb(222,91,167)" fill-opacity="1" d=" M250,158.97 C250,158.97 250,158.97 250,158.97 M250,158.97 C250,158.97 250,158.97 250,158.97 C250,158.97 250,158.97 250,158.97 C250,158.97 250,158.97 250,158.97 C250,158.97 250,158.97 250,158.97z M250,114.63 C250,114.63 250,159 250,159 M274.75,89.88 C274.75,103.55 263.67,114.63 250,114.63 C236.33,114.63 225.25,103.55 225.25,89.88 C225.25,76.21 236.33,65.13 250,65.13 C263.67,65.13 274.75,76.21 274.75,89.88z"/><path class="tertiary" fill="rgb(222,91,167)" fill-opacity="0.5" d=" M250,158.97 C250,158.97 250,158.97 250,158.97 M250,158.97 C250,158.97 250,158.97 250,158.97 C250,158.97 250,158.97 250,158.97 C250,158.97 250,158.97 250,158.97 C250,158.97 250,158.97 250,158.97z M250,114.63 C250,114.63 250,159 250,159 M274.75,89.88 C274.75,103.55 263.67,114.63 250,114.63 C236.33,114.63 225.25,103.55 225.25,89.88 C225.25,76.21 236.33,65.13 250,65.13 C263.67,65.13 274.75,76.21 274.75,89.88z" style="mix-blend-mode: multiply;"/><g opacity="0" transform="matrix(1,0,0,1,250,139.78399658203125)"/><g opacity="1" transform="matrix(1,0,0,1,250,139.78399658203125)"/></g></g><g transform="matrix(0.4999960958957672,-0.8660186529159546,0.8660186529159546,0.4999960958957672,-127.41035461425781,306.505126953125)" opacity="1" style="display: block;"><g opacity="0" transform="matrix(1,0,0,1,250,139.78399658203125)"><path stroke-linecap="round" stroke-linejoin="round" fill-opacity="0" class="quaternary" stroke="rgb(228,209,249)" stroke-opacity="1" stroke-width="7" d=" M0,19.187999725341797 C0,19.187999725341797 0,19.187999725341797 0,19.187999725341797"/></g><g opacity="1" transform="matrix(1,0,0,1,250,139.78399658203125)"><path stroke-linecap="round" stroke-linejoin="round" fill-opacity="0" class="quaternary" stroke="rgb(228,209,249)" stroke-opacity="1" stroke-width="7" d=" M0,-25.152999877929688 C0,-25.152999877929688 0,19.216999053955078 0,19.216999053955078"/></g></g><g transform="matrix(0.4999960958957672,-0.8660186529159546,0.8660186529159546,0.4999960958957672,-127.41035461425781,306.505126953125)" opacity="1" style="display: block;"><path class="tertiary" fill="rgb(222,91,167)" fill-opacity="1" d=" M250,158.97 C250,158.97 250,158.97 250,158.97 M250,158.97 C250,158.97 250,158.97 250,158.97 C250,158.97 250,158.97 250,158.97 C250,158.97 250,158.97 250,158.97 C250,158.97 250,158.97 250,158.97z M250,114.63 C250,114.63 250,159 250,159 M274.75,89.88 C274.75,103.55 263.67,114.63 250,114.63 C236.33,114.63 225.25,103.55 225.25,89.88 C225.25,76.21 236.33,65.13 250,65.13 C263.67,65.13 274.75,76.21 274.75,89.88z"/><g opacity="0" transform="matrix(1,0,0,1,250,139.78399658203125)"/><g opacity="1" transform="matrix(1,0,0,1,250,139.78399658203125)"/></g><g mask="url(#__lottie_element_1610_2)" style="display: block;"><g transform="matrix(0.4999960958957672,-0.8660186529159546,0.8660186529159546,0.4999960958957672,-127.41035461425781,306.505126953125)" opacity="1"><path class="tertiary" fill="rgb(222,91,167)" fill-opacity="1" d=" M250,158.97 C250,158.97 250,158.97 250,158.97 M250,158.97 C250,158.97 250,158.97 250,158.97 C250,158.97 250,158.97 250,158.97 C250,158.97 250,158.97 250,158.97 C250,158.97 250,158.97 250,158.97z M250,114.63 C250,114.63 250,159 250,159 M274.75,89.88 C274.75,103.55 263.67,114.63 250,114.63 C236.33,114.63 225.25,103.55 225.25,89.88 C225.25,76.21 236.33,65.13 250,65.13 C263.67,65.13 274.75,76.21 274.75,89.88z"/><path class="tertiary" fill="rgb(222,91,167)" fill-opacity="0.5" d=" M250,158.97 C250,158.97 250,158.97 250,158.97 M250,158.97 C250,158.97 250,158.97 250,158.97 C250,158.97 250,158.97 250,158.97 C250,158.97 250,158.97 250,158.97 C250,158.97 250,158.97 250,158.97z M250,114.63 C250,114.63 250,159 250,159 M274.75,89.88 C274.75,103.55 263.67,114.63 250,114.63 C236.33,114.63 225.25,103.55 225.25,89.88 C225.25,76.21 236.33,65.13 250,65.13 C263.67,65.13 274.75,76.21 274.75,89.88z" style="mix-blend-mode: multiply;"/><g opacity="0" transform="matrix(1,0,0,1,250,139.78399658203125)"/><g opacity="1" transform="matrix(1,0,0,1,250,139.78399658203125)"/></g></g><g transform="matrix(0.9999921917915344,0,0,0.9999921917915344,215,215.49998474121094)" opacity="1" style="display: block;"><g opacity="1" transform="matrix(1,0,0,1,0,0)"><path class="quinary" fill="rgb(235,230,239)" fill-opacity="1" d=" M77.95500183105469,45.00699996948242 C85.61499786376953,31.76799964904785 90,16.395999908447266 90,0 C90,-16.395999908447266 85.61499786376953,-31.76799964904785 77.95500183105469,-45.00699996948242 C62.393001556396484,-71.90399932861328 33.310001373291016,-90 0,-90 C-33.310001373291016,-90 -62.393001556396484,-71.90499877929688 -77.95500183105469,-45.007999420166016 C-85.61499786376953,-31.76799964904785 -90,-16.395999908447266 -90,0 C-90,16.395999908447266 -85.61499786376953,31.76799964904785 -77.95500183105469,45.007999420166016 C-73.70999908447266,52.345001220703125 -68.45899963378906,59.0260009765625 -62.39099884033203,64.86399841308594 C-46.21200180053711,80.43000030517578 -24.224000930786133,90 0,90 C24.224000930786133,90 46.21200180053711,80.43000030517578 62.39099884033203,64.86399841308594 C68.45899963378906,59.0260009765625 73.70999908447266,52.34400177001953 77.95500183105469,45.00699996948242z"/></g></g><g transform="matrix(0.9999921917915344,0,0,0.9999921917915344,215,277.99951171875)" opacity="1" style="display: block;"><g opacity="1" transform="matrix(1,0,0,1,0,0)"><path class="primary" fill="rgb(242,139,168)" fill-opacity="1" d=" M20,-27.5 C39.542999267578125,-27.5 56.17499923706055,-15.043000221252441 62.39099884033203,2.364000082015991 C46.21200180053711,17.93000030517578 24.224000930786133,27.5 0,27.5 C-24.224000930786133,27.5 -46.21200180053711,17.93000030517578 -62.39099884033203,2.364000082015991 C-56.17499923706055,-15.043000221252441 -39.542999267578125,-27.5 -20,-27.5 C-20,-27.5 20,-27.5 20,-27.5z"/></g></g><g transform="matrix(0.9999921917915344,0,0,0.9999921917915344,186.30422973632812,273.321533203125)" opacity="0.5" style="mix-blend-mode: multiply; display: block;"><g opacity="1" transform="matrix(1,0,0,1,0,0)"><path class="primary" fill="rgb(242,139,168)" fill-opacity="1" d=" M-11.303999900817871,22.17799949645996 C-11.303999900817871,22.17799949645996 -11.303999900817871,22.82200050354004 -11.303999900817871,22.82200050354004 C-19.569000244140625,18.71500015258789 -27.11400032043457,13.375 -33.69599914550781,7.041999816894531 C-27.479999542236328,-10.364999771118164 -10.847000122070312,-22.82200050354004 8.696000099182129,-22.82200050354004 C8.696000099182129,-22.82200050354004 33.69599914550781,-22.82200050354004 33.69599914550781,-22.82200050354004 C8.843000411987305,-22.82200050354004 -11.303999900817871,-2.674999952316284 -11.303999900817871,22.17799949645996z"/></g></g><g transform="matrix(0.9299927353858948,0,0,0.9299927353858948,215.5,195.75013732910156)" opacity="1" style="display: block;"><g opacity="1" transform="matrix(1,0,0,1,0,0)"><path class="secondary" fill="rgb(255,199,56)" fill-opacity="1" d=" M32.5,0 C32.5,17.948999404907227 17.948999404907227,32.5 0,32.5 C-17.948999404907227,32.5 -32.5,17.948999404907227 -32.5,0 C-32.5,-17.948999404907227 -17.948999404907227,-32.5 0,-32.5 C17.948999404907227,-32.5 32.5,-17.948999404907227 32.5,0z"/></g></g><g transform="matrix(0.9299927353858948,0,0,0.9299927353858948,207.99005126953125,195.75013732910156)" opacity="0.5" style="mix-blend-mode: multiply; display: block;"><g opacity="1" transform="matrix(1,0,0,1,0,0)"><path class="secondary" fill="rgb(255,199,56)" fill-opacity="1" d=" M-4.989999771118164,-5 C-4.989999771118164,-16.514999389648438 0.9980000257492065,-26.631000518798828 10.029999732971191,-32.40399932861328 C9.197999954223633,-32.46799850463867 8.357999801635742,-32.5 7.510000228881836,-32.5 C-10.439000129699707,-32.5 -24.989999771118164,-17.948999404907227 -24.989999771118164,0 C-24.989999771118164,17.948999404907227 -10.439000129699707,32.5 7.510000228881836,32.5 C13.944999694824219,32.5 19.94300079345703,30.6299991607666 24.989999771118164,27.40399932861328 C8.218000411987305,26.118000030517578 -4.989999771118164,12.10099983215332 -4.989999771118164,-5z"/></g></g></g></g></svg>