<svg xmlns="http://www.w3.org/2000/svg" xmlns:xlink="http://www.w3.org/1999/xlink" viewBox="0 0 430 430" width="430" height="430" preserveAspectRatio="xMidYMid meet" style="width: 100%; height: 100%; transform: translate3d(0px, 0px, 0px); content-visibility: visible;"><defs><clipPath id="__lottie_element_1871"><rect width="430" height="430" x="0" y="0"/></clipPath><clipPath id="__lottie_element_1873"><path d="M0,0 L430,0 L430,430 L0,430z"/></clipPath><g id="__lottie_element_1902"><g transform="matrix(0.9305298328399658,0.23607681691646576,-0.23607681691646576,0.9305298328399658,84.79722595214844,203.5252227783203)" opacity="0.5" style="mix-blend-mode: multiply; display: block;"><g opacity="1" transform="matrix(1,0,0,1,0,0)"><path fill="rgb(58,51,71)" fill-opacity="1" d=" M262.3410949707031,-110.95848846435547 C262.3410949707031,-110.95848846435547 262.3410949707031,-107.45848846435547 262.3410949707031,-107.45848846435547 C262.3410949707031,-107.45848846435547 262.3410949707031,108.18151092529297 262.3410949707031,108.18151092529297 C262.3410949707031,108.18151092529297 -13.324999809265137,109.56999969482422 -13.324999809265137,109.56999969482422 C-14.253000259399414,109.56999969482422 -15.144000053405762,109.20099639892578 -15.800000190734863,108.54499816894531 C-16.45599937438965,107.88899993896484 -16.825000762939453,106.99800109863281 -16.825000762939453,106.06999969482422 C-16.825000762939453,106.06999969482422 -16.825000762939453,-106.06999969482422 -16.825000762939453,-106.06999969482422 C-16.825000762939453,-106.99800109863281 -16.45599937438965,-107.88899993896484 -15.800000190734863,-108.54499816894531 C-15.144000053405762,-109.20099639892578 -14.253000259399414,-109.56999969482422 -13.324999809265137,-109.56999969482422 C-13.324999809265137,-109.56999969482422 262.3410949707031,-110.95848846435547 262.3410949707031,-110.95848846435547z"/><path stroke-linecap="butt" stroke-linejoin="miter" fill-opacity="0" stroke-miterlimit="4" stroke="rgb(58,51,71)" stroke-opacity="1" stroke-width="1" d=" M262.3410949707031,-110.95848846435547 C262.3410949707031,-110.95848846435547 262.3410949707031,-107.45848846435547 262.3410949707031,-107.45848846435547 C262.3410949707031,-107.45848846435547 262.3410949707031,108.18151092529297 262.3410949707031,108.18151092529297 C262.3410949707031,108.18151092529297 -13.324999809265137,109.56999969482422 -13.324999809265137,109.56999969482422 C-14.253000259399414,109.56999969482422 -15.144000053405762,109.20099639892578 -15.800000190734863,108.54499816894531 C-16.45599937438965,107.88899993896484 -16.825000762939453,106.99800109863281 -16.825000762939453,106.06999969482422 C-16.825000762939453,106.06999969482422 -16.825000762939453,-106.06999969482422 -16.825000762939453,-106.06999969482422 C-16.825000762939453,-106.99800109863281 -16.45599937438965,-107.88899993896484 -15.800000190734863,-108.54499816894531 C-15.144000053405762,-109.20099639892578 -14.253000259399414,-109.56999969482422 -13.324999809265137,-109.56999969482422 C-13.324999809265137,-109.56999969482422 262.3410949707031,-110.95848846435547 262.3410949707031,-110.95848846435547z"/></g></g></g><mask id="__lottie_element_1902_1" mask-type="alpha"><use xmlns:ns1="http://www.w3.org/1999/xlink" ns1:href="#__lottie_element_1902"/></mask></defs><g clip-path="url(#__lottie_element_1871)"><g clip-path="url(#__lottie_element_1873)" transform="matrix(1,0,0,1,0,0)" opacity="1" style="display: block;"><g transform="matrix(0.9305298328399658,0.23607681691646576,-0.23607681691646576,0.9305298328399658,149.5545196533203,99.35601806640625)" opacity="1" style="display: block;"><g opacity="1" transform="matrix(1,0,0,1,0,0)"><path class="tertiary" fill="rgb(255,199,56)" fill-opacity="1" d=" M9.725889205932617,-16.71245765686035 C9.725889205932617,-16.71245765686035 -20.270347595214844,-16.97156524658203 -20.270347595214844,-16.97156524658203 C-22.20334815979004,-16.97156524658203 -23.770347595214844,-15.404565811157227 -23.770347595214844,-13.471566200256348 C-23.770347595214844,-13.471566200256348 -23.770347595214844,13.178434371948242 -23.770347595214844,13.178434371948242 C-23.770347595214844,15.111433982849121 -22.20334815979004,16.678434371948242 -20.270347595214844,16.678434371948242 C-20.270347595214844,16.678434371948242 9.725889205932617,16.937541961669922 9.725889205932617,16.937541961669922 C11.658888816833496,16.937541961669922 13.225889205932617,15.3705415725708 13.225889205932617,13.437541961669922 C13.225889205932617,13.437541961669922 13.225889205932617,-13.212458610534668 13.225889205932617,-13.212458610534668 C13.225889205932617,-15.145458221435547 11.658888816833496,-16.71245765686035 9.725889205932617,-16.71245765686035z"/></g></g><g transform="matrix(0.9305298328399658,0.23607681691646576,-0.23607681691646576,0.9305298328399658,139.69998168945312,96.85590362548828)" opacity="0.5" style="mix-blend-mode: multiply; display: block;"><g opacity="1" transform="matrix(1,0,0,1,0,0)"><path class="tertiary" fill="rgb(255,199,56)" fill-opacity="1" d=" M-10.934489250183105,-16.67829132080078 C-10.934489250183105,-16.67829132080078 10.302726745605469,-16.326454162597656 10.302726745605469,-16.326454162597656 C10.302726745605469,-16.326454162597656 10.15999984741211,16.825000762939453 10.15999984741211,16.825000762939453 C10.15999984741211,16.825000762939453 -11.077215194702148,16.473163604736328 -11.077215194702148,16.473163604736328 C-12.005215644836426,16.473163604736328 -12.896215438842773,16.104162216186523 -13.552215576171875,15.448163032531738 C-14.208215713500977,14.792162895202637 -14.577215194702148,13.901163101196289 -14.577215194702148,12.973162651062012 C-14.577215194702148,12.973162651062012 -14.434489250183105,-13.178290367126465 -14.434489250183105,-13.178290367126465 C-14.434489250183105,-14.106290817260742 -14.064825057983398,-14.99729061126709 -13.408824920654297,-15.653290748596191 C-12.752824783325195,-16.309289932250977 -11.862488746643066,-16.67829132080078 -10.934489250183105,-16.67829132080078z"/></g></g><g transform="matrix(0.9305298328399658,0.23607681691646576,-0.23607681691646576,0.9305298328399658,228.3270721435547,218.2633819580078)" opacity="1" style="display: block;"><g opacity="1" transform="matrix(1,0,0,1,0,0)"><path class="primary" fill="rgb(34,108,224)" fill-opacity="1" d=" M52.87018966674805,-89.05265808105469 C52.87018966674805,-89.05265808105469 154.25631713867188,-88.92597198486328 154.25631713867188,-88.92597198486328 C154.25631713867188,-88.92597198486328 154.25631713867188,-88.92597198486328 154.25631713867188,-88.92597198486328 C155.18431091308594,-88.92597198486328 156.0753173828125,-88.55697631835938 156.7313232421875,-87.90097045898438 C157.38731384277344,-87.2449722290039 157.75631713867188,-86.35397338867188 157.75631713867188,-85.42597198486328 C157.75631713867188,-85.42597198486328 157.75631713867188,128.73202514648438 157.75631713867188,128.73202514648438 C157.75631713867188,129.6600341796875 157.38731384277344,130.551025390625 156.7313232421875,131.20703125 C156.0753173828125,131.86302185058594 155.18431091308594,132.23202514648438 154.25631713867188,132.23202514648438 C154.25631713867188,132.23202514648438 -162.3719940185547,132.59800720214844 -162.3719940185547,132.59800720214844 C-163.3000030517578,132.59800720214844 -164.1909942626953,132.22900390625 -164.8470001220703,131.572998046875 C-165.5030059814453,130.91700744628906 -165.8719940185547,130.0260009765625 -165.8719940185547,129.09800720214844 C-165.8719940185547,129.09800720214844 -165.8719940185547,-85.05999755859375 -165.8719940185547,-85.05999755859375 C-165.8719940185547,-85.98799896240234 -165.5030059814453,-86.87899780273438 -164.8470001220703,-87.53500366210938 C-164.1909942626953,-88.19100189208984 -163.3000030517578,-88.55999755859375 -162.3719940185547,-88.55999755859375 C-162.3719940185547,-88.55999755859375 -80.99552917480469,-88.79489135742188 -80.99552917480469,-88.79489135742188 C-80.99552917480469,-88.79489135742188 -65.78176879882812,-130.01181030273438 -65.78176879882812,-130.01181030273438 C-65.52877044677734,-130.6658172607422 -65.08377075195312,-131.22882080078125 -64.50576782226562,-131.62681579589844 C-63.927772521972656,-132.02481079101562 -63.243770599365234,-132.2388153076172 -62.541770935058594,-132.2418212890625 C-62.541770935058594,-132.2418212890625 34.070068359375,-132.37464904785156 34.070068359375,-132.37464904785156 C34.77506637573242,-132.3756561279297 35.46406936645508,-132.16278076171875 36.04606628417969,-131.7647705078125 C36.62806701660156,-131.3667755126953 37.075069427490234,-130.8026580810547 37.3300666809082,-130.1446533203125 C37.3300666809082,-130.1446533203125 52.87018966674805,-89.05265808105469 52.87018966674805,-89.05265808105469z"/><path stroke-linecap="butt" stroke-linejoin="miter" fill-opacity="0" stroke-miterlimit="4" class="primary" stroke="rgb(34,108,224)" stroke-opacity="1" stroke-width="1" d=" M52.87018966674805,-89.05265808105469 C52.87018966674805,-89.05265808105469 154.25631713867188,-88.92597198486328 154.25631713867188,-88.92597198486328 C154.25631713867188,-88.92597198486328 154.25631713867188,-88.92597198486328 154.25631713867188,-88.92597198486328 C155.18431091308594,-88.92597198486328 156.0753173828125,-88.55697631835938 156.7313232421875,-87.90097045898438 C157.38731384277344,-87.2449722290039 157.75631713867188,-86.35397338867188 157.75631713867188,-85.42597198486328 C157.75631713867188,-85.42597198486328 157.75631713867188,128.73202514648438 157.75631713867188,128.73202514648438 C157.75631713867188,129.6600341796875 157.38731384277344,130.551025390625 156.7313232421875,131.20703125 C156.0753173828125,131.86302185058594 155.18431091308594,132.23202514648438 154.25631713867188,132.23202514648438 C154.25631713867188,132.23202514648438 -162.3719940185547,132.59800720214844 -162.3719940185547,132.59800720214844 C-163.3000030517578,132.59800720214844 -164.1909942626953,132.22900390625 -164.8470001220703,131.572998046875 C-165.5030059814453,130.91700744628906 -165.8719940185547,130.0260009765625 -165.8719940185547,129.09800720214844 C-165.8719940185547,129.09800720214844 -165.8719940185547,-85.05999755859375 -165.8719940185547,-85.05999755859375 C-165.8719940185547,-85.98799896240234 -165.5030059814453,-86.87899780273438 -164.8470001220703,-87.53500366210938 C-164.1909942626953,-88.19100189208984 -163.3000030517578,-88.55999755859375 -162.3719940185547,-88.55999755859375 C-162.3719940185547,-88.55999755859375 -80.99552917480469,-88.79489135742188 -80.99552917480469,-88.79489135742188 C-80.99552917480469,-88.79489135742188 -65.78176879882812,-130.01181030273438 -65.78176879882812,-130.01181030273438 C-65.52877044677734,-130.6658172607422 -65.08377075195312,-131.22882080078125 -64.50576782226562,-131.62681579589844 C-63.927772521972656,-132.02481079101562 -63.243770599365234,-132.2388153076172 -62.541770935058594,-132.2418212890625 C-62.541770935058594,-132.2418212890625 34.070068359375,-132.37464904785156 34.070068359375,-132.37464904785156 C34.77506637573242,-132.3756561279297 35.46406936645508,-132.16278076171875 36.04606628417969,-131.7647705078125 C36.62806701660156,-131.3667755126953 37.075069427490234,-130.8026580810547 37.3300666809082,-130.1446533203125 C37.3300666809082,-130.1446533203125 52.87018966674805,-89.05265808105469 52.87018966674805,-89.05265808105469z"/></g></g><g transform="matrix(0.9305298328399658,0.23607681691646576,-0.23607681691646576,0.9305298328399658,220.10641479492188,107.52406311035156)" opacity="1" style="mix-blend-mode: multiply; display: block;"><g opacity="1" transform="matrix(1,0,0,1,0,0)"><path class="primary" fill="rgb(34,108,224)" fill-opacity="0.5" d=" M48.49395751953125,-22.236631393432617 C48.49395751953125,-22.236631393432617 49.73295211791992,-18.024463653564453 49.73295211791992,-18.024463653564453 C49.73295211791992,-18.024463653564453 61.68898010253906,20.870893478393555 61.68898010253906,20.870893478393555 C61.68898010253906,20.870893478393555 -44.5816650390625,20.398929595947266 -44.5816650390625,20.398929595947266 C-44.5816650390625,20.398929595947266 -29.051666259765625,-20.69375991821289 -29.051666259765625,-20.69375991821289 C-28.797664642333984,-21.349760055541992 -28.351665496826172,-21.913068771362305 -27.771665573120117,-22.31106948852539 C-27.191665649414062,-22.709070205688477 -26.50466537475586,-22.922760009765625 -25.801666259765625,-22.92376136779785 C-25.801666259765625,-22.92376136779785 48.49395751953125,-22.236631393432617 48.49395751953125,-22.236631393432617z"/></g></g><g transform="matrix(0.9208189845085144,0.23361316323280334,-0.23361316323280334,0.9208189845085144,208.70721435546875,248.909912109375)" opacity="0.5" style="mix-blend-mode: multiply; display: block;"><g opacity="1" transform="matrix(1,0,0,1,0,0)"><path class="primary" fill="rgb(34,108,224)" fill-opacity="1" d=" M-118.87769317626953,-66.46629333496094 C-107.3780746459961,-75.654296875 -93.85758209228516,-80.55817413330078 -80.02754974365234,-80.55817413330078 C-80.02754974365234,-80.55817413330078 -80.02754974365234,-80.55817413330078 -80.02754974365234,-80.55817413330078 C-61.490604400634766,-80.53217315673828 -43.71923065185547,-71.71529388427734 -30.610557556152344,-56.04329299926758 C-17.501888275146484,-40.37129211425781 43.11635971069336,-30.049575805664062 43.121604919433594,-7.884576320648193 C43.12360382080078,8.652423858642578 39.023929595947266,24.818424224853516 31.34140968322754,38.56942367553711 C23.658889770507812,52.3204231262207 12.737905502319336,63.03842544555664 -0.0389859639108181,69.36842346191406 C-12.815877914428711,75.69842529296875 -80.09947204589844,88.28182983398438 -93.66429138183594,85.05682373046875 C-107.2291030883789,81.83182525634766 -119.69046020507812,73.86982727050781 -129.4701385498047,62.17682647705078 C-139.25070190429688,50.48382568359375 -145.9100341796875,35.586708068847656 -148.60919189453125,19.367706298828125 C-151.308349609375,3.1487069129943848 -149.9241943359375,-13.66329288482666 -144.63165283203125,-28.941293716430664 C-139.33909606933594,-44.21929168701172 -130.37730407714844,-57.27829360961914 -118.87769317626953,-66.46629333496094z"/></g></g><g transform="matrix(0.9305298328399658,0.23607681691646576,-0.23607681691646576,0.9305298328399658,84.79722595214844,203.5252227783203)" opacity="0.5" style="mix-blend-mode: multiply; display: block;"><g opacity="1" transform="matrix(1,0,0,1,0,0)"><path class="primary" fill="rgb(34,108,224)" fill-opacity="1" d=" M262.3410949707031,-110.95848846435547 C262.3410949707031,-110.95848846435547 262.3410949707031,-107.45848846435547 262.3410949707031,-107.45848846435547 C262.3410949707031,-107.45848846435547 262.3410949707031,108.18151092529297 262.3410949707031,108.18151092529297 C262.3410949707031,108.18151092529297 -13.324999809265137,109.56999969482422 -13.324999809265137,109.56999969482422 C-14.253000259399414,109.56999969482422 -15.144000053405762,109.20099639892578 -15.800000190734863,108.54499816894531 C-16.45599937438965,107.88899993896484 -16.825000762939453,106.99800109863281 -16.825000762939453,106.06999969482422 C-16.825000762939453,106.06999969482422 -16.825000762939453,-106.06999969482422 -16.825000762939453,-106.06999969482422 C-16.825000762939453,-106.99800109863281 -16.45599937438965,-107.88899993896484 -15.800000190734863,-108.54499816894531 C-15.144000053405762,-109.20099639892578 -14.253000259399414,-109.56999969482422 -13.324999809265137,-109.56999969482422 C-13.324999809265137,-109.56999969482422 262.3410949707031,-110.95848846435547 262.3410949707031,-110.95848846435547z"/><path stroke-linecap="butt" stroke-linejoin="miter" fill-opacity="0" stroke-miterlimit="4" class="primary" stroke="rgb(34,108,224)" stroke-opacity="1" stroke-width="1" d=" M262.3410949707031,-110.95848846435547 C262.3410949707031,-110.95848846435547 262.3410949707031,-107.45848846435547 262.3410949707031,-107.45848846435547 C262.3410949707031,-107.45848846435547 262.3410949707031,108.18151092529297 262.3410949707031,108.18151092529297 C262.3410949707031,108.18151092529297 -13.324999809265137,109.56999969482422 -13.324999809265137,109.56999969482422 C-14.253000259399414,109.56999969482422 -15.144000053405762,109.20099639892578 -15.800000190734863,108.54499816894531 C-16.45599937438965,107.88899993896484 -16.825000762939453,106.99800109863281 -16.825000762939453,106.06999969482422 C-16.825000762939453,106.06999969482422 -16.825000762939453,-106.06999969482422 -16.825000762939453,-106.06999969482422 C-16.825000762939453,-106.99800109863281 -16.45599937438965,-107.88899993896484 -15.800000190734863,-108.54499816894531 C-15.144000053405762,-109.20099639892578 -14.253000259399414,-109.56999969482422 -13.324999809265137,-109.56999969482422 C-13.324999809265137,-109.56999969482422 262.3410949707031,-110.95848846435547 262.3410949707031,-110.95848846435547z"/></g></g><g mask="url(#__lottie_element_1902_1)" style="mix-blend-mode: multiply; display: block;"><g transform="matrix(0.9305298328399658,0.23607681691646576,-0.23607681691646576,0.9305298328399658,210.49945068359375,247.1378936767578)" opacity="0.5"><g opacity="1" transform="matrix(1,0,0,1,0,0)"><path class="primary" fill="rgb(34,108,224)" fill-opacity="1" d=" M-154.0725555419922,-65.82936096191406 C-140.3225555419922,-75.016357421875 -124.15843200683594,-79.92035675048828 -107.62155151367188,-79.92035675048828 C-107.62155151367188,-79.92035675048828 -107.62155151367188,-79.92035675048828 -107.62155151367188,-79.92035675048828 C-85.45355224609375,-79.89936065673828 -64.19855499267578,-71.08248138427734 -48.523555755615234,-55.40747833251953 C-32.84855651855469,-39.732479095458984 -24.032554626464844,-18.47835922241211 -24.011554718017578,3.689640522003174 C-24.011554718017578,20.22564125061035 -28.91555404663086,36.39152145385742 -38.10255432128906,50.14152145385742 C-47.289554595947266,63.89152145385742 -60.34755325317383,74.6076431274414 -75.62555694580078,80.93563842773438 C-90.90355682373047,87.26364135742188 -107.71355438232422,88.91951751708984 -123.93255615234375,85.69351959228516 C-140.15155029296875,82.46752166748047 -155.049560546875,74.5045166015625 -166.7425537109375,62.811519622802734 C-178.43556213378906,51.1185188293457 -186.3985595703125,36.22052001953125 -189.6245574951172,20.00152015686035 C-192.85055541992188,3.782520294189453 -191.19467163085938,-13.028359413146973 -184.86666870117188,-28.306360244750977 C-178.53868103027344,-43.58435821533203 -167.8225555419922,-56.64236068725586 -154.0725555419922,-65.82936096191406z"/><path stroke-linecap="butt" stroke-linejoin="miter" fill-opacity="0" stroke-miterlimit="4" class="primary" stroke="rgb(34,108,224)" stroke-opacity="1" stroke-width="1" d=" M-154.0725555419922,-65.82936096191406 C-140.3225555419922,-75.016357421875 -124.15843200683594,-79.92035675048828 -107.62155151367188,-79.92035675048828 C-107.62155151367188,-79.92035675048828 -107.62155151367188,-79.92035675048828 -107.62155151367188,-79.92035675048828 C-85.45355224609375,-79.89936065673828 -64.19855499267578,-71.08248138427734 -48.523555755615234,-55.40747833251953 C-32.84855651855469,-39.732479095458984 -24.032554626464844,-18.47835922241211 -24.011554718017578,3.689640522003174 C-24.011554718017578,20.22564125061035 -28.91555404663086,36.39152145385742 -38.10255432128906,50.14152145385742 C-47.289554595947266,63.89152145385742 -60.34755325317383,74.6076431274414 -75.62555694580078,80.93563842773438 C-90.90355682373047,87.26364135742188 -107.71355438232422,88.91951751708984 -123.93255615234375,85.69351959228516 C-140.15155029296875,82.46752166748047 -155.049560546875,74.5045166015625 -166.7425537109375,62.811519622802734 C-178.43556213378906,51.1185188293457 -186.3985595703125,36.22052001953125 -189.6245574951172,20.00152015686035 C-192.85055541992188,3.782520294189453 -191.19467163085938,-13.028359413146973 -184.86666870117188,-28.306360244750977 C-178.53868103027344,-43.58435821533203 -167.8225555419922,-56.64236068725586 -154.0725555419922,-65.82936096191406z"/></g></g></g><g transform="matrix(3.122478723526001,0.7921775579452515,-0.7921775579452515,3.122478723526001,229.96080017089844,218.9370880126953)" opacity="1" style="display: block;"><g opacity="1" transform="matrix(1,0,0,1,0,0)"/><g opacity="1" transform="matrix(1,0,0,1,0,0)"><path class="primary" fill="rgb(34,108,224)" fill-opacity="1" d=" M-29.90475082397461,-18.41477394104004 C-29.90475082397461,-18.41477394104004 -10.84267807006836,-18.28746223449707 -10.84267807006836,-18.28746223449707 C2.891321897506714,-18.28746223449707 14.024321556091309,-7.1543498039245605 14.024321556091309,6.579650402069092 C14.024321556091309,20.313650131225586 2.891321897506714,31.44753646850586 -10.84267807006836,31.44753646850586 C-10.84267807006836,31.44753646850586 -29.90475082397461,31.320226669311523 -29.90475082397461,31.320226669311523"/></g><g opacity="1" transform="matrix(1,0,0,1,0,0)"/><g opacity="1" transform="matrix(1,0,0,1,0,0)"/></g><g transform="matrix(0.9208189845085144,0.23361316323280334,-0.23361316323280334,0.9208189845085144,225.0995635986328,239.12013244628906)" opacity="1" style="display: block;"><g opacity="1" transform="matrix(1,0,0,1,0,0)"><path class="quinary" fill="rgb(100,110,120)" fill-opacity="1" d=" M-147.627685546875,-69.30082702636719 C-136.12806701660156,-78.48882293701172 -122.60845184326172,-83.3927001953125 -108.7784194946289,-83.3927001953125 C-108.7784194946289,-83.3927001953125 -108.7784194946289,-83.3927001953125 -108.7784194946289,-83.3927001953125 C-90.2414779663086,-83.36670684814453 -72.4692153930664,-74.5498275756836 -59.36054611206055,-58.87782287597656 C-46.25187683105469,-43.2058219909668 -38.85805892944336,-21.95770263671875 -38.852813720703125,0.2072964310646057 C-38.85081481933594,16.74429702758789 -42.95048904418945,32.91029739379883 -50.63300704956055,46.66129684448242 C-58.315528869628906,60.412296295166016 -69.23563385009766,71.13029479980469 -82.01252746582031,77.46029663085938 C-94.78941345214844,83.79029846191406 -108.850341796875,85.44729614257812 -122.41515350341797,82.22229766845703 C-135.97998046875,78.99729919433594 -148.43955993652344,71.03529357910156 -158.22012329101562,59.3422966003418 C-167.9998016357422,47.649295806884766 -174.66090393066406,32.75129699707031 -177.3600616455078,16.532297134399414 C-180.05921936035156,0.31329643726348877 -178.67417907714844,-16.498703002929688 -173.3816375732422,-31.776702880859375 C-168.08909606933594,-47.05470275878906 -159.12730407714844,-60.112823486328125 -147.627685546875,-69.30082702636719z"/></g></g><g transform="matrix(0.9014284014701843,0.22869375348091125,-0.22869375348091125,0.9014284014701843,225.3423614501953,239.17176818847656)" opacity="1" style="display: block;"><g opacity="1" transform="matrix(1,0,0,1,0,0)"><path class="quaternary" fill="rgb(235,230,239)" fill-opacity="1" d=" M-137.91615295410156,-48.7132568359375 C-129.95201110839844,-55.08625793457031 -120.58987426757812,-58.488258361816406 -111.01119995117188,-58.488258361816406 C-111.01119995117188,-58.488258361816406 -111.01119995117188,-58.488258361816406 -111.01119995117188,-58.488258361816406 C-98.17125701904297,-58.47225570678711 -85.86074829101562,-52.35725784301758 -76.78142547607422,-41.48325729370117 C-67.70210266113281,-30.609256744384766 -62.58384704589844,-15.866256713867188 -62.58192443847656,-0.48825716972351074 C-62.58192443847656,10.982743263244629 -65.42176818847656,22.19674301147461 -70.74347686767578,31.734743118286133 C-76.065185546875,41.272743225097656 -83.62850189208984,48.70674133300781 -92.47756958007812,53.096744537353516 C-101.32664489746094,57.48674392700195 -111.06464385986328,58.6357421875 -120.45851135253906,56.397743225097656 C-129.85325622558594,54.15974426269531 -138.48243713378906,48.634742736816406 -145.25534057617188,40.52374267578125 C-152.02825927734375,32.412742614746094 -156.64096069335938,22.077743530273438 -158.5094757080078,10.826743125915527 C-160.3779754638672,-0.42425715923309326 -159.41812133789062,-12.086256980895996 -155.75303649902344,-22.68425750732422 C-152.0879364013672,-33.282257080078125 -145.8802947998047,-42.34025573730469 -137.91615295410156,-48.7132568359375z"/></g></g><g transform="matrix(0.9014284014701843,0.22869375348091125,-0.22869375348091125,0.9014284014701843,216.4879913330078,237.09156799316406)" opacity="0.5" style="mix-blend-mode: multiply; display: block;"><g opacity="1" transform="matrix(1,0,0,1,0,0)"><path class="quaternary" fill="rgb(235,230,239)" fill-opacity="1" d=" M-114.12285614013672,35.16364288330078 C-105.96778106689453,42.898643493652344 -95.86827850341797,47.104644775390625 -85.464599609375,47.09964370727539 C-85.464599609375,47.09964370727539 -85.464599609375,47.09964370727539 -85.464599609375,47.09964370727539 C-79.82647705078125,47.08564376831055 -74.23779296875,45.83164596557617 -68.97789001464844,43.39964294433594 C-74.684814453125,49.49464416503906 -81.51517486572266,53.88652420043945 -88.91168212890625,56.213523864746094 C-96.30818939208984,58.540523529052734 -104.05931091308594,58.738643646240234 -111.5309829711914,56.78964614868164 C-119.00265502929688,54.84064483642578 -125.98385620117188,50.80164337158203 -131.9015655517578,45.00264358520508 C-137.8192596435547,39.203643798828125 -142.50677490234375,31.808645248413086 -145.5796356201172,23.42364501953125 C-148.65249633789062,15.038644790649414 -150.02352905273438,5.901644229888916 -149.58062744140625,-3.2393555641174316 C-149.13771057128906,-12.380355834960938 -146.89422607421875,-21.266355514526367 -143.032958984375,-29.169355392456055 C-139.1717071533203,-37.072357177734375 -133.80191040039062,-43.76935577392578 -127.36414337158203,-48.71135711669922 C-120.9263687133789,-53.65335464477539 -113.602783203125,-56.69835662841797 -105.99250793457031,-57.60035705566406 C-115.31096649169922,-52.06135559082031 -122.79275512695312,-42.9124755859375 -127.2212905883789,-31.64047622680664 C-131.6498260498047,-20.36847686767578 -132.76588439941406,-7.634355545043945 -130.38778686523438,4.492644309997559 C-128.00970458984375,16.619644165039062 -122.27792358398438,27.42864418029785 -114.12285614013672,35.16364288330078z"/></g></g><g transform="matrix(3.122478723526001,0.7921775579452515,-0.7921775579452515,3.122478723526001,229.96080017089844,218.9370880126953)" opacity="1" style="display: block;"><g opacity="1" transform="matrix(1,0,0,1,0,0)"><path class="secondary" fill="rgb(222,91,167)" fill-opacity="0" d=" M26.25462532043457,-15.906999588012695 C26.25462532043457,-13.095999717712402 24.36941909790039,-10.817000389099121 22.044456481933594,-10.817000389099121 C19.719491958618164,-10.817000389099121 17.835060119628906,-13.095999717712402 17.835060119628906,-15.906999588012695 C17.835060119628906,-18.718000411987305 19.719491958618164,-20.996999740600586 22.044456481933594,-20.996999740600586 C24.36941909790039,-20.996999740600586 26.25462532043457,-18.718000411987305 26.25462532043457,-15.906999588012695z"/><path stroke-linecap="round" stroke-linejoin="round" fill-opacity="0" class="secondary" stroke="rgb(222,91,167)" stroke-opacity="1" stroke-width="2.5" d=" M26.25462532043457,-15.906999588012695 C26.25462532043457,-13.095999717712402 24.36941909790039,-10.817000389099121 22.044456481933594,-10.817000389099121 C19.719491958618164,-10.817000389099121 17.835060119628906,-13.095999717712402 17.835060119628906,-15.906999588012695 C17.835060119628906,-18.718000411987305 19.719491958618164,-20.996999740600586 22.044456481933594,-20.996999740600586 C24.36941909790039,-20.996999740600586 26.25462532043457,-18.718000411987305 26.25462532043457,-15.906999588012695z"/></g></g><g style="display: none;" transform="matrix(12.62024974822998,4.3123040199279785,-2.6760776042938232,7.831721782684326,146.72259521484375,309.7063293457031)" opacity="0.5"><g opacity="1" transform="matrix(0.8382400274276733,0,0,0.9670299887657166,1.5,-12.75)"><path class="secondary" fill="rgb(222,91,167)" fill-opacity="1" d=" M0,-22.75 C-8.836999893188477,-22.75 -16,-12.564000129699707 -16,0 C-16,12.564000129699707 -8.836999893188477,22.75 0,22.75 C8.836999893188477,22.75 16,12.564000129699707 16,0 C16,-12.564000129699707 8.836999893188477,-22.75 0,-22.75z"/><path stroke-linecap="round" stroke-linejoin="round" fill-opacity="0" class="secondary" stroke="rgb(222,91,167)" stroke-opacity="1" stroke-width="3.85" d=" M0,-22.75 C-8.836999893188477,-22.75 -16,-12.564000129699707 -16,0 C-16,12.564000129699707 -8.836999893188477,22.75 0,22.75 C8.836999893188477,22.75 16,12.564000129699707 16,0 C16,-12.564000129699707 8.836999893188477,-22.75 0,-22.75z"/></g></g></g></g></svg>