<svg xmlns="http://www.w3.org/2000/svg" xmlns:xlink="http://www.w3.org/1999/xlink" viewBox="0 0 430 430" width="430" height="430" preserveAspectRatio="xMidYMid meet" style="width: 100%; height: 100%; transform: translate3d(0px, 0px, 0px); content-visibility: visible;"><defs><clipPath id="__lottie_element_874"><rect width="430" height="430" x="0" y="0"/></clipPath><clipPath id="__lottie_element_876"><path d="M0,0 L430,0 L430,430 L0,430z"/></clipPath><g id="__lottie_element_889"><g transform="matrix(1.0480990409851074,-0.0000036149046991340583,0.0000036149046991340583,1.0480990409851074,-39.58943557739258,-77.7487564086914)" opacity="1" style="display: block;"><g opacity="1" transform="matrix(1,0,0,1,230.52000427246094,296.260009765625)"><path fill="rgb(255,0,0)" fill-opacity="1" d=" M127.41600036621094,1.972000002861023 C126.35600280761719,45.91299819946289 89.65399932861328,80.63999938964844 45.70000076293945,80.63999938964844 C45.70000076293945,80.63999938964844 -124.44000244140625,80.63999938964844 -124.44000244140625,80.63999938964844 C-126.09700012207031,80.63999938964844 -127.44000244140625,79.2969970703125 -127.44000244140625,77.63999938964844 C-127.44000244140625,77.63999938964844 -127.44000244140625,0.7200000286102295 -127.44000244140625,0.7200000286102295 C-127.44000244140625,-29.93000030517578 -110.48999786376953,-56.630001068115234 -85.44000244140625,-70.5 C-73.7699966430664,-76.95999908447266 -60.36000061035156,-80.63999938964844 -46.08000183105469,-80.63999938964844 C-46.08000183105469,-80.63999938964844 46.79999923706055,-80.63999938964844 46.79999923706055,-80.63999938964844 C69.06999969482422,-80.63999938964844 89.2300033569336,-71.62000274658203 103.81999969482422,-57.02000045776367 C115.7699966430664,-45.06999969482422 123.98999786376953,-29.399999618530273 126.56999969482422,-11.880000114440918 C127.23200225830078,-7.370999813079834 127.52999877929688,-2.753000020980835 127.41600036621094,1.972000002861023z"/></g></g></g><mask id="__lottie_element_889_1" mask-type="alpha"><use xmlns:ns1="http://www.w3.org/1999/xlink" ns1:href="#__lottie_element_889"/></mask></defs><g clip-path="url(#__lottie_element_874)"><g clip-path="url(#__lottie_element_876)" transform="matrix(1,0,0,1,0,0)" opacity="1" style="display: block;"><g transform="matrix(1.0532790422439575,0,0,1.0532790422439575,237.36708068847656,157.76170349121094)" opacity="1" style="display: block;"><g opacity="1" transform="matrix(1,0,0,1,0,0)"><path class="secondary" fill="rgb(34,108,224)" fill-opacity="1" d=" M-127.41600036621094,1.972000002861023 C-126.35600280761719,45.91299819946289 -89.65399932861328,80.63999938964844 -45.70000076293945,80.63999938964844 C-45.70000076293945,80.63999938964844 124.44000244140625,80.63999938964844 124.44000244140625,80.63999938964844 C126.09700012207031,80.63999938964844 127.44000244140625,79.2969970703125 127.44000244140625,77.63999938964844 C127.44000244140625,77.63999938964844 127.44000244140625,0.7200000286102295 127.44000244140625,0.7200000286102295 C127.44000244140625,-29.93000030517578 110.48999786376953,-56.630001068115234 85.44000244140625,-70.5 C73.7699966430664,-76.95999908447266 60.36000061035156,-80.63999938964844 46.08000183105469,-80.63999938964844 C46.08000183105469,-80.63999938964844 -46.79999923706055,-80.63999938964844 -46.79999923706055,-80.63999938964844 C-69.06999969482422,-80.63999938964844 -89.2300033569336,-71.62000274658203 -103.81999969482422,-57.02000045776367 C-115.7699966430664,-45.06999969482422 -123.98999786376953,-29.399999618530273 -126.56999969482422,-11.880000114440918 C-127.23200225830078,-7.370999813079834 -127.52999877929688,-2.753000020980835 -127.41600036621094,1.972000002861023z"/></g></g><g mask="url(#__lottie_element_889_1)" style="display: block;"><g transform="matrix(1.0532790422439575,0,0,1.0532790422439575,237.36708068847656,157.76170349121094)" opacity="1"><g opacity="1" transform="matrix(1,0,0,1,0,0)"><path class="secondary" fill="rgb(34,108,224)" fill-opacity="1" d=" M-127.41600036621094,1.972000002861023 C-126.35600280761719,45.91299819946289 -89.65399932861328,80.63999938964844 -45.70000076293945,80.63999938964844 C-45.70000076293945,80.63999938964844 124.44000244140625,80.63999938964844 124.44000244140625,80.63999938964844 C126.09700012207031,80.63999938964844 127.44000244140625,79.2969970703125 127.44000244140625,77.63999938964844 C127.44000244140625,77.63999938964844 127.44000244140625,0.7200000286102295 127.44000244140625,0.7200000286102295 C127.44000244140625,-29.93000030517578 110.48999786376953,-56.630001068115234 85.44000244140625,-70.5 C73.7699966430664,-76.95999908447266 60.36000061035156,-80.63999938964844 46.08000183105469,-80.63999938964844 C46.08000183105469,-80.63999938964844 -46.79999923706055,-80.63999938964844 -46.79999923706055,-80.63999938964844 C-69.06999969482422,-80.63999938964844 -89.2300033569336,-71.62000274658203 -103.81999969482422,-57.02000045776367 C-115.7699966430664,-45.06999969482422 -123.98999786376953,-29.399999618530273 -126.56999969482422,-11.880000114440918 C-127.23200225830078,-7.370999813079834 -127.52999877929688,-2.753000020980835 -127.41600036621094,1.972000002861023z"/><path class="secondary" fill="rgb(34,108,224)" fill-opacity="0.5" d=" M-127.41600036621094,1.972000002861023 C-126.35600280761719,45.91299819946289 -89.65399932861328,80.63999938964844 -45.70000076293945,80.63999938964844 C-45.70000076293945,80.63999938964844 124.44000244140625,80.63999938964844 124.44000244140625,80.63999938964844 C126.09700012207031,80.63999938964844 127.44000244140625,79.2969970703125 127.44000244140625,77.63999938964844 C127.44000244140625,77.63999938964844 127.44000244140625,0.7200000286102295 127.44000244140625,0.7200000286102295 C127.44000244140625,-29.93000030517578 110.48999786376953,-56.630001068115234 85.44000244140625,-70.5 C73.7699966430664,-76.95999908447266 60.36000061035156,-80.63999938964844 46.08000183105469,-80.63999938964844 C46.08000183105469,-80.63999938964844 -46.79999923706055,-80.63999938964844 -46.79999923706055,-80.63999938964844 C-69.06999969482422,-80.63999938964844 -89.2300033569336,-71.62000274658203 -103.81999969482422,-57.02000045776367 C-115.7699966430664,-45.06999969482422 -123.98999786376953,-29.399999618530273 -126.56999969482422,-11.880000114440918 C-127.23200225830078,-7.370999813079834 -127.52999877929688,-2.753000020980835 -127.41600036621094,1.972000002861023z" style="mix-blend-mode: multiply;"/></g></g></g><g transform="matrix(-3.700000047683716,0,0,3.700000047683716,248.3005828857422,150.25070190429688)" opacity="1" style="display: block;"><g opacity="1" transform="matrix(1,0,0,1,0,0)"/></g><g transform="matrix(1.0480990409851074,-0.0000036149046991340583,0.0000036149046991340583,1.0480990409851074,-45.09124755859375,-53.24736022949219)" opacity="1" style="display: block;"><g opacity="1" transform="matrix(1,0,0,1,230.52000427246094,296.260009765625)"><path class="primary" fill="rgb(222,91,167)" fill-opacity="1" d=" M127.41600036621094,1.972000002861023 C126.35600280761719,45.91299819946289 89.65399932861328,80.63999938964844 45.70000076293945,80.63999938964844 C45.70000076293945,80.63999938964844 -124.44000244140625,80.63999938964844 -124.44000244140625,80.63999938964844 C-126.09700012207031,80.63999938964844 -127.44000244140625,79.2969970703125 -127.44000244140625,77.63999938964844 C-127.44000244140625,77.63999938964844 -127.44000244140625,0.7200000286102295 -127.44000244140625,0.7200000286102295 C-127.44000244140625,-29.93000030517578 -110.48999786376953,-56.630001068115234 -85.44000244140625,-70.5 C-73.7699966430664,-76.95999908447266 -60.36000061035156,-80.63999938964844 -46.08000183105469,-80.63999938964844 C-46.08000183105469,-80.63999938964844 46.79999923706055,-80.63999938964844 46.79999923706055,-80.63999938964844 C69.06999969482422,-80.63999938964844 89.2300033569336,-71.62000274658203 103.81999969482422,-57.02000045776367 C115.7699966430664,-45.06999969482422 123.98999786376953,-29.399999618530273 126.56999969482422,-11.880000114440918 C127.23200225830078,-7.370999813079834 127.52999877929688,-2.753000020980835 127.41600036621094,1.972000002861023z"/></g><g opacity="0.5" transform="matrix(1,0,0,1,228.48500061035156,330.9049987792969)" style="mix-blend-mode: multiply;"><path class="primary" fill="rgb(222,91,167)" fill-opacity="1" d=" M125.40499877929688,-9.305000305175781 C114.79499816894531,22.815000534057617 84.5250015258789,45.994998931884766 48.834999084472656,45.994998931884766 C48.834999084472656,45.994998931884766 -122.40499877929688,45.994998931884766 -122.40499877929688,45.994998931884766 C-124.06199645996094,45.994998931884766 -125.40499877929688,44.652000427246094 -125.40499877929688,42.994998931884766 C-125.40499877929688,42.994998931884766 -125.40499877929688,-33.92499923706055 -125.40499877929688,-33.92499923706055 C-125.40499877929688,-34.94499969482422 -125.38500213623047,-35.974998474121094 -125.34500122070312,-36.98500061035156 C-125.32499694824219,-37.494998931884766 -125.30500030517578,-38.005001068115234 -125.2750015258789,-38.505001068115234 C-125.24500274658203,-39.05500030517578 -125.20500183105469,-39.6150016784668 -125.16500091552734,-40.165000915527344 C-125.125,-40.6150016784668 -125.08499908447266,-41.07500076293945 -125.04499816894531,-41.525001525878906 C-124.99500274658203,-42.025001525878906 -124.94499969482422,-42.525001525878906 -124.8949966430664,-43.025001525878906 C-124.83499908447266,-43.525001525878906 -124.7750015258789,-44.01499938964844 -124.71499633789062,-44.51499938964844 C-124.6449966430664,-45.005001068115234 -124.57499694824219,-45.505001068115234 -124.50499725341797,-45.994998931884766 C-120.71499633789062,-20.4950008392334 -114.65499877929688,-0.0860000029206276 -92.96499633789062,11.9350004196167 C-81.29499816894531,18.395000457763672 -58.32500076293945,17.875 -44.04499816894531,17.875 C-44.04499816894531,17.875 39.82500076293945,17.875 39.82500076293945,17.875 C62.095001220703125,17.875 99.28500366210938,19.03499984741211 113.875,4.434999942779541 C118.24500274658203,0.06499999761581421 122.125,-4.465000152587891 125.40499877929688,-9.305000305175781z"/></g></g><g transform="matrix(3.700000047683716,-0.000012761339348799083,0.000012761339348799083,3.700000047683716,185.39907836914062,250.1502685546875)" opacity="1" style="display: block;"><g opacity="1" transform="matrix(1,0,0,1,0,0)"/></g></g></g></svg>