<svg xmlns="http://www.w3.org/2000/svg" xmlns:xlink="http://www.w3.org/1999/xlink" viewBox="0 0 430 430" width="430" height="430" preserveAspectRatio="xMidYMid meet" style="width: 100%; height: 100%; transform: translate3d(0px, 0px, 0px); content-visibility: visible;"><defs><clipPath id="__lottie_element_3855"><rect width="430" height="430" x="0" y="0"/></clipPath><clipPath id="__lottie_element_3857"><path d="M0,0 L430,0 L430,430 L0,430z"/></clipPath><g id="__lottie_element_3868"><g transform="matrix(1,0,0,1,159.5,155.5)" opacity="1" style="display: block;"><g opacity="1" transform="matrix(1,0,0,1,0,0)"><path fill="rgb(58,51,71)" fill-opacity="1" d=" M50.00699996948242,0 C50.00699996948242,27.61400032043457 27.621000289916992,50 0.007000000216066837,50 C-27.60700035095215,50 -49.99300003051758,27.61400032043457 -49.99300003051758,0 C-49.99300003051758,-27.61400032043457 -27.60700035095215,-50 0.007000000216066837,-50 C27.621000289916992,-50 50.00699996948242,-27.61400032043457 50.00699996948242,0z M70.81199645996094,59.67599868774414 C77.8479995727539,51.29899978637695 83.35900115966797,41.75199890136719 87.09600067138672,31.469999313354492 C87.09600067138672,31.469999313354492 93.59400177001953,31.4689998626709 93.59400177001953,31.4689998626709 C95.48500061035156,31.469999313354492 97.35700225830078,31.100000381469727 99.10399627685547,30.37700080871582 C100.85099792480469,29.65399932861328 102.43800354003906,28.5939998626709 103.7750015258789,27.256999969482422 C105.11199951171875,25.920000076293945 106.1719970703125,24.33300018310547 106.8949966430664,22.586000442504883 C107.61799621582031,20.839000701904297 107.98899841308594,18.966999053955078 107.98699951171875,17.076000213623047 C107.98699951171875,17.076000213623047 107.99299621582031,-17.121999740600586 107.99299621582031,-17.121999740600586 C107.99299621582031,-20.93899917602539 106.47599792480469,-24.60099983215332 103.7770004272461,-27.299999237060547 C101.0780029296875,-29.999000549316406 97.41699981689453,-31.514999389648438 93.5999984741211,-31.514999389648438 C93.5999984741211,-31.514999389648438 87.08100128173828,-31.51300048828125 87.08100128173828,-31.51300048828125 C83.37300109863281,-41.80400085449219 77.86900329589844,-51.35499954223633 70.822998046875,-59.722999572753906 C70.822998046875,-59.722999572753906 74.05799865722656,-65.3270034790039 74.05799865722656,-65.3270034790039 C75.00299835205078,-66.96299743652344 75.61599731445312,-68.76899719238281 75.86199951171875,-70.64199829101562 C76.10800170898438,-72.51499938964844 75.98300170898438,-74.41799926757812 75.49400329589844,-76.24299621582031 C75.00499725341797,-78.06800079345703 74.16100311279297,-79.77899932861328 73.01100158691406,-81.2770004272461 C71.86100006103516,-82.7750015258789 70.42500305175781,-84.03199768066406 68.78900146484375,-84.97599792480469 C68.78900146484375,-84.97599792480469 39.1870002746582,-102.06700134277344 39.1870002746582,-102.06700134277344 C37.55099868774414,-103.01200103759766 35.744998931884766,-103.6259994506836 33.87200164794922,-103.87300109863281 C31.999000549316406,-104.12000274658203 30.09600067138672,-103.99600219726562 28.270999908447266,-103.50700378417969 C26.445999145507812,-103.01799774169922 24.736000061035156,-102.1760025024414 23.23699951171875,-101.0260009765625 C21.738000869750977,-99.8759994506836 20.481000900268555,-98.44200134277344 19.535999298095703,-96.80599975585938 C19.535999298095703,-96.80599975585938 16.288999557495117,-91.18199920654297 16.288999557495117,-91.18199920654297 C5.519999980926514,-93.0999984741211 -5.505000114440918,-93.09100341796875 -16.270999908447266,-91.15699768066406 C-16.270999908447266,-91.15699768066406 -19.527999877929688,-96.8030014038086 -19.527999877929688,-96.8030014038086 C-21.437000274658203,-100.10900115966797 -24.58099937438965,-102.52200317382812 -28.26799964904785,-103.51000213623047 C-31.954999923706055,-104.49800109863281 -35.88399887084961,-103.98100280761719 -39.189998626708984,-102.0719985961914 C-39.189998626708984,-102.0719985961914 -68.7979965209961,-84.97799682617188 -68.7979965209961,-84.97799682617188 C-70.43599700927734,-84.03399658203125 -71.87100219726562,-82.7750015258789 -73.02300262451172,-81.2760009765625 C-74.17500305175781,-79.7770004272461 -75.01899719238281,-78.06500244140625 -75.50800323486328,-76.23899841308594 C-75.99700164794922,-74.41300201416016 -76.12200164794922,-72.50800323486328 -75.875,-70.63400268554688 C-75.62799835205078,-68.76000213623047 -75.01300048828125,-66.9530029296875 -74.06600189208984,-65.31600189208984 C-74.06600189208984,-65.31600189208984 -70.81800079345703,-59.6879997253418 -70.81800079345703,-59.6879997253418 C-77.85399627685547,-51.31100082397461 -83.36499786376953,-41.76499938964844 -87.10199737548828,-31.482999801635742 C-87.10199737548828,-31.482999801635742 -93.5999984741211,-31.48200035095215 -93.5999984741211,-31.48200035095215 C-95.49099731445312,-31.482999801635742 -97.36299896240234,-31.11199951171875 -99.11000061035156,-30.388999938964844 C-100.85700225830078,-29.666000366210938 -102.44400024414062,-28.606000900268555 -103.78099822998047,-27.268999099731445 C-105.11799621582031,-25.93199920654297 -106.1780014038086,-24.344999313354492 -106.9010009765625,-22.597999572753906 C-107.6240005493164,-20.85099983215332 -107.99500274658203,-18.979000091552734 -107.99299621582031,-17.08799934387207 C-107.99299621582031,-17.08799934387207 -107.98799896240234,17.10300064086914 -107.98799896240234,17.10300064086914 C-107.98799896240234,20.920000076293945 -106.47200012207031,24.58099937438965 -103.77300262451172,27.280000686645508 C-101.0739974975586,29.979000091552734 -97.41200256347656,31.496000289916992 -93.59500122070312,31.496000289916992 C-93.59500122070312,31.496000289916992 -87.0770034790039,31.493000030517578 -87.0770034790039,31.493000030517578 C-83.36900329589844,41.784000396728516 -77.86399841308594,51.33599853515625 -70.81800079345703,59.70399856567383 C-70.81800079345703,59.70399856567383 -74.06500244140625,65.3280029296875 -74.06500244140625,65.3280029296875 C-75.01000213623047,66.96399688720703 -75.62300109863281,68.7699966430664 -75.86900329589844,70.64299774169922 C-76.11499786376953,72.51599884033203 -75.98999786376953,74.41899871826172 -75.5009994506836,76.24400329589844 C-75.01200103759766,78.06900024414062 -74.16699981689453,79.77899932861328 -73.01699829101562,81.2770004272461 C-71.86699676513672,82.7750015258789 -70.43199920654297,84.03199768066406 -68.7959976196289,84.97599792480469 C-68.7959976196289,84.97599792480469 -39.18899917602539,102.06999969482422 -39.18899917602539,102.06999969482422 C-37.553001403808594,103.01499938964844 -35.74700164794922,103.62899780273438 -33.874000549316406,103.8759994506836 C-32.000999450683594,104.12300109863281 -30.097999572753906,104 -28.273000717163086,103.51100158691406 C-26.447999954223633,103.02200317382812 -24.738000869750977,102.17900085449219 -23.23900032043457,101.02899932861328 C-21.739999771118164,99.87899780273438 -20.482999801635742,98.44499969482422 -19.538000106811523,96.80899810791016 C-19.538000106811523,96.80899810791016 -16.27899932861328,91.16500091552734 -16.27899932861328,91.16500091552734 C-5.510000228881836,93.08300018310547 5.514999866485596,93.0739974975586 16.2810001373291,91.13999938964844 C16.2810001373291,91.13999938964844 19.538000106811523,96.78700256347656 19.538000106811523,96.78700256347656 C21.44700050354004,100.09300231933594 24.590999603271484,102.50499725341797 28.277999877929688,103.49299621582031 C31.96500015258789,104.48100280761719 35.89400100708008,103.96399688720703 39.20000076293945,102.05500030517578 C39.20000076293945,102.05500030517578 68.80699920654297,84.96099853515625 68.80699920654297,84.96099853515625 C70.44300079345703,84.01599884033203 71.87699890136719,82.75700378417969 73.0270004272461,81.25700378417969 C74.177001953125,79.75700378417969 75.01899719238281,78.0469970703125 75.50700378417969,76.22100067138672 C75.99500274658203,74.3949966430664 76.11799621582031,72.49099731445312 75.87000274658203,70.61799621582031 C75.62200164794922,68.74500274658203 75.00700378417969,66.93900299072266 74.05999755859375,65.30400085449219 C74.05999755859375,65.30400085449219 70.81199645996094,59.67599868774414 70.81199645996094,59.67599868774414z"/></g></g></g><g id="__lottie_element_3878"><g transform="matrix(1,0,0,1,294.4519958496094,292.5)" opacity="1" style="display: block;"><g opacity="1" transform="matrix(1,0,0,1,0,0)"><path fill="rgb(58,51,71)" fill-opacity="1" d=" M-0.4519999921321869,-35.5 C6.46999979019165,-35.5 13.237000465393066,-33.446998596191406 18.993000030517578,-29.60099983215332 C24.749000549316406,-25.7549991607666 29.235000610351562,-20.288999557495117 31.884000778198242,-13.894000053405762 C34.53300094604492,-7.499000072479248 35.22600173950195,-0.460999995470047 33.875999450683594,6.328000068664551 C32.5260009765625,13.116999626159668 29.191999435424805,19.354000091552734 24.297000885009766,24.249000549316406 C19.402000427246094,29.143999099731445 13.164999961853027,32.47700119018555 6.375999927520752,33.82699966430664 C-0.4129999876022339,35.176998138427734 -7.451000213623047,34.48500061035156 -13.845999717712402,31.836000442504883 C-20.240999221801758,29.187000274658203 -25.707000732421875,24.701000213623047 -29.55299949645996,18.94499969482422 C-33.39899826049805,13.189000129699707 -35.45199966430664,6.421999931335449 -35.45199966430664,-0.5 C-35.45100021362305,-9.781999588012695 -31.76300048828125,-18.68400001525879 -25.198999404907227,-25.24799919128418 C-18.635000228881836,-31.812000274658203 -9.734000205993652,-35.499000549316406 -0.4519999921321869,-35.5z M73.947998046875,14.914999961853027 C73.947998046875,14.914999961853027 69.64900207519531,12.432000160217285 69.64900207519531,12.432000160217285 C71.10399627685547,4.202000141143799 71.10399627685547,-4.21999979019165 69.64900207519531,-12.449999809265137 C69.64900207519531,-12.449999809265137 73.947998046875,-14.932999610900879 73.947998046875,-14.932999610900879 C75.1989974975586,-15.654000282287598 76.2959976196289,-16.61400032043457 77.1760025024414,-17.760000228881836 C78.05599975585938,-18.9060001373291 78.70099639892578,-20.21299934387207 79.07499694824219,-21.607999801635742 C79.4489974975586,-23.003000259399414 79.54299926757812,-24.458999633789062 79.35399627685547,-25.891000747680664 C79.16500091552734,-27.322999954223633 78.69499969482422,-28.702999114990234 77.97200012207031,-29.952999114990234 C77.97200012207031,-29.952999114990234 64.91300201416016,-52.582000732421875 64.91300201416016,-52.582000732421875 C63.45500183105469,-55.108001708984375 61.053001403808594,-56.95000076293945 58.236000061035156,-57.70500183105469 C55.41899871826172,-58.459999084472656 52.417999267578125,-58.064998626708984 49.891998291015625,-56.606998443603516 C49.891998291015625,-56.606998443603516 45.58000183105469,-54.1150016784668 45.58000183105469,-54.1150016784668 C39.19599914550781,-59.50699996948242 31.905000686645508,-63.7239990234375 24.047000885009766,-66.56900024414062 C24.047000885009766,-66.56900024414062 24.047000885009766,-71.51300048828125 24.047000885009766,-71.51300048828125 C24.047000885009766,-72.95600128173828 23.76300048828125,-74.38500213623047 23.211000442504883,-75.71800231933594 C22.659000396728516,-77.0510025024414 21.849000930786133,-78.26300048828125 20.827999114990234,-79.28299713134766 C19.80699920654297,-80.3030014038086 18.59600067138672,-81.11299896240234 17.261999130249023,-81.66500091552734 C15.928000450134277,-82.21700286865234 14.49899959564209,-82.5009994506836 13.055999755859375,-82.5 C13.055999755859375,-82.5 -13.059000015258789,-82.5 -13.059000015258789,-82.5 C-14.501999855041504,-82.5009994506836 -15.930999755859375,-82.21700286865234 -17.264999389648438,-81.66500091552734 C-18.599000930786133,-81.11299896240234 -19.809999465942383,-80.3030014038086 -20.83099937438965,-79.28299713134766 C-21.851999282836914,-78.26300048828125 -22.66200065612793,-77.0510025024414 -23.214000701904297,-75.71800231933594 C-23.766000747680664,-74.38500213623047 -24.049999237060547,-72.95600128173828 -24.049999237060547,-71.51300048828125 C-24.049999237060547,-71.51300048828125 -24.049999237060547,-66.5510025024414 -24.049999237060547,-66.5510025024414 C-31.908000946044922,-63.70600128173828 -39.19900131225586,-59.48899841308594 -45.58300018310547,-54.09700012207031 C-45.58300018310547,-54.09700012207031 -49.89500045776367,-56.5890007019043 -49.89500045776367,-56.5890007019043 C-52.42100143432617,-58.047000885009766 -55.422000885009766,-58.44200134277344 -58.23899841308594,-57.6870002746582 C-61.055999755859375,-56.93199920654297 -63.45800018310547,-55.09000015258789 -64.91600036621094,-52.56399917602539 C-64.91600036621094,-52.56399917602539 -77.9749984741211,-29.94499969482422 -77.9749984741211,-29.94499969482422 C-78.697998046875,-28.69499969482422 -79.16799926757812,-27.31399917602539 -79.35700225830078,-25.881999969482422 C-79.5459976196289,-24.450000762939453 -79.45099639892578,-22.9950008392334 -79.0770034790039,-21.600000381469727 C-78.7030029296875,-20.204999923706055 -78.05899810791016,-18.89699935913086 -77.17900085449219,-17.750999450683594 C-76.29900360107422,-16.604999542236328 -75.2020034790039,-15.645000457763672 -73.95099639892578,-14.923999786376953 C-73.95099639892578,-14.923999786376953 -69.6520004272461,-12.440999984741211 -69.6520004272461,-12.440999984741211 C-71.10700225830078,-4.210999965667725 -71.10700225830078,4.210999965667725 -69.6520004272461,12.440999984741211 C-69.6520004272461,12.440999984741211 -73.95099639892578,14.923999786376953 -73.95099639892578,14.923999786376953 C-75.2020034790039,15.645000457763672 -76.29900360107422,16.604999542236328 -77.17900085449219,17.750999450683594 C-78.05899810791016,18.89699935913086 -78.7030029296875,20.204999923706055 -79.0770034790039,21.600000381469727 C-79.45099639892578,22.9950008392334 -79.5459976196289,24.450000762939453 -79.35700225830078,25.881999969482422 C-79.16799926757812,27.31399917602539 -78.697998046875,28.69499969482422 -77.9749984741211,29.94499969482422 C-77.9749984741211,29.94499969482422 -64.91200256347656,52.56399917602539 -64.91200256347656,52.56399917602539 C-63.45399856567383,55.09000015258789 -61.051998138427734,56.93199920654297 -58.23500061035156,57.6870002746582 C-55.417999267578125,58.44200134277344 -52.41699981689453,58.047000885009766 -49.89099884033203,56.5890007019043 C-49.89099884033203,56.5890007019043 -45.57899856567383,54.09700012207031 -45.57899856567383,54.09700012207031 C-39.19499969482422,59.48899841308594 -31.90399932861328,63.70600128173828 -24.04599952697754,66.5510025024414 C-24.04599952697754,66.5510025024414 -24.04599952697754,71.51300048828125 -24.04599952697754,71.51300048828125 C-24.04599952697754,72.95600128173828 -23.76099967956543,74.38500213623047 -23.208999633789062,75.71800231933594 C-22.656999588012695,77.0510025024414 -21.847000122070312,78.26300048828125 -20.826000213623047,79.28299713134766 C-19.80500030517578,80.3030014038086 -18.5939998626709,81.11299896240234 -17.260000228881836,81.66500091552734 C-15.925999641418457,82.21700286865234 -14.496999740600586,82.5009994506836 -13.053999900817871,82.5 C-13.053999900817871,82.5 13.0649995803833,82.5 13.0649995803833,82.5 C14.508000373840332,82.5009994506836 15.937000274658203,82.21700286865234 17.270999908447266,81.66500091552734 C18.604999542236328,81.11299896240234 19.81599998474121,80.3030014038086 20.836999893188477,79.28299713134766 C21.857999801635742,78.26300048828125 22.667999267578125,77.0510025024414 23.219999313354492,75.71800231933594 C23.77199935913086,74.38500213623047 24.055999755859375,72.95600128173828 24.055999755859375,71.51300048828125 C24.055999755859375,71.51300048828125 24.055999755859375,66.53399658203125 24.055999755859375,66.53399658203125 C31.913999557495117,63.68899917602539 39.20500183105469,59.47200012207031 45.5890007019043,54.08000183105469 C45.5890007019043,54.08000183105469 49.9010009765625,56.57099914550781 49.9010009765625,56.57099914550781 C52.426998138427734,58.02899932861328 55.428001403808594,58.42499923706055 58.244998931884766,57.66999816894531 C61.0620002746582,56.915000915527344 63.4640007019043,55.073001861572266 64.9219970703125,52.547000885009766 C64.9219970703125,52.547000885009766 77.98100280761719,29.927000045776367 77.98100280761719,29.927000045776367 C78.7020034790039,28.677000045776367 79.16999816894531,27.29599952697754 79.35800170898438,25.864999771118164 C79.5459976196289,24.43400001525879 79.44999694824219,22.979000091552734 79.07499694824219,21.584999084472656 C78.69999694824219,20.19099998474121 78.05500030517578,18.885000228881836 77.17500305175781,17.739999771118164 C76.29499816894531,16.594999313354492 75.1989974975586,15.635000228881836 73.947998046875,14.914999961853027z"/></g></g></g><mask id="__lottie_element_3878_1" mask-type="alpha"><use xmlns:ns1="http://www.w3.org/1999/xlink" ns1:href="#__lottie_element_3878"/></mask><mask id="__lottie_element_3868_1" mask-type="alpha"><use xmlns:ns2="http://www.w3.org/1999/xlink" ns2:href="#__lottie_element_3868"/></mask></defs><g clip-path="url(#__lottie_element_3855)"><g clip-path="url(#__lottie_element_3857)" transform="matrix(1,0,0,1,0,0)" opacity="1" style="display: block;"><g transform="matrix(1,0,0,1,159.5,155.5)" opacity="1" style="display: block;"><g opacity="1" transform="matrix(1,0,0,1,0,0)"><path class="primary" fill="rgb(222,91,167)" fill-opacity="1" d=" M50.00699996948242,0 C50.00699996948242,27.61400032043457 27.621000289916992,50 0.007000000216066837,50 C-27.60700035095215,50 -49.99300003051758,27.61400032043457 -49.99300003051758,0 C-49.99300003051758,-27.61400032043457 -27.60700035095215,-50 0.007000000216066837,-50 C27.621000289916992,-50 50.00699996948242,-27.61400032043457 50.00699996948242,0z M70.81199645996094,59.67599868774414 C77.8479995727539,51.29899978637695 83.35900115966797,41.75199890136719 87.09600067138672,31.469999313354492 C87.09600067138672,31.469999313354492 93.59400177001953,31.4689998626709 93.59400177001953,31.4689998626709 C95.48500061035156,31.469999313354492 97.35700225830078,31.100000381469727 99.10399627685547,30.37700080871582 C100.85099792480469,29.65399932861328 102.43800354003906,28.5939998626709 103.7750015258789,27.256999969482422 C105.11199951171875,25.920000076293945 106.1719970703125,24.33300018310547 106.8949966430664,22.586000442504883 C107.61799621582031,20.839000701904297 107.98899841308594,18.966999053955078 107.98699951171875,17.076000213623047 C107.98699951171875,17.076000213623047 107.99299621582031,-17.121999740600586 107.99299621582031,-17.121999740600586 C107.99299621582031,-20.93899917602539 106.47599792480469,-24.60099983215332 103.7770004272461,-27.299999237060547 C101.0780029296875,-29.999000549316406 97.41699981689453,-31.514999389648438 93.5999984741211,-31.514999389648438 C93.5999984741211,-31.514999389648438 87.08100128173828,-31.51300048828125 87.08100128173828,-31.51300048828125 C83.37300109863281,-41.80400085449219 77.86900329589844,-51.35499954223633 70.822998046875,-59.722999572753906 C70.822998046875,-59.722999572753906 74.05799865722656,-65.3270034790039 74.05799865722656,-65.3270034790039 C75.00299835205078,-66.96299743652344 75.61599731445312,-68.76899719238281 75.86199951171875,-70.64199829101562 C76.10800170898438,-72.51499938964844 75.98300170898438,-74.41799926757812 75.49400329589844,-76.24299621582031 C75.00499725341797,-78.06800079345703 74.16100311279297,-79.77899932861328 73.01100158691406,-81.2770004272461 C71.86100006103516,-82.7750015258789 70.42500305175781,-84.03199768066406 68.78900146484375,-84.97599792480469 C68.78900146484375,-84.97599792480469 39.1870002746582,-102.06700134277344 39.1870002746582,-102.06700134277344 C37.55099868774414,-103.01200103759766 35.744998931884766,-103.6259994506836 33.87200164794922,-103.87300109863281 C31.999000549316406,-104.12000274658203 30.09600067138672,-103.99600219726562 28.270999908447266,-103.50700378417969 C26.445999145507812,-103.01799774169922 24.736000061035156,-102.1760025024414 23.23699951171875,-101.0260009765625 C21.738000869750977,-99.8759994506836 20.481000900268555,-98.44200134277344 19.535999298095703,-96.80599975585938 C19.535999298095703,-96.80599975585938 16.288999557495117,-91.18199920654297 16.288999557495117,-91.18199920654297 C5.519999980926514,-93.0999984741211 -5.505000114440918,-93.09100341796875 -16.270999908447266,-91.15699768066406 C-16.270999908447266,-91.15699768066406 -19.527999877929688,-96.8030014038086 -19.527999877929688,-96.8030014038086 C-21.437000274658203,-100.10900115966797 -24.58099937438965,-102.52200317382812 -28.26799964904785,-103.51000213623047 C-31.954999923706055,-104.49800109863281 -35.88399887084961,-103.98100280761719 -39.189998626708984,-102.0719985961914 C-39.189998626708984,-102.0719985961914 -68.7979965209961,-84.97799682617188 -68.7979965209961,-84.97799682617188 C-70.43599700927734,-84.03399658203125 -71.87100219726562,-82.7750015258789 -73.02300262451172,-81.2760009765625 C-74.17500305175781,-79.7770004272461 -75.01899719238281,-78.06500244140625 -75.50800323486328,-76.23899841308594 C-75.99700164794922,-74.41300201416016 -76.12200164794922,-72.50800323486328 -75.875,-70.63400268554688 C-75.62799835205078,-68.76000213623047 -75.01300048828125,-66.9530029296875 -74.06600189208984,-65.31600189208984 C-74.06600189208984,-65.31600189208984 -70.81800079345703,-59.6879997253418 -70.81800079345703,-59.6879997253418 C-77.85399627685547,-51.31100082397461 -83.36499786376953,-41.76499938964844 -87.10199737548828,-31.482999801635742 C-87.10199737548828,-31.482999801635742 -93.5999984741211,-31.48200035095215 -93.5999984741211,-31.48200035095215 C-95.49099731445312,-31.482999801635742 -97.36299896240234,-31.11199951171875 -99.11000061035156,-30.388999938964844 C-100.85700225830078,-29.666000366210938 -102.44400024414062,-28.606000900268555 -103.78099822998047,-27.268999099731445 C-105.11799621582031,-25.93199920654297 -106.1780014038086,-24.344999313354492 -106.9010009765625,-22.597999572753906 C-107.6240005493164,-20.85099983215332 -107.99500274658203,-18.979000091552734 -107.99299621582031,-17.08799934387207 C-107.99299621582031,-17.08799934387207 -107.98799896240234,17.10300064086914 -107.98799896240234,17.10300064086914 C-107.98799896240234,20.920000076293945 -106.47200012207031,24.58099937438965 -103.77300262451172,27.280000686645508 C-101.0739974975586,29.979000091552734 -97.41200256347656,31.496000289916992 -93.59500122070312,31.496000289916992 C-93.59500122070312,31.496000289916992 -87.0770034790039,31.493000030517578 -87.0770034790039,31.493000030517578 C-83.36900329589844,41.784000396728516 -77.86399841308594,51.33599853515625 -70.81800079345703,59.70399856567383 C-70.81800079345703,59.70399856567383 -74.06500244140625,65.3280029296875 -74.06500244140625,65.3280029296875 C-75.01000213623047,66.96399688720703 -75.62300109863281,68.7699966430664 -75.86900329589844,70.64299774169922 C-76.11499786376953,72.51599884033203 -75.98999786376953,74.41899871826172 -75.5009994506836,76.24400329589844 C-75.01200103759766,78.06900024414062 -74.16699981689453,79.77899932861328 -73.01699829101562,81.2770004272461 C-71.86699676513672,82.7750015258789 -70.43199920654297,84.03199768066406 -68.7959976196289,84.97599792480469 C-68.7959976196289,84.97599792480469 -39.18899917602539,102.06999969482422 -39.18899917602539,102.06999969482422 C-37.553001403808594,103.01499938964844 -35.74700164794922,103.62899780273438 -33.874000549316406,103.8759994506836 C-32.000999450683594,104.12300109863281 -30.097999572753906,104 -28.273000717163086,103.51100158691406 C-26.447999954223633,103.02200317382812 -24.738000869750977,102.17900085449219 -23.23900032043457,101.02899932861328 C-21.739999771118164,99.87899780273438 -20.482999801635742,98.44499969482422 -19.538000106811523,96.80899810791016 C-19.538000106811523,96.80899810791016 -16.27899932861328,91.16500091552734 -16.27899932861328,91.16500091552734 C-5.510000228881836,93.08300018310547 5.514999866485596,93.0739974975586 16.2810001373291,91.13999938964844 C16.2810001373291,91.13999938964844 19.538000106811523,96.78700256347656 19.538000106811523,96.78700256347656 C21.44700050354004,100.09300231933594 24.590999603271484,102.50499725341797 28.277999877929688,103.49299621582031 C31.96500015258789,104.48100280761719 35.89400100708008,103.96399688720703 39.20000076293945,102.05500030517578 C39.20000076293945,102.05500030517578 68.80699920654297,84.96099853515625 68.80699920654297,84.96099853515625 C70.44300079345703,84.01599884033203 71.87699890136719,82.75700378417969 73.0270004272461,81.25700378417969 C74.177001953125,79.75700378417969 75.01899719238281,78.0469970703125 75.50700378417969,76.22100067138672 C75.99500274658203,74.3949966430664 76.11799621582031,72.49099731445312 75.87000274658203,70.61799621582031 C75.62200164794922,68.74500274658203 75.00700378417969,66.93900299072266 74.05999755859375,65.30400085449219 C74.05999755859375,65.30400085449219 70.81199645996094,59.67599868774414 70.81199645996094,59.67599868774414z"/></g></g><g mask="url(#__lottie_element_3868_1)" style="display: block;"><g transform="matrix(1,0,0,1,219.375,218.875)" opacity="1"><g opacity="1" transform="matrix(1,0,0,1,-153,-43.5)"><path class="primary" fill="rgb(222,91,167)" fill-opacity="1" d=" M91.93599700927734,-162 C91.93599700927734,-162 91.93599700927734,162 91.93599700927734,162 C91.93599700927734,162 -91.93599700927734,162 -91.93599700927734,162 C-91.93599700927734,162 -91.93599700927734,-162 -91.93599700927734,-162 C-91.93599700927734,-162 91.93599700927734,-162 91.93599700927734,-162z"/><path class="primary" fill="rgb(222,91,167)" fill-opacity="0.5" d=" M91.93599700927734,-162 C91.93599700927734,-162 91.93599700927734,162 91.93599700927734,162 C91.93599700927734,162 -91.93599700927734,162 -91.93599700927734,162 C-91.93599700927734,162 -91.93599700927734,-162 -91.93599700927734,-162 C-91.93599700927734,-162 91.93599700927734,-162 91.93599700927734,-162z" style="mix-blend-mode: multiply;"/></g></g></g><g transform="matrix(1,0,0,1,294.4519958496094,292.5)" opacity="1" style="display: block;"><g opacity="1" transform="matrix(1,0,0,1,0,0)"><path class="primary" fill="rgb(222,91,167)" fill-opacity="1" d=" M-0.4519999921321869,-35.5 C6.46999979019165,-35.5 13.237000465393066,-33.446998596191406 18.993000030517578,-29.60099983215332 C24.749000549316406,-25.7549991607666 29.235000610351562,-20.288999557495117 31.884000778198242,-13.894000053405762 C34.53300094604492,-7.499000072479248 35.22600173950195,-0.460999995470047 33.875999450683594,6.328000068664551 C32.5260009765625,13.116999626159668 29.191999435424805,19.354000091552734 24.297000885009766,24.249000549316406 C19.402000427246094,29.143999099731445 13.164999961853027,32.47700119018555 6.375999927520752,33.82699966430664 C-0.4129999876022339,35.176998138427734 -7.451000213623047,34.48500061035156 -13.845999717712402,31.836000442504883 C-20.240999221801758,29.187000274658203 -25.707000732421875,24.701000213623047 -29.55299949645996,18.94499969482422 C-33.39899826049805,13.189000129699707 -35.45199966430664,6.421999931335449 -35.45199966430664,-0.5 C-35.45100021362305,-9.781999588012695 -31.76300048828125,-18.68400001525879 -25.198999404907227,-25.24799919128418 C-18.635000228881836,-31.812000274658203 -9.734000205993652,-35.499000549316406 -0.4519999921321869,-35.5z M73.947998046875,14.914999961853027 C73.947998046875,14.914999961853027 69.64900207519531,12.432000160217285 69.64900207519531,12.432000160217285 C71.10399627685547,4.202000141143799 71.10399627685547,-4.21999979019165 69.64900207519531,-12.449999809265137 C69.64900207519531,-12.449999809265137 73.947998046875,-14.932999610900879 73.947998046875,-14.932999610900879 C75.1989974975586,-15.654000282287598 76.2959976196289,-16.61400032043457 77.1760025024414,-17.760000228881836 C78.05599975585938,-18.9060001373291 78.70099639892578,-20.21299934387207 79.07499694824219,-21.607999801635742 C79.4489974975586,-23.003000259399414 79.54299926757812,-24.458999633789062 79.35399627685547,-25.891000747680664 C79.16500091552734,-27.322999954223633 78.69499969482422,-28.702999114990234 77.97200012207031,-29.952999114990234 C77.97200012207031,-29.952999114990234 64.91300201416016,-52.582000732421875 64.91300201416016,-52.582000732421875 C63.45500183105469,-55.108001708984375 61.053001403808594,-56.95000076293945 58.236000061035156,-57.70500183105469 C55.41899871826172,-58.459999084472656 52.417999267578125,-58.064998626708984 49.891998291015625,-56.606998443603516 C49.891998291015625,-56.606998443603516 45.58000183105469,-54.1150016784668 45.58000183105469,-54.1150016784668 C39.19599914550781,-59.50699996948242 31.905000686645508,-63.7239990234375 24.047000885009766,-66.56900024414062 C24.047000885009766,-66.56900024414062 24.047000885009766,-71.51300048828125 24.047000885009766,-71.51300048828125 C24.047000885009766,-72.95600128173828 23.76300048828125,-74.38500213623047 23.211000442504883,-75.71800231933594 C22.659000396728516,-77.0510025024414 21.849000930786133,-78.26300048828125 20.827999114990234,-79.28299713134766 C19.80699920654297,-80.3030014038086 18.59600067138672,-81.11299896240234 17.261999130249023,-81.66500091552734 C15.928000450134277,-82.21700286865234 14.49899959564209,-82.5009994506836 13.055999755859375,-82.5 C13.055999755859375,-82.5 -13.059000015258789,-82.5 -13.059000015258789,-82.5 C-14.501999855041504,-82.5009994506836 -15.930999755859375,-82.21700286865234 -17.264999389648438,-81.66500091552734 C-18.599000930786133,-81.11299896240234 -19.809999465942383,-80.3030014038086 -20.83099937438965,-79.28299713134766 C-21.851999282836914,-78.26300048828125 -22.66200065612793,-77.0510025024414 -23.214000701904297,-75.71800231933594 C-23.766000747680664,-74.38500213623047 -24.049999237060547,-72.95600128173828 -24.049999237060547,-71.51300048828125 C-24.049999237060547,-71.51300048828125 -24.049999237060547,-66.5510025024414 -24.049999237060547,-66.5510025024414 C-31.908000946044922,-63.70600128173828 -39.19900131225586,-59.48899841308594 -45.58300018310547,-54.09700012207031 C-45.58300018310547,-54.09700012207031 -49.89500045776367,-56.5890007019043 -49.89500045776367,-56.5890007019043 C-52.42100143432617,-58.047000885009766 -55.422000885009766,-58.44200134277344 -58.23899841308594,-57.6870002746582 C-61.055999755859375,-56.93199920654297 -63.45800018310547,-55.09000015258789 -64.91600036621094,-52.56399917602539 C-64.91600036621094,-52.56399917602539 -77.9749984741211,-29.94499969482422 -77.9749984741211,-29.94499969482422 C-78.697998046875,-28.69499969482422 -79.16799926757812,-27.31399917602539 -79.35700225830078,-25.881999969482422 C-79.5459976196289,-24.450000762939453 -79.45099639892578,-22.9950008392334 -79.0770034790039,-21.600000381469727 C-78.7030029296875,-20.204999923706055 -78.05899810791016,-18.89699935913086 -77.17900085449219,-17.750999450683594 C-76.29900360107422,-16.604999542236328 -75.2020034790039,-15.645000457763672 -73.95099639892578,-14.923999786376953 C-73.95099639892578,-14.923999786376953 -69.6520004272461,-12.440999984741211 -69.6520004272461,-12.440999984741211 C-71.10700225830078,-4.210999965667725 -71.10700225830078,4.210999965667725 -69.6520004272461,12.440999984741211 C-69.6520004272461,12.440999984741211 -73.95099639892578,14.923999786376953 -73.95099639892578,14.923999786376953 C-75.2020034790039,15.645000457763672 -76.29900360107422,16.604999542236328 -77.17900085449219,17.750999450683594 C-78.05899810791016,18.89699935913086 -78.7030029296875,20.204999923706055 -79.0770034790039,21.600000381469727 C-79.45099639892578,22.9950008392334 -79.5459976196289,24.450000762939453 -79.35700225830078,25.881999969482422 C-79.16799926757812,27.31399917602539 -78.697998046875,28.69499969482422 -77.9749984741211,29.94499969482422 C-77.9749984741211,29.94499969482422 -64.91200256347656,52.56399917602539 -64.91200256347656,52.56399917602539 C-63.45399856567383,55.09000015258789 -61.051998138427734,56.93199920654297 -58.23500061035156,57.6870002746582 C-55.417999267578125,58.44200134277344 -52.41699981689453,58.047000885009766 -49.89099884033203,56.5890007019043 C-49.89099884033203,56.5890007019043 -45.57899856567383,54.09700012207031 -45.57899856567383,54.09700012207031 C-39.19499969482422,59.48899841308594 -31.90399932861328,63.70600128173828 -24.04599952697754,66.5510025024414 C-24.04599952697754,66.5510025024414 -24.04599952697754,71.51300048828125 -24.04599952697754,71.51300048828125 C-24.04599952697754,72.95600128173828 -23.76099967956543,74.38500213623047 -23.208999633789062,75.71800231933594 C-22.656999588012695,77.0510025024414 -21.847000122070312,78.26300048828125 -20.826000213623047,79.28299713134766 C-19.80500030517578,80.3030014038086 -18.5939998626709,81.11299896240234 -17.260000228881836,81.66500091552734 C-15.925999641418457,82.21700286865234 -14.496999740600586,82.5009994506836 -13.053999900817871,82.5 C-13.053999900817871,82.5 13.0649995803833,82.5 13.0649995803833,82.5 C14.508000373840332,82.5009994506836 15.937000274658203,82.21700286865234 17.270999908447266,81.66500091552734 C18.604999542236328,81.11299896240234 19.81599998474121,80.3030014038086 20.836999893188477,79.28299713134766 C21.857999801635742,78.26300048828125 22.667999267578125,77.0510025024414 23.219999313354492,75.71800231933594 C23.77199935913086,74.38500213623047 24.055999755859375,72.95600128173828 24.055999755859375,71.51300048828125 C24.055999755859375,71.51300048828125 24.055999755859375,66.53399658203125 24.055999755859375,66.53399658203125 C31.913999557495117,63.68899917602539 39.20500183105469,59.47200012207031 45.5890007019043,54.08000183105469 C45.5890007019043,54.08000183105469 49.9010009765625,56.57099914550781 49.9010009765625,56.57099914550781 C52.426998138427734,58.02899932861328 55.428001403808594,58.42499923706055 58.244998931884766,57.66999816894531 C61.0620002746582,56.915000915527344 63.4640007019043,55.073001861572266 64.9219970703125,52.547000885009766 C64.9219970703125,52.547000885009766 77.98100280761719,29.927000045776367 77.98100280761719,29.927000045776367 C78.7020034790039,28.677000045776367 79.16999816894531,27.29599952697754 79.35800170898438,25.864999771118164 C79.5459976196289,24.43400001525879 79.44999694824219,22.979000091552734 79.07499694824219,21.584999084472656 C78.69999694824219,20.19099998474121 78.05500030517578,18.885000228881836 77.17500305175781,17.739999771118164 C76.29499816894531,16.594999313354492 75.1989974975586,15.635000228881836 73.947998046875,14.914999961853027z"/></g></g><g mask="url(#__lottie_element_3878_1)" style="display: block;"><g transform="matrix(1,0,0,1,354,309.5)" opacity="1"><g opacity="1" transform="matrix(1,0,0,1,-126,-16)"><path class="primary" fill="rgb(222,91,167)" fill-opacity="1" d=" M66.96549987792969,-118 C66.96549987792969,-118 66.96549987792969,118 66.96549987792969,118 C66.96549987792969,118 -66.96549987792969,118 -66.96549987792969,118 C-66.96549987792969,118 -66.96549987792969,-118 -66.96549987792969,-118 C-66.96549987792969,-118 66.96549987792969,-118 66.96549987792969,-118z"/><path class="primary" fill="rgb(222,91,167)" fill-opacity="0.5" d=" M66.96549987792969,-118 C66.96549987792969,-118 66.96549987792969,118 66.96549987792969,118 C66.96549987792969,118 -66.96549987792969,118 -66.96549987792969,118 C-66.96549987792969,118 -66.96549987792969,-118 -66.96549987792969,-118 C-66.96549987792969,-118 66.96549987792969,-118 66.96549987792969,-118z" style="mix-blend-mode: multiply;"/></g></g></g></g></g></svg>